<?xml version="1.0" standalone="no"?>
<!DOCTYPE svg PUBLIC "-//W3C//DTD SVG 1.1//EN" "http://www.w3.org/Graphics/SVG/1.1/DTD/svg11.dtd" >
<svg>
<metadata>
Created by FontForge 20110222 at Wed Sep 17 13:20:51 2014
 By www-data
</metadata>
<defs>
<font id="flaticons-stroke" horiz-adv-x="512" >
  <font-face 
    font-family="flaticons-stroke"
    font-weight="400"
    font-stretch="normal"
    units-per-em="512"
    panose-1="2 0 5 3 0 0 0 0 0 0"
    ascent="480"
    descent="-32"
    bbox="-65.7692 -98.1739 576.769 544.083"
    underline-thickness="0"
    underline-position="0"
    unicode-range="U+E3E8-F000"
  />
<missing-glyph 
 />
    <glyph glyph-name=".notdef" 
 />
    <glyph glyph-name=".notdef" 
 />
    <glyph glyph-name=".null" horiz-adv-x="0" 
 />
    <glyph glyph-name="nonmarkingreturn" horiz-adv-x="170" 
 />
    <glyph glyph-name="uniE3E8" unicode="&#xe3e8;" 
d="M32 -32h64q13 0 22.5 9.5t9.5 22.5v64q0 13 -9.5 22.5t-22.5 9.5h-64q-13 0 -22.5 -9.5t-9.5 -22.5v-64q0 -13 9.5 -22.5t22.5 -9.5zM224 -32h64q13 0 22.5 9.5t9.5 22.5v64q0 13 -9.5 22.5t-22.5 9.5h-64q-13 0 -22.5 -9.5t-9.5 -22.5v-64q0 -13 9.5 -22.5t22.5 -9.5z
M416 -32h64q13 0 22.5 9.5t9.5 22.5v64q0 13 -9.5 22.5t-22.5 9.5h-64q-13 0 -22.5 -9.5t-9.5 -22.5v-64q0 -13 9.5 -22.5t22.5 -9.5zM32 352h64q13 0 22.5 9.5t9.5 22.5v64q0 13 -9.5 22.5t-22.5 9.5h-64q-13 0 -22.5 -9.5t-9.5 -22.5v-64q0 -13 9.5 -22.5t22.5 -9.5z
M224 352h64q13 0 22.5 9.5t9.5 22.5v64q0 13 -9.5 22.5t-22.5 9.5h-64q-13 0 -22.5 -9.5t-9.5 -22.5v-64q0 -13 9.5 -22.5t22.5 -9.5zM384 448v-64q0 -13 9.5 -22.5t22.5 -9.5h64q13 0 22.5 9.5t9.5 22.5v64q0 13 -9.5 22.5t-22.5 9.5h-64q-13 0 -22.5 -9.5t-9.5 -22.5z
M32 160h64q13 0 22.5 9.5t9.5 22.5v64q0 13 -9.5 22.5t-22.5 9.5h-64q-13 0 -22.5 -9.5t-9.5 -22.5v-64q0 -13 9.5 -22.5t22.5 -9.5zM224 160h64q13 0 22.5 9.5t9.5 22.5v64q0 13 -9.5 22.5t-22.5 9.5h-64q-13 0 -22.5 -9.5t-9.5 -22.5v-64q0 -13 9.5 -22.5t22.5 -9.5z
M416 160h64q13 0 22.5 9.5t9.5 22.5v64q0 13 -9.5 22.5t-22.5 9.5h-64q-13 0 -22.5 -9.5t-9.5 -22.5v-64q0 -13 9.5 -22.5t22.5 -9.5z" />
    <glyph glyph-name="uniE3E9" unicode="&#xe3e9;" 
d="M0 448v-160q0 -13 9.5 -22.5t22.5 -9.5h160q13 0 22.5 9.5t9.5 22.5v160q0 13 -9.5 22.5t-22.5 9.5h-160q-13 0 -22.5 -9.5t-9.5 -22.5zM160 320h-96v96h96v-96zM32 192q-13 0 -22.5 -9.5t-9.5 -22.5v-160q0 -13 9.5 -22.5t22.5 -9.5h160q13 0 22.5 9.5t9.5 22.5v160
q0 13 -9.5 22.5t-22.5 9.5h-160zM160 32h-96v96h96v-96zM320 192q-13 0 -22.5 -9.5t-9.5 -22.5v-160q0 -13 9.5 -22.5t22.5 -9.5h160q13 0 22.5 9.5t9.5 22.5v160q0 13 -9.5 22.5t-22.5 9.5h-160zM448 32h-96v96h96v-96zM320 480q-13 0 -22.5 -9.5t-9.5 -22.5v-160
q0 -13 9.5 -22.5t22.5 -9.5h160q13 0 22.5 9.5t9.5 22.5v160q0 13 -9.5 22.5t-22.5 9.5h-160zM448 320h-96v96h96v-96z" />
    <glyph glyph-name="uniE3EA" unicode="&#xe3ea;" 
d="M480 480h-448q-13 0 -22.5 -9.5t-9.5 -22.5v-448q0 -13 9.5 -22.5t22.5 -9.5h448q13 0 22.5 9.5t9.5 22.5v448q0 13 -9.5 22.5t-22.5 9.5zM448 32h-384v384h384v-384zM320 352h64v-64h-64v64zM224 352h64v-64h-64v64zM128 352h64v-64h-64v64zM128 256h64v-64h-64v64z
M224 256h64v-64h-64v64zM320 256h64v-64h-64v64zM320 160h64v-64h-64v64zM224 160h64v-64h-64v64zM128 160h64v-64h-64v64z" />
    <glyph glyph-name="uniE3EB" unicode="&#xe3eb;" 
d="M480 480h-448q-13 0 -22.5 -9.5t-9.5 -22.5v-448q0 -13 9.5 -22.5t22.5 -9.5h448q13 0 22.5 9.5t9.5 22.5v448q0 13 -9.5 22.5t-22.5 9.5zM448 32h-384v384h384v-384zM208 352h-64q-7 0 -11.5 -4.5t-4.5 -11.5v-64q0 -7 4.5 -11.5t11.5 -4.5h64q7 0 11.5 4.5t4.5 11.5v64
q0 7 -4.5 11.5t-11.5 4.5zM368 352h-64q-7 0 -11.5 -4.5t-4.5 -11.5v-64q0 -7 4.5 -11.5t11.5 -4.5h64q7 0 11.5 4.5t4.5 11.5v64q0 7 -4.5 11.5t-11.5 4.5zM208 192h-64q-7 0 -11.5 -4.5t-4.5 -11.5v-64q0 -7 4.5 -11.5t11.5 -4.5h64q7 0 11.5 4.5t4.5 11.5v64
q0 7 -4.5 11.5t-11.5 4.5zM368 192h-64q-7 0 -11.5 -4.5t-4.5 -11.5v-64q0 -7 4.5 -11.5t11.5 -4.5h64q7 0 11.5 4.5t4.5 11.5v64q0 7 -4.5 11.5t-11.5 4.5z" />
    <glyph glyph-name="uniE3EC" unicode="&#xe3ec;" 
d="M480 480h-352q-13 0 -22.5 -9.5t-9.5 -22.5v-64h-64q-13 0 -22.5 -9.5t-9.5 -22.5v-352q0 -13 9.5 -22.5t22.5 -9.5h352q13 0 22.5 9.5t9.5 22.5v64h64q13 0 22.5 9.5t9.5 22.5v352q0 13 -9.5 22.5t-22.5 9.5zM352 32h-288v288h288v-288zM448 128h-32v224q0 13 -9.5 22.5
t-22.5 9.5h-224v32h288v-288zM240 96h32q7 0 11.5 4.5t4.5 11.5v32q0 7 -4.5 11.5t-11.5 4.5h-32q-7 0 -11.5 -4.5t-4.5 -11.5v-32q0 -7 4.5 -11.5t11.5 -4.5zM144 96h32q7 0 11.5 4.5t4.5 11.5v32q0 7 -4.5 11.5t-11.5 4.5h-32q-7 0 -11.5 -4.5t-4.5 -11.5v-32
q0 -7 4.5 -11.5t11.5 -4.5zM240 192h32q7 0 11.5 4.5t4.5 11.5v32q0 7 -4.5 11.5t-11.5 4.5h-32q-7 0 -11.5 -4.5t-4.5 -11.5v-32q0 -7 4.5 -11.5t11.5 -4.5zM144 192h32q7 0 11.5 4.5t4.5 11.5v32q0 7 -4.5 11.5t-11.5 4.5h-32q-7 0 -11.5 -4.5t-4.5 -11.5v-32
q0 -7 4.5 -11.5t11.5 -4.5z" />
    <glyph glyph-name="uniE3ED" unicode="&#xe3ed;" 
d="M480 480h-320q-13 0 -22.5 -9.5t-9.5 -22.5v-96h-96q-13 0 -22.5 -9.5t-9.5 -22.5v-320q0 -13 9.5 -22.5t22.5 -9.5h320q13 0 22.5 9.5t9.5 22.5v96h96q13 0 22.5 9.5t9.5 22.5v320q0 13 -9.5 22.5t-22.5 9.5zM320 32h-256v256h64v-160q0 -13 9.5 -22.5t22.5 -9.5h160
v-64zM448 160h-256v256h256v-256z" />
    <glyph glyph-name="uniE3EE" unicode="&#xe3ee;" 
d="M480 480h-320q-13 0 -22.5 -9.5t-9.5 -22.5v-96h-96q-13 0 -22.5 -9.5t-9.5 -22.5v-320q0 -13 9.5 -22.5t22.5 -9.5h320q13 0 22.5 9.5t9.5 22.5v96h96q13 0 22.5 9.5t9.5 22.5v320q0 13 -9.5 22.5t-22.5 9.5zM320 32h-256v256h256v-256zM448 160h-64v160q0 13 -9.5 22.5
t-22.5 9.5h-160v64h256v-256zM112 128h48v-48q0 -7 4.5 -11.5t11.5 -4.5h32q7 0 11.5 4.5t4.5 11.5v48h48q7 0 11.5 4.5t4.5 11.5v32q0 7 -4.5 11.5t-11.5 4.5h-48v48q0 7 -4.5 11.5t-11.5 4.5h-32q-7 0 -11.5 -4.5t-4.5 -11.5v-48h-48q-7 0 -11.5 -4.5t-4.5 -11.5v-32
q0 -7 4.5 -11.5t11.5 -4.5z" />
    <glyph glyph-name="uniE3EF" unicode="&#xe3ef;" 
d="M480 480h-448q-13 0 -22.5 -9.5t-9.5 -22.5v-448q0 -13 9.5 -22.5t22.5 -9.5h448q13 0 22.5 9.5t9.5 22.5v448q0 13 -9.5 22.5t-22.5 9.5zM64 416h64v-64h-64v64zM448 32h-384v256h384v-256zM448 352h-256v64h256v-64z" />
    <glyph glyph-name="uniE3F0" unicode="&#xe3f0;" 
d="M480 480h-448q-13 0 -22.5 -9.5t-9.5 -22.5v-448q0 -13 9.5 -22.5t22.5 -9.5h448q13 0 22.5 9.5t9.5 22.5v448q0 13 -9.5 22.5t-22.5 9.5zM64 416h64v-64h-64v64zM448 32h-384v256h384v-256zM448 352h-256v64h256v-64zM176 192h160q7 0 11.5 -4.5t4.5 -11.5v-32
q0 -7 -4.5 -11.5t-11.5 -4.5h-160q-7 0 -11.5 4.5t-4.5 11.5v32q0 7 4.5 11.5t11.5 4.5z" />
    <glyph glyph-name="uniE3F1" unicode="&#xe3f1;" 
d="M480 480h-448q-13 0 -22.5 -9.5t-9.5 -22.5v-448q0 -13 9.5 -22.5t22.5 -9.5h448q13 0 22.5 9.5t9.5 22.5v448q0 13 -9.5 22.5t-22.5 9.5zM64 416h64v-64h-64v64zM448 32h-384v256h384v-256zM448 352h-256v64h256v-64zM176 128h48v-48q0 -7 4.5 -11.5t11.5 -4.5h32
q7 0 11.5 4.5t4.5 11.5v48h48q7 0 11.5 4.5t4.5 11.5v32q0 7 -4.5 11.5t-11.5 4.5h-48v48q0 7 -4.5 11.5t-11.5 4.5h-32q-7 0 -11.5 -4.5t-4.5 -11.5v-48h-48q-7 0 -11.5 -4.5t-4.5 -11.5v-32q0 -7 4.5 -11.5t11.5 -4.5z" />
    <glyph glyph-name="uniE3F2" unicode="&#xe3f2;" 
d="M165 91l22 -22q12 -11 23 0l46 46l46 -46q11 -12 23 0l22 22q12 12 0 23l-46 46l46 46q12 11 0 23l-22 22q-12 12 -23 0l-46 -46l-46 46q-11 11 -23 0l-22 -22q-12 -12 0 -23l46 -46l-46 -46q-12 -11 0 -23zM480 480h-448q-13 0 -22.5 -9.5t-9.5 -22.5v-448
q0 -13 9.5 -22.5t22.5 -9.5h448q13 0 22.5 9.5t9.5 22.5v448q0 13 -9.5 22.5t-22.5 9.5zM64 416h64v-64h-64v64zM448 32h-384v256h384v-256zM448 352h-256v64h256v-64z" />
    <glyph glyph-name="uniE3F3" unicode="&#xe3f3;" 
d="M480 480h-448q-13 0 -22.5 -9.5t-9.5 -22.5v-448q0 -13 9.5 -22.5t22.5 -9.5h448q13 0 22.5 9.5t9.5 22.5v448q0 13 -9.5 22.5t-22.5 9.5zM80 448h32q7 0 11.5 -4.5t4.5 -11.5v-32q0 -7 -4.5 -11.5t-11.5 -4.5h-32q-7 0 -11.5 4.5t-4.5 11.5v32q0 7 4.5 11.5t11.5 4.5z
M448 32h-384v320h384v-320z" />
    <glyph glyph-name="uniE3F4" unicode="&#xe3f4;" 
d="M480 480h-448q-13 0 -22.5 -9.5t-9.5 -22.5v-448q0 -13 9.5 -22.5t22.5 -9.5h448q13 0 22.5 9.5t9.5 22.5v448q0 13 -9.5 22.5t-22.5 9.5zM80 448h32q7 0 11.5 -4.5t4.5 -11.5v-32q0 -7 -4.5 -11.5t-11.5 -4.5h-32q-7 0 -11.5 4.5t-4.5 11.5v32q0 7 4.5 11.5t11.5 4.5z
M448 32h-384v320h384v-320zM176 160h160q7 0 11.5 4.5t4.5 11.5v32q0 7 -4.5 11.5t-11.5 4.5h-160q-7 0 -11.5 -4.5t-4.5 -11.5v-32q0 -7 4.5 -11.5t11.5 -4.5z" />
    <glyph glyph-name="uniE3F5" unicode="&#xe3f5;" 
d="M480 480h-448q-13 0 -22.5 -9.5t-9.5 -22.5v-448q0 -13 9.5 -22.5t22.5 -9.5h448q13 0 22.5 9.5t9.5 22.5v448q0 13 -9.5 22.5t-22.5 9.5zM64 432q0 7 4.5 11.5t11.5 4.5h32q7 0 11.5 -4.5t4.5 -11.5v-32q0 -7 -4.5 -11.5t-11.5 -4.5h-32q-7 0 -11.5 4.5t-4.5 11.5v32z
M448 32h-384v320h384v-320zM176 160h48v-48q0 -7 4.5 -11.5t11.5 -4.5h32q7 0 11.5 4.5t4.5 11.5v48h48q7 0 11.5 4.5t4.5 11.5v32q0 7 -4.5 11.5t-11.5 4.5h-48v48q0 7 -4.5 11.5t-11.5 4.5h-32q-7 0 -11.5 -4.5t-4.5 -11.5v-48h-48q-7 0 -11.5 -4.5t-4.5 -11.5v-32
q0 -7 4.5 -11.5t11.5 -4.5z" />
    <glyph glyph-name="uniE3F6" unicode="&#xe3f6;" 
d="M480 480h-448q-13 0 -22.5 -9.5t-9.5 -22.5v-448q0 -13 9.5 -22.5t22.5 -9.5h448q13 0 22.5 9.5t9.5 22.5v448q0 13 -9.5 22.5t-22.5 9.5zM64 432q0 7 4.5 11.5t11.5 4.5h32q7 0 11.5 -4.5t4.5 -11.5v-32q0 -7 -4.5 -11.5t-11.5 -4.5h-32q-7 0 -11.5 4.5t-4.5 11.5v32z
M448 32h-384v320h384v-320zM165 123l22 -22q12 -11 23 0l46 46l46 -46q11 -12 23 0l22 22q12 12 0 23l-46 46l46 46q12 11 0 23l-22 22q-12 12 -23 0l-46 -46l-46 46q-11 11 -23 0l-22 -22q-12 -12 0 -23l46 -46l-46 -46q-12 -11 0 -23z" />
    <glyph glyph-name="uniE3F7" unicode="&#xe3f7;" 
d="M480 480h-320q-13 0 -22.5 -9.5t-9.5 -22.5v-96h-96q-13 0 -22.5 -9.5t-9.5 -22.5v-320q0 -13 9.5 -22.5t22.5 -9.5h320q13 0 22.5 9.5t9.5 22.5v96h96q13 0 22.5 9.5t9.5 22.5v320q0 13 -9.5 22.5t-22.5 9.5zM64 304q0 7 4.5 11.5t11.5 4.5h32q7 0 11.5 -4.5t4.5 -11.5
v-32q0 -7 -4.5 -11.5t-11.5 -4.5h-32q-7 0 -11.5 4.5t-4.5 11.5v32zM320 32h-256v192h256v-192zM448 160h-64v160q0 13 -9.5 22.5t-22.5 9.5h-160v64h256v-256z" />
    <glyph glyph-name="uniE3F8" unicode="&#xe3f8;" 
d="M480 480h-448q-13 0 -22.5 -9.5t-9.5 -22.5v-448q0 -13 9.5 -22.5t22.5 -9.5h448q13 0 22.5 9.5t9.5 22.5v448q0 13 -9.5 22.5t-22.5 9.5zM272 448h32q7 0 11.5 -4.5t4.5 -11.5v-32q0 -7 -4.5 -11.5t-11.5 -4.5h-32q-7 0 -11.5 4.5t-4.5 11.5v32q0 7 4.5 11.5t11.5 4.5z
M176 448h32q7 0 11.5 -4.5t4.5 -11.5v-32q0 -7 -4.5 -11.5t-11.5 -4.5h-32q-7 0 -11.5 4.5t-4.5 11.5v32q0 7 4.5 11.5t11.5 4.5zM80 448h32q7 0 11.5 -4.5t4.5 -11.5v-32q0 -7 -4.5 -11.5t-11.5 -4.5h-32q-7 0 -11.5 4.5t-4.5 11.5v32q0 7 4.5 11.5t11.5 4.5zM448 32h-384
v320h384v-320z" />
    <glyph glyph-name="uniE3F9" unicode="&#xe3f9;" 
d="M480 480h-448q-13 0 -22.5 -9.5t-9.5 -22.5v-448q0 -13 9.5 -22.5t22.5 -9.5h448q13 0 22.5 9.5t9.5 22.5v448q0 13 -9.5 22.5t-22.5 9.5zM256 432q0 7 4.5 11.5t11.5 4.5h32q7 0 11.5 -4.5t4.5 -11.5v-32q0 -7 -4.5 -11.5t-11.5 -4.5h-32q-7 0 -11.5 4.5t-4.5 11.5v32z
M160 432q0 7 4.5 11.5t11.5 4.5h32q7 0 11.5 -4.5t4.5 -11.5v-32q0 -7 -4.5 -11.5t-11.5 -4.5h-32q-7 0 -11.5 4.5t-4.5 11.5v32zM64 432q0 7 4.5 11.5t11.5 4.5h32q7 0 11.5 -4.5t4.5 -11.5v-32q0 -7 -4.5 -11.5t-11.5 -4.5h-32q-7 0 -11.5 4.5t-4.5 11.5v32zM448 32h-384
v320h384v-320zM176 160h160q7 0 11.5 4.5t4.5 11.5v32q0 7 -4.5 11.5t-11.5 4.5h-160q-7 0 -11.5 -4.5t-4.5 -11.5v-32q0 -7 4.5 -11.5t11.5 -4.5z" />
    <glyph glyph-name="uniE3FA" unicode="&#xe3fa;" 
d="M480 480h-448q-13 0 -22.5 -9.5t-9.5 -22.5v-448q0 -13 9.5 -22.5t22.5 -9.5h448q13 0 22.5 9.5t9.5 22.5v448q0 13 -9.5 22.5t-22.5 9.5zM256 432q0 7 4.5 11.5t11.5 4.5h32q7 0 11.5 -4.5t4.5 -11.5v-32q0 -7 -4.5 -11.5t-11.5 -4.5h-32q-7 0 -11.5 4.5t-4.5 11.5v32z
M160 432q0 7 4.5 11.5t11.5 4.5h32q7 0 11.5 -4.5t4.5 -11.5v-32q0 -7 -4.5 -11.5t-11.5 -4.5h-32q-7 0 -11.5 4.5t-4.5 11.5v32zM64 432q0 7 4.5 11.5t11.5 4.5h32q7 0 11.5 -4.5t4.5 -11.5v-32q0 -7 -4.5 -11.5t-11.5 -4.5h-32q-7 0 -11.5 4.5t-4.5 11.5v32zM448 32h-384
v320h384v-320zM176 160h48v-48q0 -7 4.5 -11.5t11.5 -4.5h32q7 0 11.5 4.5t4.5 11.5v48h48q7 0 11.5 4.5t4.5 11.5v32q0 7 -4.5 11.5t-11.5 4.5h-48v48q0 7 -4.5 11.5t-11.5 4.5h-32q-7 0 -11.5 -4.5t-4.5 -11.5v-48h-48q-7 0 -11.5 -4.5t-4.5 -11.5v-32q0 -7 4.5 -11.5
t11.5 -4.5z" />
    <glyph glyph-name="uniE3FB" unicode="&#xe3fb;" 
d="M480 480h-448q-13 0 -22.5 -9.5t-9.5 -22.5v-448q0 -13 9.5 -22.5t22.5 -9.5h448q13 0 22.5 9.5t9.5 22.5v448q0 13 -9.5 22.5t-22.5 9.5zM272 448h32q7 0 11.5 -4.5t4.5 -11.5v-32q0 -7 -4.5 -11.5t-11.5 -4.5h-32q-7 0 -11.5 4.5t-4.5 11.5v32q0 7 4.5 11.5t11.5 4.5z
M176 448h32q7 0 11.5 -4.5t4.5 -11.5v-32q0 -7 -4.5 -11.5t-11.5 -4.5h-32q-7 0 -11.5 4.5t-4.5 11.5v32q0 7 4.5 11.5t11.5 4.5zM80 448h32q7 0 11.5 -4.5t4.5 -11.5v-32q0 -7 -4.5 -11.5t-11.5 -4.5h-32q-7 0 -11.5 4.5t-4.5 11.5v32q0 7 4.5 11.5t11.5 4.5zM448 32h-384
v320h384v-320zM165 123l22 -22q12 -11 23 0l46 46l46 -46q11 -12 23 0l22 22q12 12 0 23l-46 46l46 46q12 11 0 23l-22 22q-12 12 -23 0l-46 -46l-46 46q-11 11 -23 0l-22 -22q-12 -12 0 -23l46 -46l-46 -46q-12 -11 0 -23z" />
    <glyph glyph-name="uniE3FC" unicode="&#xe3fc;" 
d="M480 416h-256v32q0 13 -9.5 22.5t-22.5 9.5h-160q-13 0 -22.5 -9.5t-9.5 -22.5v-448q0 -13 9.5 -22.5t22.5 -9.5h448q13 0 22.5 9.5t9.5 22.5v384q0 13 -9.5 22.5t-22.5 9.5zM448 32h-384v384h96v-48q0 -7 4.5 -11.5t11.5 -4.5h272v-320z" />
    <glyph glyph-name="uniE3FD" unicode="&#xe3fd;" 
d="M160 208v-32q0 -7 4.5 -11.5t11.5 -4.5h48v-48q0 -7 4.5 -11.5t11.5 -4.5h32q7 0 11.5 4.5t4.5 11.5v48h48q7 0 11.5 4.5t4.5 11.5v32q0 7 -4.5 11.5t-11.5 4.5h-48v48q0 7 -4.5 11.5t-11.5 4.5h-32q-7 0 -11.5 -4.5t-4.5 -11.5v-48h-48q-7 0 -11.5 -4.5t-4.5 -11.5z
M480 416h-256v32q0 13 -9.5 22.5t-22.5 9.5h-160q-13 0 -22.5 -9.5t-9.5 -22.5v-448q0 -13 9.5 -22.5t22.5 -9.5h448q13 0 22.5 9.5t9.5 22.5v384q0 13 -9.5 22.5t-22.5 9.5zM448 32h-384v384h96v-48q0 -7 4.5 -11.5t11.5 -4.5h272v-320z" />
    <glyph glyph-name="uniE3FE" unicode="&#xe3fe;" 
d="M160 208v-32q0 -7 4.5 -11.5t11.5 -4.5h160q7 0 11.5 4.5t4.5 11.5v32q0 7 -4.5 11.5t-11.5 4.5h-160q-7 0 -11.5 -4.5t-4.5 -11.5zM480 416h-256v32q0 13 -9.5 22.5t-22.5 9.5h-160q-13 0 -22.5 -9.5t-9.5 -22.5v-448q0 -13 9.5 -22.5t22.5 -9.5h448q13 0 22.5 9.5
t9.5 22.5v384q0 13 -9.5 22.5t-22.5 9.5zM448 32h-384v384h96v-48q0 -7 4.5 -11.5t11.5 -4.5h272v-320z" />
    <glyph glyph-name="uniE3FF" unicode="&#xe3ff;" 
d="M480 416h-256v32q0 13 -9.5 22.5t-22.5 9.5h-160q-13 0 -22.5 -9.5t-9.5 -22.5v-448q0 -13 9.5 -22.5t22.5 -9.5h448q13 0 22.5 9.5t9.5 22.5v384q0 13 -9.5 22.5t-22.5 9.5zM448 32h-384v384h96v-48q0 -7 4.5 -11.5t11.5 -4.5h272v-320zM170 192h54v-80q0 -7 4.5 -11.5
t11.5 -4.5h32q7 0 11.5 4.5t4.5 11.5v80h54q7 0 9.5 5t-2.5 11l-83 106q-4 6 -10 6t-10 -6l-83 -106q-5 -6 -2.5 -11t9.5 -5z" />
    <glyph glyph-name="uniE400" unicode="&#xe400;" 
d="M480 416h-256v32q0 13 -9.5 22.5t-22.5 9.5h-160q-13 0 -22.5 -9.5t-9.5 -22.5v-448q0 -13 9.5 -22.5t22.5 -9.5h448q13 0 22.5 9.5t9.5 22.5v384q0 13 -9.5 22.5t-22.5 9.5zM448 32h-384v384h96v-48q0 -7 4.5 -11.5t11.5 -4.5h272v-320zM163 208l83 -106q4 -6 10 -6
t10 6l83 106q5 6 2.5 11t-9.5 5h-54v80q0 7 -4.5 11.5t-11.5 4.5h-32q-7 0 -11.5 -4.5t-4.5 -11.5v-80h-54q-7 0 -9.5 -5t2.5 -11z" />
    <glyph glyph-name="uniE401" unicode="&#xe401;" 
d="M480 416h-256v32q0 13 -9.5 22.5t-22.5 9.5h-160q-13 0 -22.5 -9.5t-9.5 -22.5v-448q0 -13 9.5 -22.5t22.5 -9.5h448q13 0 22.5 9.5t9.5 22.5v384q0 13 -9.5 22.5t-22.5 9.5zM448 192v-96v-64h-384v64v160h384v-64zM448 320h-384v96h96v-48q0 -7 4.5 -11.5t11.5 -4.5h272
v-32z" />
    <glyph glyph-name="uniE402" unicode="&#xe402;" 
d="M480 416h-256v32q0 13 -9.5 22.5t-22.5 9.5h-160q-13 0 -22.5 -9.5t-9.5 -22.5v-160v-192v-96q0 -13 9.5 -22.5t22.5 -9.5h448q13 0 22.5 9.5t9.5 22.5v96v128v160q0 13 -9.5 22.5t-22.5 9.5zM448 32h-384v64v160h96v-48q0 -7 4.5 -11.5t11.5 -4.5h48h224v-96v-64z
M224 256v32q0 13 -9.5 22.5t-22.5 9.5h-128v96h96v-48q0 -7 4.5 -11.5t11.5 -4.5h48h224v-96h-224z" />
    <glyph glyph-name="uniE403" unicode="&#xe403;" 
d="M480 256h-256v29q0 14 -8 24.5t-21 10.5h-131v96h96v-48q0 -6 6 -11t13 -5h90q7 0 13 5t6 11v32q0 6 -6 11t-13 5h-45v29q0 14 -8 24.5t-21 10.5h-163q-13 0 -22.5 -11t-9.5 -24v-160v-189v-102q0 -26 32 -26h448q32 0 32 26v227q0 13 -9.5 24t-22.5 11zM448 96v-64h-384
v64v160h96v-51q0 -13 19 -13h16h16h189h48v-96zM496 416h-48v48q0 7 -4.5 11.5t-11.5 4.5h-32q-7 0 -11.5 -4.5t-4.5 -11.5v-48h-48q-7 0 -11.5 -4.5t-4.5 -11.5v-32q0 -7 4.5 -11.5t11.5 -4.5h48v-48q0 -7 4.5 -11.5t11.5 -4.5h32q7 0 11.5 4.5t4.5 11.5v48h48
q7 0 11.5 4.5t4.5 11.5v32q0 7 -4.5 11.5t-11.5 4.5z" />
    <glyph glyph-name="uniE404" unicode="&#xe404;" 
d="M32 448v-448q0 -13 9.5 -22.5t22.5 -9.5h384q13 0 22.5 9.5t9.5 22.5v336q0 16 -11 27l-106 106q-11 11 -27 11h-272q-13 0 -22.5 -9.5t-9.5 -22.5zM96 32v384h192v-112q0 -7 4.5 -11.5t11.5 -4.5h112v-256h-320z" />
    <glyph glyph-name="uniE405" unicode="&#xe405;" 
d="M128 -32h320q13 0 22.5 9.5t9.5 22.5v448q0 13 -9.5 22.5t-22.5 9.5h-384q-13 0 -22.5 -9.5t-9.5 -22.5v-384zM416 416v-384h-224v80q0 7 -4.5 11.5t-11.5 4.5h-80v288h320zM144 224h224q7 0 11.5 4.5t4.5 11.5v32q0 7 -4.5 11.5t-11.5 4.5h-224q-7 0 -11.5 -4.5
t-4.5 -11.5v-32q0 -7 4.5 -11.5t11.5 -4.5zM144 320h224q7 0 11.5 4.5t4.5 11.5v32q0 7 -4.5 11.5t-11.5 4.5h-224q-7 0 -11.5 -4.5t-4.5 -11.5v-32q0 -7 4.5 -11.5t11.5 -4.5z" />
    <glyph glyph-name="uniE406" unicode="&#xe406;" 
d="M368 480h-304q-13 0 -22.5 -9.5t-9.5 -22.5v-448q0 -13 9.5 -22.5t22.5 -9.5h384q13 0 22.5 9.5t9.5 22.5v368q0 16 -11 27l-74 74q-11 11 -27 11zM96 32v384h224v-80q0 -7 4.5 -11.5t11.5 -4.5h80v-288h-320zM368 288h-224q-7 0 -11.5 -4.5t-4.5 -11.5v-32
q0 -7 4.5 -11.5t11.5 -4.5h224q7 0 11.5 4.5t4.5 11.5v32q0 7 -4.5 11.5t-11.5 4.5zM272 384h-128q-7 0 -11.5 -4.5t-4.5 -11.5v-32q0 -7 4.5 -11.5t11.5 -4.5h128q7 0 11.5 4.5t4.5 11.5v32q0 7 -4.5 11.5t-11.5 4.5zM368 192h-224q-7 0 -11.5 -4.5t-4.5 -11.5v-32
q0 -7 4.5 -11.5t11.5 -4.5h224q7 0 11.5 4.5t4.5 11.5v32q0 7 -4.5 11.5t-11.5 4.5z" />
    <glyph glyph-name="uniE407" unicode="&#xe407;" 
d="M368 480h-304q-13 0 -22.5 -9.5t-9.5 -22.5v-448q0 -13 9.5 -22.5t22.5 -9.5h384q13 0 22.5 9.5t9.5 22.5v368q0 16 -11 27l-74 74q-11 11 -27 11zM96 32v384h224v-80q0 -7 4.5 -11.5t11.5 -4.5h80v-288h-320zM272 384h-128q-7 0 -11.5 -4.5t-4.5 -11.5v-32
q0 -7 4.5 -11.5t11.5 -4.5h128q7 0 11.5 4.5t4.5 11.5v32q0 7 -4.5 11.5t-11.5 4.5zM144 256h224q7 0 11.5 4.5t4.5 11.5t-4.5 11.5t-11.5 4.5h-224q-7 0 -11.5 -4.5t-4.5 -11.5t4.5 -11.5t11.5 -4.5zM144 192h224q7 0 11.5 4.5t4.5 11.5t-4.5 11.5t-11.5 4.5h-224
q-7 0 -11.5 -4.5t-4.5 -11.5t4.5 -11.5t11.5 -4.5zM144 128h224q7 0 11.5 4.5t4.5 11.5t-4.5 11.5t-11.5 4.5h-224q-7 0 -11.5 -4.5t-4.5 -11.5t4.5 -11.5t11.5 -4.5zM144 64h224q7 0 11.5 4.5t4.5 11.5t-4.5 11.5t-11.5 4.5h-224q-7 0 -11.5 -4.5t-4.5 -11.5t4.5 -11.5
t11.5 -4.5z" />
    <glyph glyph-name="uniE408" unicode="&#xe408;" 
d="M336 480h-144q-13 0 -22.5 -9.5t-9.5 -22.5v-64h-96q-13 0 -22.5 -9.5t-9.5 -22.5v-352q0 -13 9.5 -22.5t22.5 -9.5h288q13 0 22.5 9.5t9.5 22.5v64h64q13 0 22.5 9.5t9.5 22.5v240q0 16 -11 27l-106 106q-11 11 -27 11zM320 32h-224v288h64v-224q0 -13 9.5 -22.5
t22.5 -9.5h128v-32zM224 128v288h96v-80q0 -7 4.5 -11.5t11.5 -4.5h80v-192h-192z" />
    <glyph glyph-name="uniE409" unicode="&#xe409;" 
d="M469 363l-106 106q-11 11 -27 11h-272q-13 0 -22.5 -9.5t-9.5 -22.5v-448q0 -13 9.5 -22.5t22.5 -9.5h384q13 0 22.5 9.5t9.5 22.5v336q0 16 -11 27zM416 32h-320v384h192v-112q0 -7 4.5 -11.5t11.5 -4.5h112v-256zM160 176v-32q0 -7 4.5 -11.5t11.5 -4.5h160
q7 0 11.5 4.5t4.5 11.5v32q0 7 -4.5 11.5t-11.5 4.5h-160q-7 0 -11.5 -4.5t-4.5 -11.5z" />
    <glyph glyph-name="uniE40A" unicode="&#xe40a;" 
d="M469 363l-106 106q-11 11 -27 11h-272q-13 0 -22.5 -9.5t-9.5 -22.5v-448q0 -13 9.5 -22.5t22.5 -9.5h384q13 0 22.5 9.5t9.5 22.5v336q0 16 -11 27zM416 32h-320v384h192v-112q0 -7 4.5 -11.5t11.5 -4.5h112v-256zM288 240q0 7 -4.5 11.5t-11.5 4.5h-32q-7 0 -11.5 -4.5
t-4.5 -11.5v-48h-48q-7 0 -11.5 -4.5t-4.5 -11.5v-32q0 -7 4.5 -11.5t11.5 -4.5h48v-48q0 -7 4.5 -11.5t11.5 -4.5h32q7 0 11.5 4.5t4.5 11.5v48h48q7 0 11.5 4.5t4.5 11.5v32q0 7 -4.5 11.5t-11.5 4.5h-48v48z" />
    <glyph glyph-name="uniE40B" unicode="&#xe40b;" 
d="M469 363l-106 106q-11 11 -27 11h-272q-13 0 -22.5 -9.5t-9.5 -22.5v-448q0 -13 9.5 -22.5t22.5 -9.5h384q13 0 22.5 9.5t9.5 22.5v336q0 16 -11 27zM416 32h-320v384h192v-112q0 -7 4.5 -11.5t11.5 -4.5h112v-256zM256 205l-46 46q-11 11 -23 0l-22 -22q-12 -12 0 -23
l46 -46l-46 -46q-12 -11 0 -23l22 -22q12 -11 23 0l46 46l46 -46q11 -12 23 0l22 22q12 12 0 23l-46 46l46 46q12 11 0 23l-22 22q-12 12 -23 0z" />
    <glyph glyph-name="uniE40C" unicode="&#xe40c;" 
d="M469 363l-106 106q-11 11 -27 11h-272q-13 0 -22.5 -9.5t-9.5 -22.5v-448q0 -13 9.5 -22.5t22.5 -9.5h384q13 0 22.5 9.5t9.5 22.5v336q0 16 -11 27zM416 32h-320v384h192v-112q0 -7 4.5 -11.5t11.5 -4.5h112v-256zM214 282l-83 -106q-5 -6 -2.5 -11t9.5 -5h54v-80
q0 -7 4.5 -11.5t11.5 -4.5h32q7 0 11.5 4.5t4.5 11.5v80h54q7 0 9.5 5t-2.5 11l-83 106q-4 6 -10 6t-10 -6z" />
    <glyph glyph-name="uniE40D" unicode="&#xe40d;" 
d="M469 363l-106 106q-11 11 -27 11h-272q-13 0 -22.5 -9.5t-9.5 -22.5v-448q0 -13 9.5 -22.5t22.5 -9.5h384q13 0 22.5 9.5t9.5 22.5v336q0 16 -11 27zM416 32h-320v384h192v-112q0 -7 4.5 -11.5t11.5 -4.5h112v-256zM256 272q0 7 -4.5 11.5t-11.5 4.5h-32q-7 0 -11.5 -4.5
t-4.5 -11.5v-80h-54q-7 0 -9 -5t2 -11l83 -106q4 -6 10 -6t10 6l83 106q5 6 2.5 11t-9.5 5h-54v80z" />
    <glyph glyph-name="uniE40E" unicode="&#xe40e;" 
d="M469 363l-106 106q-11 11 -27 11h-272q-13 0 -22.5 -9.5t-9.5 -22.5v-144q0 -7 4.5 -11.5t11.5 -4.5h32q7 0 11.5 4.5t4.5 11.5v112h192v-112q0 -7 4.5 -11.5t11.5 -4.5h112v-256h-320v48q0 7 -4.5 11.5t-11.5 4.5h-32q-7 0 -11.5 -4.5t-4.5 -11.5v-80q0 -13 9.5 -22.5
t22.5 -9.5h384q13 0 22.5 9.5t9.5 22.5v336q0 16 -11 27zM48 160h112v-54q0 -7 5 -9.5t11 2.5l106 83q6 4 6 10t-6 10l-106 83q-6 5 -11 2.5t-5 -9.5v-54h-112q-7 0 -11.5 -4.5t-4.5 -11.5v-32q0 -7 4.5 -11.5t11.5 -4.5z" />
    <glyph glyph-name="uniE40F" unicode="&#xe40f;" 
d="M469 363l-106 106q-11 11 -27 11h-272q-13 0 -22.5 -9.5t-9.5 -22.5v-144q0 -7 4.5 -11.5t11.5 -4.5h32q7 0 11.5 4.5t4.5 11.5v112h192v-112q0 -7 4.5 -11.5t11.5 -4.5h112v-256h-320v48q0 7 -4.5 11.5t-11.5 4.5h-32q-7 0 -11.5 -4.5t-4.5 -11.5v-80q0 -13 9.5 -22.5
t22.5 -9.5h384q13 0 22.5 9.5t9.5 22.5v336q0 16 -11 27zM144 285l-106 -83q-6 -4 -6 -10t6 -10l106 -83q6 -5 11 -2.5t5 9.5v54h112q7 0 11.5 4.5t4.5 11.5v32q0 7 -4.5 11.5t-11.5 4.5h-112v54q0 7 -5 9.5t-11 -2.5z" />
    <glyph glyph-name="uniE410" unicode="&#xe410;" 
d="M448 448h-96q0 8 -10 20t-22 12h-128q-12 0 -22 -12t-10 -20h-96q-13 0 -22.5 -9.5t-9.5 -22.5v-416q0 -13 9.5 -22.5t22.5 -9.5h384q13 0 22.5 9.5t9.5 22.5v416q0 13 -9.5 22.5t-22.5 9.5zM416 32h-320v352h64q0 -13 9.5 -22.5t22.5 -9.5h128q13 0 22.5 9.5t9.5 22.5
h64v-352z" />
    <glyph glyph-name="uniE411" unicode="&#xe411;" 
d="M448 448h-96q0 8 -10 20t-22 12h-128q-12 0 -22 -12t-10 -20h-96q-13 0 -22.5 -9.5t-9.5 -22.5v-416q0 -13 9.5 -22.5t22.5 -9.5h384q13 0 22.5 9.5t9.5 22.5v416q0 13 -9.5 22.5t-22.5 9.5zM416 32h-320v352h64q0 -13 9.5 -22.5t22.5 -9.5h128q13 0 22.5 9.5t9.5 22.5
h64v-352zM336 288h-160q-7 0 -11.5 -4.5t-4.5 -11.5v-32q0 -7 4.5 -11.5t11.5 -4.5h160q7 0 11.5 4.5t4.5 11.5v32q0 7 -4.5 11.5t-11.5 4.5zM336 192h-160q-7 0 -11.5 -4.5t-4.5 -11.5v-32q0 -7 4.5 -11.5t11.5 -4.5h160q7 0 11.5 4.5t4.5 11.5v32q0 7 -4.5 11.5t-11.5 4.5
z" />
    <glyph glyph-name="uniE412" unicode="&#xe412;" 
d="M128 304v-32q0 -7 4.5 -11.5t11.5 -4.5h224q7 0 11.5 4.5t4.5 11.5v32q0 7 -4.5 11.5t-11.5 4.5h-224q-7 0 -11.5 -4.5t-4.5 -11.5zM368 224h-224q-7 0 -11.5 -4.5t-4.5 -11.5v-32q0 -7 4.5 -11.5t11.5 -4.5h224q7 0 11.5 4.5t4.5 11.5v32q0 7 -4.5 11.5t-11.5 4.5z
M368 128h-224q-7 0 -11.5 -4.5t-4.5 -11.5v-32q0 -7 4.5 -11.5t11.5 -4.5h224q7 0 11.5 4.5t4.5 11.5v32q0 7 -4.5 11.5t-11.5 4.5zM448 448h-96q0 8 -10 20t-22 12h-128q-12 0 -22 -12t-10 -20h-96q-13 0 -22.5 -9.5t-9.5 -22.5v-416q0 -13 9.5 -22.5t22.5 -9.5h384
q13 0 22.5 9.5t9.5 22.5v416q0 13 -9.5 22.5t-22.5 9.5zM416 32h-320v352h64q0 -13 9.5 -22.5t22.5 -9.5h128q13 0 22.5 9.5t9.5 22.5h64v-352z" />
    <glyph glyph-name="uniE413" unicode="&#xe413;" 
d="M192 480q-12 0 -22 -12t-10 -20h-96q-13 0 -22.5 -9.5t-9.5 -22.5v-416q0 -13 9.5 -22.5t22.5 -9.5h384q13 0 22.5 9.5t9.5 22.5v416q0 13 -9.5 22.5t-22.5 9.5h-96q0 8 -10 20t-22 12h-128zM224 416h64v-32h-64v32zM96 32v352h64v-32q0 -13 9.5 -22.5t22.5 -9.5h128
q13 0 22.5 9.5t9.5 22.5v32h64v-352h-320z" />
    <glyph glyph-name="uniE414" unicode="&#xe414;" 
d="M448 448h-96q0 8 -10 20t-22 12h-128q-12 0 -22 -12t-10 -20h-96q-13 0 -22.5 -9.5t-9.5 -22.5v-416q0 -13 9.5 -22.5t22.5 -9.5h384q13 0 22.5 9.5t9.5 22.5v416q0 13 -9.5 22.5t-22.5 9.5zM224 416h64v-32h-64v32zM416 32h-320v352h64v-32q0 -13 9.5 -22.5t22.5 -9.5
h128q13 0 22.5 9.5t9.5 22.5v32h64v-352zM336 224h-160q-7 0 -11.5 -4.5t-4.5 -11.5v-32q0 -7 4.5 -11.5t11.5 -4.5h160q7 0 11.5 4.5t4.5 11.5v32q0 7 -4.5 11.5t-11.5 4.5z" />
    <glyph glyph-name="uniE415" unicode="&#xe415;" 
d="M448 448h-96q0 8 -10 20t-22 12h-128q-12 0 -22 -12t-10 -20h-96q-13 0 -22.5 -9.5t-9.5 -22.5v-416q0 -13 9.5 -22.5t22.5 -9.5h384q13 0 22.5 9.5t9.5 22.5v416q0 13 -9.5 22.5t-22.5 9.5zM224 416h64v-32h-64v32zM416 32h-320v352h64v-32q0 -13 9.5 -22.5t22.5 -9.5
h128q13 0 22.5 9.5t9.5 22.5v32h64v-352zM272 288h-32q-7 0 -11.5 -4.5t-4.5 -11.5v-48h-48q-7 0 -11.5 -4.5t-4.5 -11.5v-32q0 -7 4.5 -11.5t11.5 -4.5h48v-48q0 -7 4.5 -11.5t11.5 -4.5h32q7 0 11.5 4.5t4.5 11.5v48h48q7 0 11.5 4.5t4.5 11.5v32q0 7 -4.5 11.5t-11.5 4.5
h-48v48q0 7 -4.5 11.5t-11.5 4.5z" />
    <glyph glyph-name="uniE416" unicode="&#xe416;" 
d="M448 448h-96q0 8 -10 20t-22 12h-128q-12 0 -22 -12t-10 -20h-96q-13 0 -22.5 -9.5t-9.5 -22.5v-416q0 -13 9.5 -22.5t22.5 -9.5h384q13 0 22.5 9.5t9.5 22.5v416q0 13 -9.5 22.5t-22.5 9.5zM224 416h64v-32h-64v32zM416 32h-320v352h64v-32q0 -13 9.5 -22.5t22.5 -9.5
h128q13 0 22.5 9.5t9.5 22.5v32h64v-352zM246 70q4 -6 10 -6t10 6l83 106q5 6 2.5 11t-9.5 5h-54v80q0 7 -4.5 11.5t-11.5 4.5h-32q-7 0 -11.5 -4.5t-4.5 -11.5v-80h-54q-7 0 -9 -5t2 -11z" />
    <glyph glyph-name="uniE417" unicode="&#xe417;" 
d="M128 272q0 -7 4.5 -11.5t11.5 -4.5h224q7 0 11.5 4.5t4.5 11.5t-4.5 11.5t-11.5 4.5h-224q-7 0 -11.5 -4.5t-4.5 -11.5zM144 192h160q7 0 11.5 4.5t4.5 11.5t-4.5 11.5t-11.5 4.5h-160q-7 0 -11.5 -4.5t-4.5 -11.5t4.5 -11.5t11.5 -4.5zM368 160h-224q-7 0 -11.5 -4.5
t-4.5 -11.5t4.5 -11.5t11.5 -4.5h224q7 0 11.5 4.5t4.5 11.5t-4.5 11.5t-11.5 4.5zM304 96h-160q-7 0 -11.5 -4.5t-4.5 -11.5t4.5 -11.5t11.5 -4.5h160q7 0 11.5 4.5t4.5 11.5t-4.5 11.5t-11.5 4.5zM448 448h-96q0 8 -10 20t-22 12h-128q-12 0 -22 -12t-10 -20h-96
q-13 0 -22.5 -9.5t-9.5 -22.5v-416q0 -13 9.5 -22.5t22.5 -9.5h384q13 0 22.5 9.5t9.5 22.5v416q0 13 -9.5 22.5t-22.5 9.5zM224 416h64v-32h-64v32zM416 32h-320v352h64v-32q0 -13 9.5 -22.5t22.5 -9.5h128q13 0 22.5 9.5t9.5 22.5v32h64v-352z" />
    <glyph glyph-name="uniE418" unicode="&#xe418;" 
d="M448 448h-96q0 8 -10 20t-22 12h-128q-12 0 -22 -12t-10 -20h-96q-13 0 -22.5 -9.5t-9.5 -22.5v-416q0 -13 9.5 -22.5t22.5 -9.5h384q13 0 22.5 9.5t9.5 22.5v416q0 13 -9.5 22.5t-22.5 9.5zM224 416h64v-32h-64v32zM416 32h-320v352h64v-32q0 -13 9.5 -22.5t22.5 -9.5
h128q13 0 22.5 9.5t9.5 22.5v32h64v-352zM336 256h-160q-7 0 -11.5 -4.5t-4.5 -11.5v-32q0 -7 4.5 -11.5t11.5 -4.5h160q7 0 11.5 4.5t4.5 11.5v32q0 7 -4.5 11.5t-11.5 4.5zM336 160h-160q-7 0 -11.5 -4.5t-4.5 -11.5v-32q0 -7 4.5 -11.5t11.5 -4.5h160q7 0 11.5 4.5
t4.5 11.5v32q0 7 -4.5 11.5t-11.5 4.5z" />
    <glyph glyph-name="uniE419" unicode="&#xe419;" 
d="M256 -32q-13 0 -23 9l-86 87h-115q-13 0 -22.5 9.5t-9.5 22.5v352q0 13 9.5 22.5t22.5 9.5h448q13 0 22.5 -9.5t9.5 -22.5v-352q0 -13 -9.5 -22.5t-22.5 -9.5h-115l-86 -87q-10 -9 -23 -9zM64 128h96q13 0 23 -9l73 -74l73 74q10 9 23 9h96v288h-384v-288z" />
    <glyph glyph-name="uniE41A" unicode="&#xe41a;" 
d="M336 256h32q7 0 11.5 4.5t4.5 11.5v32q0 7 -4.5 11.5t-11.5 4.5h-32q-7 0 -11.5 -4.5t-4.5 -11.5v-32q0 -7 4.5 -11.5t11.5 -4.5zM240 256h32q7 0 11.5 4.5t4.5 11.5v32q0 7 -4.5 11.5t-11.5 4.5h-32q-7 0 -11.5 -4.5t-4.5 -11.5v-32q0 -7 4.5 -11.5t11.5 -4.5zM144 256
h32q7 0 11.5 4.5t4.5 11.5v32q0 7 -4.5 11.5t-11.5 4.5h-32q-7 0 -11.5 -4.5t-4.5 -11.5v-32q0 -7 4.5 -11.5t11.5 -4.5zM480 480h-448q-13 0 -22.5 -9.5t-9.5 -22.5v-352q0 -13 9.5 -22.5t22.5 -9.5h115l86 -87q10 -9 23 -9t23 9l86 87h115q13 0 22.5 9.5t9.5 22.5v352
q0 13 -9.5 22.5t-22.5 9.5zM448 128h-96q-13 0 -23 -9l-73 -74l-73 74q-10 9 -23 9h-96v288h384v-288z" />
    <glyph glyph-name="uniE41B" unicode="&#xe41b;" 
d="M336 352h-224q-7 0 -11.5 -4.5t-4.5 -11.5v-32q0 -7 4.5 -11.5t11.5 -4.5h224q7 0 11.5 4.5t4.5 11.5v32q0 7 -4.5 11.5t-11.5 4.5zM240 256h-128q-7 0 -11.5 -4.5t-4.5 -11.5v-32q0 -7 4.5 -11.5t11.5 -4.5h128q7 0 11.5 4.5t4.5 11.5v32q0 7 -4.5 11.5t-11.5 4.5z
M480 480h-448q-13 0 -22.5 -9.5t-9.5 -22.5v-352q0 -13 9.5 -22.5t22.5 -9.5h115l86 -87q10 -9 23 -9t23 9l86 87h115q13 0 22.5 9.5t9.5 22.5v352q0 13 -9.5 22.5t-22.5 9.5zM448 128h-96q-13 0 -23 -9l-73 -74l-73 74q-10 9 -23 9h-96v288h384v-288z" />
    <glyph glyph-name="uniE41C" unicode="&#xe41c;" 
d="M368 352h-224q-7 0 -11.5 -4.5t-4.5 -11.5v-32q0 -7 4.5 -11.5t11.5 -4.5h224q7 0 11.5 4.5t4.5 11.5v32q0 7 -4.5 11.5t-11.5 4.5zM368 256h-224q-7 0 -11.5 -4.5t-4.5 -11.5v-32q0 -7 4.5 -11.5t11.5 -4.5h224q7 0 11.5 4.5t4.5 11.5v32q0 7 -4.5 11.5t-11.5 4.5z
M480 480h-448q-13 0 -22.5 -9.5t-9.5 -22.5v-352q0 -13 9.5 -22.5t22.5 -9.5h115l86 -87q10 -9 23 -9t23 9l86 87h115q13 0 22.5 9.5t9.5 22.5v352q0 13 -9.5 22.5t-22.5 9.5zM448 128h-96q-13 0 -23 -9l-73 -74l-73 74q-10 9 -23 9h-96v288h384v-288z" />
    <glyph glyph-name="uniE41D" unicode="&#xe41d;" 
d="M128 -32h-32q-13 0 -22.5 9.5t-9.5 22.5v64h-32q-13 0 -22.5 9.5t-9.5 22.5v352q0 13 9.5 22.5t22.5 9.5h448q13 0 22.5 -9.5t9.5 -22.5v-352q0 -13 -9.5 -22.5t-22.5 -9.5h-183l-153 -91q-7 -5 -16 -5zM64 128h32q13 0 22.5 -9.5t9.5 -22.5v-59l144 86q7 5 16 5h160v288
h-384v-288z" />
    <glyph glyph-name="uniE41E" unicode="&#xe41e;" 
d="M336 256h32q7 0 11.5 4.5t4.5 11.5v32q0 7 -4.5 11.5t-11.5 4.5h-32q-7 0 -11.5 -4.5t-4.5 -11.5v-32q0 -7 4.5 -11.5t11.5 -4.5zM240 256h32q7 0 11.5 4.5t4.5 11.5v32q0 7 -4.5 11.5t-11.5 4.5h-32q-7 0 -11.5 -4.5t-4.5 -11.5v-32q0 -7 4.5 -11.5t11.5 -4.5zM144 256
h32q7 0 11.5 4.5t4.5 11.5v32q0 7 -4.5 11.5t-11.5 4.5h-32q-7 0 -11.5 -4.5t-4.5 -11.5v-32q0 -7 4.5 -11.5t11.5 -4.5zM480 480h-448q-13 0 -22.5 -9.5t-9.5 -22.5v-352q0 -13 9.5 -22.5t22.5 -9.5h32v-64q0 -13 9.5 -22.5t22.5 -9.5h32q9 0 16 5l153 91h183
q13 0 22.5 9.5t9.5 22.5v352q0 13 -9.5 22.5t-22.5 9.5zM448 128h-160q-9 0 -16 -5l-144 -86v59q0 13 -9.5 22.5t-22.5 9.5h-32v288h384v-288z" />
    <glyph glyph-name="uniE41F" unicode="&#xe41f;" 
d="M144 288h224q7 0 11.5 4.5t4.5 11.5v32q0 7 -4.5 11.5t-11.5 4.5h-224q-7 0 -11.5 -4.5t-4.5 -11.5v-32q0 -7 4.5 -11.5t11.5 -4.5zM144 192h128q7 0 11.5 4.5t4.5 11.5v32q0 7 -4.5 11.5t-11.5 4.5h-128q-7 0 -11.5 -4.5t-4.5 -11.5v-32q0 -7 4.5 -11.5t11.5 -4.5z
M480 480h-448q-13 0 -22.5 -9.5t-9.5 -22.5v-352q0 -13 9.5 -22.5t22.5 -9.5h32v-64q0 -13 9.5 -22.5t22.5 -9.5h32q9 0 16 5l153 91h183q13 0 22.5 9.5t9.5 22.5v352q0 13 -9.5 22.5t-22.5 9.5zM448 128h-160q-9 0 -16 -5l-144 -86v59q0 13 -9.5 22.5t-22.5 9.5h-32v288
h384v-288z" />
    <glyph glyph-name="uniE420" unicode="&#xe420;" 
d="M144 288h224q7 0 11.5 4.5t4.5 11.5v32q0 7 -4.5 11.5t-11.5 4.5h-224q-7 0 -11.5 -4.5t-4.5 -11.5v-32q0 -7 4.5 -11.5t11.5 -4.5zM144 192h224q7 0 11.5 4.5t4.5 11.5v32q0 7 -4.5 11.5t-11.5 4.5h-224q-7 0 -11.5 -4.5t-4.5 -11.5v-32q0 -7 4.5 -11.5t11.5 -4.5z
M480 480h-448q-13 0 -22.5 -9.5t-9.5 -22.5v-352q0 -13 9.5 -22.5t22.5 -9.5h32v-64q0 -13 9.5 -22.5t22.5 -9.5h32q9 0 16 5l153 91h183q13 0 22.5 9.5t9.5 22.5v352q0 13 -9.5 22.5t-22.5 9.5zM448 128h-160q-9 0 -16 -5l-144 -86v59q0 13 -9.5 22.5t-22.5 9.5h-32v288
h384v-288z" />
    <glyph glyph-name="uniE421" unicode="&#xe421;" 
d="M32 384q-13 0 -22.5 -9.5t-9.5 -22.5v-288q0 -13 9.5 -22.5t22.5 -9.5h128l84 -55q13 -9 29 -9h63q7 0 11.5 4.5t4.5 11.5v48h32q13 0 22.5 9.5t9.5 22.5v288q0 13 -9.5 22.5t-22.5 9.5h-352zM352 96h-64v-64l-96 64h-128v224h288v-224zM128 480q-13 0 -22.5 -9.5
t-9.5 -22.5v-32h64h272q7 0 11.5 -4.5t4.5 -11.5v-208v-64h32q13 0 22.5 9.5t9.5 22.5v288q0 13 -9.5 22.5t-22.5 9.5h-352z" />
    <glyph glyph-name="uniE422" unicode="&#xe422;" 
d="M384 384h-352q-13 0 -22.5 -9.5t-9.5 -22.5v-288q0 -13 9.5 -22.5t22.5 -9.5h128l84 -55q13 -9 29 -9h63q7 0 11.5 4.5t4.5 11.5v48h32q13 0 22.5 9.5t9.5 22.5v288q0 13 -9.5 22.5t-22.5 9.5zM352 96h-64v-64l-96 64h-128v224h288v-224zM480 480h-352q-13 0 -22.5 -9.5
t-9.5 -22.5v-32h64h272q7 0 11.5 -4.5t4.5 -11.5v-208v-64h32q13 0 22.5 9.5t9.5 22.5v288q0 13 -9.5 22.5t-22.5 9.5zM112 224h192q7 0 11.5 4.5t4.5 11.5v32q0 7 -4.5 11.5t-11.5 4.5h-192q-7 0 -11.5 -4.5t-4.5 -11.5v-32q0 -7 4.5 -11.5t11.5 -4.5zM112 128h192
q7 0 11.5 4.5t4.5 11.5v32q0 7 -4.5 11.5t-11.5 4.5h-192q-7 0 -11.5 -4.5t-4.5 -11.5v-32q0 -7 4.5 -11.5t11.5 -4.5z" />
    <glyph glyph-name="uniE423" unicode="&#xe423;" 
d="M32 352q-13 0 -22.5 -9.5t-9.5 -22.5v-256q0 -13 9.5 -22.5t22.5 -9.5h96l84 -55q13 -9 29 -9h63q7 0 11.5 4.5t4.5 11.5v48h32q13 0 22.5 9.5t9.5 22.5v256q0 13 -9.5 22.5t-22.5 9.5h-320zM320 96h-64v-64l-96 64h-96v192h256v-192zM160 480q-13 0 -22.5 -9.5
t-9.5 -22.5v-64h64v32h240q7 0 11.5 -4.5t4.5 -11.5v-176h-32v-64h32h32q13 0 22.5 9.5t9.5 22.5v256q0 13 -9.5 22.5t-22.5 9.5h-320z" />
    <glyph glyph-name="uniE424" unicode="&#xe424;" 
d="M416 288v32q0 66 -47 113t-113 47t-113 -47t-47 -113v-32q-13 0 -22.5 -9.5t-9.5 -22.5v-256q0 -13 9.5 -22.5t22.5 -9.5h320q13 0 22.5 9.5t9.5 22.5v256q0 13 -9.5 22.5t-22.5 9.5zM256 416q40 0 68 -28t28 -68v-32h-192v32q0 40 28 68t68 28zM384 32h-256v192h256
v-192z" />
    <glyph glyph-name="uniE425" unicode="&#xe425;" 
d="M320 288h-160v32q0 40 28 68t68 28q31 0 56 -18t35 -47q4 -13 14 -22t23 -9q14 0 22.5 9.5t6.5 22.5q-11 55 -55 91.5t-102 36.5q-66 0 -113 -47t-47 -113v-32q-13 0 -22.5 -9.5t-9.5 -22.5v-256q0 -13 9.5 -22.5t22.5 -9.5h320q13 0 22.5 9.5t9.5 22.5v256
q0 13 -9.5 22.5t-22.5 9.5h-96zM384 32h-256v192h256v-192z" />
    <glyph glyph-name="uniE426" unicode="&#xe426;" 
d="M416 288v32q0 66 -47 113t-113 47t-113 -47t-47 -113v-32q-13 0 -22.5 -9.5t-9.5 -22.5v-256q0 -13 9.5 -22.5t22.5 -9.5h320q13 0 22.5 9.5t9.5 22.5v256q0 13 -9.5 22.5t-22.5 9.5zM160 320q0 40 28 68t68 28t68 -28t28 -68v-32h-32h-128h-32v32zM384 32h-256v192h256
v-192zM240 64h32q7 0 11.5 4.5t4.5 11.5v80q0 13 -9.5 22.5t-22.5 9.5t-22.5 -9.5t-9.5 -22.5v-80q0 -7 4.5 -11.5t11.5 -4.5z" />
    <glyph glyph-name="uniE427" unicode="&#xe427;" 
d="M448 288h-32v32q0 66 -47 113t-113 47t-113 -47t-47 -113v-32h-32q-13 0 -22.5 -11t-9.5 -24v-253q0 -13 9.5 -22.5t22.5 -9.5h384q13 0 22.5 9.5t9.5 22.5v253q0 13 -9.5 24t-22.5 11zM256 416q40 0 68 -28t28 -68v-32h-32h-128h-32v32q0 40 28 68t68 28zM416 32h-320
v192h320v-192z" />
    <glyph glyph-name="uniE428" unicode="&#xe428;" 
d="M160 288v32q0 40 28 68t68 28q31 0 56 -18t35 -47q4 -13 14 -22t23 -9q14 0 22.5 9.5t6.5 22.5q-11 55 -55 91.5t-102 36.5q-66 0 -113 -47t-47 -113v-32h-32q-13 0 -22.5 -11t-9.5 -24v-253q0 -13 9.5 -22.5t22.5 -9.5h384q13 0 22.5 9.5t9.5 22.5v253q0 13 -9.5 24
t-22.5 11h-288zM416 32h-320v192h320v-192z" />
    <glyph glyph-name="uniE429" unicode="&#xe429;" 
d="M0 320q0 -66 47 -113t113 -47q8 0 18 1l14 -14v-67q0 -7 4.5 -11.5t11.5 -4.5h48v-48q0 -7 4.5 -11.5t11.5 -4.5h48v-16q0 -7 4.5 -11.5t11.5 -4.5h160q7 0 11.5 4.5t4.5 11.5v109q0 16 -11 28l-182 178q1 10 1 21q0 66 -47 113t-113 47t-113 -47t-47 -113zM448 32h-64
v32h-64v64h-64v45l-57 57l-17 -3q-12 -3 -22 -3q-40 0 -68 28t-28 68t28 68t68 28t68 -28t28 -68q0 -13 -3 -22l-5 -19l200 -196v-51zM96 336q0 -20 14 -34t34 -14t34 14t14 34t-14 34t-34 14t-34 -14t-14 -34z" />
    <glyph glyph-name="uniE42A" unicode="&#xe42a;" 
d="M514 235l-73 74q-12 11 -28 11h-189v32q0 13 -9.5 22.5t-22.5 9.5h-192q-13 0 -22.5 -9.5t-9.5 -22.5v-260q0 -13 9 -20.5t23 -7.5h192q13 0 22.5 9.5t9.5 22.5v32h19l34 -34q11 -11 22 0l34 34h6l34 -34q11 -11 22 0l119 119q11 11 0 22zM384 173l-19 19h-58l-19 -19
l-19 19h-109v-64h-128v192h128v-64h243l32 -32zM112 288h-32q-7 0 -11.5 -4.5t-4.5 -11.5v-96q0 -7 4.5 -11.5t11.5 -4.5h32q7 0 11.5 4.5t4.5 11.5v96q0 7 -4.5 11.5t-11.5 4.5z" />
    <glyph glyph-name="uniE42B" unicode="&#xe42b;" 
d="M480 182q0 79 -45 141t-116 83q1 7 1 10q0 27 -18.5 45.5t-45.5 18.5t-45.5 -18.5t-18.5 -45.5q0 -3 1 -10q-71 -21 -116 -83t-45 -141v-86h-16q-7 0 -11.5 -4.5t-4.5 -11.5v-32q0 -7 4.5 -11.5t11.5 -4.5h176q0 -27 18.5 -45.5t45.5 -18.5t45.5 18.5t18.5 45.5h176
q7 0 11.5 4.5t4.5 11.5v32q0 7 -4.5 11.5t-11.5 4.5h-16v86zM96 96v86q0 70 47 120t113 50t113 -50t47 -120v-86h-320z" />
    <glyph glyph-name="uniE42C" unicode="&#xe42c;" 
d="M480 182q0 79 -45 140.5t-115 83.5v10q0 27 -18.5 45.5t-45.5 18.5t-45.5 -18.5t-18.5 -45.5v-10q-70 -22 -115 -83.5t-45 -140.5v-54h-16q-7 0 -11.5 -4.5t-4.5 -11.5v-32q0 -7 4.5 -11.5t11.5 -4.5h144q0 -40 28 -68t68 -28t68 28t28 68h144q7 0 11.5 4.5t4.5 11.5v32
q0 7 -4.5 11.5t-11.5 4.5h-16v54zM272 32h-32q-7 0 -11.5 4.5t-4.5 11.5v16h64v-16q0 -7 -4.5 -11.5t-11.5 -4.5zM96 128v54q0 70 47 120t113 50t113 -50t47 -120v-54h-320z" />
    <glyph glyph-name="uniE42D" unicode="&#xe42d;" 
d="M288 382v34h16q7 0 11.5 4.5t4.5 11.5v16q0 13 -9.5 22.5t-22.5 9.5h-64q-13 0 -22.5 -9.5t-9.5 -22.5v-16q0 -7 4.5 -11.5t11.5 -4.5h16v-34q-99 -13 -161.5 -70.5t-62.5 -151.5v-32q0 -13 9.5 -22.5t22.5 -9.5h192v-64h-192q-13 0 -22.5 -9.5t-9.5 -22.5v-16
q0 -7 4.5 -11.5t11.5 -4.5h480q7 0 11.5 4.5t4.5 11.5v16q0 13 -9.5 22.5t-22.5 9.5h-192v64h192q13 0 22.5 9.5t9.5 22.5v32q0 94 -62.5 151.5t-161.5 70.5zM256 320q83 0 137.5 -42t54.5 -118h-384q0 76 54.5 118t137.5 42z" />
    <glyph glyph-name="uniE42E" unicode="&#xe42e;" 
d="M480 352h-64v96q0 13 -9.5 22.5t-22.5 9.5h-256q-13 0 -22.5 -9.5t-9.5 -22.5v-96h-64q-13 0 -22.5 -9.5t-9.5 -22.5v-256q0 -13 9.5 -22.5t22.5 -9.5h64v-32q0 -13 9.5 -22.5t22.5 -9.5h256q13 0 22.5 9.5t9.5 22.5v32h64q13 0 22.5 9.5t9.5 22.5v256q0 13 -9.5 22.5
t-22.5 9.5zM160 416h192v-64h-192v64zM352 32h-192v64h192v-64zM448 96h-32v64h-320v-64h-32v192h384v-192zM256 256h64v-64h-64v64zM352 256h64v-64h-64v64z" />
    <glyph glyph-name="uniE42F" unicode="&#xe42f;" 
d="M32 448v-448q0 -13 9.5 -22.5t22.5 -9.5h384q13 0 22.5 9.5t9.5 22.5v448q0 13 -9.5 22.5t-22.5 9.5h-384q-13 0 -22.5 -9.5t-9.5 -22.5zM416 32h-320v224h320v-224zM96 320v96h320v-96h-320zM128 224h64v-64h-64v64zM224 224h64v-64h-64v64zM320 224h64v-64h-64v64z
M128 128h64v-64h-64v64zM224 128h64v-64h-64v64zM320 128h64v-64h-64v64z" />
    <glyph glyph-name="uniE430" unicode="&#xe430;" 
d="M448 289q0 70 -51 114.5t-125 44.5q-71 0 -123.5 -45t-52.5 -114q-53 0 -90.5 -38t-37.5 -91t37.5 -90.5t90.5 -37.5h320q53 0 90 37.5t37 90.5q0 45 -27 81.5t-68 47.5zM96 96q-25 0 -44.5 19t-19.5 45t19 45t45 19h48q7 0 11.5 4.5t4.5 11.5v49q0 36 25 61q34 34 87 34
q45 0 78.5 -24.5t33.5 -70.5v-49q0 -7 4.5 -11.5t11.5 -4.5h16q24 0 44 -20t20 -44q0 -25 -19 -44.5t-45 -19.5h-320z" />
    <glyph glyph-name="uniE431" unicode="&#xe431;" 
d="M448 257q0 70 -51 114.5t-125 44.5q-71 0 -123.5 -45t-52.5 -114q-53 0 -90 -38q-38 -37 -38 -91q0 -53 37.5 -90.5t90.5 -37.5h80q7 0 11.5 5t4.5 12v32q0 6 -4.5 10.5t-11.5 4.5h-80q-25 0 -44.5 19t-19.5 45t19 45t45 19h48q7 0 11.5 5t4.5 12v48q0 36 25 61
q34 34 87 34q45 0 78.5 -24.5t33.5 -70.5v-48q0 -7 4.5 -12t11.5 -5h16q24 0 44 -20t20 -44q0 -25 -19 -44.5t-45 -19.5h-80q-7 0 -11.5 -4.5t-4.5 -10.5v-32q0 -7 4.5 -12t11.5 -5h80q53 0 90 37.5t37 90.5q0 45 -27 81.5t-68 47.5zM349 144l-83 107q-4 5 -10 5.5t-10 -5.5
l-83 -107q-5 -5 -2.5 -10.5t9.5 -5.5h54v-79q0 -7 4.5 -12t11.5 -5h32q7 0 11.5 5t4.5 12v79h54q7 0 9.5 5.5t-2.5 10.5z" />
    <glyph glyph-name="uniE432" unicode="&#xe432;" 
d="M448 257q0 70 -51 114.5t-125 44.5q-71 0 -123.5 -45t-52.5 -114q-53 0 -90 -38q-38 -37 -38 -91q0 -53 37.5 -90.5t90.5 -37.5h81q7 0 9 4t-2 9l-30 38q-9 13 -25 13h-33q-25 0 -44.5 19t-19.5 45q0 16 7 30q18 34 57 34h47q7 0 12 5t5 12v48q0 18 5 32q7 16 20 29
q34 34 87 34q45 0 78.5 -24.5t33.5 -70.5v-48q0 -7 4.5 -12t10.5 -5h17q16 0 31.5 -9.5t24 -24.5t8.5 -30q0 -24 -19 -44t-45 -20h-34q-16 0 -26 -12l-29 -39q-4 -5 -2 -9t8 -4h83q53 0 90 37.5t37 90.5q0 45 -27 81.5t-68 47.5zM342 160h-54v81q0 6 -5 10.5t-12 4.5h-32
q-6 0 -10.5 -4.5t-4.5 -10.5v-81h-55q-7 0 -9 -5t2 -11l83 -106q4 -5 10 -5t11 5l82 106q5 6 3 11t-9 5z" />
    <glyph glyph-name="uniE433" unicode="&#xe433;" 
d="M352 113v32q0 6 -5 10.5t-11 4.5h-48v49q0 6 -5 10.5t-11 4.5h-32q-7 0 -11.5 -4.5t-4.5 -10.5v-49h-48q-7 0 -11.5 -4.5t-4.5 -10.5v-32q0 -7 4.5 -12t11.5 -5h48v-47q0 -7 4.5 -12t11.5 -5h32q6 0 11 5t5 12v47h48q6 0 11 5t5 12zM272 416q-71 0 -123.5 -45t-52.5 -114
q-53 0 -90 -38q-38 -37 -38 -91q0 -53 37.5 -90.5t90.5 -37.5h80q6 0 11 5t5 12v32q0 6 -5 10.5t-11 4.5h-80q-25 0 -44.5 19t-19.5 45q0 16 7 30q18 34 57 34h48q6 0 11 5t5 12v48q0 18 5 32q7 16 20 29q33 34 87 34q45 0 78.5 -24.5t33.5 -70.5v-48q0 -7 4.5 -12t11.5 -5
h16q16 0 31.5 -9.5t24 -24.5t8.5 -30q0 -24 -19 -44t-45 -20h-80q-7 0 -11.5 -4.5t-4.5 -10.5v-32q0 -7 4.5 -12t11.5 -5h80q53 0 90 37.5t37 90.5q0 45 -27 81.5t-68 46.5q0 71 -51 115.5t-125 44.5z" />
    <glyph glyph-name="uniE434" unicode="&#xe434;" 
d="M320 32h-192q-53 0 -90.5 37.5t-37.5 90.5t37.5 90.5t90.5 37.5h11q20 57 69.5 92.5t111.5 35.5q79 0 135.5 -56.5t56.5 -135.5t-56.5 -135.5t-135.5 -56.5zM64 160q0 -26 19 -45t45 -19h192q53 0 90.5 37.5t37.5 90.5t-37.5 90.5t-90.5 37.5q-47 0 -83 -30.5t-43 -76.5
l-4 -24q-1 -7 -6 -9.5t-11 -0.5l-23 9q-10 4 -22 4q-26 0 -45 -19t-19 -45z" />
    <glyph glyph-name="uniE435" unicode="&#xe435;" 
d="M224 -16q0 -7 -5 -11.5t-11 -4.5h-145q-14 0 -22.5 9.5t-8.5 22.5v192h-47q-14 0 -16.5 6.5t6.5 16.5l258 256q10 9 23 9t23 -9l258 -256q9 -10 6.5 -16.5t-16.5 -6.5h-47v-192q0 -13 -8.5 -22.5t-22.5 -9.5h-145q-6 0 -11 4.5t-5 11.5v112h-64v-112zM416 32v211
l-160 160l-160 -160v-211h64v96q0 13 9 22.5t22 9.5h129q14 0 23 -9.5t9 -22.5v-96h64z" />
    <glyph glyph-name="uniE436" unicode="&#xe436;" 
d="M268 475q-12 12 -24 0l-272 -270q-5 -5 -3.5 -9t8.5 -4h55v-201q0 -8 5 -15.5t11 -7.5h416q6 0 11 7.5t5 15.5v201h55q7 0 8.5 4t-3.5 9zM320 151q0 9 -16 9h-96q-16 0 -16 -9v-119h-96v201l160 162l160 -162v-201h-96v119z" />
    <glyph glyph-name="uniE437" unicode="&#xe437;" 
d="M416 327v112q0 9 -15 9h-33q-16 0 -16 -9v-48l-85 84q-11 12 -22 0l-273 -268q-5 -5 -3.5 -10t7.5 -5h56v-89v-112q0 -8 5 -15.5t11 -7.5h417q6 0 10.5 7.5t4.5 15.5v201h56q6 0 7.5 5t-3.5 10zM320 32v119q0 9 -16 9h-96q-16 0 -16 -9v-119h-96v71v133l160 160l96 -96
l6 -5l58 -59v-133v-71h-96z" />
    <glyph glyph-name="uniE438" unicode="&#xe438;" 
d="M0 449v-384q0 -13 9.5 -23t22.5 -11q151 -13 192 -44q5 -4 9 -9l12 -11q11 -11 22 0l12 11q4 5 9 9q41 31 192 44q13 1 22.5 11t9.5 23v384q0 14 -9.5 23t-22.5 8q-159 -9 -224 -54q-65 45 -224 54q-13 1 -22.5 -8t-9.5 -23zM224 60q-64 30 -160 36v320q112 -9 160 -45
v-311zM448 96q-96 -6 -160 -36v311q23 17 64 29q29 8 64 12q19 3 32 4v-320z" />
    <glyph glyph-name="uniE439" unicode="&#xe439;" 
d="M64 479q-8 1 -32 1q-13 0 -22.5 -9t-9.5 -23v-384q0 -13 9.5 -22t22.5 -9q25 0 32 -1q109 -8 160 -46q5 -4 9 -8l12 -12q11 -11 22 0l12 12q4 4 9 8q50 38 160 46q7 1 32 1q13 0 22.5 9t9.5 22v384q0 14 -9.5 23t-22.5 9q-24 0 -32 -1q-125 -8 -192 -54q-67 46 -192 54z
M224 59q-64 30 -160 36v320q112 -9 160 -45v-311zM288 59v311q23 17 64 29v-127q0 -6 3.5 -7.5t7.5 3.5l21 20l21 -20q4 -5 7.5 -3.5t3.5 7.5v139q19 3 32 4v-320q-96 -6 -160 -36z" />
    <glyph glyph-name="uniE43A" unicode="&#xe43a;" 
d="M256 425q-80 55 -224 55q-14 0 -23 -9.5t-9 -22.5v-384q0 -32 32 -32q43 0 101 -11t91 -35q5 -4 9 -9l12 -11q11 -11 22 0l12 11q4 5 9 9q33 24 93.5 35.5t103.5 11.5q3 -1 -5 -1q13 0 22.5 9.5t9.5 22.5v384q0 14 -9 23t-23 9q-21 0 -49.5 -2t-84 -15.5t-90.5 -37.5z
M224 59q-64 29 -160 36v320q112 -9 160 -45v-311zM448 95q-96 -7 -160 -36v311q23 17 64 28q29 9 64 13q19 3 32 4v-320zM96 304v-17q0 -7 4.5 -12.5t11.5 -6.5q36 -5 65 -15q6 -2 10.5 0.5t4.5 9.5v21q0 6 -4.5 12.5t-10.5 7.5q-30 9 -65 14q-7 1 -11.5 -3t-4.5 -11z
M96 208v-17q0 -7 4.5 -12.5t11.5 -6.5q36 -5 65 -15q6 -2 10.5 0.5t4.5 9.5v21q0 6 -4.5 12.5t-10.5 7.5q-30 9 -65 14q-7 1 -11.5 -3t-4.5 -11zM320 284v-21q0 -7 4.5 -9.5t10.5 -0.5q28 9 65 15q7 1 11.5 6.5t4.5 12.5v17q0 7 -4.5 11t-11.5 3q-35 -5 -65 -14
q-6 -1 -10.5 -7.5t-4.5 -12.5zM320 188v-21q0 -7 4.5 -9.5t10.5 -0.5q28 9 65 15q7 1 11.5 6.5t4.5 12.5v17q0 7 -4.5 11t-11.5 3q-35 -5 -65 -14q-6 -1 -10.5 -7.5t-4.5 -12.5z" />
    <glyph glyph-name="uniE43B" unicode="&#xe43b;" 
d="M31 479q-13 3 -22 -4t-9 -20v-352q0 -13 9 -26t21 -17l196 -74q30 -11 60 0l196 74q12 4 21 17t9 26v352q0 13 -9 20t-22 4l-225 -56zM64 405l160 -40v-310l-160 60v290zM288 55v309l64 14v-114q0 -6 3.5 -7.5t7.5 3.5l21 23l21 -23q4 -5 7.5 -3.5t3.5 7.5v127l32 7v-283
z" />
    <glyph glyph-name="uniE43C" unicode="&#xe43c;" 
d="M448 480h-320q-40 0 -68 -28t-28 -68v-320q0 -40 28 -68t68 -28h320q13 0 22.5 9.5t9.5 22.5v128v320q0 13 -9.5 22.5t-22.5 9.5zM416 32h-288q-13 0 -22.5 9.5t-9.5 22.5t9.5 22.5t22.5 9.5h288v-64zM416 160h-288q-15 0 -32 -6v230q0 13 9.5 22.5t22.5 9.5h288v-256z
" />
    <glyph glyph-name="uniE43D" unicode="&#xe43d;" 
d="M448 480h-320q-40 0 -68 -28t-28 -68v-320q0 -40 28 -68t68 -28h320q13 0 22.5 9.5t9.5 22.5v128v320q0 13 -9.5 22.5t-22.5 9.5zM128 416v-256q-15 0 -32 -6v230q0 13 9.5 22.5t22.5 9.5zM416 32h-288q-13 0 -22.5 9.5t-9.5 22.5t9.5 22.5t22.5 9.5h64h224v-64zM416 160
h-224v256h224v-256z" />
    <glyph glyph-name="uniE43E" unicode="&#xe43e;" 
d="M448 480h-320q-40 0 -68 -28t-28 -68v-320q0 -40 28 -68t68 -28h320q13 0 22.5 9.5t9.5 22.5v448q0 13 -9.5 22.5t-22.5 9.5zM128 32q-13 0 -22.5 9.5t-9.5 22.5v230q17 -6 32 -6h128v-144q0 -7 3 -8t8 4l37 41l37 -41q5 -5 8 -4t3 8v144h64v-256h-288zM416 352h-288
q-13 0 -22.5 9.5t-9.5 22.5t9.5 22.5t22.5 9.5h288v-64z" />
    <glyph glyph-name="uniE43F" unicode="&#xe43f;" 
d="M448 480h-320q-40 0 -68 -28t-28 -68v-320q0 -40 28 -68t68 -28h320q13 0 22.5 9.5t9.5 22.5v128v320q0 13 -9.5 22.5t-22.5 9.5zM416 32h-288q-13 0 -22.5 9.5t-9.5 22.5t9.5 22.5t22.5 9.5h32h256v-64zM416 160h-256v256h256v-256z" />
    <glyph glyph-name="uniE440" unicode="&#xe440;" 
d="M448 480h-96h-96h-128q-40 0 -68 -28t-28 -68v-320q0 -40 28 -68t68 -28h320q13 0 22.5 9.5t9.5 22.5v128v320q0 13 -9.5 22.5t-22.5 9.5zM416 32h-198h-90q-13 0 -22.5 9.5t-9.5 22.5t9.5 22.5t22.5 9.5h288v-64zM128 160q-15 0 -32 -6v230q0 13 9.5 22.5t22.5 9.5h128
v-144q0 -7 3 -7.5t7 4.5l38 40l38 -40q4 -5 7 -4.5t3 7.5v144h64v-256h-288z" />
    <glyph glyph-name="uniE441" unicode="&#xe441;" 
d="M448 480h-320q-40 0 -68 -28t-28 -68v-320q0 -40 28 -68t68 -28h320q13 0 22.5 9.5t9.5 22.5v128v320q0 13 -9.5 22.5t-22.5 9.5zM416 32h-198h-90q-13 0 -22.5 9.5t-9.5 22.5t9.5 22.5t22.5 9.5h288v-64zM416 160h-288q-15 0 -32 -6v230q0 13 9.5 22.5t22.5 9.5h288
v-256zM176 224h160q7 0 11.5 4.5t4.5 11.5v32q0 7 -4.5 11.5t-11.5 4.5h-160q-7 0 -11.5 -4.5t-4.5 -11.5v-32q0 -7 4.5 -11.5t11.5 -4.5zM176 320h160q7 0 11.5 4.5t4.5 11.5v32q0 7 -4.5 11.5t-11.5 4.5h-160q-7 0 -11.5 -4.5t-4.5 -11.5v-32q0 -7 4.5 -11.5t11.5 -4.5z
" />
    <glyph glyph-name="uniE442" unicode="&#xe442;" 
d="M480 384h-96v32q0 13 -9.5 22.5t-22.5 9.5h-320q-13 0 -22.5 -9.5t-9.5 -22.5v-320q0 -40 28 -68t68 -28h320q40 0 68 28t28 68v256q0 13 -9.5 22.5t-22.5 9.5zM384 320h64v-224q0 -13 -9.5 -22.5t-22.5 -9.5t-22.5 9.5t-9.5 22.5v224zM64 96v288h256v-288q0 -15 6 -32
h-230q-13 0 -22.5 9.5t-9.5 22.5zM272 256h-160q-7 0 -11.5 -4.5t-4.5 -11.5v-32q0 -7 4.5 -11.5t11.5 -4.5h160q7 0 11.5 4.5t4.5 11.5v32q0 7 -4.5 11.5t-11.5 4.5zM272 352h-160q-7 0 -11.5 -4.5t-4.5 -11.5v-32q0 -7 4.5 -11.5t11.5 -4.5h160q7 0 11.5 4.5t4.5 11.5v32
q0 7 -4.5 11.5t-11.5 4.5zM272 160h-160q-7 0 -11.5 -4.5t-4.5 -11.5v-32q0 -7 4.5 -11.5t11.5 -4.5h160q7 0 11.5 4.5t4.5 11.5v32q0 7 -4.5 11.5t-11.5 4.5z" />
    <glyph glyph-name="uniE443" unicode="&#xe443;" 
d="M480 384h-96v32q0 13 -9.5 22.5t-22.5 9.5h-320q-13 0 -22.5 -9.5t-9.5 -22.5v-320q0 -40 28 -68t68 -28h320q40 0 68 28t28 68v256q0 13 -9.5 22.5t-22.5 9.5zM384 320h64v-224q0 -13 -9.5 -22.5t-22.5 -9.5t-22.5 9.5t-9.5 22.5v224zM64 96v288h256v-288q0 -15 6 -32
h-230q-13 0 -22.5 9.5t-9.5 22.5zM272 256h-160q-7 0 -11.5 -4.5t-4.5 -11.5t4.5 -11.5t11.5 -4.5h160q7 0 11.5 4.5t4.5 11.5t-4.5 11.5t-11.5 4.5zM272 352h-160q-7 0 -11.5 -4.5t-4.5 -11.5v-32q0 -7 4.5 -11.5t11.5 -4.5h160q7 0 11.5 4.5t4.5 11.5v32q0 7 -4.5 11.5
t-11.5 4.5zM272 192h-160q-7 0 -11.5 -4.5t-4.5 -11.5t4.5 -11.5t11.5 -4.5h160q7 0 11.5 4.5t4.5 11.5t-4.5 11.5t-11.5 4.5zM272 128h-160q-7 0 -11.5 -4.5t-4.5 -11.5t4.5 -11.5t11.5 -4.5h160q7 0 11.5 4.5t4.5 11.5t-4.5 11.5t-11.5 4.5z" />
    <glyph glyph-name="uniE444" unicode="&#xe444;" 
d="M480 480h-320q-13 0 -22.5 -9.5t-9.5 -22.5v-32h-96q-13 0 -22.5 -9.5t-9.5 -22.5v-320q0 -40 28 -68t68 -28h320q40 0 68 28t28 68v384q0 13 -9.5 22.5t-22.5 9.5zM64 352h64v-288q0 -13 -9.5 -22.5t-22.5 -9.5t-22.5 9.5t-9.5 22.5v288zM448 64q0 -13 -9.5 -22.5
t-22.5 -9.5h-230q6 17 6 32v352h256v-352zM240 320h160q7 0 11.5 4.5t4.5 11.5v32q0 7 -4.5 11.5t-11.5 4.5h-160q-7 0 -11.5 -4.5t-4.5 -11.5v-32q0 -7 4.5 -11.5t11.5 -4.5zM240 224h160q7 0 11.5 4.5t4.5 11.5v32q0 7 -4.5 11.5t-11.5 4.5h-160q-7 0 -11.5 -4.5
t-4.5 -11.5v-32q0 -7 4.5 -11.5t11.5 -4.5zM240 128h160q7 0 11.5 4.5t4.5 11.5v32q0 7 -4.5 11.5t-11.5 4.5h-160q-7 0 -11.5 -4.5t-4.5 -11.5v-32q0 -7 4.5 -11.5t11.5 -4.5z" />
    <glyph glyph-name="uniE445" unicode="&#xe445;" 
d="M480 416h-96v32q0 13 -9.5 22.5t-22.5 9.5h-320q-13 0 -22.5 -9.5t-9.5 -22.5v-384q0 -40 28 -68t68 -28h320q40 0 68 28t28 68v320q0 13 -9.5 22.5t-22.5 9.5zM384 352h64v-288q0 -13 -9.5 -22.5t-22.5 -9.5t-22.5 9.5t-9.5 22.5v288zM64 64v352h256v-352q0 -15 6 -32
h-230q-13 0 -22.5 9.5t-9.5 22.5zM272 256h-160q-7 0 -11.5 -4.5t-4.5 -11.5v-32q0 -7 4.5 -11.5t11.5 -4.5h160q7 0 11.5 4.5t4.5 11.5v32q0 7 -4.5 11.5t-11.5 4.5zM272 384h-160q-7 0 -11.5 -4.5t-4.5 -11.5v-64q0 -7 4.5 -11.5t11.5 -4.5h160q7 0 11.5 4.5t4.5 11.5v64
q0 7 -4.5 11.5t-11.5 4.5zM272 160h-160q-7 0 -11.5 -4.5t-4.5 -11.5v-32q0 -7 4.5 -11.5t11.5 -4.5h160q7 0 11.5 4.5t4.5 11.5v32q0 7 -4.5 11.5t-11.5 4.5z" />
    <glyph glyph-name="uniE446" unicode="&#xe446;" 
d="M448 480h-384q-13 0 -22.5 -9.5t-9.5 -22.5v-448q0 -13 9.5 -22.5t22.5 -9.5h384q13 0 22.5 9.5t9.5 22.5v448q0 13 -9.5 22.5t-22.5 9.5zM96 416h32v-384h-32v384zM416 32h-224v384h224v-384z" />
    <glyph glyph-name="uniE447" unicode="&#xe447;" 
d="M448 480h-384q-13 0 -22.5 -9.5t-9.5 -22.5v-448q0 -13 9.5 -22.5t22.5 -9.5h384q13 0 22.5 9.5t9.5 22.5v448q0 13 -9.5 22.5t-22.5 9.5zM128 32h-32v384h32v-384zM416 32h-224v384h64v-160l48 32l48 -32v160h64v-384z" />
    <glyph glyph-name="uniE448" unicode="&#xe448;" 
d="M448 480h-384q-13 0 -22.5 -9.5t-9.5 -22.5v-448q0 -13 9.5 -22.5t22.5 -9.5h384q13 0 22.5 9.5t9.5 22.5v448q0 13 -9.5 22.5t-22.5 9.5zM128 32h-32v384h32v-384zM416 32h-224v384h224v-384zM368 352h-128q-7 0 -11.5 -4.5t-4.5 -11.5v-32q0 -7 4.5 -11.5t11.5 -4.5
h128q7 0 11.5 4.5t4.5 11.5v32q0 7 -4.5 11.5t-11.5 4.5zM368 256h-128q-7 0 -11.5 -4.5t-4.5 -11.5v-32q0 -7 4.5 -11.5t11.5 -4.5h128q7 0 11.5 4.5t4.5 11.5v32q0 7 -4.5 11.5t-11.5 4.5z" />
    <glyph glyph-name="uniE449" unicode="&#xe449;" 
d="M416 368q0 7 -4.5 11.5t-11.5 4.5h-224q-7 0 -11.5 -4.5t-4.5 -11.5v-48v-48q0 -7 4.5 -11.5t11.5 -4.5h224q7 0 11.5 4.5t4.5 11.5v48v48zM400 224h-224q-7 0 -11.5 -4.5t-4.5 -11.5v-32q0 -7 4.5 -11.5t11.5 -4.5h224q7 0 11.5 4.5t4.5 11.5v32q0 7 -4.5 11.5
t-11.5 4.5zM400 128h-224q-7 0 -11.5 -4.5t-4.5 -11.5v-32q0 -7 4.5 -11.5t11.5 -4.5h224q7 0 11.5 4.5t4.5 11.5v32q0 7 -4.5 11.5t-11.5 4.5zM480 480h-384q-13 0 -22.5 -9.5t-9.5 -22.5h-32q-13 0 -22.5 -9.5t-9.5 -22.5t9.5 -22.5t22.5 -9.5h32v-32h-32
q-13 0 -22.5 -9.5t-9.5 -22.5t9.5 -22.5t22.5 -9.5h32v-32h-32q-13 0 -22.5 -9.5t-9.5 -22.5t9.5 -22.5t22.5 -9.5h32v-32h-32q-13 0 -22.5 -9.5t-9.5 -22.5t9.5 -22.5t22.5 -9.5h32v-32h-32q-13 0 -22.5 -9.5t-9.5 -22.5t9.5 -22.5t22.5 -9.5h32q0 -13 9.5 -22.5t22.5 -9.5
h384q13 0 22.5 9.5t9.5 22.5v448q0 13 -9.5 22.5t-22.5 9.5zM448 32h-320v384h320v-384z" />
    <glyph glyph-name="uniE44A" unicode="&#xe44a;" 
d="M368 352h-160q-7 0 -11.5 -4.5t-4.5 -11.5v-32q0 -7 4.5 -11.5t11.5 -4.5h160q7 0 11.5 4.5t4.5 11.5v32q0 7 -4.5 11.5t-11.5 4.5zM368 256h-160q-7 0 -11.5 -4.5t-4.5 -11.5v-32q0 -7 4.5 -11.5t11.5 -4.5h160q7 0 11.5 4.5t4.5 11.5v32q0 7 -4.5 11.5t-11.5 4.5z
M368 160h-160q-7 0 -11.5 -4.5t-4.5 -11.5v-32q0 -7 4.5 -11.5t11.5 -4.5h160q7 0 11.5 4.5t4.5 11.5v32q0 7 -4.5 11.5t-11.5 4.5zM480 480h-384q-13 0 -22.5 -9.5t-9.5 -22.5h-32q-13 0 -22.5 -9.5t-9.5 -22.5t9.5 -22.5t22.5 -9.5h32v-32h-32q-13 0 -22.5 -9.5
t-9.5 -22.5t9.5 -22.5t22.5 -9.5h32v-32h-32q-13 0 -22.5 -9.5t-9.5 -22.5t9.5 -22.5t22.5 -9.5h32v-32h-32q-13 0 -22.5 -9.5t-9.5 -22.5t9.5 -22.5t22.5 -9.5h32v-32h-32q-13 0 -22.5 -9.5t-9.5 -22.5t9.5 -22.5t22.5 -9.5h32q0 -13 9.5 -22.5t22.5 -9.5h384
q13 0 22.5 9.5t9.5 22.5v448q0 13 -9.5 22.5t-22.5 9.5zM448 32h-320v384h320v-384z" />
    <glyph glyph-name="uniE44B" unicode="&#xe44b;" 
d="M272 288h128q7 0 11.5 4.5t4.5 11.5v32q0 7 -4.5 11.5t-11.5 4.5h-128q-7 0 -11.5 -4.5t-4.5 -11.5v-32q0 -7 4.5 -11.5t11.5 -4.5zM176 288h32q7 0 11.5 4.5t4.5 11.5v32q0 7 -4.5 11.5t-11.5 4.5h-32q-7 0 -11.5 -4.5t-4.5 -11.5v-32q0 -7 4.5 -11.5t11.5 -4.5z
M272 192h128q7 0 11.5 4.5t4.5 11.5v32q0 7 -4.5 11.5t-11.5 4.5h-128q-7 0 -11.5 -4.5t-4.5 -11.5v-32q0 -7 4.5 -11.5t11.5 -4.5zM176 192h32q7 0 11.5 4.5t4.5 11.5v32q0 7 -4.5 11.5t-11.5 4.5h-32q-7 0 -11.5 -4.5t-4.5 -11.5v-32q0 -7 4.5 -11.5t11.5 -4.5zM272 96
h128q7 0 11.5 4.5t4.5 11.5v32q0 7 -4.5 11.5t-11.5 4.5h-128q-7 0 -11.5 -4.5t-4.5 -11.5v-32q0 -7 4.5 -11.5t11.5 -4.5zM176 96h32q7 0 11.5 4.5t4.5 11.5v32q0 7 -4.5 11.5t-11.5 4.5h-32q-7 0 -11.5 -4.5t-4.5 -11.5v-32q0 -7 4.5 -11.5t11.5 -4.5zM480 480h-384
q-13 0 -22.5 -9.5t-9.5 -22.5h-32q-13 0 -22.5 -9.5t-9.5 -22.5t9.5 -22.5t22.5 -9.5h32v-32h-32q-13 0 -22.5 -9.5t-9.5 -22.5t9.5 -22.5t22.5 -9.5h32v-32h-32q-13 0 -22.5 -9.5t-9.5 -22.5t9.5 -22.5t22.5 -9.5h32v-32h-32q-13 0 -22.5 -9.5t-9.5 -22.5t9.5 -22.5
t22.5 -9.5h32v-32h-32q-13 0 -22.5 -9.5t-9.5 -22.5t9.5 -22.5t22.5 -9.5h32q0 -13 9.5 -22.5t22.5 -9.5h384q13 0 22.5 9.5t9.5 22.5v448q0 13 -9.5 22.5t-22.5 9.5zM448 32h-320v384h320v-384z" />
    <glyph glyph-name="uniE44C" unicode="&#xe44c;" 
d="M448 480h-384q-13 0 -22.5 -9.5t-9.5 -22.5v-448q0 -13 9.5 -22.5t22.5 -9.5h384q13 0 22.5 9.5t9.5 22.5v448q0 13 -9.5 22.5t-22.5 9.5zM416 32h-96h-128h-64h-32v384h320v-384zM144 320h160q7 0 11.5 4.5t4.5 11.5v32q0 7 -4.5 11.5t-11.5 4.5h-160q-7 0 -11.5 -4.5
t-4.5 -11.5v-32q0 -7 4.5 -11.5t11.5 -4.5zM144 224h224q7 0 11.5 4.5t4.5 11.5v32q0 7 -4.5 11.5t-11.5 4.5h-224q-7 0 -11.5 -4.5t-4.5 -11.5v-32q0 -7 4.5 -11.5t11.5 -4.5zM144 128h160q7 0 11.5 4.5t4.5 11.5v32q0 7 -4.5 11.5t-11.5 4.5h-160q-7 0 -11.5 -4.5
t-4.5 -11.5v-32q0 -7 4.5 -11.5t11.5 -4.5z" />
    <glyph glyph-name="uniE44D" unicode="&#xe44d;" 
d="M448 480h-384q-13 0 -22.5 -9.5t-9.5 -22.5v-448q0 -13 9.5 -22.5t22.5 -9.5h384q13 0 22.5 9.5t9.5 22.5v448q0 13 -9.5 22.5t-22.5 9.5zM416 32h-96h-128h-64h-32v384h320v-384zM176 288h160q7 0 11.5 4.5t4.5 11.5v32q0 7 -4.5 11.5t-11.5 4.5h-160q-7 0 -11.5 -4.5
t-4.5 -11.5v-32q0 -7 4.5 -11.5t11.5 -4.5zM176 192h160q7 0 11.5 4.5t4.5 11.5v32q0 7 -4.5 11.5t-11.5 4.5h-160q-7 0 -11.5 -4.5t-4.5 -11.5v-32q0 -7 4.5 -11.5t11.5 -4.5zM176 96h160q7 0 11.5 4.5t4.5 11.5v32q0 7 -4.5 11.5t-11.5 4.5h-160q-7 0 -11.5 -4.5
t-4.5 -11.5v-32q0 -7 4.5 -11.5t11.5 -4.5z" />
    <glyph glyph-name="uniE44E" unicode="&#xe44e;" 
d="M448 480h-384q-13 0 -22.5 -9.5t-9.5 -22.5v-448q0 -13 9.5 -22.5t22.5 -9.5h384q13 0 22.5 9.5t9.5 22.5v448q0 13 -9.5 22.5t-22.5 9.5zM416 32h-320v384h320v-384zM144 160h224q7 0 11.5 4.5t4.5 11.5v32q0 7 -4.5 11.5t-11.5 4.5h-224q-7 0 -11.5 -4.5t-4.5 -11.5
v-32q0 -7 4.5 -11.5t11.5 -4.5zM144 64h224q7 0 11.5 4.5t4.5 11.5v32q0 7 -4.5 11.5t-11.5 4.5h-224q-7 0 -11.5 -4.5t-4.5 -11.5v-32q0 -7 4.5 -11.5t11.5 -4.5zM144 256h224q7 0 11.5 4.5t4.5 11.5v96q0 7 -4.5 11.5t-11.5 4.5h-224q-7 0 -11.5 -4.5t-4.5 -11.5v-96
q0 -7 4.5 -11.5t11.5 -4.5z" />
    <glyph glyph-name="uniE44F" unicode="&#xe44f;" 
d="M480 480h-32h-128h-128h-128h-32q-13 0 -22.5 -9.5t-9.5 -22.5v-448q0 -13 9.5 -22.5t22.5 -9.5h448q13 0 22.5 9.5t9.5 22.5v448q0 13 -9.5 22.5t-22.5 9.5zM448 32h-384v320h384v-320zM144 224h224q7 0 11.5 4.5t4.5 11.5v32q0 7 -4.5 11.5t-11.5 4.5h-224
q-7 0 -11.5 -4.5t-4.5 -11.5v-32q0 -7 4.5 -11.5t11.5 -4.5zM144 128h224q7 0 11.5 4.5t4.5 11.5v32q0 7 -4.5 11.5t-11.5 4.5h-224q-7 0 -11.5 -4.5t-4.5 -11.5v-32q0 -7 4.5 -11.5t11.5 -4.5z" />
    <glyph glyph-name="uniE450" unicode="&#xe450;" 
d="M480 480h-32h-128h-128h-128h-32q-13 0 -22.5 -9.5t-9.5 -22.5v-448q0 -13 9.5 -22.5t22.5 -9.5h448q13 0 22.5 9.5t9.5 22.5v448q0 13 -9.5 22.5t-22.5 9.5zM448 32h-384v320h384v-320zM144 320h-32q-7 0 -11.5 -4.5t-4.5 -11.5v-32q0 -7 4.5 -11.5t11.5 -4.5h32
q7 0 11.5 4.5t4.5 11.5v32q0 7 -4.5 11.5t-11.5 4.5zM400 320h-192q-7 0 -11.5 -4.5t-4.5 -11.5v-32q0 -7 4.5 -11.5t11.5 -4.5h192q7 0 11.5 4.5t4.5 11.5v32q0 7 -4.5 11.5t-11.5 4.5zM144 224h-32q-7 0 -11.5 -4.5t-4.5 -11.5v-32q0 -7 4.5 -11.5t11.5 -4.5h32
q7 0 11.5 4.5t4.5 11.5v32q0 7 -4.5 11.5t-11.5 4.5zM336 224h-128q-7 0 -11.5 -4.5t-4.5 -11.5v-32q0 -7 4.5 -11.5t11.5 -4.5h128q7 0 11.5 4.5t4.5 11.5v32q0 7 -4.5 11.5t-11.5 4.5zM144 128h-32q-7 0 -11.5 -4.5t-4.5 -11.5v-32q0 -7 4.5 -11.5t11.5 -4.5h32
q7 0 11.5 4.5t4.5 11.5v32q0 7 -4.5 11.5t-11.5 4.5zM400 128h-192q-7 0 -11.5 -4.5t-4.5 -11.5v-32q0 -7 4.5 -11.5t11.5 -4.5h192q7 0 11.5 4.5t4.5 11.5v32q0 7 -4.5 11.5t-11.5 4.5z" />
    <glyph glyph-name="uniE451" unicode="&#xe451;" 
d="M384 448q0 13 -9.5 22.5t-22.5 9.5h-192q-13 0 -22.5 -9.5t-9.5 -22.5v-64h-96q-13 0 -22.5 -9.5t-9.5 -22.5v-352q0 -13 9.5 -22.5t22.5 -9.5h448q13 0 22.5 9.5t9.5 22.5v352q0 13 -9.5 22.5t-22.5 9.5h-96v64zM192 416h128v-32h-128v32zM448 32h-384v288h384v-288z
" />
    <glyph glyph-name="uniE452" unicode="&#xe452;" 
d="M480 384h-128v64q0 13 -9.5 22.5t-22.5 9.5h-128q-13 0 -22.5 -9.5t-9.5 -22.5v-64h-128q-13 0 -22.5 -9.5t-9.5 -22.5v-352q0 -13 9.5 -22.5t22.5 -9.5h448q13 0 22.5 9.5t9.5 22.5v352q0 13 -9.5 22.5t-22.5 9.5zM224 416h64v-32h-64v32zM64 32v288h32v-288h-32z
M160 32v288h192v-288h-192zM448 32h-32v288h32v-288z" />
    <glyph glyph-name="uniE453" unicode="&#xe453;" 
d="M480 384h-96v64q0 13 -9.5 22.5t-22.5 9.5h-192q-13 0 -22.5 -9.5t-9.5 -22.5v-64h-96q-13 0 -22.5 -9.5t-9.5 -22.5v-352q0 -13 9.5 -22.5t22.5 -9.5h448q13 0 22.5 9.5t9.5 22.5v352q0 13 -9.5 22.5t-22.5 9.5zM192 416h128v-32h-128v32zM448 32h-384v128h64v-32
q0 -13 9.5 -22.5t22.5 -9.5t22.5 9.5t9.5 22.5v32h128v-32q0 -13 9.5 -22.5t22.5 -9.5t22.5 9.5t9.5 22.5v32h64v-128zM64 224v96h384v-96h-384z" />
    <glyph glyph-name="uniE454" unicode="&#xe454;" 
d="M384 448q0 13 -9.5 22.5t-22.5 9.5h-192q-13 0 -22.5 -9.5t-9.5 -22.5v-64h-96q-13 0 -22.5 -9.5t-9.5 -22.5v-352q0 -13 9.5 -22.5t22.5 -9.5h448q13 0 22.5 9.5t9.5 22.5v352q0 13 -9.5 22.5t-22.5 9.5h-96v64zM192 416h128v-32h-128v32zM64 32v96h128v-16
q0 -7 4.5 -11.5t11.5 -4.5h96q7 0 11.5 4.5t4.5 11.5v16h128v-96h-384zM320 208q0 7 -4.5 11.5t-11.5 4.5h-96q-7 0 -11.5 -4.5t-4.5 -11.5v-16h-128v128h384v-128h-128v16z" />
    <glyph glyph-name="uniE455" unicode="&#xe455;" 
d="M391 411l81 -48l-19 -47h-2q-13 7 -29 7q-21 0 -37 -10q-33 -20 -33 -56v-225h-192v225q0 36 -33 56q-16 10 -35 10q-17 0 -30 -7h-2l-19 47l81 48q49 -55 134.5 -55t134.5 55zM141 480h-9q-8 0 -22 -8l-123 -68q-12 -7 -16.5 -20t-0.5 -26l42 -104q5 -13 19 -17.5
t26 1.5l39 19v-265q0 -24 28 -24h265q14 0 20.5 5.5t6.5 18.5v265l40 -18q12 -6 25 -1.5t18 17.5l42 106q11 27 -16 43l-122 68q-14 8 -23 8h-8q-13 0 -20 -16q-9 -20 -35.5 -35t-60 -15t-60.5 15t-36 35q-6 16 -19 16z" />
    <glyph glyph-name="uniE456" unicode="&#xe456;" 
d="M509 224q-11 89 -69 150t-152 72v18q0 6 -5.5 11t-12.5 5h-32q-14 0 -14 -16v-18q-94 -11 -153 -72t-70 -150q-2 -13 7 -22.5t22 -9.5h194v-128q0 -13 -10 -22.5t-23 -9.5t-22.5 9.5t-9.5 22.5t-9.5 22.5t-23 9.5t-23 -9.5t-9.5 -22.5q0 -40 28.5 -68t68.5 -28t68.5 28
t28.5 68v128h190q14 0 23.5 9.5t7.5 22.5zM254 384q62 0 111.5 -35.5t69.5 -92.5h-362q20 57 69.5 92.5t111.5 35.5z" />
    <glyph glyph-name="uniE457" unicode="&#xe457;" 
d="M224 384q13 0 22.5 9.5t9.5 22.5v32q0 13 -9.5 22.5t-22.5 9.5t-22.5 -9.5t-9.5 -22.5v-32q0 -13 9.5 -22.5t22.5 -9.5zM320 384q13 0 22.5 9.5t9.5 22.5v32q0 13 -9.5 22.5t-22.5 9.5t-22.5 -9.5t-9.5 -22.5v-32q0 -13 9.5 -22.5t22.5 -9.5zM416 384q13 0 22.5 9.5
t9.5 22.5v32q0 13 -9.5 22.5t-22.5 9.5t-22.5 -9.5t-9.5 -22.5v-32q0 -13 9.5 -22.5t22.5 -9.5zM480 352h-320q-13 0 -22.5 -9.5t-9.5 -22.5v-32h-31q-40 0 -68.5 -28t-28.5 -68v-64q0 -40 28 -68t68 -28h38q10 -28 34.5 -46t55.5 -18h192q40 0 68 28t28 68v256
q0 13 -9.5 22.5t-22.5 9.5zM64 128v64q0 13 10 22.5t23 9.5h31v-128h-32q-13 0 -22.5 9.5t-9.5 22.5zM416 32h-192q-13 0 -22.5 9.5t-9.5 22.5v224h256v-224q0 -13 -9.5 -22.5t-22.5 -9.5z" />
    <glyph glyph-name="uniE458" unicode="&#xe458;" 
d="M502 270l-60 126q-8 20 -31 20h-48q-11 0 -11 -16v-32q0 -16 11 -16h26l40 -96h-114q-13 0 -20 -9t-7 -23v-32h-64v32q0 13 -12 22.5t-25 9.5h-115l40 96h27q7 0 14 5t7 11v32q0 6 -7 11t-14 5h-48q-22 0 -30 -20l-57 -126q-4 -8 -4 -30v-16v-8v-149q0 -14 7 -24.5
t20 -10.5h160q13 0 25 11t12 24v61h64v-61q0 -14 7 -24.5t20 -10.5h160q13 0 25 11t12 24v149v8v16q0 10 -10 30zM160 96h-96v96h96v-96zM448 96h-96v96h96v-96z" />
    <glyph glyph-name="uniE459" unicode="&#xe459;" 
d="M486 120l-82 82q12 33 12 70q0 86 -61 147t-147 61t-147 -61t-61 -147t61 -147t147 -61q37 0 70 12l82 -82q26 -26 63 -26t63 26t26 63t-26 63zM225 129q-8 -1 -17 -1q-60 0 -102 42t-42 102t42 102t102 42t102 -42t42 -102q0 -9 -1 -17q-4 -36 -25 -66q-15 -20 -35 -35
q-30 -21 -66 -25zM441 39q-7 -7 -18 -7t-18 7l-69 69q20 16 36 36l69 -69q7 -8 7 -18t-7 -18z" />
    <glyph glyph-name="uniE45A" unicode="&#xe45a;" 
d="M503 23l-100 99q45 60 45 134q0 93 -65.5 158.5t-158.5 65.5t-158.5 -65.5t-65.5 -158.5t65.5 -158.5t158.5 -65.5q74 0 134 45l99 -100q10 -9 23 -9t22.5 9.5t9.5 22.5t-9 23zM224 96q-66 0 -113 47t-47 113t47 113t113 47t113 -47t47 -113t-47 -113t-113 -47z" />
    <glyph glyph-name="uniE45B" unicode="&#xe45b;" 
d="M240 352h-32q-7 0 -11.5 -4.5t-4.5 -11.5v-48h-48q-7 0 -11.5 -4.5t-4.5 -11.5v-32q0 -7 4.5 -11.5t11.5 -4.5h48v-48q0 -7 4.5 -11.5t11.5 -4.5h32q7 0 11.5 4.5t4.5 11.5v48h48q7 0 11.5 4.5t4.5 11.5v32q0 7 -4.5 11.5t-11.5 4.5h-48v48q0 7 -4.5 11.5t-11.5 4.5z
M503 23l-100 99q45 60 45 134q0 93 -65.5 158.5t-158.5 65.5t-158.5 -65.5t-65.5 -158.5t65.5 -158.5t158.5 -65.5q74 0 134 45l99 -100q10 -9 23 -9t22.5 9.5t9.5 22.5t-9 23zM224 96q-66 0 -113 47t-47 113t47 113t113 47t113 -47t47 -113t-47 -113t-113 -47z" />
    <glyph glyph-name="uniE45C" unicode="&#xe45c;" 
d="M256 320q-40 0 -68 -28t-28 -68t28 -68t68 -28t68 28t28 68t-28 68t-68 28zM288 224q0 -13 -9.5 -22.5t-22.5 -9.5t-22.5 9.5t-9.5 22.5t9.5 22.5t22.5 9.5t22.5 -9.5t9.5 -22.5zM533 239q-53 84 -125.5 130.5t-151.5 46.5q-84 0 -158.5 -47.5t-120.5 -128.5l-9 -17
l10 -16q48 -80 123.5 -127.5t154.5 -47.5q77 0 150.5 45.5t126.5 126.5l11 17zM256 96q-59 0 -116.5 34.5t-97.5 94.5q38 59 94.5 93t119.5 34q58 0 114 -34.5t99 -95.5q-43 -60 -99.5 -93t-113.5 -33z" />
    <glyph glyph-name="uniE45D" unicode="&#xe45d;" 
d="M533 239q-53 84 -125.5 130.5t-151.5 46.5q-84 0 -158.5 -47.5t-120.5 -128.5l-9 -17l10 -16q48 -80 123.5 -127.5t154.5 -47.5q77 0 150.5 45.5t126.5 126.5l11 17zM256 96q-59 0 -116.5 34.5t-97.5 94.5q38 59 94.5 93t119.5 34q58 0 114 -34.5t99 -95.5
q-43 -60 -99.5 -93t-113.5 -33zM161 224q0 -40 28 -68t66.5 -28t66.5 28t28 68t-28 68t-66.5 28t-66.5 -28t-28 -68z" />
    <glyph glyph-name="uniE45E" unicode="&#xe45e;" 
d="M536 236q-53 101 -126.5 156.5t-153.5 55.5q-85 0 -160.5 -56.5t-120.5 -153.5l-7 -15l7 -14q49 -95 125 -152t156 -57q79 0 153 54.5t127 150.5l8 16zM256 64q-60 0 -118.5 43.5t-98.5 117.5q38 74 96 116.5t121 42.5q58 0 115 -43t101 -120q-44 -74 -101 -115.5
t-115 -41.5zM256 320q-39 0 -67 -28t-28 -68t28 -68t67 -28t66.5 28t27.5 68t-27.5 68t-66.5 28zM288 224q0 -13 -9.5 -22.5t-22.5 -9.5t-22.5 9.5t-9.5 22.5t9.5 22.5t22.5 9.5t22.5 -9.5t9.5 -22.5z" />
    <glyph glyph-name="uniE45F" unicode="&#xe45f;" 
d="M536 236q-53 101 -126.5 156.5t-153.5 55.5q-85 0 -160.5 -56.5t-120.5 -153.5l-7 -15l7 -14q48 -95 124.5 -152t156.5 -57q79 0 153 54.5t127 151.5l8 15zM256 64q-59 0 -118 43.5t-99 117.5q38 74 96 116.5t121 42.5q58 0 115 -43t101 -120q-44 -74 -101 -115.5
t-115 -41.5zM256 320q-39 0 -67 -28t-28 -68t28 -68t67 -28t66.5 28t27.5 68t-27.5 68t-66.5 28z" />
    <glyph glyph-name="uniE460" unicode="&#xe460;" 
d="M384 448h-256q-13 0 -22.5 -9.5t-9.5 -22.5v-384q0 -13 9.5 -22.5t22.5 -9.5h256q13 0 22.5 9.5t9.5 22.5v384q0 13 -9.5 22.5t-22.5 9.5zM272 32h-32q-7 0 -11.5 4.5t-4.5 11.5v32q0 7 4.5 11.5t11.5 4.5h32q7 0 11.5 -4.5t4.5 -11.5v-32q0 -7 -4.5 -11.5t-11.5 -4.5z
M352 128h-192v256h192v-256z" />
    <glyph glyph-name="uniE461" unicode="&#xe461;" 
d="M416 480h-320q-13 0 -22.5 -9.5t-9.5 -22.5v-448q0 -13 9.5 -22.5t22.5 -9.5h320q13 0 22.5 9.5t9.5 22.5v448q0 13 -9.5 22.5t-22.5 9.5zM272 0h-32q-7 0 -11.5 4.5t-4.5 11.5v32q0 7 4.5 11.5t11.5 4.5h32q7 0 11.5 -4.5t4.5 -11.5v-32q0 -7 -4.5 -11.5t-11.5 -4.5z
M384 96h-256v320h256v-320z" />
    <glyph glyph-name="uniE462" unicode="&#xe462;" 
d="M448 480h-384q-13 0 -22.5 -9.5t-9.5 -22.5v-448q0 -13 9.5 -22.5t22.5 -9.5h384q13 0 22.5 9.5t9.5 22.5v448q0 13 -9.5 22.5t-22.5 9.5zM272 0h-32q-7 0 -11.5 4.5t-4.5 11.5v32q0 7 4.5 11.5t11.5 4.5h32q7 0 11.5 -4.5t4.5 -11.5v-32q0 -7 -4.5 -11.5t-11.5 -4.5z
M416 96h-320v320h320v-320z" />
    <glyph glyph-name="uniE463" unicode="&#xe463;" 
d="M480 156v292q0 14 -9 23t-23 9h-390q-26 0 -26 -32v-292l-64 -92v-32q0 -13 9.5 -22.5t22.5 -9.5h512q13 0 22.5 9.5t9.5 22.5v32zM320 64h-128v32h128v-32zM416 160h-320v256h320v-256z" />
    <glyph glyph-name="uniE464" unicode="&#xe464;" 
d="M160 -32h192q13 0 22.5 9.5t9.5 22.5t-9.5 22.5t-22.5 9.5h-64v64h192q13 0 22.5 9.5t9.5 22.5v320q0 13 -9.5 22.5t-22.5 9.5h-448q-13 0 -22.5 -9.5t-9.5 -22.5v-320q0 -13 9.5 -22.5t22.5 -9.5h192v-64h-64q-13 0 -22.5 -9.5t-9.5 -22.5t9.5 -22.5t22.5 -9.5zM448 160
h-384v256h384v-256z" />
    <glyph glyph-name="uniE465" unicode="&#xe465;" 
d="M416 480h-320q-13 0 -22.5 -9.5t-9.5 -22.5v-448q0 -13 9.5 -22.5t22.5 -9.5h320q13 0 22.5 9.5t9.5 22.5v448q0 13 -9.5 22.5t-22.5 9.5zM288 16q0 -7 -4.5 -11.5t-11.5 -4.5h-32q-7 0 -11.5 4.5t-4.5 11.5v32q0 7 4.5 11.5t11.5 4.5h32q7 0 11.5 -4.5t4.5 -11.5v-32z
M384 96h-256v320h256v-320zM176 288h160q7 0 11.5 4.5t4.5 11.5v32q0 7 -4.5 11.5t-11.5 4.5h-160q-7 0 -11.5 -4.5t-4.5 -11.5v-32q0 -7 4.5 -11.5t11.5 -4.5zM176 192h160q7 0 11.5 4.5t4.5 11.5v32q0 7 -4.5 11.5t-11.5 4.5h-160q-7 0 -11.5 -4.5t-4.5 -11.5v-32
q0 -7 4.5 -11.5t11.5 -4.5z" />
    <glyph glyph-name="uniE466" unicode="&#xe466;" 
d="M448 480h-384q-13 0 -22.5 -9.5t-9.5 -22.5v-448q0 -13 9.5 -22.5t22.5 -9.5h384q13 0 22.5 9.5t9.5 22.5v448q0 13 -9.5 22.5t-22.5 9.5zM288 16q0 -7 -4.5 -11.5t-11.5 -4.5h-32q-7 0 -11.5 4.5t-4.5 11.5v32q0 7 4.5 11.5t11.5 4.5h32q7 0 11.5 -4.5t4.5 -11.5v-32z
M416 96h-320v320h320v-320zM176 288h160q7 0 11.5 4.5t4.5 11.5v32q0 7 -4.5 11.5t-11.5 4.5h-160q-7 0 -11.5 -4.5t-4.5 -11.5v-32q0 -7 4.5 -11.5t11.5 -4.5zM176 192h160q7 0 11.5 4.5t4.5 11.5v32q0 7 -4.5 11.5t-11.5 4.5h-160q-7 0 -11.5 -4.5t-4.5 -11.5v-32
q0 -7 4.5 -11.5t11.5 -4.5z" />
    <glyph glyph-name="uniE467" unicode="&#xe467;" 
d="M144 320h224q7 0 11.5 4.5t4.5 11.5v32q0 7 -4.5 11.5t-11.5 4.5h-224q-7 0 -11.5 -4.5t-4.5 -11.5v-32q0 -7 4.5 -11.5t11.5 -4.5zM144 224h224q7 0 11.5 4.5t4.5 11.5v32q0 7 -4.5 11.5t-11.5 4.5h-224q-7 0 -11.5 -4.5t-4.5 -11.5v-32q0 -7 4.5 -11.5t11.5 -4.5z
M480 156v292q0 14 -9 23t-23 9h-390q-26 0 -26 -32v-292l-64 -92v-32q0 -13 9.5 -22.5t22.5 -9.5h512q13 0 22.5 9.5t9.5 22.5v32zM320 64h-128v32h128v-32zM416 160h-320v256h320v-256z" />
    <glyph glyph-name="uniE468" unicode="&#xe468;" 
d="M480 480h-448q-13 0 -22.5 -9.5t-9.5 -22.5v-352q0 -13 9.5 -22.5t22.5 -9.5h192v-32h-64q-13 0 -22.5 -9.5t-9.5 -22.5t9.5 -22.5t22.5 -9.5h192q13 0 22.5 9.5t9.5 22.5t-9.5 22.5t-22.5 9.5h-64v32h192q13 0 22.5 9.5t9.5 22.5v352q0 13 -9.5 22.5t-22.5 9.5zM448 128
h-384v288h384v-288zM144 288h224q7 0 11.5 4.5t4.5 11.5v32q0 7 -4.5 11.5t-11.5 4.5h-224q-7 0 -11.5 -4.5t-4.5 -11.5v-32q0 -7 4.5 -11.5t11.5 -4.5zM144 192h224q7 0 11.5 4.5t4.5 11.5v32q0 7 -4.5 11.5t-11.5 4.5h-224q-7 0 -11.5 -4.5t-4.5 -11.5v-32q0 -7 4.5 -11.5
t11.5 -4.5z" />
    <glyph glyph-name="uniE469" unicode="&#xe469;" 
d="M416 480h-320q-13 0 -22.5 -9.5t-9.5 -22.5v-448q0 -13 9.5 -22.5t22.5 -9.5h320q13 0 22.5 9.5t9.5 22.5v448q0 13 -9.5 22.5t-22.5 9.5zM384 32h-256v384h256v-384zM160 384h192v-224h-192v224zM272 128h-32q-7 0 -11.5 -4.5t-4.5 -11.5v-32q0 -7 4.5 -11.5t11.5 -4.5
h32q7 0 11.5 4.5t4.5 11.5v32q0 7 -4.5 11.5t-11.5 4.5z" />
    <glyph glyph-name="uniE46A" unicode="&#xe46a;" 
d="M288 160l-117 117q-11 11 -22 0l-42 -42q-11 -11 -11 -27v-128q0 -7 4.5 -11.5t11.5 -4.5h288q7 0 11.5 4.5t4.5 11.5v64q0 16 -11 27l-42 42q-11 11 -22 0zM288 304q0 -20 14 -34t34 -14t34 14t14 34t-14 34t-34 14t-34 -14t-14 -34zM480 480h-448q-13 0 -22.5 -9.5
t-9.5 -22.5v-448q0 -13 9.5 -22.5t22.5 -9.5h448q13 0 22.5 9.5t9.5 22.5v448q0 13 -9.5 22.5t-22.5 9.5zM448 32h-384v384h384v-384z" />
    <glyph glyph-name="uniE46B" unicode="&#xe46b;" 
d="M480 480h-352q-13 0 -22.5 -9.5t-9.5 -22.5v-64h-64q-13 0 -22.5 -9.5t-9.5 -22.5v-352q0 -13 9.5 -22.5t22.5 -9.5h352q13 0 22.5 9.5t9.5 22.5v64h64q13 0 22.5 9.5t9.5 22.5v352q0 13 -9.5 22.5t-22.5 9.5zM352 32h-288v288h288v-288zM448 128h-32v224q0 13 -9.5 22.5
t-22.5 9.5h-224v32h288v-288zM112 64h192q16 0 16 14v8q0 9 -13 19l-134 115q-13 11 -24 -1l-42 -44q-11 -12 -11 -29v-68q0 -14 16 -14zM224 240q0 -20 14 -34t34 -14t34 14t14 34t-14 34t-34 14t-34 -14t-14 -34z" />
    <glyph glyph-name="uniE46C" unicode="&#xe46c;" 
d="M480 480h-352q-13 0 -22.5 -9.5t-9.5 -22.5v-64h-64q-13 0 -22.5 -9.5t-9.5 -22.5v-352q0 -13 9.5 -22.5t22.5 -9.5h352q13 0 22.5 9.5t9.5 22.5v64h64q13 0 22.5 9.5t9.5 22.5v352q0 13 -9.5 22.5t-22.5 9.5zM352 32h-288v288h288v-288zM448 128h-32v224q0 13 -9.5 22.5
t-22.5 9.5h-224v32h288v-288zM185 100l101 63q9 5 10 13t-8 13l-103 63q-9 7 -17 2.5t-8 -17.5v-122q0 -13 8 -17.5t17 2.5z" />
    <glyph glyph-name="uniE46D" unicode="&#xe46d;" 
d="M483 370l-99 -50v64q0 13 -9.5 22.5t-22.5 9.5h-320q-13 0 -22.5 -9.5t-9.5 -22.5v-320q0 -13 9.5 -22.5t22.5 -9.5h320q13 0 22.5 9.5t9.5 22.5v64l99 -50q12 -6 20.5 -0.5t8.5 18.5v256q0 13 -8.5 18.5t-20.5 -0.5zM413 185q-14 7 -29 7h-48q-7 0 -11.5 -4.5
t-4.5 -11.5v-80h-256v256h256v-80q0 -7 4.5 -11.5t11.5 -4.5h48q15 0 29 7l35 17v-112z" />
    <glyph glyph-name="uniE46E" unicode="&#xe46e;" 
d="M480 448h-448q-13 0 -22.5 -9.5t-9.5 -22.5v-288q0 -13 9.5 -22.5t22.5 -9.5h96v-32h-64q-13 0 -22.5 -9.5t-9.5 -22.5t9.5 -22.5t22.5 -9.5h384q13 0 22.5 9.5t9.5 22.5t-9.5 22.5t-22.5 9.5h-64v32h96q13 0 22.5 9.5t9.5 22.5v288q0 13 -9.5 22.5t-22.5 9.5zM320 64
h-128v32h128v-32zM448 160h-384v224h384v-224z" />
    <glyph glyph-name="uniE46F" unicode="&#xe46f;" 
d="M480 448h-448q-13 0 -22.5 -9.5t-9.5 -22.5v-384q0 -13 9.5 -22.5t22.5 -9.5h448q13 0 22.5 9.5t9.5 22.5v384q0 13 -9.5 22.5t-22.5 9.5zM448 320h-64v64h64v-64zM448 192h-64v64h64v-64zM64 384h64v-64h-64v64zM64 256h64v-64h-64v64zM64 64v64h64v-64h-64zM192 64v320
h128v-320h-128zM448 64h-64v64h64v-64z" />
    <glyph glyph-name="uniE470" unicode="&#xe470;" 
d="M480 416h-64v32q0 13 -9.5 22.5t-22.5 9.5h-256q-13 0 -22.5 -9.5t-9.5 -22.5v-32h-64q-13 0 -22.5 -9.5t-9.5 -22.5v-352q0 -13 9.5 -22.5t22.5 -9.5h448q13 0 22.5 9.5t9.5 22.5v352q0 13 -9.5 22.5t-22.5 9.5zM448 64h-384v288h64q13 0 22.5 9.5t9.5 22.5v32h192v-32
q0 -13 9.5 -22.5t22.5 -9.5h64v-288zM256 352q-44 0 -78.5 -27t-45.5 -69q-4 -15 -4 -32t4 -32q11 -42 45.5 -69t78.5 -27t78.5 27t45.5 69q4 15 4 32t-4 32q-11 42 -45.5 69t-78.5 27zM311 192q-18 -32 -55 -32t-55 32q-9 15 -9 32t9 32q18 32 55 32t55 -32q9 -15 9 -32
t-9 -32z" />
    <glyph glyph-name="uniE471" unicode="&#xe471;" 
d="M485 416h-101v64q0 14 -7 23t-20 9h-192q-13 0 -25 -9.5t-12 -22.5v-64h-91q-13 0 -25 -9.5t-12 -22.5v-384q0 -13 12 -22.5t25 -9.5h448q13 0 20 9t7 23v384q0 14 -7 23t-20 9zM192 448h128v-32h-128v32zM448 32h-384v320h384v-320zM256 64q53 0 90.5 37.5t37.5 90.5
t-37.5 90.5t-90.5 37.5t-90.5 -37.5t-37.5 -90.5t37.5 -90.5t90.5 -37.5zM256 256q26 0 45 -19t19 -45t-19 -45t-45 -19t-45 19t-19 45t19 45t45 19z" />
    <glyph glyph-name="uniE472" unicode="&#xe472;" 
d="M480 416h-192v32q0 13 -9.5 22.5t-22.5 9.5h-160q-13 0 -22.5 -9.5t-9.5 -22.5v-32h-32q-13 0 -22.5 -9.5t-9.5 -22.5v-384q0 -13 9.5 -22.5t22.5 -9.5h448q13 0 22.5 9.5t9.5 22.5v384q0 13 -9.5 22.5t-22.5 9.5zM448 32h-384v320h32q13 0 22.5 9.5t9.5 22.5v32h96v-32
q0 -13 9.5 -22.5t22.5 -9.5h192v-320zM288 320q-53 0 -90.5 -37.5t-37.5 -90.5t37.5 -90.5t90.5 -37.5t90.5 37.5t37.5 90.5t-37.5 90.5t-90.5 37.5zM288 128q-26 0 -45 19t-19 45t19 45t45 19t45 -19t19 -45t-19 -45t-45 -19z" />
    <glyph glyph-name="uniE473" unicode="&#xe473;" 
d="M349 480h-192q-13 0 -21 -9t-8 -23v-32h-99q-13 0 -21 -9t-8 -23v-160v-192v-32q0 -14 8 -23t21 -9h32h384h32q13 0 24 9.5t11 22.5v32v192v160q0 13 -11 22.5t-24 9.5h-93v32q0 13 -11 22.5t-24 9.5zM252.5 288q26.5 0 45.5 -19t19 -45t-19 -45t-45.5 -19t-45 19
t-18.5 45t18.5 45t45 19zM448 224v-192h-384v192h61q0 -53 37.5 -90.5t90.5 -37.5t90.5 37.5t37.5 90.5h67z" />
    <glyph glyph-name="uniE474" unicode="&#xe474;" 
d="M144 480h-32q-7 0 -11.5 -4.5t-4.5 -11.5v-32q0 -7 4.5 -11.5t11.5 -4.5h32q7 0 11.5 4.5t4.5 11.5v32q0 7 -4.5 11.5t-11.5 4.5zM400 480h-32q-7 0 -11.5 -4.5t-4.5 -11.5v-32q0 -7 4.5 -11.5t11.5 -4.5h32q7 0 11.5 4.5t4.5 11.5v32q0 7 -4.5 11.5t-11.5 4.5zM448 464
v-64q0 -7 -4.5 -11.5t-11.5 -4.5h-96q-7 0 -11.5 4.5t-4.5 11.5v64q0 7 -4.5 11.5t-11.5 4.5h-96q-7 0 -11.5 -4.5t-4.5 -11.5v-64q0 -7 -4.5 -11.5t-11.5 -4.5h-96q-7 0 -11.5 4.5t-4.5 11.5v64q0 7 -4.5 11.5t-11.5 4.5h-16q-13 0 -22.5 -9.5t-9.5 -22.5v-448
q0 -13 9.5 -22.5t22.5 -9.5h448q13 0 22.5 9.5t9.5 22.5v448q0 13 -9.5 22.5t-22.5 9.5h-16q-7 0 -11.5 -4.5t-4.5 -11.5zM448 32h-384v288h384v-288z" />
    <glyph glyph-name="uniE475" unicode="&#xe475;" 
d="M112 416h32q7 0 11.5 4.5t4.5 11.5v32q0 7 -4.5 11.5t-11.5 4.5h-32q-7 0 -11.5 -4.5t-4.5 -11.5v-32q0 -7 4.5 -11.5t11.5 -4.5zM368 416h32q7 0 11.5 4.5t4.5 11.5v32q0 7 -4.5 11.5t-11.5 4.5h-32q-7 0 -11.5 -4.5t-4.5 -11.5v-32q0 -7 4.5 -11.5t11.5 -4.5zM480 480
h-16q-7 0 -11.5 -4.5t-4.5 -11.5v-64q0 -7 -4.5 -11.5t-11.5 -4.5h-96q-7 0 -11.5 4.5t-4.5 11.5v64q0 7 -4.5 11.5t-11.5 4.5h-96q-7 0 -11.5 -4.5t-4.5 -11.5v-64q0 -7 -4.5 -11.5t-11.5 -4.5h-96q-7 0 -11.5 4.5t-4.5 11.5v64q0 7 -4.5 11.5t-11.5 4.5h-16
q-13 0 -22.5 -9.5t-9.5 -22.5v-448q0 -13 9.5 -22.5t22.5 -9.5h448q13 0 22.5 9.5t9.5 22.5v448q0 13 -9.5 22.5t-22.5 9.5zM448 32h-384v288h384v-288zM218 100q10 -10 20 0l142 143q10 10 0 21l-20 20q-10 10 -20 0l-112 -113l-56 51q-10 10 -20 0l-20 -20q-10 -10 0 -20z
" />
    <glyph glyph-name="uniE476" unicode="&#xe476;" 
d="M320 160h64v-64h-64v64zM160 432v32q0 7 -4.5 11.5t-11.5 4.5h-32q-7 0 -11.5 -4.5t-4.5 -11.5v-32q0 -7 4.5 -11.5t11.5 -4.5h32q7 0 11.5 4.5t4.5 11.5zM320 256h64v-64h-64v64zM416 432v32q0 7 -4.5 11.5t-11.5 4.5h-32q-7 0 -11.5 -4.5t-4.5 -11.5v-32
q0 -7 4.5 -11.5t11.5 -4.5h32q7 0 11.5 4.5t4.5 11.5zM432 384h-96q-7 0 -11.5 4.5t-4.5 11.5v64q0 7 -4.5 11.5t-11.5 4.5h-96q-7 0 -11.5 -4.5t-4.5 -11.5v-64q0 -7 -4.5 -11.5t-11.5 -4.5h-96q-7 0 -11.5 4.5t-4.5 11.5v64q0 7 -4.5 11.5t-11.5 4.5h-16q-13 0 -22.5 -9.5
t-9.5 -22.5v-448q0 -13 9.5 -22.5t22.5 -9.5h448q13 0 22.5 9.5t9.5 22.5v448q0 13 -9.5 22.5t-22.5 9.5h-16q-7 0 -11.5 -4.5t-4.5 -11.5v-64q0 -7 -4.5 -11.5t-11.5 -4.5zM448 32h-384v288h384v-288zM128 256h64v-64h-64v64zM224 256h64v-64h-64v64zM128 160h64v-64h-64
v64zM224 160h64v-64h-64v64z" />
    <glyph glyph-name="uniE477" unicode="&#xe477;" 
d="M160 432v32q0 7 -4.5 11.5t-11.5 4.5h-32q-7 0 -11.5 -4.5t-4.5 -11.5v-32q0 -7 4.5 -11.5t11.5 -4.5h32q7 0 11.5 4.5t4.5 11.5zM416 432v32q0 7 -4.5 11.5t-11.5 4.5h-32q-7 0 -11.5 -4.5t-4.5 -11.5v-32q0 -7 4.5 -11.5t11.5 -4.5h32q7 0 11.5 4.5t4.5 11.5zM432 384
h-96q-7 0 -11.5 4.5t-4.5 11.5v64q0 7 -4.5 11.5t-11.5 4.5h-96q-7 0 -11.5 -4.5t-4.5 -11.5v-64q0 -7 -4.5 -11.5t-11.5 -4.5h-96q-7 0 -11.5 4.5t-4.5 11.5v64q0 7 -4.5 11.5t-11.5 4.5h-16q-13 0 -22.5 -9.5t-9.5 -22.5v-448q0 -13 9.5 -22.5t22.5 -9.5h448
q13 0 22.5 9.5t9.5 22.5v448q0 13 -9.5 22.5t-22.5 9.5h-16q-7 0 -11.5 -4.5t-4.5 -11.5v-64q0 -7 -4.5 -11.5t-11.5 -4.5zM448 32h-384v288h384v-288zM176 256h-32q-7 0 -11.5 -4.5t-4.5 -11.5v-32q0 -7 4.5 -11.5t11.5 -4.5h32q7 0 11.5 4.5t4.5 11.5v32q0 7 -4.5 11.5
t-11.5 4.5zM176 160h-32q-7 0 -11.5 -4.5t-4.5 -11.5v-32q0 -7 4.5 -11.5t11.5 -4.5h32q7 0 11.5 4.5t4.5 11.5v32q0 7 -4.5 11.5t-11.5 4.5zM368 160h-128q-7 0 -11.5 -4.5t-4.5 -11.5v-32q0 -7 4.5 -11.5t11.5 -4.5h128q7 0 11.5 4.5t4.5 11.5v32q0 7 -4.5 11.5t-11.5 4.5
zM368 256h-128q-7 0 -11.5 -4.5t-4.5 -11.5v-32q0 -7 4.5 -11.5t11.5 -4.5h128q7 0 11.5 4.5t4.5 11.5v32q0 7 -4.5 11.5t-11.5 4.5z" />
    <glyph glyph-name="uniE478" unicode="&#xe478;" 
d="M480 480h-32h-128h-128h-128h-32q-13 0 -22.5 -9.5t-9.5 -22.5v-67v-61v-320q0 -13 9.5 -22.5t22.5 -9.5h448q13 0 22.5 9.5t9.5 22.5v320v61v67q0 13 -9.5 22.5t-22.5 9.5zM448 32h-384v288h384v-288zM448 384h-384v32h128h128h128v-32zM320 256h64v-64h-64v64zM320 160
h64v-64h-64v64zM224 256h64v-64h-64v64zM224 160h64v-64h-64v64zM128 256h64v-64h-64v64zM128 160h64v-64h-64v64z" />
    <glyph glyph-name="uniE479" unicode="&#xe479;" 
d="M432 480q-7 0 -11.5 -4.5t-4.5 -11.5v-48h-32v48q0 7 -4.5 11.5t-11.5 4.5h-32q-7 0 -11.5 -4.5t-4.5 -11.5v-48h-32v48q0 7 -4.5 11.5t-11.5 4.5h-32q-7 0 -11.5 -4.5t-4.5 -11.5v-48h-32v48q0 7 -4.5 11.5t-11.5 4.5h-32q-7 0 -11.5 -4.5t-4.5 -11.5v-48h-32v48
q0 7 -4.5 11.5t-11.5 4.5h-16q-13 0 -22.5 -9.5t-9.5 -22.5v-448q0 -13 9.5 -22.5t22.5 -9.5h384q13 0 22.5 9.5t9.5 22.5v448q0 13 -9.5 22.5t-22.5 9.5h-16zM416 32h-320v320h320v-320zM176 320h-32q-7 0 -11.5 -4.5t-4.5 -11.5v-32q0 -7 4.5 -11.5t11.5 -4.5h32
q7 0 11.5 4.5t4.5 11.5v32q0 7 -4.5 11.5t-11.5 4.5zM368 320h-128q-7 0 -11.5 -4.5t-4.5 -11.5v-32q0 -7 4.5 -11.5t11.5 -4.5h128q7 0 11.5 4.5t4.5 11.5v32q0 7 -4.5 11.5t-11.5 4.5zM176 224h-32q-7 0 -11.5 -4.5t-4.5 -11.5v-32q0 -7 4.5 -11.5t11.5 -4.5h32
q7 0 11.5 4.5t4.5 11.5v32q0 7 -4.5 11.5t-11.5 4.5zM368 224h-128q-7 0 -11.5 -4.5t-4.5 -11.5v-32q0 -7 4.5 -11.5t11.5 -4.5h128q7 0 11.5 4.5t4.5 11.5v32q0 7 -4.5 11.5t-11.5 4.5zM176 128h-32q-7 0 -11.5 -4.5t-4.5 -11.5v-32q0 -7 4.5 -11.5t11.5 -4.5h32
q7 0 11.5 4.5t4.5 11.5v32q0 7 -4.5 11.5t-11.5 4.5zM368 128h-128q-7 0 -11.5 -4.5t-4.5 -11.5v-32q0 -7 4.5 -11.5t11.5 -4.5h128q7 0 11.5 4.5t4.5 11.5v32q0 7 -4.5 11.5t-11.5 4.5z" />
    <glyph glyph-name="uniE47A" unicode="&#xe47a;" 
d="M0 448v-384v-64q0 -13 9.5 -22.5t22.5 -9.5h448q13 0 22.5 9.5t9.5 22.5v448q0 13 -9.5 22.5t-22.5 9.5h-448q-13 0 -22.5 -9.5t-9.5 -22.5zM352 48q0 -7 -4.5 -11.5t-11.5 -4.5h-160q-7 0 -11.5 4.5t-4.5 11.5v48q0 13 -9.5 22.5t-22.5 9.5h-64v288h384v-288h-64
q-13 0 -22.5 -9.5t-9.5 -22.5v-48z" />
    <glyph glyph-name="uniE47B" unicode="&#xe47b;" 
d="M480 480h-448q-13 0 -22.5 -9.5t-9.5 -22.5v-448q0 -13 9.5 -22.5t22.5 -9.5h448q13 0 22.5 9.5t9.5 22.5v448q0 13 -9.5 22.5t-22.5 9.5zM384 128q-13 0 -22.5 -9.5t-9.5 -22.5v-48q0 -7 -4.5 -11.5t-11.5 -4.5h-160q-7 0 -11.5 4.5t-4.5 11.5v48q0 13 -9.5 22.5
t-22.5 9.5h-64v288h384v-288h-64zM218 164q10 -10 20 0l142 143q10 10 0 21l-20 20q-10 10 -20 0l-112 -113l-56 56q-10 10 -20 0l-20 -21q-10 -10 0 -20z" />
    <glyph glyph-name="uniE47C" unicode="&#xe47c;" 
d="M480 480h-448q-13 0 -22.5 -9.5t-9.5 -22.5v-416v-32q0 -13 9.5 -22.5t22.5 -9.5h448q13 0 22.5 9.5t9.5 22.5v448q0 13 -9.5 22.5t-22.5 9.5zM448 128h-64q-13 0 -22.5 -9.5t-9.5 -22.5v-48q0 -7 -4.5 -11.5t-11.5 -4.5h-160q-7 0 -11.5 4.5t-4.5 11.5v48
q0 13 -9.5 22.5t-22.5 9.5h-64v288h384v-288zM170 224h54v-80q0 -7 4.5 -11.5t11.5 -4.5h32q7 0 11.5 4.5t4.5 11.5v80h54q7 0 9.5 5t-2.5 11l-83 106q-4 6 -10 6t-10 -6l-83 -106q-5 -6 -2.5 -11t9.5 -5z" />
    <glyph glyph-name="uniE47D" unicode="&#xe47d;" 
d="M480 480h-448q-13 0 -22.5 -9.5t-9.5 -22.5v-416v-32q0 -13 9.5 -22.5t22.5 -9.5h448q13 0 22.5 9.5t9.5 22.5v448q0 13 -9.5 22.5t-22.5 9.5zM384 128q-13 0 -22.5 -9.5t-9.5 -22.5v-48q0 -7 -4.5 -11.5t-11.5 -4.5h-160q-7 0 -11.5 4.5t-4.5 11.5v48q0 13 -9.5 22.5
t-22.5 9.5h-64v288h384v-288h-64zM176 224h48v-48q0 -7 4.5 -11.5t11.5 -4.5h32q7 0 11.5 4.5t4.5 11.5v48h48q7 0 11.5 4.5t4.5 11.5v32q0 7 -4.5 11.5t-11.5 4.5h-48v48q0 7 -4.5 11.5t-11.5 4.5h-32q-7 0 -11.5 -4.5t-4.5 -11.5v-48h-48q-7 0 -11.5 -4.5t-4.5 -11.5v-32
q0 -7 4.5 -11.5t11.5 -4.5z" />
    <glyph glyph-name="uniE47E" unicode="&#xe47e;" 
d="M480 480h-448q-13 0 -22.5 -9.5t-9.5 -22.5v-416v-32q0 -13 9.5 -22.5t22.5 -9.5h448q13 0 22.5 9.5t9.5 22.5v448q0 13 -9.5 22.5t-22.5 9.5zM384 128q-13 0 -22.5 -9.5t-9.5 -22.5v-48q0 -7 -4.5 -11.5t-11.5 -4.5h-160q-7 0 -11.5 4.5t-4.5 11.5v48q0 13 -9.5 22.5
t-22.5 9.5h-64v288h384v-288h-64zM368 352h-224q-7 0 -11.5 -4.5t-4.5 -11.5v-32q0 -7 4.5 -11.5t11.5 -4.5h224q7 0 11.5 4.5t4.5 11.5v32q0 7 -4.5 11.5t-11.5 4.5zM368 256h-224q-7 0 -11.5 -4.5t-4.5 -11.5v-32q0 -7 4.5 -11.5t11.5 -4.5h224q7 0 11.5 4.5t4.5 11.5v32
q0 7 -4.5 11.5t-11.5 4.5z" />
    <glyph glyph-name="uniE47F" unicode="&#xe47f;" 
d="M64 448l-64 -288v-160q0 -13 9.5 -22.5t22.5 -9.5h448q13 0 22.5 9.5t9.5 22.5v160l-64 288q0 13 -9.5 22.5t-22.5 9.5h-320q-13 0 -22.5 -9.5t-9.5 -22.5zM352 112q0 -7 -4.5 -11.5t-11.5 -4.5h-160q-7 0 -11.5 4.5t-4.5 11.5v48q0 13 -9.5 22.5t-22.5 9.5h-32l32 224
h256l32 -224h-32q-13 0 -22.5 -9.5t-9.5 -22.5v-48z" />
    <glyph glyph-name="uniE480" unicode="&#xe480;" 
d="M384 448q0 13 -9.5 22.5t-22.5 9.5h-192q-13 0 -22.5 -9.5t-9.5 -22.5v-64h-64q-13 0 -22.5 -9.5t-9.5 -22.5t9.5 -22.5t22.5 -9.5v-288v-32q0 -13 9.5 -22.5t22.5 -9.5h320q13 0 22.5 9.5t9.5 22.5v320q13 0 22.5 9.5t9.5 22.5t-9.5 22.5t-22.5 9.5h-64v64zM192 416h128
v-32h-128v32zM384 32h-256v288h256v-288z" />
    <glyph glyph-name="uniE481" unicode="&#xe481;" 
d="M208 288h-32q-7 0 -11.5 -4.5t-4.5 -11.5v-192q0 -7 4.5 -11.5t11.5 -4.5h32q7 0 11.5 4.5t4.5 11.5v192q0 7 -4.5 11.5t-11.5 4.5zM336 288h-32q-7 0 -11.5 -4.5t-4.5 -11.5v-192q0 -7 4.5 -11.5t11.5 -4.5h32q7 0 11.5 4.5t4.5 11.5v192q0 7 -4.5 11.5t-11.5 4.5z
M384 448q0 13 -9.5 22.5t-22.5 9.5h-192q-13 0 -22.5 -9.5t-9.5 -22.5v-64h-64q-13 0 -22.5 -9.5t-9.5 -22.5t9.5 -22.5t22.5 -9.5v-288v-32q0 -13 9.5 -22.5t22.5 -9.5h320q13 0 22.5 9.5t9.5 22.5v320q13 0 22.5 9.5t9.5 22.5t-9.5 22.5t-22.5 9.5h-64v64zM192 416h128
v-32h-128v32zM384 32h-256v288h256v-288z" />
    <glyph glyph-name="uniE482" unicode="&#xe482;" 
d="M208 256h-32q-7 0 -11.5 -4.5t-4.5 -11.5v-128q0 -7 4.5 -11.5t11.5 -4.5h32q7 0 11.5 4.5t4.5 11.5v128q0 7 -4.5 11.5t-11.5 4.5zM336 256h-32q-7 0 -11.5 -4.5t-4.5 -11.5v-128q0 -7 4.5 -11.5t11.5 -4.5h32q7 0 11.5 4.5t4.5 11.5v128q0 7 -4.5 11.5t-11.5 4.5z
M384 448q0 13 -9.5 22.5t-22.5 9.5h-192q-13 0 -22.5 -9.5t-9.5 -22.5v-64h-96q-13 0 -22.5 -9.5t-9.5 -22.5t9.5 -22.5t22.5 -9.5v-288v-32q0 -13 9.5 -22.5t22.5 -9.5h384q13 0 22.5 9.5t9.5 22.5v320q13 0 22.5 9.5t9.5 22.5t-9.5 22.5t-22.5 9.5h-96v64zM192 416h128
v-32h-128v32zM416 32h-320v288h320v-288z" />
    <glyph glyph-name="uniE483" unicode="&#xe483;" 
d="M448 384h-64v64q0 13 -9.5 22.5t-22.5 9.5h-192q-13 0 -22.5 -9.5t-9.5 -22.5v-64h-64q-13 0 -22.5 -9.5t-9.5 -22.5t9.5 -22.5t22.5 -9.5v-288v-32q0 -13 9.5 -22.5t22.5 -9.5h320q13 0 22.5 9.5t9.5 22.5v320q13 0 22.5 9.5t9.5 22.5t-9.5 22.5t-22.5 9.5zM192 416h128
v-32h-128v32zM128 32v288h32v-288h-32zM224 32v288h64v-288h-64zM384 32h-32v288h32v-288z" />
    <glyph glyph-name="uniE484" unicode="&#xe484;" 
d="M512 368q0 54 -77 83t-179 29t-179 -29t-77 -83q0 -33 32 -58v-230q0 -52 67 -82t157 -30t157 30t67 82v230q32 25 32 58zM256 416q56 0 102 -9.5t67 -20t23 -17.5q-2 -8 -23 -19t-67 -20.5t-102 -9.5t-102 9.5t-67 20t-23 17.5q2 8 23 19t67 20.5t102 9.5zM96 80v198
q29 -9 64 -15v-219q-29 8 -46.5 18.5t-17.5 17.5zM224 33v224q19 -1 32 -1t32 1v-224q-19 -1 -32 -1t-32 1zM416 80q0 -7 -17.5 -17.5t-46.5 -18.5v219q35 6 64 15v-198z" />
    <glyph glyph-name="uniE485" unicode="&#xe485;" 
d="M544 375q-3 45 -62.5 75t-145.5 30q-84 0 -143 -29t-64 -73q-59 -14 -94 -51.5t-35 -84t35.5 -83.5t92.5 -52v-24q0 -36 31 -62t77.5 -38t99.5 -12t99.5 12t77.5 38t31 62v292zM336 421q42 0 77.5 -9t52.5 -20.5t17 -21t-17 -21t-52.5 -20.5t-77.5 -9t-77.5 9t-52.5 20.5
t-17 21t17 21t52.5 20.5t77.5 9zM64 242.5q0 20.5 17.5 39.5t46.5 29v-137q-29 11 -46.5 29.5t-17.5 39zM336 35q-43 0 -78 9t-50.5 20t-15.5 19v16q72 0 126 35q9 -3 18 -3q20 0 34 14t14 33.5t-14 34t-34 14.5q-16 0 -28.5 -9.5t-16.5 -24.5q-40 -30 -99 -30v128
q59 -30 144 -30t144 30v-208q0 -8 -15.5 -19t-50.5 -20t-78 -9z" />
    <glyph glyph-name="uniE486" unicode="&#xe486;" 
d="M171 -18q-71 0 -121 50t-50 121t50 121l170 170q36 36 87 36t87 -36t36 -87t-36 -87l-170 -170q-22 -22 -53 -22t-53 22t-22 53t22 53l170 170q8 8 19 8t19 -8t8 -19t-8 -19l-170 -170q-6 -6 -6 -14.5t6.5 -15t15 -6.5t14.5 6l170 170q20 20 20 48.5t-20 49t-49 20.5
t-49 -20l-169 -170q-35 -34 -35 -82.5t34.5 -83t82.5 -34.5t83 34v1l237 237q8 8 19.5 8t19.5 -8t8 -19t-8 -19l-249 -249h-1q-47 -39 -109 -39z" />
    <glyph glyph-name="uniE487" unicode="&#xe487;" 
d="M384 448q0 13 9.5 22.5t22.5 9.5t22.5 -9.5t9.5 -22.5v-304q0 -73 -51.5 -124.5t-124.5 -51.5t-124.5 51.5t-51.5 124.5v208q0 53 37.5 90.5t90.5 37.5t90.5 -37.5t37.5 -90.5v-208q0 -33 -23.5 -56.5t-56.5 -23.5t-56.5 23.5t-23.5 56.5v208q0 13 9.5 22.5t22.5 9.5
t22.5 -9.5t9.5 -22.5v-208q0 -7 4.5 -11.5t11.5 -4.5t11.5 4.5t4.5 11.5v208q0 26 -19 45t-45 19t-45 -19t-19 -45v-208q0 -46 33 -79t79 -33t79 33t33 79v304z" />
    <glyph glyph-name="uniE488" unicode="&#xe488;" 
d="M480 480h-448q-13 0 -22.5 -9.5t-9.5 -22.5v-448q0 -13 9.5 -22.5t22.5 -9.5h448q13 0 22.5 9.5t9.5 22.5v448q0 13 -9.5 22.5t-22.5 9.5zM448 32h-384v384h384v-384zM352 256l-64 64l-160 -160v-64h64zM407 311q10 10 10 23t-10 22l-19 19q-9 10 -22 10t-23 -10l-23 -23
l64 -64z" />
    <glyph glyph-name="uniE489" unicode="&#xe489;" 
d="M128 160v-64h64l224 224l-64 64zM503 407q9 9 9 22t-9 23l-19 19q-10 9 -23 9t-22 -9l-55 -55l64 -64zM501 341l-42 -42q-11 -11 -11 -27v-240h-384v384h240q16 0 27 11l42 42q4 4 3 7.5t-8 3.5h-336q-13 0 -22.5 -9.5t-9.5 -22.5v-448q0 -13 9.5 -22.5t22.5 -9.5h448
q13 0 22.5 9.5t9.5 22.5v336q0 7 -3.5 8t-7.5 -3z" />
    <glyph glyph-name="uniE48A" unicode="&#xe48a;" 
d="M501 245l-42 -42q-11 -11 -11 -27v-144h-384v384h144q16 0 27 11l42 42q4 4 3 7.5t-8 3.5h-240q-13 0 -22.5 -9.5t-9.5 -22.5v-448q0 -13 9.5 -22.5t22.5 -9.5h448q13 0 22.5 9.5t9.5 22.5v240q0 7 -3.5 8t-7.5 -3zM96 64h128l265 265q10 10 10 23t-10 23l-82 82
q-10 10 -23 10t-23 -10l-265 -265v-128zM160 166l183 182l37 -37l-183 -183h-37v38z" />
    <glyph glyph-name="uniE48B" unicode="&#xe48b;" 
d="M489 388l-82 83q-10 9 -23 9t-23 -9l-361 -362v-141h128l361 368q10 9 10 25.5t-10 26.5zM101 32h-37v51l247 246l37 -44zM393 337l-37 38l28 28l38 -38z" />
    <glyph glyph-name="uniE48C" unicode="&#xe48c;" 
d="M361 471l-361 -362v-141h128l361 368q10 9 10 24t-10 25l-82 84q-10 10 -23 10.5t-23 -8.5zM101 32h-37v51l279 278l37 -44z" />
    <glyph glyph-name="uniE48D" unicode="&#xe48d;" 
d="M284 325l-112 -111q-11 -11 3 -18q30 -17 46 -47q8 -14 18 -3q15 15 52.5 53t58.5 59q79 79 122.5 142.5t30.5 76.5t-76.5 -30.5t-142.5 -121.5zM119 162q-24 0 -43.5 -15t-24.5 -38q-1 -1 -4 -14t-4.5 -17.5t-5 -16.5t-6 -18.5t-6.5 -16.5t-8.5 -18.5t-10.5 -15.5
q-8 -12 -5 -17.5t17 -3.5q33 6 70 20.5t68.5 42t31.5 57.5t-20.5 50.5t-48.5 20.5z" />
    <glyph glyph-name="uniE48E" unicode="&#xe48e;" 
d="M156 250q0 -12 4 -26l261 174q11 8 12 6.5t-9 -10.5l-231 -209l-65 -57v-32h32l64 64q23 -16 48 -16t84 67t107.5 143t48.5 102q0 11 -6 17t-12 7h-6q-26 0 -107 -46t-153 -102.5t-72 -81.5zM503 307l-46 -70q-9 -13 -9 -29v-176h-384v384h176q16 0 29 9l70 46
q5 4 4.5 6.5t-7.5 2.5h-304q-13 0 -22.5 -9.5t-9.5 -22.5v-448q0 -13 9.5 -22.5t22.5 -9.5h448q13 0 22.5 9.5t9.5 22.5v304q0 7 -2.5 7.5t-6.5 -4.5z" />
    <glyph glyph-name="uniE48F" unicode="&#xe48f;" 
d="M128 53l-85 -85h-43v43l87 76l316 286q10 9 9 10t-12 -6l-351 -246q-15 18 -11 43q6 43 101.5 118.5t199.5 131.5t141 56q4 0 9 -1t14 -9t9 -22q0 -34 -64.5 -136t-143.5 -191t-112 -89t-64 21z" />
    <glyph glyph-name="uniE490" unicode="&#xe490;" 
d="M498 281l-36 -18q-14 -7 -14 -23v-208h-384v384h139q15 0 26 12q20 23 41 42q5 4 4 7t-8 3h-234q-13 0 -22.5 -9.5t-9.5 -22.5v-448q0 -13 9.5 -22.5t22.5 -9.5h448q13 0 22.5 9.5t9.5 22.5v272q0 7 -4 9.5t-10 -0.5zM128 83v-6q0 -5 5.5 -9t10.5 -4t10.5 4t5.5 9v13
q0 34 31.5 82.5t66.5 73.5q14 -26 40 -26q11 0 22 7q11 6 17 18l1 1l4 10v3q2 7 2 13q0 2 -1 8q12 -8 25 -8q20 0 34 15t14 37v5q12 -5 24 -5q30 0 51 23t21 55t-21 55t-51 23q-40 0 -77 -18t-65 -45t-54.5 -65t-43.5 -72.5t-33 -73.5t-23 -61.5t-13 -42.5q-3 -11 -3 -19z
" />
    <glyph glyph-name="uniE491" unicode="&#xe491;" 
d="M416 480q-53 0 -102.5 -22t-87 -55.5t-72.5 -80t-58 -89t-44 -90.5t-30.5 -75.5t-17.5 -52.5q-4 -14 -4 -23v-8q0 -7 4.5 -11.5t11.5 -4.5t11.5 4.5t4.5 11.5v16q16 49 55 107t82 86q18 -33 55 -33q16 0 31 8v0q15 9 24 23v2q4 5 6 12l1 3q2 9 2 16q0 3 -1 9q16 -9 33 -9
q27 0 45.5 18.5t18.5 45.5l-1 6q17 -6 33 -6q40 0 68 28t28 68t-28 68t-68 28z" />
    <glyph glyph-name="uniE492" unicode="&#xe492;" 
d="M480 448h-448q-13 0 -22.5 -9.5t-9.5 -22.5v-384q0 -13 9.5 -22.5t22.5 -9.5h448q13 0 22.5 9.5t9.5 22.5v384q0 13 -9.5 22.5t-22.5 9.5zM256 205l-179 179h358zM147 224l-83 -83v166zM245 126q11 -11 22 0l53 53l115 -115h-358l115 115zM365 224l83 83v-166z" />
    <glyph glyph-name="uniE493" unicode="&#xe493;" 
d="M480 448h-448q-13 0 -22.5 -9.5t-9.5 -22.5v-384q0 -13 9.5 -22.5t22.5 -9.5h448q13 0 22.5 9.5t9.5 22.5v384q0 13 -9.5 22.5t-22.5 9.5zM435 384l-179 -179l-179 179h358zM64 307l181 -181q11 -11 22 0l181 181v-243h-384v243z" />
    <glyph glyph-name="uniE494" unicode="&#xe494;" 
d="M480 448h-448q-13 0 -22.5 -9.5t-9.5 -22.5v-384q0 -13 9.5 -22.5t22.5 -9.5h448q13 0 22.5 9.5t9.5 22.5v384q0 13 -9.5 22.5t-22.5 9.5zM448 64h-384v320h384v-320zM336 256h64q7 0 11.5 4.5t4.5 11.5v64q0 7 -4.5 11.5t-11.5 4.5h-64q-7 0 -11.5 -4.5t-4.5 -11.5v-64
q0 -7 4.5 -11.5t11.5 -4.5zM112 192h160q7 0 11.5 4.5t4.5 11.5v32q0 7 -4.5 11.5t-11.5 4.5h-160q-7 0 -11.5 -4.5t-4.5 -11.5v-32q0 -7 4.5 -11.5t11.5 -4.5zM112 96h160q7 0 11.5 4.5t4.5 11.5v32q0 7 -4.5 11.5t-11.5 4.5h-160q-7 0 -11.5 -4.5t-4.5 -11.5v-32
q0 -7 4.5 -11.5t11.5 -4.5z" />
    <glyph glyph-name="uniE495" unicode="&#xe495;" 
d="M480 416h-448q-13 0 -22.5 -9.5t-9.5 -22.5v-320q0 -13 9.5 -22.5t22.5 -9.5h448q13 0 22.5 9.5t9.5 22.5v320q0 13 -9.5 22.5t-22.5 9.5zM256 205l-147 147h294zM147 224l-83 -83v166zM192 179l53 -53q11 -11 22 0l53 53l83 -83h-294zM365 224l83 83v-166z" />
    <glyph glyph-name="uniE496" unicode="&#xe496;" 
d="M8 269l104 -100l-9 -7q-7 -6 -7 -31v-130q0 -25 15 -30q6 -3 10 -3q13 0 23 9l84 83l72 -69q10 -10 20.5 -7.5t15.5 15.5l174 460q5 12 -1 18t-19 1l-474 -175q-13 -4 -15.5 -14t7.5 -20zM88 271l266 88l-199 -152zM301 68l-98 93l199 174z" />
    <glyph glyph-name="uniE497" unicode="&#xe497;" 
d="M166 143q2 -6 5 -6t6 6q12 29 27 51.5t37.5 42.5t49 24t61.5 -5v-44q0 -15 8 -19t18 5l129 111q5 4 5 11t-5 11l-129 111q-10 9 -18 5t-8 -19v-44q-80 0 -136 -56.5t-56 -135.5q0 -25 6 -49zM500 247l-40 -32q-12 -10 -12 -26v-125h-384v224h67q15 0 22 15q10 19 22 36
q4 6 2 9.5t-9 3.5h-136q-13 0 -22.5 -9.5t-9.5 -22.5v-32v-256q0 -13 9.5 -22.5t22.5 -9.5h448q13 0 22.5 9.5t9.5 22.5v209q0 6 -3.5 8t-8.5 -2z" />
    <glyph glyph-name="uniE498" unicode="&#xe498;" 
d="M166 175q2 -6 5 -6t6 6q12 29 27 51.5t37.5 42.5t49 24t61.5 -5v-44q0 -15 8 -19t18 5l129 111q5 4 5 11t-5 11l-129 111q-10 9 -18 5t-8 -19v-44q-80 0 -136 -56.5t-56 -135.5q0 -25 6 -49zM500 279l-40 -32q-12 -10 -12 -26v-189h-384v288h67q15 0 22 15q10 19 22 36
q4 6 2 9.5t-9 3.5h-136q-13 0 -22.5 -9.5t-9.5 -22.5v-32v-320q0 -13 9.5 -22.5t22.5 -9.5h448q13 0 22.5 9.5t9.5 22.5v273q0 6 -3.5 8t-8.5 -2z" />
    <glyph glyph-name="uniE499" unicode="&#xe499;" 
d="M320 317v3v44q0 15 -8 19t-18 -5l-129 -111q-5 -4 -5 -11t5 -11l129 -111q10 -9 18 -5t8 19v44h32q71 -13 111 -113q2 -6 5.5 -6t4.5 6q7 25 7 49q0 72 -44.5 125t-115.5 64zM101 245q-5 4 -5 11t5 11l79 68q12 10 12 20v9q0 15 -8 19t-18 -5l-129 -111q-5 -4 -5 -11
t5 -11l129 -111q10 -9 18 -5t8 19v9q0 10 -12 20z" />
    <glyph glyph-name="uniE49A" unicode="&#xe49a;" 
d="M256 317v3v44q0 15 -8 19t-18 -5l-129 -111q-5 -4 -5 -11t5 -11l129 -111q10 -9 18 -5t8 19v44h32q71 -13 111 -113q3 -6 6 -6t5 6q6 25 6 49q0 72 -44.5 125t-115.5 64z" />
    <glyph glyph-name="uniE49B" unicode="&#xe49b;" 
d="M282 346q-11 9 -18.5 5t-7.5 -19v-44h-144q-7 0 -11.5 -4.5t-4.5 -11.5v-96q0 -7 4.5 -11.5t11.5 -4.5h144v-44q0 -15 7.5 -19t18.5 5l128 111q6 4 6 11t-6 11z" />
    <glyph glyph-name="uniE49C" unicode="&#xe49c;" 
d="M194 188l-26 -83q-3 -9 4 -9q1 0 5 2l79 43l80 -43q3 -1 6 -1q7 0 3 10l-26 85l53 50q10 13 5 14h-71l-41 82q-7 14 -9 14q-1 0 -8 -13l-42 -83h-73q-6 0 -5.5 -2.5t3.5 -6.5zM480 480h-448q-13 0 -22.5 -9.5t-9.5 -22.5v-448q0 -13 9.5 -22.5t22.5 -9.5h448
q13 0 22.5 9.5t9.5 22.5v448q0 13 -9.5 22.5t-22.5 9.5zM448 32h-384v384h384v-384z" />
    <glyph glyph-name="uniE49D" unicode="&#xe49d;" 
d="M398 -29l-142 78l-142 -78q-10 -6 -16.5 -1.5t-4.5 17.5l28 165l-114 116q-9 9 -6.5 16.5t14.5 9.5l157 24l71 151q6 11 13 11t13 -11l71 -151l157 -24q12 -2 14.5 -9.5t-6.5 -16.5l-114 -116l28 -165q2 -13 -4.5 -17.5t-16.5 1.5zM109 248l74 -75l-17 -106l90 50l90 -50
l-17 106l74 75l-102 15l-45 95l-45 -95z" />
    <glyph glyph-name="uniE49E" unicode="&#xe49e;" 
d="M278 23q-9 -9 -22 -9t-22 9l-196 205q-38 38 -38 91.5t37.5 91t90.5 37.5t91 -38l37 -45l38 45q37 38 90 38t91 -37.5t38 -91t-38 -91.5zM278 297q-9 -10 -21.5 -10t-21.5 10l-61 68q-19 19 -45.5 19t-45.5 -19t-19 -46t19 -45l173 -183l174 183q18 18 18 45t-18.5 46
t-45 19t-45.5 -19z" />
    <glyph glyph-name="uniE49F" unicode="&#xe49f;" 
d="M256 81l-134 -101q-11 -8 -18.5 -4t-7.5 17v448q0 14 12 26.5t30 12.5h239q19 0 29 -10.5t10 -28.5v-448q0 -13 -7.5 -17t-18.5 4zM282 142l70 -53v327h-192v-327l70 53q11 8 26 8t26 -8z" />
    <glyph glyph-name="uniE4A0" unicode="&#xe4a0;" 
d="M401 480h-287q-21 0 -35.5 -12.5t-14.5 -26.5v-455q0 -13 9 -17t22 4l161 103l161 -103q13 -8 22 -4t9 17v455q0 18 -12 28.5t-35 10.5zM270 152q-14 8 -28 0l-114 -68v332h256v-332z" />
    <glyph glyph-name="uniE4A1" unicode="&#xe4a1;" 
d="M401 480h-287q-21 0 -35.5 -12.5t-14.5 -26.5v-455q0 -13 9 -17t22 4l161 103l161 -103q13 -8 22 -4t9 17v455q0 18 -12 28.5t-35 10.5zM270 152q-14 8 -28 0l-114 -68v332h256v-332zM212 265l-18 -55q-2 -7 3 -7q2 0 4 1l55 28l56 -28q2 -1 4 -1q4 0 2 7l-18 55l47 45
q3 4 2 6.5t-6 2.5h-54l-27 45q-3 4 -6 4t-6 -4l-27 -45h-54q-5 0 -6 -2.5t2 -6.5z" />
    <glyph glyph-name="uniE4A2" unicode="&#xe4a2;" 
d="M495 246l-224 226q-8 8 -10 8q-5 0 -5 -23v-74l-99 -94l-105 -10q-17 -3 -21.5 -13.5t7.5 -22.5l83 -83l-30 -31l-89 -145q-3 -6 -1 -8.5t8 0.5l146 89l30 31l83 -82q9 -9 18 -9q14 0 18 20l11 104l93 95h75q34 0 12 22zM362 270l-93 -96l-16 -16l-2 -22l-1 -14l-103 102
l14 2l22 2l16 15l96 94l11 10l66 -67z" />
    <glyph glyph-name="uniE4A3" unicode="&#xe4a3;" 
d="M400 192q-52 0 -86 -41l-65 32q7 22 7 41t-7 41l65 32q34 -41 86 -41q46 0 79 33t33 79t-33 79t-79 33t-79 -33t-33 -79q0 -1 1 -12l-75 -37q-37 33 -86 33q-53 0 -90.5 -37.5t-37.5 -90.5t37.5 -90.5t90.5 -37.5q49 0 86 33l75 -37q-1 -11 -1 -12q0 -46 33 -79t79 -33
t79 33t33 79t-33 79t-79 33zM400 426q24 0 41 -17t17 -41t-17 -41t-41 -17t-41 17t-17 41t17 41t41 17zM128 158q-27 0 -46.5 19.5t-19.5 46.5t19.5 46.5t46.5 19.5t46.5 -19.5t19.5 -46.5t-19.5 -46.5t-46.5 -19.5zM400 22q-24 0 -41 17t-17 41t17 41t41 17t41 -17t17 -41
t-17 -41t-41 -17z" />
    <glyph glyph-name="uniE4A4" unicode="&#xe4a4;" 
d="M400 192q-1 0 -12 -1l-37 75q33 37 33 86q0 53 -37.5 90.5t-90.5 37.5t-90.5 -37.5t-37.5 -90.5q0 -49 33 -86l-37 -75q-11 1 -12 1q-46 0 -79 -33t-33 -79t33 -79t79 -33t79 33t33 79q0 52 -41 86l32 65q22 -7 41 -7t41 7l32 -65q-41 -34 -41 -86q0 -46 33 -79t79 -33
t79 33t33 79t-33 79t-79 33zM112 22q-24 0 -41 17t-17 41t17 41t41 17t41 -17t17 -41t-17 -41t-41 -17zM190 352q0 27 19.5 46.5t46.5 19.5t46.5 -19.5t19.5 -46.5t-19.5 -46.5t-46.5 -19.5t-46.5 19.5t-19.5 46.5zM400 22q-24 0 -41 17t-17 41t17 41t41 17t41 -17t17 -41
t-17 -41t-41 -17z" />
    <glyph glyph-name="uniE4A5" unicode="&#xe4a5;" 
d="M128 224q0 53 37.5 90.5t90.5 37.5t91 -37q9 -10 22.5 -10t22.5 9.5t9 23t-9 22.5q-57 56 -136 56q-71 0 -124.5 -45.5t-64.5 -114.5h-51q-7 0 -11.5 -4.5t-4.5 -11.5v-32q0 -7 4.5 -11.5t11.5 -4.5h80q13 0 22.5 9.5t9.5 22.5zM496 256h-80q-13 0 -22.5 -9.5t-9.5 -22.5
q0 -53 -37.5 -90.5t-90.5 -37.5t-91 37q-9 10 -22.5 10t-22.5 -9.5t-9 -23t9 -22.5q57 -56 136 -56q71 0 124.5 45.5t64.5 114.5h51q7 0 11.5 4.5t4.5 11.5v32q0 7 -4.5 11.5t-11.5 4.5zM192 224q0 -26 19 -45t45 -19t45 19t19 45t-19 45t-45 19t-45 -19t-19 -45z" />
    <glyph glyph-name="uniE4A6" unicode="&#xe4a6;" 
d="M512 288v-128q0 -26 -19 -45t-45 -19h-128q-13 0 -22.5 9.5t-9.5 22.5t9.5 22.5t22.5 9.5h96q13 0 22.5 9.5t9.5 22.5v64q0 13 -9.5 22.5t-22.5 9.5h-79l-21 -32h36q13 0 22.5 -9.5t9.5 -22.5t-9.5 -22.5t-22.5 -9.5h-79l-54 -82l-1 1q-10 -15 -26 -15h-128
q-27 0 -45.5 19t-18.5 45v128q0 26 19 45t45 19h128q13 0 22.5 -9.5t9.5 -22.5t-9.5 -22.5t-22.5 -9.5h-96q-13 0 -22.5 -9.5t-9.5 -22.5v-64q0 -13 9.5 -22.5t22.5 -9.5h79l21 32h-36q-13 0 -22.5 9.5t-9.5 22.5t9.5 22.5t22.5 9.5h79l54 82l1 -1q10 15 26 15h128
q26 0 45 -18.5t19 -45.5z" />
    <glyph glyph-name="uniE4A7" unicode="&#xe4a7;" 
d="M303 460l-94 -94q-12 -12 -9 -30l5 -25.5t10 -50.5l5 -25l-59 -58q-9 -10 -9 -24t9.5 -23.5t23.5 -9.5t24 9l26 27l8 -39l-58 -58q-10 -10 -23.5 -10t-23.5 10l-47 47q-10 10 -10 23.5t10 23.5l71 72q8 8 9 18t-2 17t-8 11q-9 10 -23 10t-24 -10l-94 -94
q-20 -20 -20 -47.5t20 -47.5l94 -94q20 -20 47.5 -20t47.5 20l94 94q12 12 9 30l-5 25.5t-10 50.5l-5 25l59 58q9 10 9 24t-9.5 23.5t-23.5 9.5t-24 -9l-26 -27l-8 39l58 59q10 9 23.5 9t23.5 -9l48 -48q9 -10 9 -23.5t-9 -23.5l-72 -72q-9 -10 -8 -24.5t9 -21.5
q9 -10 23 -10t24 10l94 94q20 20 20 47.5t-20 47.5l-94 94q-20 20 -47.5 20t-47.5 -20z" />
    <glyph glyph-name="uniE4A8" unicode="&#xe4a8;" 
d="M148 146q0 1 -1 3q-6 11 -12 11h-7q-26 0 -45 19t-19 45t19 45t45 19h96q26 0 45 -19t19 -45q0 -13 9.5 -22.5t22.5 -9.5t22.5 9.5t9.5 22.5q0 17 -4 32q-2 8 -6 17v0q-9 23 -26 40l-1 1q-23 23 -53 32q-18 6 -38 6h-96q-53 0 -90.5 -37.5t-37.5 -90.5t37.5 -90.5
t90.5 -37.5h48q15 0 4 10q-19 18 -32 40zM384 352h-48q-15 0 -4 -10q19 -17 32 -40q8 -14 13 -14h7q26 0 45 -19t19 -45t-19 -45t-45 -19h-96q-26 0 -45 19t-19 45q0 13 -9.5 22.5t-22.5 9.5t-22.5 -9.5t-9.5 -22.5q0 -32 15 -61q1 -1 6 -10q3 -4 8 -10t10 -11q6 -5 11 -9
q2 -2 7 -5q32 -22 71 -22h96q53 0 90.5 37.5t37.5 90.5t-37.5 90.5t-90.5 37.5z" />
    <glyph glyph-name="uniE4A9" unicode="&#xe4a9;" 
d="M244 94q-17 5 -21 1l-39 -39q-20 -20 -48 -20t-48 20t-20 48t20 48l96 96q20 20 48 20t48 -20q10 -10 24 -10t24 10t10 24t-10 24q-13 13 -27 21q-8 5 -17 8v1q-24 9 -50 10h-1h-1q-34 0 -63 -16q-18 -9 -33 -24l-96 -96q-40 -40 -40 -96t40 -96t96 -40t96 40l70 70
q5 5 3.5 7.5t-8.5 2.5q-27 -1 -53 6zM280 440l-71 -71q-5 -5 -3.5 -8t8.5 -2q27 1 53 -6q17 -5 21 -1l40 40q20 20 48 20t48 -20t20 -48t-20 -48l-96 -96q-20 -20 -48 -20t-48 20q-10 10 -24 10t-24 -10t-10 -24t10 -24q24 -24 57 -34q3 -1 7.5 -2l4.5 -1q5 -1 14 -2
q8 -1 15 -1q9 0 15 1q5 1 9 2q41 8 70 37l96 96q40 40 40 96t-40 96t-96 40t-96 -40z" />
    <glyph glyph-name="uniE4AA" unicode="&#xe4aa;" 
d="M480 480h-448q-13 0 -22.5 -9.5t-9.5 -22.5v-448q0 -13 9.5 -22.5t22.5 -9.5h448q13 0 22.5 9.5t9.5 22.5v448q0 13 -9.5 22.5t-22.5 9.5zM448 32h-384v384h384v-384zM176 288h32q16 0 16 16q0 7 4.5 11.5t11.5 4.5h32q7 0 11.5 -4.5t4.5 -11.5v-32q0 -7 -4.5 -11.5
t-11.5 -4.5h-24q-24 0 -24 -32v-48q0 -7 4.5 -11.5t11.5 -4.5h32q7 0 11.5 4.5t4.5 11.5v22q28 10 46 34.5t18 55.5q0 40 -28 68t-68 28q-35 0 -62 -23t-33 -57q-2 -16 15 -16zM272 128h-32q-7 0 -11.5 -4.5t-4.5 -11.5v-32q0 -7 4.5 -11.5t11.5 -4.5h32q7 0 11.5 4.5
t4.5 11.5v32q0 7 -4.5 11.5t-11.5 4.5z" />
    <glyph glyph-name="uniE4AB" unicode="&#xe4ab;" 
d="M256 480q-106 0 -181 -75t-75 -181t75 -181t181 -75t181 75t75 181t-75 181t-181 75zM256 32q-79 0 -135.5 56.5t-56.5 135.5t56.5 135.5t135.5 56.5t135.5 -56.5t56.5 -135.5t-56.5 -135.5t-135.5 -56.5zM256 384q-35 0 -62 -23t-33 -57q-2 -16 15 -16h32q16 0 16 16
q0 7 4.5 11.5t11.5 4.5h32q7 0 11.5 -4.5t4.5 -11.5v-32q0 -7 -4.5 -11.5t-11.5 -4.5h-24q-24 0 -24 -32v-48q0 -7 4.5 -11.5t11.5 -4.5h32q7 0 11.5 4.5t4.5 11.5v22q28 10 46 34.5t18 55.5q0 40 -28 68t-68 28zM272 128h-32q-7 0 -11.5 -4.5t-4.5 -11.5v-32
q0 -7 4.5 -11.5t11.5 -4.5h32q7 0 11.5 4.5t4.5 11.5v32q0 7 -4.5 11.5t-11.5 4.5z" />
    <glyph glyph-name="uniE4AC" unicode="&#xe4ac;" 
d="M288 240q0 7 -4.5 11.5t-11.5 4.5h-32q-7 0 -11.5 -4.5t-4.5 -11.5v-96q0 -7 4.5 -11.5t11.5 -4.5h32q7 0 11.5 4.5t4.5 11.5v96zM272 97h-32q-7 0 -11.5 -4.5t-4.5 -11.5v-32q0 -6 4.5 -11t11.5 -5h32q7 0 11.5 5t4.5 11v32q0 7 -4.5 11.5t-11.5 4.5zM540 -16l-256 480
q-8 16 -28 16t-28 -16l-256 -480q-9 -16 1 -32q9 -16 27 -16h512q18 0 27 16q10 16 1 32zM53 0l203 380l203 -380h-406z" />
    <glyph glyph-name="uniE4AD" unicode="&#xe4ad;" 
d="M256 480q-106 0 -181 -75t-75 -181t75 -181t181 -75t181 75t75 181t-75 181t-181 75zM256 32q-79 0 -135.5 56.5t-56.5 135.5t56.5 135.5t135.5 56.5t135.5 -56.5t56.5 -135.5t-56.5 -135.5t-135.5 -56.5zM272 384h-32q-7 0 -11.5 -4.5t-4.5 -11.5v-192q0 -7 4.5 -11.5
t11.5 -4.5h32q7 0 11.5 4.5t4.5 11.5v192q0 7 -4.5 11.5t-11.5 4.5zM272 128h-32q-7 0 -11.5 -4.5t-4.5 -11.5v-32q0 -7 4.5 -11.5t11.5 -4.5h32q7 0 11.5 4.5t4.5 11.5v32q0 7 -4.5 11.5t-11.5 4.5z" />
    <glyph glyph-name="uniE4AE" unicode="&#xe4ae;" 
d="M256 64h48q7 0 11.5 4.5t4.5 11.5v32q0 7 -4.5 11.5t-11.5 4.5h-16v128q0 13 -9.5 22.5t-22.5 9.5h-48q-7 0 -11.5 -4.5t-4.5 -11.5v-32q0 -7 4.5 -11.5t11.5 -4.5h16v-128q0 -13 9.5 -22.5t22.5 -9.5zM272 384h-32q-7 0 -11.5 -4.5t-4.5 -11.5v-32q0 -7 4.5 -11.5
t11.5 -4.5h32q7 0 11.5 4.5t4.5 11.5v32q0 7 -4.5 11.5t-11.5 4.5zM480 480h-448q-13 0 -22.5 -9.5t-9.5 -22.5v-448q0 -13 9.5 -22.5t22.5 -9.5h448q13 0 22.5 9.5t9.5 22.5v448q0 13 -9.5 22.5t-22.5 9.5zM448 32h-384v384h384v-384z" />
    <glyph glyph-name="uniE4AF" unicode="&#xe4af;" 
d="M256 480q-106 0 -181 -75t-75 -181t75 -181t181 -75t181 75t75 181t-75 181t-181 75zM256 32q-79 0 -135.5 56.5t-56.5 135.5t56.5 135.5t135.5 56.5t135.5 -56.5t56.5 -135.5t-56.5 -135.5t-135.5 -56.5zM272 352h-32q-7 0 -11.5 -4.5t-4.5 -11.5v-32q0 -7 4.5 -11.5
t11.5 -4.5h32q7 0 11.5 4.5t4.5 11.5v32q0 7 -4.5 11.5t-11.5 4.5zM272 256h-32q-7 0 -11.5 -4.5t-4.5 -11.5v-128q0 -7 4.5 -11.5t11.5 -4.5h32q7 0 11.5 4.5t4.5 11.5v128q0 7 -4.5 11.5t-11.5 4.5z" />
    <glyph glyph-name="uniE4B0" unicode="&#xe4b0;" 
d="M448 -32h-384q-13 0 -22.5 9.5t-9.5 22.5v32q0 56 27 106t73 81q-36 44 -36 101q0 66 47 113t113 47t113 -47t47 -113q0 -57 -36 -101q46 -31 73 -81t27 -106v-32q0 -13 -9.5 -22.5t-22.5 -9.5zM96 32h320q0 50 -28.5 91t-74.5 59q-19 6 -21 26t15 31q45 28 45 81
q0 40 -28 68t-68 28t-68 -28t-28 -68q0 -53 45 -81q17 -11 15 -30.5t-21 -26.5q-46 -18 -74.5 -59t-28.5 -91z" />
    </font>
</defs>
</svg>
