<?xml version="1.0" standalone="no"?>
<!DOCTYPE svg PUBLIC "-//W3C//DTD SVG 1.1//EN" "http://www.w3.org/Graphics/SVG/1.1/DTD/svg11.dtd" >
<svg>
<metadata>
Created by FontForge 20110222 at Mon Feb 17 08:21:49 2014
 By www-data
Copyright (c) 2014 by Mans Greback. All rights reserved.
</metadata>
<defs>
<font id="LakesightPersonalUseOnly" horiz-adv-x="999" >
  <font-face 
    font-family="Lakesight Personal Use Only"
    font-weight="400"
    font-stretch="normal"
    units-per-em="1000"
    panose-1="0 0 0 0 0 0 0 0 0 0"
    ascent="750"
    descent="-250"
    x-height="378"
    cap-height="651"
    bbox="-299.13 -354.722 1352.46 922.931"
    underline-thickness="50"
    underline-position="-50"
    unicode-range="U+0020-2122"
  />
    <missing-glyph />
    <glyph glyph-name="space" unicode=" " horiz-adv-x="262" 
 />
    <glyph glyph-name="Z" unicode="Z" horiz-adv-x="802" 
d="M450 259q22 25 50.5 56.5t60.5 65t66 67t67 63.5q-51 -5 -103 -2.5t-98 15.5q-23 -44 -64.5 -79.5t-104.5 -57.5q-32 -11 -63.5 -9.5t-58 10t-46 21.5t-27 25.5t-1.5 21.5t31 9q32 1 67 10t69.5 25t66 38.5t57.5 50.5q-12 21 -14.5 44.5t2.5 44t15.5 35.5t24.5 20
q12 4 24.5 1.5t23 -14t17 -31.5t7.5 -50q0 -10 -0.5 -19t-1.5 -18q34 -12 72 -15.5t75.5 -2.5t73 6.5t64.5 11.5q21 21 47 43.5t51.5 38t47.5 18.5t34 -15q14 -21 5.5 -43.5t-33 -43t-63 -38t-84.5 -30.5q-24 -23 -52.5 -57.5t-60.5 -75.5t-67 -87.5t-72 -94.5
q-11 -14 -24.5 -31t-27.5 -34.5t-27 -33.5t-23 -28q118 -26 196 -69q33 -19 52 -45t26 -53.5t4.5 -52t-11 -40t-21 -19t-25.5 12.5q-13 15 -44 37t-73.5 47t-93.5 49.5t-103 44.5q-26 -18 -55.5 -33.5t-58.5 -26.5t-56 -17.5t-47 -6.5q-47 0 -78 14t-46 35.5t-14 46.5t19 47
t53 37.5t88 17.5q38 2 75.5 0.5t73.5 -4.5q34 32 67.5 69.5t68.5 77.5zM143 5q20 2 41 11t44 24q-50 9 -87 5q-24 -3 -35.5 -10.5t-11.5 -14.5t12.5 -12t36.5 -3z" />
    <glyph glyph-name="Y" unicode="Y" horiz-adv-x="654" 
d="M722 657q18 14 30.5 14.5t17.5 -6.5t1 -20t-19 -26q-34 -30 -66.5 -92.5t-65.5 -140t-68 -161t-72 -155.5q-32 -62 -71.5 -106.5t-82 -69t-85 -28t-81.5 16.5q-34 17 -50 44t-20.5 55t1 53.5t14.5 39.5t19 13t15 -25q5 -26 19 -42t33.5 -22t43 -3.5t47.5 14.5
q25 12 52 38t51.5 57t43.5 62t27 53h-1q-20 -26 -49.5 -50.5t-62.5 -41.5t-66.5 -22.5t-60.5 8.5q-26 13 -44 37.5t-21.5 62t10 87.5t51.5 115q-12 -6 -28.5 -12t-34 -9t-34.5 -3.5t-31 4.5q-29 10 -45.5 31t-23 46t-4.5 49.5t9 41t18 21t23 -10.5q29 -38 84 -57.5t128 -8.5
q32 42 65.5 75t64 53t56 26.5t41.5 -4.5q24 -17 11.5 -58.5t-69.5 -86.5q-44 -35 -96 -67q-21 -36 -34 -71t-16.5 -64t2.5 -50.5t24 -29.5q22 -11 45.5 -3.5t47.5 27.5t47.5 49.5t45.5 63.5q25 44 51 87t53 81t55 69.5t55 51.5z" />
    <glyph glyph-name="X" unicode="X" horiz-adv-x="846" 
d="M976 687q26 -1 15 -18t-53 -45q-23 -15 -61.5 -52t-86.5 -86.5t-101.5 -107.5t-105.5 -116q24 -66 52.5 -117.5t60 -87t66 -52.5t70.5 -13q27 3 33 -6.5t-4 -25t-33.5 -33t-54.5 -30t-67 -16.5t-71 7q-32 10 -56 34.5t-41.5 59.5t-29.5 79.5t-19 94.5l-103 -120
q-42 -50 -85 -85.5t-84 -55t-77.5 -22.5t-63.5 13q-39 23 -53.5 54.5t-13.5 63t12.5 58.5t25 41.5t23.5 11.5t8 -32q-3 -31 12 -46t37.5 -19t48.5 1.5t46 16.5q17 9 35.5 22.5t37 30t36.5 34t33 34.5q21 23 49.5 53.5t62.5 65.5q-3 43 -5 86.5t-4 85.5q-29 -19 -64 -31.5
t-78 -17.5q-34 -4 -64.5 4t-54.5 22t-40 31.5t-20.5 31t3.5 21t32 2.5q31 -6 66.5 -5.5t72 8t72 22.5t66.5 36q3 63 20 104.5t45 45.5q26 4 42 -28.5t5 -91.5q-6 -28 -17.5 -53.5t-29.5 -48.5q7 -38 14.5 -73.5t16.5 -69.5q58 59 120.5 118.5t120 106.5t105 76.5t76.5 28.5z
" />
    <glyph glyph-name="W" unicode="W" horiz-adv-x="868" 
d="M514 561q27 -44 35.5 -101t2.5 -118.5t-23 -124.5t-41.5 -120.5t-53.5 -106t-58 -81.5q42 24 81 67t77 98t75.5 118t76 127t79 125t83.5 111.5t90 86.5t99 50q38 10 68 5t51.5 -19.5t34.5 -33t16.5 -35t-2.5 -26.5t-22 -6q-52 11 -103.5 -13t-103 -72t-103 -113.5
t-104 -136t-106 -140.5t-109 -127t-113 -95.5t-117.5 -45.5q-13 -2 -22.5 3.5t-12.5 15t0.5 23t16.5 27.5q38 42 64 109t39 143q-29 -56 -66 -107.5t-82 -94.5t-98 -74t-115 -45q-13 -2 -22.5 3.5t-12.5 15t0.5 23t15.5 27.5q35 39 60.5 100t39 131t14.5 142.5t-11 134
t-38.5 105t-67.5 55.5q-21 6 -19.5 18t17.5 23t43 18t57.5 4t61 -20t52.5 -53q27 -44 35.5 -101t2.5 -118.5t-23 -124.5t-41.5 -120.5t-53.5 -106t-58 -81.5q53 22 102.5 67.5t91 104.5t71 126t43 133t7.5 126t-37 104q-10 14 -5 23t18.5 13.5t32 4t37 -6t33 -16.5t20.5 -27
z" />
    <glyph glyph-name="V" unicode="V" horiz-adv-x="628" 
d="M247 561q27 -44 35.5 -101t2.5 -118.5t-23 -124.5t-41.5 -120.5t-53.5 -106t-58 -81.5q42 24 81 67t77 98t75.5 118t76 127t79 125t83.5 111.5t90 86.5t99 50q38 10 68 5t51.5 -19.5t34.5 -33t16.5 -35t-2.5 -26.5t-22 -6q-52 11 -103.5 -13t-103 -72t-103 -113.5
t-104 -136t-106 -140.5t-109 -127t-113 -95.5t-117.5 -45.5q-13 -2 -22.5 3.5t-12.5 15t0.5 23t16.5 27.5q35 39 60 100t38.5 131t15 142.5t-11 134t-38.5 105t-68 55.5q-21 6 -19.5 18t17.5 23t43 18t57.5 4t61 -20t52.5 -53z" />
    <glyph glyph-name="U" unicode="U" horiz-adv-x="802" 
d="M49 568q16 -19 41.5 -30t56.5 -15.5t67 -2.5t74 9q27 36 56 63t55.5 43.5t49.5 21.5t39 -5q26 -17 16.5 -57.5t-63.5 -85.5q-32 -26 -68.5 -51t-77.5 -43q-33 -51 -54 -105q-31 -79 -42 -139.5t-5 -102.5t27 -66t54 -30t70 14.5t73.5 60t71 93t64.5 112.5t53 119.5
t36 114t14.5 95.5t-11.5 64q-11 18 -5 27t21.5 8.5t37.5 -10t42.5 -27.5t36 -45.5t19.5 -62.5q5 -52 -15 -122t-58 -143.5t-91 -144.5t-114 -125.5t-126 -85.5t-128 -25q-56 6 -92.5 45.5t-48 105.5t5.5 154t69 192q-28 -5 -56 -3.5t-57 10.5q-31 9 -49.5 30t-27 45.5
t-8.5 48.5t6 40.5t17 21t24 -10.5z" />
    <glyph glyph-name="T" unicode="T" horiz-adv-x="571" 
d="M264 144q18 34 38 74.5t41 82t43.5 80.5t46.5 71q-75 1 -140 11.5t-108 29.5q-30 13 -48 35.5t-27 47t-9 47.5t5.5 38t16 18.5t23.5 -11.5q19 -22 64 -40t105 -30.5t128.5 -18.5t133.5 -4q20 13 43 25t46 20.5t44.5 14t39.5 6.5q37 2 60.5 -9.5t29 -30.5t-10 -42
t-55.5 -43q-51 -26 -115.5 -41t-133.5 -20q-25 -27 -49.5 -75.5t-49 -106.5t-49 -120t-49.5 -117q-23 -50 -52.5 -85.5t-63 -55t-68.5 -22.5t-68 13q-29 14 -44.5 37.5t-20.5 48.5t-2.5 48.5t9 37.5t14.5 15t14 -18q6 -21 20 -32.5t31 -15t36 0.5t35 15q14 9 27 22.5
t25.5 30t23.5 34.5t20 34z" />
    <glyph glyph-name="S" unicode="S" horiz-adv-x="672" 
d="M231 184q-31 -6 -50.5 -28t-26.5 -50t-2 -59t22 -55.5t45.5 -38.5t68.5 -8q44 6 79 31t49 58q10 24 11.5 50.5t-6 53t-24.5 52t-45 46.5q-26 19 -45 43.5t-30 52t-13.5 57t5.5 58.5q-32 24 -53 59q-21 32 -20 65t13.5 61t32.5 49t38 29t29.5 1t6.5 -35q-5 -32 0.5 -60.5
t19.5 -52.5q48 47 113 76t137 27q55 -1 90.5 -22.5t51 -52.5t11 -67.5t-29 -68t-69.5 -54t-110 -24.5q-70 -3 -141 14q11 -15 27 -31t36 -30q42 -33 65.5 -69.5t33 -74.5t5.5 -76t-17 -73q-13 -33 -38 -63.5t-58 -53.5t-73 -37t-82 -15q-71 -2 -130.5 26t-96 72t-45 99
t22.5 107q23 39 51.5 56t56.5 20t52 -5.5t38 -20t14 -23t-20 -15.5zM406 491q37 -23 79.5 -33.5t81.5 -4.5q42 7 63.5 29t23 45.5t-16.5 42t-54 18.5q-21 0 -45 -6t-46.5 -17t-42 -25.5t-32.5 -32.5z" />
    <glyph glyph-name="Q" unicode="Q" horiz-adv-x="763" 
d="M300 676q-4 -23 -2 -43.5t8 -39.5q60 35 127 54.5t138 17.5q55 -2 91.5 -21.5t54 -48.5t16 -64t-22.5 -66q15 -51 6 -122t-39 -145t-79 -142.5t-115 -116.5q60 -45 117 -70.5t103 -20.5q23 3 29 -7t-2.5 -25t-28.5 -32.5t-49 -30t-64 -16t-73 9.5q-48 16 -90 50t-79 79
q-36 -9 -74 -9q-74 0 -133 37t-91.5 100t-31.5 147t46 178q23 50 57.5 96t76.5 86q-18 32 -16 64t15 59t32.5 47.5t37.5 28.5t28.5 0.5t6.5 -34.5zM205 125q-7 18 -4 38t11 34t18 18t17 -9q30 -54 75 -109.5t98 -103.5q44 33 79.5 82t57 103t26 107.5t-13.5 96.5
q-13 -2 -27 -4t-28 -2q-58 -2 -117.5 9t-110.5 40q-29 -31 -53 -64t-40 -68q-31 -66 -38.5 -126.5t3.5 -108t37.5 -78t64.5 -36.5q17 -3 38 -1q-29 45 -52.5 91.5t-40.5 90.5zM561 581q-43 -4 -91 -25t-95 -55q38 -29 85.5 -42t90.5 -6q49 7 74 29.5t26.5 45.5t-21 40
t-69.5 13z" />
    <glyph glyph-name="P" unicode="P" horiz-adv-x="868" 
d="M219 404q-18 42 -1 89.5t64.5 88.5t123.5 68t177 27q83 0 141.5 -24t94 -63.5t47.5 -90t2 -103t-41.5 -102.5t-84.5 -89.5t-127 -63.5t-168 -24q-48 0 -81 11l-40 -93q-23 -50 -52.5 -85.5t-62.5 -55t-68.5 -22.5t-68.5 13q-29 14 -44 37.5t-20.5 48.5t-2.5 48.5
t9.5 37.5t14.5 15t14 -18q6 -21 19.5 -32.5t31 -15t36 0.5t35.5 15q13 9 26.5 23t25.5 30.5t23 34t20 33.5q22 41 46 90.5t50 98.5q-19 -2 -39.5 0t-39 10t-34.5 23t-26 39zM548 528q26 -1 21 -18.5t-35 -45.5q-17 -16 -34.5 -43.5t-34.5 -62.5t-34.5 -75.5t-35.5 -82.5
q12 -9 28 -15t36 -4q51 3 95 24.5t78.5 53.5t58 71.5t34.5 80.5t8 79t-22 67t-55 45t-91 13q-93 -6 -143.5 -34t-67 -62.5t-3.5 -67t48 -47.5q34 54 71 89.5t78 34.5z" />
    <glyph glyph-name="O" unicode="O" horiz-adv-x="789" 
d="M314 676q-8 -47 6 -85q60 36 126 56t138 18q55 -2 92 -21.5t54 -49t15.5 -64t-22.5 -65.5q13 -47 7 -111.5t-30 -133.5t-63.5 -135t-93 -117t-120 -79.5t-142.5 -21.5q-74 7 -131 44.5t-86.5 99t-26.5 143t48 175.5q23 48 55 93t72 84q-20 32 -19 64.5t14 60.5t33 49
t38 29t29 1t7 -34zM527 376q-57 -2 -115 8.5t-108 37.5q-26 -29 -48 -60.5t-37 -64.5q-31 -66 -39.5 -126t0.5 -107.5t34 -79t62 -40.5q48 -11 94 5.5t85.5 51.5t70.5 84t49 101t20.5 103.5t-13.5 92.5q-13 -2 -27 -4t-28 -2zM574 581q-44 -4 -91.5 -25.5t-92.5 -55.5
q38 -29 85 -41.5t89 -5.5q49 7 74 29.5t26.5 45.5t-21 40t-69.5 13z" />
    <glyph glyph-name="N" unicode="N" horiz-adv-x="887" 
d="M1066 678q18 7 28.5 4t14 -10t-1 -16t-16.5 -13q-25 -9 -61.5 -34.5t-77 -63t-81.5 -86t-74 -104.5q-41 -69 -64 -142.5t-26 -137t14.5 -109.5t58.5 -58q19 -5 17 -15t-17 -19.5t-40 -16t-52.5 -5.5t-53.5 11.5t-44 35.5q-24 30 -46.5 86t-37 126t-17.5 146.5t12 146.5
q-17 -41 -32 -85.5t-30 -88t-30 -85t-30 -76.5q-26 -60 -60.5 -102.5t-73.5 -66.5t-79.5 -27.5t-79.5 15.5q-34 17 -51.5 45t-23.5 58.5t-3 59t10.5 45.5t17 18.5t16.5 -21.5q7 -25 23 -39t36 -18.5t42 0.5t41 18q16 10 31 27t29 37t26.5 41.5t23.5 41.5q23 42 46.5 93.5
t49.5 103.5t53.5 101t56.5 86.5t60.5 59.5t65.5 21q18 0 29 -6.5t14.5 -15t-1.5 -17t-18 -14.5q-16 -7 -33 -32.5t-32.5 -65.5t-27.5 -91t-16 -107.5t1 -115.5t23 -115q16 77 58 165t105 170t146 150.5t182 106.5z" />
    <glyph glyph-name="M" unicode="M" horiz-adv-x="1027" 
d="M1010 635q31 9 51.5 9t28.5 -7.5t2 -21t-27 -31.5q-18 -15 -38 -37t-39 -49.5t-35.5 -62t-28.5 -75.5q-14 -47 -19.5 -98t-3.5 -100t11.5 -93.5t25.5 -80.5t38.5 -60.5t50.5 -32.5q21 -6 20.5 -17.5t-15.5 -22t-40.5 -16.5t-54.5 -2.5t-58.5 20.5t-51.5 54
q-25 41 -36.5 94.5t-10.5 113t13.5 121.5t35.5 120t55 110t73 91q-45 -26 -89.5 -66t-84.5 -90t-72.5 -108t-53.5 -120t-28.5 -126t3.5 -125q3 -20 -2.5 -29t-16.5 -9t-25 9t-27 26q-24 30 -42.5 82.5t-28 117.5t-8.5 138t16 143q-17 -41 -32.5 -85.5t-30.5 -88t-30 -85
t-30 -76.5q-26 -60 -60.5 -102.5t-73 -66.5t-79 -27.5t-79.5 15.5q-34 17 -51.5 45t-23.5 58.5t-3 59t10.5 45.5t17 18.5t16.5 -21.5q7 -25 23 -39t36 -18.5t41.5 0.5t40.5 18q16 10 31 27t29.5 37t27 41.5t23.5 41.5q22 42 46 93.5t49.5 103.5t53 101t56.5 86.5t60.5 59.5
t65.5 21q18 0 29.5 -6.5t14.5 -15t-2 -17t-18 -14.5q-24 -10 -48 -54.5t-40.5 -108t-22 -136.5t7.5 -140q-2 25 14 63.5t46 83.5t72 92.5t93.5 90.5t110 77.5t121.5 53.5z" />
    <glyph glyph-name="K" unicode="K" horiz-adv-x="914" 
d="M298 567q18 -21 46 -32.5t63 -15t75 0t82 13.5q104 160 174 118q13 -8 17 -23t-1 -34.5t-21 -41.5t-43 -44q-28 -23 -61 -46q-21 -38 -41.5 -82t-41.5 -90q3 -11 7 -23t9 -24q60 18 119 60.5t105 93.5t73 103t22 89q-3 20 6 28t23 5t31 -15t30 -32t18.5 -47t-1.5 -58
q-10 -42 -50 -85t-97 -81t-124 -67.5t-130 -43.5q24 -42 58 -86t73.5 -84t82.5 -75t85 -60t81 -37.5t72 -8.5q23 3 29 -7t-2.5 -25t-28.5 -32.5t-48.5 -30t-64 -16t-73.5 9.5q-42 13 -79 41t-70 65t-61.5 80.5t-51.5 88t-40.5 87.5t-29.5 79h-21q-29 -66 -58 -123.5
t-58 -97.5q-40 -55 -89 -82t-97.5 -30t-90.5 14t-67.5 50t-29 79t25.5 100q13 24 30.5 37t31.5 15.5t21 -5t-1 -25.5q-10 -22 -6 -45.5t17.5 -42t34.5 -30t46.5 -10.5t52.5 17t52 52q19 27 40 66t42.5 83.5t44.5 92.5t46 95q-37 -10 -74 -10.5t-75 10.5q-31 9 -49.5 30
t-27.5 45.5t-9 48.5t6 40.5t17 21t24 -10.5z" />
    <glyph glyph-name="J" unicode="J" horiz-adv-x="700" 
d="M109 -104q-35 21 -58 52.5t-33.5 70t-9.5 80.5t13 83q14 48 43.5 90.5t66.5 70t77.5 35.5t76.5 -12q37 -21 55.5 -46.5t23 -53t-2 -54t-18.5 -48t-27 -36.5t-28 -19t-21 4.5t-6 33.5q2 32 -4.5 60t-21 45t-36.5 19t-50 -17q-18 -12 -32 -35t-22.5 -51.5t-9.5 -59t7.5 -57
t27 -46t50.5 -25.5q23 -5 53 0.5t62.5 24t66.5 51t64 82.5t64 119.5t71 141.5q-72 -6 -140 0t-118 29q-38 17 -61 39.5t-35 46t-13.5 45t3 35.5t15 19t22.5 -5q35 -30 83 -48.5t100.5 -29t106.5 -14.5t101 -4q26 42 53.5 76t56 54t58 23.5t59.5 -14.5q19 -12 28.5 -30
t10 -39t-8.5 -42t-26 -39q-23 -25 -64 -44.5t-93 -33.5q-22 -50 -45 -105t-47 -108t-47.5 -99.5t-46.5 -78.5q-48 -66 -101 -104t-105 -52.5t-100.5 -8.5t-87.5 29zM806 592q-14 7 -32 -13.5t-38 -58.5q25 6 42 16.5t26 21.5t9.5 20.5t-7.5 13.5z" />
    <glyph glyph-name="L" unicode="L" horiz-adv-x="906" 
d="M379 510q99 -26 184.5 -31t156.5 4q37 52 72.5 96t71.5 71.5t72 36t74 -10.5q38 -20 38.5 -56t-29 -76.5t-86 -78.5t-132.5 -62q-37 -62 -81.5 -128.5t-98.5 -129.5q43 -20 79.5 -39.5t65.5 -35.5q33 -19 52 -45t26 -53.5t4.5 -52t-11 -40t-21 -19t-25.5 12.5
q-31 36 -92.5 85t-164.5 99q-67 -59 -145.5 -97t-172.5 -43q-51 -3 -92.5 10.5t-69 36.5t-39.5 53.5t-6 62.5t32 63t75 55q46 23 96 31t100.5 5t101 -14.5t98.5 -28.5q36 43 69.5 90t65.5 95h-25q-78 0 -129.5 11t-82.5 27t-44 34t-14 33t7 23.5t20 5.5zM216 4q59 0 112 27
t103 72q-17 6 -37 14q-70 25 -123.5 26.5t-89 -11t-52 -34t-13 -42.5t28 -36.5t71.5 -15.5zM969 619q-19 8 -43 -20.5t-55 -79.5q35 14 59.5 29t37.5 29t13.5 25t-12.5 17z" />
    <glyph glyph-name="H" unicode="H" horiz-adv-x="914" 
d="M298 567q18 -21 46 -32t63 -15t75 0t82 13q102 160 173 118q13 -8 17.5 -23t-0.5 -34.5t-21 -41.5t-43 -44q-28 -23 -61 -46q-23 -42 -45.5 -90t-45.5 -99q34 -14 66 -32t62 -41q26 63 65 125t87 116t103.5 96.5t115.5 65.5q18 7 29 4t14.5 -10t-1 -16t-16.5 -13
q-25 -9 -52 -29t-54 -48t-52.5 -62.5t-48.5 -73.5q-41 -69 -63.5 -142.5t-26 -137t14 -109.5t58.5 -58q20 -6 16.5 -17t-21.5 -20.5t-46.5 -15.5t-58 -2t-55.5 20.5t-39 51.5q-16 42 -13.5 95.5t20.5 113.5q-36 25 -71 39.5t-67 21.5q-31 -69 -61.5 -130.5t-60.5 -103.5
q-40 -55 -89 -82t-97.5 -30t-90.5 14t-67.5 50t-29 79t25.5 100q13 24 29.5 37t29.5 15.5t19 -5t-2 -25.5q-10 -22 -6 -45.5t17.5 -42t34.5 -30t46.5 -10.5t52.5 17t52 52q18 26 38 62.5t42 79.5q-32 -6 -57.5 -19t-45 -29t-31.5 -34t-15 -36q-5 -22 -16.5 -25t-24.5 7.5
t-24.5 31t-16.5 46.5t0 53.5t25 51.5q19 23 47 38t61.5 22t72 6.5t78.5 -8.5l45 90q-36 -10 -73 -10.5t-75 10.5q-31 9 -49.5 30t-27.5 45.5t-9 48.5t6 40.5t17 21t24 -10.5z" />
    <glyph glyph-name="G" unicode="G" horiz-adv-x="685" 
d="M331 236q10 5 32.5 13.5t51.5 17.5t61.5 18.5t62.5 16t55 10t39 0.5q15 -3 15 -25t-10.5 -45.5t-28.5 -39t-37 -5.5q-25 13 -70 18.5t-90 3.5q74 -16 114 -54t37 -88q-2 -35 -24 -71t-60.5 -66t-90.5 -50t-114 -23q-74 -3 -131.5 33.5t-88 100.5t-28 149t47.5 179
q23 48 55 93t72 84q-20 32 -19 64.5t14 60.5t33 49t37.5 29t29 1t6.5 -34q-7 -45 7 -85q59 36 125.5 56t138.5 18q58 -2 95.5 -23t54 -52.5t12 -67.5t-30.5 -68t-73 -54t-115 -24q-54 -2 -110.5 7.5t-105.5 34.5q-52 -61 -84 -128q-31 -66 -41.5 -126t-4 -107t30 -77
t61.5 -36q44 -7 75.5 8.5t49 41.5t22.5 57t-3.5 57.5t-30.5 42t-56 10.5q-26 -4 -38 1.5t-10.5 17t16.5 26.5t44 30zM563 581q-44 -4 -90 -26.5t-91 -57.5q38 -27 83.5 -39t87.5 -5q49 7 74 29.5t26.5 45.5t-21 40t-69.5 13z" />
    <glyph glyph-name="F" unicode="F" horiz-adv-x="761" 
d="M613 263q16 14 24.5 11t9.5 -16.5t-5.5 -33.5t-19.5 -40t-31.5 -37t-42.5 -24q-19 -5 -38.5 -1.5t-40 12.5t-42 21t-43.5 23q-15 -38 -30 -74t-30 -69q-23 -50 -52.5 -85.5t-63 -55t-68.5 -22.5t-68 13q-29 14 -44.5 37.5t-20.5 48.5t-2.5 48.5t9 37.5t14.5 15t14 -18
q6 -21 20 -32.5t31 -15t36 0.5t35 15q14 9 27 23t25.5 30.5t23.5 34t20 33.5l33 63q-31 3 -57 -5q-25 -8 -36 -1.5t-9.5 19t14.5 27t34 22.5q23 8 46 11t45 2q6 13 12 25t13 24q-27 -8 -52.5 -7.5t-48 8t-40.5 21.5t-28 34q-20 37 -17 81.5t29.5 84.5t76 69.5t121.5 37.5
q78 8 143.5 2t121 -17.5t102 -23.5t87 -16.5t75.5 3.5t67 38q20 19 31.5 15.5t14.5 -20.5t-3 -43t-21 -53t-39 -51t-56 -36q-38 -14 -77 -8t-80.5 22.5t-85 39t-90 41t-96.5 28.5t-104 3q-38 -6 -66.5 -23t-46.5 -39.5t-24.5 -47t-0.5 -44.5q6 -22 22 -34t37 -15t44 2t42 16
q17 28 35 52t37 41.5t39 27.5t41 9q26 -1 21.5 -18.5t-35.5 -45.5q-28 -26 -55.5 -79t-55.5 -119q28 -8 54.5 -15.5t51 -10t46 1.5t41.5 21z" />
    <glyph glyph-name="E" unicode="E" horiz-adv-x="634" 
d="M299 676q-6 -35 1 -66t24 -57q22 25 49 45.5t58 35.5t65.5 23.5t72.5 7.5q58 -1 95.5 -22.5t54 -52.5t12 -67.5t-30 -68t-72.5 -54t-115 -24.5q-64 -3 -129 11q-2 -7 -3 -13t-2 -13q32 -5 58.5 -15t44 -23.5t25 -30.5t0.5 -36q-6 -17 -22.5 -27.5t-39 -13.5t-47.5 2
t-49 17q-39 21 -62 50q-42 -13 -71.5 -42t-46 -65t-19 -75t9.5 -72.5t39.5 -57t71.5 -28.5q41 -4 70 16t42 51t7 66.5t-34 63.5q-14 13 -8 22t23.5 12t42.5 -0.5t48.5 -15t42.5 -31.5t25 -50q7 -39 -8 -77t-49.5 -68t-85.5 -48t-116 -18t-121.5 23t-92.5 66t-45 103t21 135
q15 37 39 65.5t53 49t62.5 33t67.5 18.5q-5 39 6 80q-18 13 -34 29t-28 36q-21 32 -20 65t13.5 61t32.5 49t38 29.5t29.5 1.5t6.5 -35zM560 581q-43 -4 -79.5 -34.5t-61.5 -72.5q32 -15 65.5 -20.5t65.5 -0.5q49 7 74 29.5t26.5 46t-21 40t-69.5 12.5z" />
    <glyph glyph-name="D" unicode="D" horiz-adv-x="921" 
d="M468 509q10 21 19 31t18.5 13t20.5 2.5t25 -0.5t31.5 -0.5t29 -9t11 -28t-21.5 -57.5q-14 -25 -37.5 -63.5t-50.5 -81.5t-55.5 -87.5t-52.5 -81.5t-42 -63t-24 -33q-18 -21 -40 -33t-53 -12t-29 22t29 71q7 13 21 38.5t31.5 57.5t37.5 69t40 73q-20 -5 -43 -5t-44.5 7
t-40 23t-30.5 43q-18 42 -0.5 92t65 92t123.5 68.5t176 20.5q111 -6 179 -49t96.5 -108.5t20.5 -146.5t-48 -164q-34 -72 -88 -134.5t-124 -108.5t-154.5 -72.5t-179.5 -25.5q-61 0 -113.5 20.5t-90 54t-57.5 76.5t-17 88q4 52 28.5 87t56.5 56t65.5 29.5t55.5 6t25.5 -14.5
t-23.5 -31q-30 -21 -47.5 -51.5t-22 -63t3.5 -64.5t28 -57t52.5 -40t77.5 -14q58 1 113 24.5t104.5 62t90.5 89.5t70 108q40 78 55.5 146t2.5 119t-56.5 82t-121.5 34q-54 3 -94 -10t-65.5 -34.5t-37.5 -48t-11 -51t15 -44.5t40 -27q20 36 34.5 65t22.5 44z" />
    <glyph glyph-name="B" unicode="B" horiz-adv-x="878" 
d="M225 404q-18 42 -1 89.5t64.5 88.5t123.5 68t177 27q81 0 139.5 -22.5t94.5 -58.5t49.5 -82.5t5 -94t-39 -93t-83.5 -79.5q16 -35 18 -74t-9.5 -77.5t-36.5 -74.5t-63 -65q-69 -52 -145 -76t-150 -24.5t-140.5 19t-115.5 54t-77 80.5t-24 98t28.5 87t56.5 56t66 29.5
t56 6t25.5 -14.5t-23.5 -31q-46 -32 -62.5 -80t-3.5 -93.5t55.5 -79t114.5 -37.5q79 -5 139 16.5t101.5 56t65 76.5t30.5 80q1 7 2 13.5t1 12.5q-75 -26 -174 -26q-30 0 -53 5q-33 -51 -58.5 -88.5t-33.5 -45.5q-18 -21 -40 -33t-53 -12t-28.5 22t28.5 71q7 13 21.5 38.5
t32 57.5t37.5 69t40 73q-20 -5 -43 -5t-44.5 7t-40.5 23t-30 43zM475 509q10 21 18.5 31t18 13t20.5 2.5t25 -0.5q15 0 32.5 -0.5t29 -9t11 -28t-21.5 -57.5l-50 -84h4q38 -5 69.5 -17.5t55.5 -29.5q41 42 57.5 94t4 96t-55.5 72t-122 24q-65 -4 -109 -19t-69.5 -36.5
t-34.5 -46.5t-4.5 -47.5t21.5 -40.5t43 -25q20 36 34.5 65t22.5 44zM502 244q36 2 68 12t59 27q-27 18 -76 27q-9 2 -17.5 2.5t-16.5 1.5q-11 -18 -22 -35.5t-22 -35.5h12.5t14.5 1z" />
    <glyph glyph-name="C" unicode="C" horiz-adv-x="619" 
d="M297 676q-7 -45 7 -85q59 36 125.5 56t138.5 18q58 -2 95.5 -23t54 -52.5t12 -67.5t-30.5 -68t-73 -54t-115 -24q-56 -2 -113.5 8.5t-107.5 36.5q-28 -31 -50.5 -64t-38.5 -67q-31 -66 -42 -127t-3.5 -109t33 -77.5t68.5 -32.5q41 -3 72 17t46 51t11 66t-32 63
q-14 13 -8 22t23.5 12t42.5 -0.5t48.5 -15t42.5 -31.5t25 -50q7 -39 -8 -77t-49 -68t-85.5 -48t-116.5 -18q-74 0 -131.5 37t-88 100t-28 147t47.5 178q23 48 55 93t72 84q-20 32 -19 64.5t14 60.5t33 49t37.5 29t29 1t6.5 -34zM558 581q-44 -4 -91 -25.5t-92 -56.5
q38 -28 84.5 -40.5t88.5 -5.5q49 7 74 29.5t26.5 45.5t-21 40t-69.5 13z" />
    <glyph glyph-name="q" unicode="q" horiz-adv-x="443" 
d="M480 189q-23 -35 -47 -59t-48 -43.5t-47.5 -36.5t-45.5 -38.5t-42.5 -50t-38.5 -69.5q-10 -22 -16.5 -31t-17.5 -9h-24q-24 0 -33.5 8.5t-1.5 31.5q2 7 8 22t14 35.5t17.5 43.5t18.5 45q-20 -17 -44.5 -27.5t-53.5 -10.5q-39 0 -65 21.5t-35 56.5t1 79t43 89
q31 42 70 69.5t78.5 38.5t75.5 4.5t62 -32.5q17 29 36 37t49 12q21 2 26 -5.5t-2 -26.5t-24 -51t-40 -79q-8 -17 -28 -61t-43 -96q43 38 86 73.5t75 80.5q11 16 22 20.5t18 1t7.5 -15t-10.5 -27.5zM274 260q-9 12 -25 18q-17 6 -39 2.5t-44.5 -15.5t-43 -31.5t-35.5 -44.5
q-11 -17 -14.5 -34t0 -30t14.5 -21t29 -8q38 0 75.5 37t70.5 101z" />
    <glyph glyph-name="z" unicode="z" horiz-adv-x="417" 
d="M-39 31q8 9 33 34t59 58.5t72.5 71t72.5 71.5q-51 -24 -77 -18t-36 24q-11 -22 -22.5 -44t-24.5 -39t-25 -23t-18.5 -2t-6.5 16t12 30q28 44 47.5 82t27.5 54q5 23 40 29q15 2 28 3t23.5 -2.5t17 -13t8.5 -27.5q2 -19 10 -24.5t21 -1t30.5 18t39.5 33.5q19 19 46.5 25.5
t49.5 4t32 -12t-5 -22.5l-323 -281q43 24 69.5 29t44 1t29.5 -11t27 -7q19 0 40 10t41.5 27t39 39t33.5 47q10 16 21 21.5t17.5 1.5t7.5 -15.5t-8 -28.5q-17 -31 -47.5 -64.5t-64 -61t-67 -45.5t-56.5 -18q-16 0 -30.5 6.5t-29.5 14t-30.5 14t-33.5 6.5t-39.5 -8.5
t-46.5 -30.5q-9 -8 -23 -10t-24.5 2t-13 13t11.5 24z" />
    <glyph glyph-name="y" unicode="y" horiz-adv-x="431" 
d="M191 335q-53 -74 -80 -121t-36 -73.5t-3.5 -36.5t17.5 -10q19 0 34.5 11t30 29t28 41.5t27.5 48.5q12 26 22 47.5t21 42.5q9 19 16.5 30t16 17t19 8.5t27.5 5.5q16 2 30 3t22 -2.5t9 -13t-9 -27.5q-10 -19 -22 -40.5l-24 -43t-24 -41.5l-21 -35q-16 -24 -29.5 -51.5
t-27.5 -56.5q54 21 103.5 55t92.5 88q10 13 21.5 18.5t19 2.5t8 -13.5t-11.5 -28.5q-25 -39 -56 -68.5t-65.5 -52t-71.5 -39.5t-74 -29q-29 -51 -65.5 -93.5t-92.5 -62.5q-48 -17 -85.5 -15t-64 16t-40 37.5t-12.5 49.5t17.5 51t50.5 44q24 12 51 21q-6 30 6 77
q17 56 42.5 104.5t51.5 84.5q12 17 21.5 28t19 17.5t21 9.5t28.5 6q16 2 29 2.5t20 -3.5t5.5 -13t-13.5 -26zM-43 -91q28 0 64.5 22t76.5 76q-30 6 -60.5 6t-57.5 -10q-32 -11 -48 -26.5t-18 -30.5t9 -26t34 -11z" />
    <glyph glyph-name="x" unicode="x" horiz-adv-x="429" 
d="M0 210q27 43 46.5 81.5t27.5 55.5q6 22 40 28q15 2 28.5 3t24 -2.5t17 -13t8.5 -27.5l6 -67q32 32 57.5 57t37.5 36q19 19 46.5 25.5t49.5 4t32 -12t-5 -22.5l-207 -179q0 -1 1 -2q3 -18 7 -34t10 -28t14.5 -19t21.5 -7q19 0 41.5 10t45.5 27t43.5 39t35.5 47
q10 16 21 21.5t17.5 1.5t7.5 -15.5t-8 -28.5q-17 -31 -49 -64.5t-68.5 -61t-71.5 -45.5t-59 -18q-42 0 -65.5 22t-37.5 73l-107 -94q-9 -8 -23 -9.5t-24.5 2t-12.5 13t12 24.5q6 6 19 19.5t31.5 32t41 41.5t47.5 47q-7 30 -11.5 52t-7.5 42q-10 -20 -21 -39.5t-23 -36.5
t-24 -23t-18.5 -2t-6.5 16t12 30z" />
    <glyph glyph-name="w" unicode="w" horiz-adv-x="593" 
d="M630 189q-19 -32 -43 -47.5t-48.5 -18t-46.5 5t-38 20.5q-24 -35 -49.5 -63.5t-51 -48.5t-52 -30t-53.5 -7q-39 4 -56 26.5t-19 56.5q-37 -42 -76 -62.5t-72 -20.5q-48 0 -61.5 34t3.5 91q16 56 41.5 104.5t51.5 84.5q12 17 21.5 28t19.5 17.5t21 9.5t28 6q16 2 29 2.5
t20 -3.5t6 -13t-13 -26q-53 -74 -80.5 -121t-36.5 -73.5t-3.5 -36.5t18.5 -10q17 0 31 9t27 24.5t25 35.5t25 42q12 29 27.5 57t32.5 52q12 17 21.5 28t19.5 17.5t21 9.5t28 6q16 2 29.5 2.5t20 -3.5t5.5 -13t-13 -26q-53 -74 -76 -120t-27.5 -72.5t5 -36.5t21.5 -12
q25 -5 53.5 24t56.5 76q-11 25 -11 50.5t8 48.5q16 48 41.5 69.5t46 18t28 -31.5t-11.5 -79q-7 -19 -17 -38.5t-21 -36.5q10 -10 24.5 -14.5t29.5 -3.5t29 9t24 24t21 21t18 1.5t7.5 -15t-9.5 -28.5z" />
    <glyph glyph-name="v" unicode="v" horiz-adv-x="404" 
d="M442 189q-19 -32 -43 -47.5t-48.5 -18t-47 5t-38.5 20.5q-51 -69 -107 -109t-111 -40q-33 0 -51 15.5t-23.5 41t-0.5 58t17 67.5t30 69.5t38 62.5q12 17 21.5 28t19.5 17.5t21 9.5t28 6q16 2 29 2.5t20 -3.5t6 -13t-13 -26q-53 -74 -76.5 -120.5t-28 -72.5t5 -36.5
t21.5 -11.5q15 -2 31 5t31.5 20.5t31 32t30.5 39.5q-11 26 -11 52.5t8 49.5q16 48 41 69.5t45.5 18t28 -31.5t-11.5 -79q-7 -19 -17 -38.5t-21 -36.5q10 -10 24 -15t29 -3.5t29.5 9.5t24.5 24t21.5 21t18.5 1.5t7.5 -15t-9.5 -28.5z" />
    <glyph glyph-name="t" unicode="t" horiz-adv-x="267" 
d="M316 536q51 7 94.5 12.5t64.5 10.5q16 3 20.5 -2.5t0.5 -16.5t-15 -24t-25.5 -25t-30 -20t-28.5 -8h-138q-25 -35 -50.5 -72.5t-45.5 -67.5q-22 -33 -39 -70.5t-26.5 -69.5t-11 -55.5t7.5 -29.5q12 -8 31.5 -4t43 18.5t49 39t49.5 58.5q10 16 21 21t18 1.5t7.5 -15
t-9.5 -28.5q-24 -41 -54.5 -75.5t-64 -59.5t-68.5 -39.5t-68 -14.5q-35 0 -56.5 24.5t-20 72.5t29.5 119.5t93 166.5q11 16 24.5 37t29.5 43h-93q-12 0 -12.5 7t5.5 16t17.5 16.5t24.5 8.5q38 4 79.5 17t67.5 24q22 9 45.5 17.5t39 10t17.5 -6.5t-20 -32z" />
    <glyph glyph-name="r" unicode="r" horiz-adv-x="343" 
d="M129 356q21 -6 36.5 -4.5t27.5 8.5t21 17.5t17 22.5q9 12 21.5 10t22 -12.5t13 -26.5t-5.5 -32q-1 -1 -1 -2q-6 -10 -18.5 -33t-26.5 -48t-26 -48t-17 -33l-16 -32t-12.5 -28.5t-2.5 -20t15 -7.5q19 0 41.5 10t45.5 27t43.5 39t35.5 47q10 16 20.5 21.5t17.5 1.5t8 -15.5
t-8 -28.5q-17 -31 -47 -64.5t-65 -61t-71 -45.5t-65 -18q-48 0 -55 42t32 113q17 29 34 55.5t33 49.5q-26 -17 -54.5 -23t-52.5 0q-14 -27 -32 -48q-14 -16 -26.5 -21.5t-19 -1.5t-5.5 15.5t13 28.5q8 11 15.5 23.5t14.5 25.5q-16 16 -18.5 38t3.5 45.5t19.5 45.5t30.5 38
t35.5 22.5t34.5 -0.5q12 -5 14 -15t-0.5 -22.5t-8.5 -26.5t-11 -28z" />
    <glyph glyph-name="j" unicode="j" horiz-adv-x="234" 
d="M55 314q9 19 16.5 30t16 17t19 8.5t27.5 5.5q16 2 30 3t22 -2.5t9 -13t-9 -27.5q-10 -19 -22.5 -40.5l-25 -43t-24 -41.5t-20.5 -35q-18 -32 -34.5 -59.5t-32.5 -52.5q57 21 109.5 55.5t97.5 91.5q10 13 21.5 18.5t19 2.5t8 -13.5t-11.5 -28.5q-26 -41 -59 -72.5
t-70 -54.5t-77 -39.5t-79 -28.5q-23 -55 -49.5 -91t-55 -56t-58 -25.5t-59.5 0.5q-36 8 -52 34t-9 54t37 50.5t85 25.5q17 1 29.5 1.5t22.5 0.5q6 11 20.5 36.5t32 58t37.5 68.5t37.5 68.5t31 58t19.5 36.5zM266 530q7 -17 1 -33.5t-20.5 -30t-34 -22t-38.5 -10t-34.5 4.5
t-21.5 22q-7 16 -0.5 32.5t20.5 30t33 23t37.5 11.5t34 -4.5t23.5 -23.5zM-213 -107q17 0 32 12t26 28h-22q-19 1 -33.5 -5.5t-20.5 -14t-2.5 -14t20.5 -6.5z" />
    <glyph glyph-name="h" unicode="h" horiz-adv-x="467" 
d="M-47 0q-17 0 -28.5 2t-16 10t-0.5 24t19 45q22 42 61 110t86.5 143t97.5 146.5t94 121.5q25 28 49 37.5t41.5 5t27.5 -20.5t8 -39q-3 -33 -27.5 -63.5t-57.5 -61.5t-67.5 -63.5t-57.5 -71.5q31 25 62 40t61 15q38 0 54 -16.5t14.5 -45t-17.5 -65.5t-43 -78
q-10 -15 -18 -31t-11 -28.5t0.5 -20.5t16.5 -8q19 0 41.5 10t45.5 27t43.5 39t35.5 47q10 16 20.5 21.5t17.5 1.5t8 -15.5t-8 -28.5q-17 -31 -46.5 -64.5t-65.5 -61t-75 -45.5t-76 -18q-30 0 -49 11.5t-27.5 30.5t-5.5 44.5t18 53.5q13 26 33.5 55t35 53t17 39.5t-18.5 14.5
q-15 -1 -35 -13t-45 -38.5t-54.5 -69.5t-64.5 -105l-4 -10q-12 -25 -18.5 -38.5t-14.5 -19.5t-20.5 -7t-35.5 -1z" />
    <glyph glyph-name="p" unicode="p" horiz-adv-x="442" 
d="M141 375q27 2 27.5 -12.5t-17.5 -51.5q26 28 56.5 47.5t63.5 19.5q39 0 58.5 -24.5t21 -62.5t-14.5 -84.5t-49 -91.5q-15 -21 -31 -37q29 9 57.5 24t53.5 33t44.5 37.5t30.5 37.5q10 16 20.5 21.5t17.5 1.5t8 -15.5t-9 -28.5q-26 -46 -74.5 -82t-104.5 -60t-111 -36.5
t-93 -10.5q-23 -1 -43 4.5t-37 17.5l-57 -130q-10 -22 -16.5 -31t-17.5 -9h-24q-24 0 -33.5 8.5t-1.5 31.5q2 7 9.5 25t17 41.5t20 49.5t20.5 49.5t17.5 41.5t11.5 26q14 33 25.5 59.5t22 49t20.5 42t19 38.5t18.5 30t20.5 17.5t23.5 9t29.5 4.5zM217 289q-19 0 -41.5 -16.5
t-45 -44t-44 -63t-39.5 -72.5q7 -8 21 -13q17 -6 38.5 0t44 21t43 36.5t35.5 46.5q10 18 16.5 36.5t6 33.5t-8.5 25t-26 10z" />
    <glyph glyph-name="o" unicode="o" horiz-adv-x="430" 
d="M222 378q36 0 61.5 -14.5t39 -39t15 -58t-10.5 -71.5q10 -6 24 -10t28.5 -3t28 7.5t22.5 20.5q10 16 22 21t19.5 1t8 -15.5t-11.5 -27.5q-18 -25 -39.5 -38.5t-43.5 -18.5t-43 -2.5t-38 11.5q-17 -31 -40 -57t-50 -45t-57.5 -29.5t-61.5 -10.5q-37 0 -63 15t-39.5 40.5
t-14 60.5t12.5 74t36.5 73.5t54.5 60t66.5 40.5t73.5 15zM149 104q35 0 64.5 22.5t46.5 57.5q-14 18 -19.5 35.5t-6.5 33.5t2.5 29.5t7.5 24.5q-5 2 -11.5 3t-13.5 1q-42 0 -74 -30t-47 -73q-14 -43 -2 -73.5t53 -30.5z" />
    <glyph glyph-name="m" unicode="m" horiz-adv-x="634" 
d="M634 210q10 16 20.5 21.5t17.5 1.5t8 -15.5t-8 -28.5q-17 -31 -49.5 -64.5t-68.5 -61t-71.5 -45.5t-58.5 -18q-24 0 -43.5 7t-31 22.5t-12.5 39t14 56.5q12 25 31 56.5t33 58.5t16.5 45t-18.5 17q-17 -1 -42 -28t-52 -67t-51.5 -85t-40.5 -82q-10 -22 -73 -22
q-15 0 -20.5 8t-3 22t10 34t18.5 43q12 25 31 56.5t33 58.5t16.5 45t-18.5 17q-17 -1 -44 -28t-56.5 -67t-56 -85t-42.5 -82q-9 -22 -15.5 -31t-17.5 -9h-25q-24 0 -33 8t-2 31q8 23 15 43t18 43q14 33 25.5 59.5t22 49t20.5 42t19 38.5t18.5 30t20.5 17.5t23.5 9t29.5 4.5
q26 2 27.5 -11t-13.5 -45q29 27 59 44t61 17q80 0 72 -61q29 27 59 44t61 17q38 0 54.5 -18t16.5 -47.5t-15 -66t-39 -73.5q-10 -15 -18.5 -30.5t-12 -28.5t-1 -21t15.5 -8q19 0 41.5 10t45.5 27t43.5 39t35.5 47z" />
    <glyph glyph-name="n" unicode="n" horiz-adv-x="442" 
d="M303 181q-10 -15 -20.5 -31.5t-16 -30.5t-4.5 -23t13 -9q19 0 41.5 10t45.5 27t44 39t36 47q10 16 20.5 21.5t17.5 1.5t8 -15.5t-9 -28.5q-17 -31 -49 -64.5t-68 -61t-71.5 -45.5t-58.5 -18q-24 0 -44 7t-31.5 22.5t-12 39t14.5 56.5q12 25 31 56.5t33 58.5t16.5 45
t-18.5 17q-17 -1 -44 -28t-56.5 -67t-56 -85t-42.5 -82q-10 -22 -16.5 -31t-16.5 -9h-25q-24 0 -33.5 8t-1.5 31t15 43t17 43q14 33 26 59.5t22.5 49t20.5 42t19 38.5t18.5 30t20.5 17.5t23.5 9t29.5 4.5q26 2 27.5 -11t-13.5 -45q29 27 59 44t61 17q38 0 58 -15t23 -41.5
t-10.5 -63t-42.5 -79.5z" />
    <glyph glyph-name="g" unicode="g" horiz-adv-x="466" 
d="M22 246q30 40 67 67t75 39t73 8t62 -25q7 11 13 18t13.5 11t17.5 6.5t24 4.5q16 2 30 3t22 -2.5t9 -13t-9 -27.5q-10 -19 -22 -40.5t-24.5 -43t-24 -41.5t-21.5 -35q-15 -24 -28.5 -51.5t-27.5 -56.5q54 21 103.5 55t91.5 88q11 13 22.5 18.5t19 2.5t8 -13.5t-11.5 -28.5
q-25 -39 -56 -68.5t-65.5 -52t-71.5 -39.5t-74 -29q-28 -51 -65 -93.5t-93 -62.5q-48 -17 -86 -15t-64 16t-39.5 37.5t-12.5 49.5t17 51t50 44q11 6 23 10.5t25 9.5q-22 36 -16.5 89.5t46.5 109.5zM116 96q42 0 75 47.5t68 130.5l-9 4q-17 6 -39 2.5t-44.5 -15.5
t-43.5 -31.5t-36 -44.5q-10 -17 -13.5 -34t-0.5 -30t14 -21t29 -8zM-7 -91q28 0 64.5 22t75.5 76q-29 6 -59.5 5.5t-57.5 -9.5q-32 -11 -48 -26.5t-18 -30.5t9 -26t34 -11z" />
    <glyph glyph-name="f" unicode="f" horiz-adv-x="257" 
d="M246 602q26 26 51 35.5t44 5.5t30.5 -19.5t10.5 -38.5q0 -17 -12 -42t-31.5 -54t-44.5 -61t-50 -63q-60 -72 -136 -153q19 -28 40 -38.5t41.5 -8t38 15t29.5 29.5q11 16 22.5 20.5t19 1t8 -15t-11.5 -27.5q-23 -32 -54.5 -59.5t-62 -37t-56.5 5t-38 66.5
q-8 -21 -16 -46.5t-17 -51.5q-10 -30 -26 -55.5t-53 -39.5q-15 -6 -32 -12.5t-29 -6t-15 11.5t11 40q13 28 32 72t43 96.5t53 111t62.5 115.5t70.5 109.5t78 93.5zM157 327q13 15 33 39t41.5 51t42.5 55t37 51.5t24 40.5t4 22q-8 9 -28.5 -11t-46.5 -58t-54.5 -88.5
t-52.5 -101.5z" />
    <glyph glyph-name="c" unicode="c" horiz-adv-x="383" 
d="M421 189q-30 -43 -66 -78t-75 -59.5t-80 -38t-82 -13.5q-46 0 -78 18.5t-46.5 50t-11 74.5t27.5 91q17 34 44.5 65t61 52t70.5 27.5t73 -8.5q30 -12 43.5 -33.5t13 -45t-14 -45.5t-38.5 -34q-30 -15 -49.5 -8t-25 24t5.5 39.5t42 38.5q9 14 -2.5 18t-32.5 -6t-47 -36
t-46 -72q-14 -31 -15 -53.5t6.5 -38t20.5 -24t28 -11.5q26 -5 58 3.5t64 26t61.5 42.5t51.5 55q12 15 23.5 20t18.5 1t7 -15t-11 -27z" />
    <glyph glyph-name="b" unicode="b" horiz-adv-x="364" 
d="M402 189q-17 -23 -36.5 -36.5t-39.5 -19t-40 -4t-37 7.5q-19 -30 -42.5 -55t-48 -43t-49 -28.5t-44.5 -10.5q-35 0 -59.5 24.5t-27 72.5t22.5 119.5t90 166.5q45 66 87.5 111.5t80 71.5t68 32t50.5 -7q33 -22 13.5 -72t-88.5 -113q-20 -18 -44 -37t-48.5 -38t-48.5 -36.5
t-44 -32.5q-14 -28 -22.5 -56t-10 -50.5t4.5 -38t20 -19.5q15 -5 29.5 0t27 15t22.5 23t16 25q-23 16 -29.5 44t7.5 58q8 18 20 31t25 20.5t26 9.5t23 -2q28 -11 33.5 -44.5t-30.5 -91.5q21 -7 46 -3t39 27q10 16 22 21t19.5 1t8 -15.5t-11.5 -27.5zM329 519
q-6 4 -19.5 -6.5t-32 -31.5t-41 -50t-46.5 -60q30 25 57.5 49.5t47 45t29.5 34.5t5 19z" />
    <glyph glyph-name="u" unicode="u" horiz-adv-x="443" 
d="M192 335q-53 -74 -80 -121t-36 -73.5t-3.5 -36.5t17.5 -10q19 0 34.5 11t29.5 29t27.5 41.5t28.5 48.5q12 26 22 47.5t21 42.5q9 19 16.5 30t16 17t19.5 8.5t27 5.5q16 2 30 3t22 -2.5t9 -13t-9 -27.5q-10 -19 -22.5 -40.5t-24.5 -43t-23.5 -41.5t-20.5 -35
q-9 -16 -17 -31.5t-12.5 -28t-2 -20.5t14.5 -8q19 0 41.5 10t45.5 27t44 39t36 47q10 16 20.5 21.5t17.5 1.5t8 -15.5t-9 -28.5q-17 -31 -49 -64.5t-68.5 -61t-71.5 -45.5t-59 -18q-35 0 -59.5 16.5t-22.5 52.5q-30 -35 -62 -52t-63 -17q-47 0 -60.5 34t2.5 91
q16 56 42 104.5t52 84.5q12 17 21.5 28t19 17.5t21 9.5t28.5 6q16 2 29 2.5t19.5 -3.5t5.5 -13t-13 -26z" />
    <glyph glyph-name="l" unicode="l" horiz-adv-x="283" 
d="M303 406q-20 -18 -44.5 -37.5t-49 -38.5t-49 -36.5t-44.5 -32.5q-12 -27 -19 -52.5t-8 -47t4 -38t17 -25.5q11 -8 30.5 -4.5t43.5 18t49.5 39.5t49.5 59q10 16 21 21t18 1.5t7.5 -15t-9.5 -28.5q-24 -41 -54.5 -75.5t-64 -59.5t-68.5 -39.5t-68 -14.5q-35 0 -59.5 24.5
t-26.5 72.5t23 119.5t90 166.5q45 66 87.5 111.5t80 71.5t68 32t50.5 -7q33 -22 13.5 -72t-88.5 -113zM330 519q-6 4 -19.5 -6.5t-32 -31.5t-41.5 -50t-47 -60q30 25 57.5 49.5t47.5 45t30 34.5t5 19z" />
    <glyph glyph-name="e" unicode="e" horiz-adv-x="383" 
d="M263 206q-32 -29 -77.5 -48.5t-91.5 -26.5q5 -22 20.5 -33.5t33.5 -14.5q26 -5 58 3.5t64 26t61.5 42.5t51.5 55q12 15 23.5 20t18.5 1t7 -15t-11 -27q-30 -43 -66 -78t-75 -59.5t-80.5 -38t-81.5 -13.5q-46 0 -78 18.5t-47 50t-11.5 74.5t28.5 91q17 34 43.5 65.5
t59 52.5t68.5 28t72 -8q27 -12 41 -31t15 -42t-10.5 -47.5t-35.5 -45.5zM99 190q33 6 68.5 21.5t61.5 50.5q18 24 9.5 38.5t-30 12t-50 -26.5t-51.5 -76z" />
    <glyph glyph-name="d" unicode="d" horiz-adv-x="520" 
d="M558 189q-22 -37 -53.5 -71t-67 -60.5t-72 -42t-67.5 -15.5q-35 0 -54 24.5t-21 60.5q-11 -14 -25 -28.5t-32 -27.5t-40 -21t-47 -8q-39 0 -65 21.5t-35 56.5t0.5 79t42.5 89q29 39 64.5 65t71.5 39t70 11t61 -19q10 24 22.5 52t24.5 54t22.5 48.5t16.5 36.5
q10 22 16.5 35.5t13.5 22t17 13.5t28 10t35.5 9.5t29.5 4t16.5 -8t-3.5 -26.5l-18 -39t-27.5 -59.5t-33 -71t-33 -72t-29 -63.5t-20.5 -45q-11 -24 -20.5 -49.5t-12 -47t4 -35t28.5 -13.5q44 0 84 31t69 81q10 16 20.5 21.5t18 1.5t8.5 -15.5t-9 -28.5zM116 96q42 0 75 47.5
t68 130.5l-10 4q-17 6 -38.5 2.5t-44 -15.5t-43.5 -31.5t-36 -44.5q-10 -17 -13.5 -34t-0.5 -30t14 -21t29 -8z" />
    <glyph glyph-name="i" unicode="i" horiz-adv-x="238" 
d="M179 335q-10 -19 -22.5 -40.5t-24.5 -43t-23.5 -41.5t-20.5 -35q-9 -16 -17 -31.5t-12.5 -28t-2 -20.5t14.5 -8q19 0 41.5 10t45.5 27t44 39t36 47q10 16 20.5 21.5t17.5 1.5t8 -15.5t-9 -28.5q-17 -31 -49 -64.5t-68.5 -61t-71.5 -45.5t-59 -18q-23 0 -42 7t-29.5 22.5
t-10 39t15.5 56.5t26.5 59.5t22 49t20 42t18.5 38.5t16.5 30t16 17t19.5 8.5t27 5.5q16 2 30 3t22.5 -2.5t9 -13t-9.5 -27.5zM263 530q7 -17 1 -33.5t-20.5 -30t-34 -22t-38.5 -10t-34.5 4.5t-21.5 22q-7 16 -0.5 32.5t20.5 30t33 23t37.5 11.5t34 -4.5t23.5 -23.5z" />
    <glyph glyph-name="s" unicode="s" horiz-adv-x="372" 
d="M211 377q23 0 36.5 -1.5t20 -5t8.5 -9t2 -12.5q0 -15 -7 -19t-15 -7t-14 -11t-4 -31q5 -50 0 -95.5t-21 -83.5q21 4 43 14t43 24t39 32t30 38q10 16 20.5 21.5t17.5 1.5t8 -15.5t-9 -28.5q-21 -38 -51 -65.5t-63.5 -47t-67.5 -30.5t-63 -15q-42 -31 -103 -31
q-37 0 -62.5 17.5t-35.5 46.5t-2 67t39 79q33 44 54.5 73.5t36.5 48t26.5 28t24 13.5t28.5 4h41zM96 97q19 19 25.5 47.5t7.5 58.5t0.5 57t5.5 44q-13 -15 -27 -32q-12 -14 -26 -32.5t-27 -35.5q-29 -39 -31 -66t9 -40.5t30 -14t33 13.5z" />
    <glyph glyph-name="k" unicode="k" horiz-adv-x="430" 
d="M-55 0q-17 0 -28.5 2t-15.5 10t0.5 24t20.5 45q15 28 39.5 68.5t54 87t63 97.5t68 99.5t68.5 92t65 76.5q26 28 50 37.5t41.5 5t27 -20.5t6.5 -39q-3 -28 -24.5 -57t-51.5 -59t-64 -61.5t-63 -63.5q44 24 78.5 24t55.5 -17.5t25.5 -48t-11.5 -67.5q-18 -40 -42 -63
t-46 -35q-26 -14 -53 -20q0 -11 5 -20q4 -8 13.5 -14t27.5 -6q19 0 43 11.5t48.5 30t46.5 42.5t37 49q10 16 20.5 21.5t17.5 1.5t8 -15.5t-9 -28.5q-17 -31 -49 -64.5t-68 -61t-71.5 -45.5t-58.5 -18q-38 0 -63.5 16t-41.5 39.5t-23.5 50t-10.5 47.5l-6 -10t-5 -10l-34 -67
q-12 -25 -19 -38.5t-15.5 -19.5t-21 -7t-35.5 -1zM252 284q-23 19 -63.5 -2t-91.5 -103q34 -12 68.5 -2t59 29.5t33.5 42t-6 35.5z" />
    <glyph glyph-name="a" unicode="a" horiz-adv-x="490" 
d="M432 335q-10 -19 -22.5 -40.5l-25 -43t-24 -41.5t-20.5 -35q-9 -16 -17 -31.5t-12 -28t-2 -20.5t15 -8q18 0 41 10t46 27t43.5 39t35.5 47q10 16 20.5 21.5t17.5 1.5t8 -15.5t-8 -28.5q-17 -31 -49.5 -64.5t-68.5 -61t-71.5 -45.5t-58.5 -18q-33 0 -56 14t-26 44
q-22 -23 -52 -40.5t-68 -17.5q-39 0 -65 21.5t-35 56.5t1 79t43 89q31 42 70 69.5t78 38.5t75 4.5t62 -32.5q8 14 14.5 22.5t14.5 13.5t18.5 7.5t25.5 5.5q16 2 30 3t22 -2.5t9 -13t-9 -27.5zM115 96q42 0 83 44t76 119q-10 14 -25 19q-17 6 -39 2.5t-44.5 -15.5
t-43.5 -31.5t-36 -44.5q-10 -17 -13.5 -34t-0.5 -30t14 -21t29 -8z" />
    <glyph glyph-name="A" unicode="A" horiz-adv-x="941" 
d="M709 -89q-32 54 -42.5 124.5t-2.5 148.5q-29 24 -58.5 41.5t-57.5 28.5q-44 -64 -89 -127t-92.5 -116t-97 -91t-101.5 -52q-38 -10 -67 -5t-49.5 19.5t-32 33t-13.5 35t5 26.5t23 6q48 -11 97.5 10.5t100.5 63.5t103.5 100.5t105.5 121.5q-45 3 -83.5 -7.5t-67 -28.5
t-46.5 -41t-22 -45q-5 -22 -16.5 -25t-24.5 7.5t-24.5 31.5t-16.5 46.5t0 53t25 51.5q24 29 61.5 45t82.5 20t96 -3.5t102 -26.5q56 66 112.5 127t113 104t112.5 62.5t112 3.5q25 -8 24.5 -30.5t-34.5 -39.5q-21 -10 -41.5 -31t-38.5 -50.5t-33.5 -65.5t-27.5 -77
q-14 -47 -19.5 -98t-3.5 -100t11.5 -93.5t25.5 -80.5t38.5 -60.5t50.5 -32.5q21 -6 20.5 -17.5t-15.5 -22t-40.5 -16.5t-54.5 -2.5t-58.5 20.5t-51.5 54zM676 257q11 53 30.5 104t46 96.5t59.5 82.5t72 63q-37 -8 -73.5 -33.5t-73 -64t-72.5 -87t-73 -101.5q22 -13 43 -28
t41 -32z" />
    <glyph glyph-name="R" unicode="R" horiz-adv-x="864" 
d="M222 405q-18 42 -0.5 89.5t65 88.5t123.5 68t176 27q107 0 174 -36.5t95 -91.5t18 -120.5t-57 -122.5t-129.5 -98t-199.5 -47q39 -61 94.5 -120.5t115.5 -105.5t118.5 -72.5t104.5 -20.5q23 3 29 -7t-2.5 -25t-28.5 -32.5t-48.5 -30t-64 -16t-73.5 9.5q-60 19 -111 67
t-92.5 108.5t-73 126t-50.5 120.5q-5 1 -10 1.5t-10 2.5q-14 -35 -28 -68t-28 -64q-23 -50 -52.5 -85.5t-62.5 -55t-68.5 -22.5t-68.5 13q-29 14 -44 37.5t-20.5 48.5t-2.5 48.5t9.5 37.5t14.5 15t14 -18q6 -21 20 -32.5t31 -15t36 0.5t35 15q13 9 26.5 22.5t25.5 30
t23 34.5t20 34q22 41 46 90.5t50 98.5q-19 -2 -39.5 0t-39 10t-34.5 23t-26 39zM551 529q26 -1 21.5 -18.5t-35.5 -45.5q-27 -25 -53.5 -74.5t-52.5 -112.5q4 -13 8.5 -26t11.5 -27q7 0 11 1q68 5 123.5 36.5t91.5 76.5t51.5 95.5t4.5 92t-51 67.5t-114 22
q-93 -6 -143.5 -34t-67 -62.5t-3.5 -67t48 -47.5q34 54 71 89.5t78 34.5z" />
    <glyph glyph-name="I" unicode="I" horiz-adv-x="611" 
d="M300 567q18 -21 46 -32.5t63 -15t75 0t82 13.5q102 160 173 118q13 -8 17 -23t-1 -34.5t-20.5 -41.5t-42.5 -44q-15 -12 -30.5 -24t-32.5 -23q-32 -58 -63 -127.5t-61.5 -138.5t-60.5 -130.5t-60 -103.5q-40 -55 -89.5 -82t-97.5 -30t-90.5 14t-67.5 50t-28.5 79
t25.5 100q13 24 29 37t29 15.5t19 -5t-1 -25.5q-10 -22 -6.5 -45.5t17 -42t35 -30t47 -10.5t52.5 17t52 52q19 27 40 66t43.5 83.5t46 92.5t47.5 95q-36 -10 -73 -10.5t-75 10.5q-31 9 -49.5 30t-27 45.5t-8.5 48.5t6 40.5t17 21t24 -10.5z" />
    <glyph glyph-name="eth" unicode="&#xf0;" horiz-adv-x="430" 
d="M229 548q-31 12 -28.5 25.5t23.5 22.5t54 8.5t64 -17.5q25 -14 41 -36q12 11 21.5 22t21.5 25q13 15 22 10.5t13 -17.5t1 -30t-13 -28q-16 -16 -43 -31q9 -33 7.5 -71.5t-11.5 -79t-28.5 -81.5t-42.5 -78q10 -6 23.5 -9t27.5 -1.5t26.5 8t21.5 20.5q10 16 22 21t19.5 1
t8 -15.5t-11.5 -27.5q-18 -25 -39.5 -38.5t-43.5 -18.5t-43 -2.5t-38 11.5q-17 -31 -40 -57t-50 -45t-57.5 -29.5t-61.5 -10.5q-37 0 -63 15t-39.5 40.5t-14 60.5t12.5 74t36.5 73.5t54.5 60t66.5 40.5t73.5 15t64 -16t39 -43q6 37 1.5 72t-16.5 64l-39 -17q-20 -9 -33 -8
t-17 8t2.5 17.5t24.5 18.5q12 5 22.5 10t19.5 10q-26 40 -61 54zM149 104q35 0 64 22.5t47 57.5q7 13 14.5 35t6.5 42t-14.5 35t-47.5 15q-42 0 -74 -30t-47 -73q-14 -43 -2 -73.5t53 -30.5z" />
    <glyph glyph-name="thorn" unicode="&#xfe;" horiz-adv-x="442" 
d="M262 645q20 2 25.5 -5.5t-1.5 -27.5q-1 -2 -11 -24.5t-24 -55t-31 -70t-32 -70t-25.5 -55.5t-11.5 -26q26 28 56.5 47.5t63.5 19.5q39 0 58.5 -24.5t21 -62.5t-14.5 -84.5t-49 -91.5q-15 -21 -31 -37q29 9 57.5 24t53.5 33t44.5 37.5t30.5 37.5q10 16 20.5 21.5t17.5 1.5
t8 -15.5t-9 -28.5q-26 -46 -74.5 -82t-104.5 -60t-111 -36.5t-93 -10.5q-23 -1 -43 4.5t-37 17.5l-57 -130q-10 -22 -16.5 -31t-17.5 -9h-24q-24 0 -33.5 8.5t-1.5 31.5q2 7 9.5 25t17 41.5t20 49.5t20.5 49.5t17.5 41.5t11.5 26q9 22 26.5 61t38.5 86t43.5 97t42.5 93.5
t35.5 76t21.5 45.5q9 19 18.5 30t20.5 17.5t23.5 9t29.5 4.5zM217 289q-19 0 -41.5 -16.5t-45 -44t-44 -63t-39.5 -72.5q7 -8 21 -13q17 -6 38.5 0t44 21t43 36.5t35.5 46.5q10 18 16.5 36.5t6 33.5t-8.5 25t-26 10z" />
    <glyph glyph-name="Thorn" unicode="&#xde;" horiz-adv-x="855" 
d="M636 683q26 -1 21 -18.5t-35 -45.5q-14 -14 -36 -47q85 -17 134.5 -64.5t63.5 -109t-6.5 -128t-73.5 -122t-138.5 -91.5t-201.5 -36q-27 0 -43 4q-23 -47 -52 -80.5t-61.5 -52t-66.5 -20.5t-67 13q-29 14 -44 37.5t-20.5 48.5t-2.5 48.5t9.5 37.5t14.5 15t14 -18
q6 -21 19.5 -32.5t31 -15t36 0.5t35.5 15q13 9 26.5 23t25.5 30.5t23 34t20 33.5l54 104q-20 -8 -45.5 -11.5t-51 2.5t-48 22.5t-35.5 47.5q-18 42 -1 89.5t64.5 88.5t123.5 68t177 27h7q35 46 67.5 74.5t61.5 27.5zM376 82q62 4 113.5 34t87.5 73.5t55.5 94.5t18 97.5
t-25.5 82.5t-74 49q-25 -45 -52 -100.5t-53.5 -113t-51.5 -113t-45 -100.5q12 -5 27 -4zM329 304q10 -4 13 -6q28 54 59.5 111t63.5 108q-91 -8 -138 -38t-59.5 -65.5t5 -67t56.5 -42.5z" />
    <glyph glyph-name="germandbls" unicode="&#xdf;" horiz-adv-x="453" 
d="M-92 -76q-33 -11 -38 15t27 84q15 28 40.5 75t57 103t67 116.5t71.5 115.5t70.5 99.5t64.5 69.5t67.5 31t69 -6.5t50.5 -42.5t12 -78q-5 -30 -18 -54.5t-32 -44t-42.5 -34.5t-49.5 -27q20 -13 28 -37.5t5 -55.5t-18 -66.5t-42 -71.5q-15 -21 -31 -37q29 9 57.5 24
t53.5 33t44.5 37.5t30.5 37.5q10 16 20.5 21.5t17.5 1.5t8 -15.5t-9 -28.5q-26 -46 -74.5 -82t-104.5 -60t-111 -36.5t-93 -10.5q-21 -1 -46 6t-42 18l-8 -16q-12 -25 -23.5 -39t-23.5 -22t-26 -12.5t-30 -10.5zM228 289q-19 0 -41.5 -16.5t-45 -44t-44 -63t-39.5 -72.5
q7 -8 21 -13q17 -6 38.5 0t44 21t43 36.5t35.5 46.5q10 18 16.5 36.5t6 33.5t-8.5 25t-26 10zM195 330q26 5 55 25t55 44.5t45.5 49t27.5 38.5q12 22 15 41.5t-0.5 31.5t-14 15.5t-26.5 -6.5t-39.5 -42t-47 -70t-43 -74t-27.5 -53z" />
    <glyph glyph-name="dieresis" unicode="&#xa8;" horiz-adv-x="369" 
d="M24 530q0 28 20 48t48 20t48 -20t20 -48t-20 -48t-48 -20t-48 20t-20 48zM197 530q0 28 20 48t48 20t48 -20t20 -48t-20 -48t-48 -20t-48 20t-20 48z" />
    <glyph glyph-name="circumflex" unicode="&#x2c6;" horiz-adv-x="369" 
d="M177 645q14 9 34.5 10.5t37.5 -14.5q8 -8 20.5 -23.5t25.5 -36t25 -44t20 -46.5q8 -25 5.5 -38t-11 -15.5t-22 5t-27.5 24.5q-18 20 -43.5 44.5t-49.5 44.5q-34 -16 -67.5 -40t-63.5 -53q-12 -12 -23.5 -11.5t-17 10t-2 25.5t20.5 35q12 14 31 32.5t39.5 36.5t39 33
t28.5 21z" />
    <glyph glyph-name="grave" unicode="`" horiz-adv-x="328" 
d="M286 502q14 -5 15 -15.5t-6.5 -20.5t-21 -15t-26.5 2q-9 4 -36.5 10t-59 14t-60 17t-40.5 19q-17 14 -23.5 39t-4 46.5t12.5 31t26 -7.5q15 -17 47 -36t67 -36t65.5 -30t44.5 -18z" />
    <glyph glyph-name="acute" unicode="&#xb4;" horiz-adv-x="357" 
d="M38 502q15 5 50 18t75 30t77.5 36t58.5 36q22 17 29 7.5t2.5 -31t-18.5 -46.5t-35 -39q-15 -10 -46.5 -19t-65 -17t-63 -14t-40.5 -10q-15 -7 -26.5 -2t-16 15t-0.5 20.5t19 15.5z" />
    <glyph glyph-name="cedilla" unicode="&#xb8;" horiz-adv-x="275" 
d="M135 34q12 16 32 22t37 4.5t24.5 -9.5t-5.5 -19q-10 -9 -21 -20.5t-19 -22t-11.5 -17.5t1.5 -7q14 0 27.5 -4.5t24 -12t16.5 -19.5t6 -27q0 -20 -12.5 -40t-35 -35t-54 -22t-68.5 1q-38 8 -52 30.5t-13.5 43t10 31.5t18.5 -3q12 -19 35.5 -27t47.5 -7t42.5 8.5t19.5 19.5
q1 17 -22 28.5t-57 11.5q-17 0 -24 3t-8 7.5t2.5 10t8.5 10.5q14 16 27.5 32t22.5 29z" />
    <glyph glyph-name="quotesingle" unicode="'" horiz-adv-x="7" 
d="M29 510q11 21 30.5 37t41.5 25.5t42.5 12.5t34 -2.5t15.5 -20t-13 -38.5q-38 -61 -70 -103t-58 -69q-30 -31 -50 -44t-30 -12t-9 12.5t15 28.5q30 39 37.5 62.5t7 40.5t-2.5 32.5t9 37.5z" />
    <glyph glyph-name="quotedbl" unicode="&#x22;" horiz-adv-x="365" 
d="M133 510q11 21 30.5 37t41.5 25.5t42.5 12.5t34 -2.5t15.5 -20t-13 -38.5q-38 -61 -70 -103t-58 -69q-30 -31 -50 -44t-30 -12t-9 12.5t15 28.5q30 39 37.5 62.5t7 40.5t-2.5 32.5t9 37.5zM293 510q11 21 30.5 37t41.5 25.5t42.5 12.5t34 -2.5t15.5 -20t-13 -38.5
q-38 -61 -70 -103t-58 -69q-30 -31 -50 -44t-30 -12t-9 12.5t15 28.5q30 39 37.5 62.5t7 40.5t-2.5 32.5t9 37.5z" />
    <glyph glyph-name="quotedblright" unicode="&#x201d;" horiz-adv-x="365" 
d="M133 510q11 21 30.5 37t41.5 25.5t42.5 12.5t34 -2.5t15.5 -20t-13 -38.5q-38 -61 -70 -103t-58 -69q-30 -31 -50 -44t-30 -12t-9 12.5t15 28.5q30 39 37.5 62.5t7 40.5t-2.5 32.5t9 37.5zM293 510q11 21 30.5 37t41.5 25.5t42.5 12.5t34 -2.5t15.5 -20t-13 -38.5
q-38 -61 -70 -103t-58 -69q-30 -31 -50 -44t-30 -12t-9 12.5t15 28.5q30 39 37.5 62.5t7 40.5t-2.5 32.5t9 37.5z" />
    <glyph glyph-name="quotedblleft" unicode="&#x201c;" horiz-adv-x="365" 
d="M367 380q-11 -21 -30.5 -37t-41.5 -25.5t-42.5 -12.5t-34 2.5t-15.5 19.5t13 39q38 61 70 103t58 69q30 31 50 44t30 12t8.5 -12.5t-14.5 -28.5q-30 -39 -37.5 -62.5t-7 -40.5t2.5 -32.5t-9 -37.5zM207 380q-11 -21 -30.5 -37t-41.5 -25.5t-42.5 -12.5t-34 2.5
t-15.5 19.5t13 39q38 61 70 103t58 69q30 31 50 44t30 12t8.5 -12.5t-14.5 -28.5q-30 -39 -37.5 -62.5t-7 -40.5t2.5 -32.5t-9 -37.5z" />
    <glyph glyph-name="slash" unicode="/" horiz-adv-x="511" 
d="M479 536q24 25 44.5 30t30.5 -4t5.5 -28.5t-31.5 -42.5q-14 -12 -43 -40t-68 -66.5t-85 -84t-94 -93t-94.5 -93.5t-86 -84t-69.5 -66t-45 -39q-17 -12 -28.5 -15t-16 2t-1.5 16.5t16 26.5q15 18 56 61t96 98.5t117 119t120 122t105 106.5t72 74z" />
    <glyph glyph-name="percent" unicode="%" horiz-adv-x="554" 
d="M488 478q21 20 42.5 23.5t33.5 -4t11 -23t-25 -33.5q-16 -12 -56.5 -45.5t-93 -77t-111 -93t-111.5 -93t-94 -76.5t-59 -45q-15 -10 -26.5 -10.5t-16.5 5t-3 15.5t13 22q14 14 50 46t83.5 73.5t102 88.5t105 90.5t92 79.5t63.5 57zM98 409q0 20 9 37.5t24 31t35.5 21
t43.5 7.5t43 -7.5t35 -21t24 -31t9 -37.5t-9 -37.5t-24 -31t-35 -21t-43 -7.5t-43.5 7.5t-35.5 21t-24 31t-9 37.5zM156 409q0 -20 15.5 -33.5t38.5 -13.5q22 0 38 13.5t16 33.5t-16 33.5t-38 13.5q-23 0 -38.5 -13.5t-15.5 -33.5zM228 98q0 20 9 37.5t24 31t35 21t43 7.5
t43 -7.5t35 -21t24 -31t9 -37.5t-9 -37.5t-24 -31t-35 -21t-43 -7.5t-43 7.5t-35 21t-24 31t-9 37.5zM285 98q0 -20 15.5 -33.5t38.5 -13.5t38 13.5t15 33.5t-15 33.5t-38 13.5t-38.5 -13.5t-15.5 -33.5z" />
    <glyph glyph-name="exclam" unicode="!" horiz-adv-x="242" 
d="M317 594q9 18 26.5 31.5t37.5 22t40 12t33.5 1t17.5 -11t-7 -22.5q-11 -15 -29.5 -41.5t-41.5 -60t-47.5 -70t-47 -70.5t-42 -63t-30.5 -47q-17 -27 -33.5 -37.5t-28.5 -10t-17 10t1 21.5q4 8 14.5 29.5t25.5 50.5t32.5 63.5l35 69t33 66.5t27.5 56zM23 75q0 31 22 53
t52 22q31 0 53 -22t22 -53q0 -30 -22 -52t-53 -22q-30 0 -52 22t-22 52z" />
    <glyph glyph-name="ampersand" unicode="&#x26;" horiz-adv-x="473" 
d="M596 323q11 -1 11.5 -10.5t-5.5 -24t-17 -31.5t-24.5 -31t-27 -24t-24.5 -10l-126 -6q15 -2 30 -11t17 -17q11 -44 -4 -84.5t-48.5 -71.5t-80.5 -49t-99 -18t-97.5 18.5t-74 52.5t-36 82.5t16.5 108.5q12 30 30.5 52t41.5 37.5t49 24.5t53 12q-5 18 -3.5 37t6.5 38
q-26 20 -44 48q-17 25 -16 51.5t11 49t26 39.5t30.5 23.5t23.5 1t5 -27.5q-5 -27 0.5 -50.5t17.5 -43.5q35 38 86 62t112 23q46 -1 76.5 -17.5t43.5 -41.5t9.5 -54.5t-23.5 -55t-57.5 -43t-92.5 -19.5q-53 -2 -104 9q-4 -19 -4 -40q24 -7 33.5 -18t8 -21.5t-12.5 -19
t-27 -11.5t-36 2t-39 22q-46 -18 -70.5 -61t-27 -89t18.5 -81.5t66 -38.5q46 -3 79 19.5t49 54t13.5 64t-26.5 49.5q-14 9 -13 20.5t19 22.5q8 5 28 14t46.5 20t57 22.5t58.5 21t51 15t36 4.5zM430 507q-35 -3 -64.5 -27.5t-49.5 -58.5q53 -25 105 -17q39 6 59.5 24.5t22 37
t-17 31.5t-55.5 10z" />
    <glyph glyph-name="hyphen" unicode="-" horiz-adv-x="348" 
d="M278 247q16 -1 20.5 -12t0 -24.5t-17 -24.5t-28.5 -12q-21 -2 -46 -2.5t-49 -1t-44.5 -1t-32.5 -1.5q-14 -1 -17 8.5t2.5 22.5t17 24.5t25.5 15.5q15 4 36.5 6t44.5 3t46 0.5t42 -1.5z" />
    <glyph glyph-name="at" unicode="@" horiz-adv-x="843" 
d="M653 335q-10 -19 -22.5 -40.5l-25 -43t-24 -41.5t-20.5 -35q-9 -16 -17 -32.5t-12 -30t-2 -21t15 -4.5q51 10 92 40t67 69t35 83t-3.5 83.5t-49.5 70t-103 42.5q-78 14 -147.5 0t-127 -47.5t-102 -81.5t-73 -101.5t-40 -108.5t-3 -102.5t38 -82.5t82.5 -49
q63 -17 112 -0.5t72 52.5q8 12 13 6.5t2.5 -20.5t-13 -36.5t-35 -41t-63.5 -33t-97 -13.5q-80 0 -131.5 36t-75 94t-21 130.5t31 145t81 138t128 110t173 61t216.5 -10.5q89 -20 135 -64.5t57 -100t-8.5 -115t-61 -111t-100 -87t-125.5 -42.5q-33 -4 -56 12t-26 46
q-22 -23 -52 -40.5t-68 -17.5q-39 0 -65 21.5t-35 56.5t1 79t43 89q31 42 70 69.5t78 38.5t75 4.5t62 -32.5q8 14 14.5 22.5t14.5 13.5t18.5 7.5t25.5 5.5q16 2 30 3t22 -2.5t9 -13t-9 -27.5zM336 96q42 0 83 44t76 119q-10 14 -25 19q-17 6 -39 2.5t-44.5 -15.5
t-43.5 -31.5t-36 -44.5q-10 -17 -13.5 -34t-0.5 -30t14 -21t29 -8z" />
    <glyph glyph-name="comma" unicode="," horiz-adv-x="279" 
d="M48 73q11 21 30.5 37t41.5 25.5t42.5 12.5t34 -2.5t15.5 -20t-13 -38.5q-38 -61 -70 -103t-58 -69q-30 -31 -50 -44t-30 -12t-9 12.5t15 28.5q30 39 37.5 62.5t7 40.5t-2.5 32.5t9 37.5z" />
    <glyph glyph-name="period" unicode="." horiz-adv-x="262" 
d="M23 75q0 31 22 53t52 22q31 0 53 -22t22 -53q0 -30 -22 -52t-53 -22q-30 0 -52 22t-22 52z" />
    <glyph glyph-name="parenleft" unicode="(" horiz-adv-x="456" 
d="M539 546q29 9 46 8.5t19.5 -7.5t-10.5 -18.5t-45 -23.5q-76 -28 -139.5 -71.5t-111 -95t-79 -108t-44.5 -110.5t-6.5 -102.5t34.5 -84.5q14 -18 13.5 -28t-10 -12.5t-25 2.5t-31.5 18q-41 31 -64 78t-22.5 103t26 117.5t82.5 121.5t147.5 115t219.5 98z" />
    <glyph glyph-name="parenright" unicode=")" horiz-adv-x="403" 
d="M-128 -96q-29 -9 -46 -8.5t-19.5 7.5t10.5 18.5t45 23.5q76 28 139.5 71.5t111 95t79 108t44.5 110.5t6.5 102.5t-34.5 84.5q-14 18 -13.5 28t10 12.5t25 -2.5t31.5 -18q41 -31 64 -78t22.5 -103t-26 -117.5t-82.5 -121.5t-147.5 -115t-219.5 -98z" />
    <glyph glyph-name="bar" unicode="|" horiz-adv-x="548" 
d="M386 601q14 32 32 43.5t30.5 6.5t14.5 -25t-15 -50q-9 -16 -26.5 -52t-40.5 -85.5t-50.5 -109t-55.5 -120.5t-56 -120t-52 -108.5t-42.5 -86t-28.5 -52.5q-12 -18 -21.5 -24t-15.5 -3t-7 14.5t6 30.5q6 16 21 51.5t36 83t46.5 104t52 116t53 118t49.5 110t41.5 92.5
t28.5 66z" />
    <glyph glyph-name="bracketleft" unicode="[" horiz-adv-x="393" 
d="M246 -44q16 -1 20.5 -12t0 -24.5t-17 -24.5t-28.5 -12q-21 -2 -46 -2.5t-49 -1t-44.5 -1t-32.5 -1.5q-15 0 -18 11q-2 6 -1 15.5t6 22.5q8 22 25 64t39 95t46.5 112.5t48.5 116t44.5 105.5t34.5 82q8 20 19 32t21 17l14 6q15 4 36.5 6t44.5 3t46 0.5t42 -1.5
q16 -1 20.5 -12t0 -24.5t-17 -24.5t-28.5 -12q-30 -2 -66 -3t-65 -2l-5 -10q-10 -18 -27 -54.5t-37.5 -84t-44 -100.5t-46 -105.5t-44 -99t-38.5 -79.5q32 5 73.5 5t73.5 -2z" />
    <glyph glyph-name="bracketright" unicode="]" horiz-adv-x="433" 
d="M192 492q-16 1 -20.5 12t0 24.5t16.5 24.5t29 12q21 1 46 2t49 1.5t44.5 1t32.5 1.5q15 0 17 -11q5 -13 -4 -38q-8 -22 -25 -64t-39 -95t-46.5 -112.5t-48.5 -116t-44.5 -105.5t-34.5 -82q-9 -20 -19.5 -32t-21.5 -17q-3 -2 -6.5 -3.5t-6.5 -2.5q-15 -4 -36.5 -6.5
t-44.5 -3t-46 0t-42 1.5q-16 1 -20.5 12t0 24.5t16.5 24.5t29 12q30 2 65.5 3t64.5 2l6 10q10 18 26.5 54.5t37.5 83.5t44 100.5t46 105.5t44.5 98.5t38.5 80.5q-32 -5 -73.5 -5t-73.5 2z" />
    <glyph glyph-name="dollar" unicode="$" horiz-adv-x="672" 
d="M448 535q11 23 24 31t22 4t10 -18.5t-12 -35.5q-4 -4 -5 -8q37 -14 50.5 -43.5t3 -60.5t-44.5 -55.5t-92 -26.5q-5 0 -9 -0.5t-9 -0.5l-22 -41q47 -41 58 -80.5t-2 -85.5q-8 -27 -26.5 -51.5t-43 -42.5t-53 -28.5t-56.5 -11.5q-22 0 -41 3l-18 -30q-17 -25 -27.5 -19
t0.5 33q3 9 11 25q-32 12 -56.5 33t-38 47t-14 55t16.5 57q15 26 34.5 37.5t38 13.5t35 -3.5t25.5 -13t9 -15.5t-13 -11q-26 -5 -39.5 -25t-15 -44t9 -47.5t32.5 -35.5q17 35 40.5 79t48.5 92l-9 8q-44 32 -54.5 70.5t7.5 84.5q-19 16 -30 35q-14 21 -13.5 43.5t9 41
t22 32.5t25.5 19.5t19.5 1t4.5 -23.5q-4 -22 0 -40.5t13 -35.5q32 31 75 50t91 19q2 5 4.5 10zM323 90q10 23 8 45t-21 46q-23 -42 -43.5 -80.5t-38.5 -69.5q8 0 13 1q29 4 51 19.5t31 38.5zM429 373q25 4 39 16t18 26t-2.5 26.5t-22.5 18.5q-11 -18 -22.5 -40t-25.5 -48h8
t8 1zM321 399q21 -15 47 -21l42 82q-24 -6 -46.5 -19.5t-35.5 -31.5zM310 331q7 -11 20 -23l10 17z" />
    <glyph glyph-name="numbersign" unicode="#" horiz-adv-x="476" 
d="M302 190q22 -1 28.5 -9.5t0.5 -19t-22 -19.5t-38 -11q-14 -27 -26.5 -51t-23.5 -41q-12 -18 -21.5 -24t-15.5 -3t-7 14.5t6 30.5q5 15 12.5 33.5t15.5 38.5q-26 0 -52 -0.5t-51 -0.5q-13 -26 -25 -49t-23 -40q-12 -18 -21.5 -24t-15.5 -3t-7 14.5t6 30.5q5 15 12 32.5
l15 37.5h-28q-20 -1 -24 6.5t3.5 17.5t24 19.5t36.5 12.5q4 0 12 2l53 122h-25q-20 -1 -24 6.5t3.5 17.5t24 19.5t36.5 12.5q2 0 4.5 0.5t4.5 0.5l31 73q14 32 32 43.5t30.5 6.5t14.5 -25t-15 -50q-5 -9 -10.5 -20l-11.5 -23q23 1 46.5 1.5t46.5 0.5l28 66q14 32 32 43.5
t30.5 6.5t14.5 -25t-15 -50q-5 -9 -10.5 -19.5t-11.5 -22.5q22 -1 28.5 -9.5t1 -18t-20.5 -18.5t-36 -12l-56 -122h3zM192 308q-14 -29 -27 -59t-27 -60q24 2 49 2h50l50 118q-24 0 -48 -0.5t-47 -0.5z" />
    <glyph glyph-name="asterisk" unicode="*" horiz-adv-x="472" 
d="M154 238q-24 -1 -42 -1.5t-26 -0.5q-14 -1 -17 5.5t2.5 15.5t17 17.5t25.5 12.5q7 2 19 3t27 3q-20 26 -24 41q-3 11 1 24.5t12 26t19 22.5t21 14.5t17.5 1t10.5 -16.5q2 -17 9 -38t18 -44q23 23 41.5 45t29.5 40q13 21 28.5 16t25.5 -23t12 -42t-11 -42q-4 -5 -9.5 -10
t-12.5 -11q9 0 17 -0.5t14 -0.5q16 -1 20.5 -9t0 -17.5t-17 -17.5t-28.5 -9q-11 -1 -29 -2t-38 -1q10 -17 17.5 -30.5t12.5 -20.5q8 -11 4.5 -21t-12.5 -15t-19.5 -3.5t-17.5 14.5q-4 6 -16 20t-28 31q-31 -20 -55 -35t-32 -22q-12 -12 -24.5 -12t-20 7t-7 18.5t14.5 22.5z
" />
    <glyph glyph-name="plus" unicode="+" horiz-adv-x="439" 
d="M315 327q-5 -14 -14.5 -37.5t-21.5 -51.5h57.5t41.5 -1q16 -1 20.5 -9t0 -17.5t-17 -17.5t-28.5 -9q-16 -2 -42.5 -2.5t-57.5 -1.5q-15 -33 -29 -59.5t-22 -37.5q-9 -12 -21.5 -17.5t-22 -5.5t-14 6t1.5 19l42 95q-37 -1 -66.5 -1t-40.5 -1q-14 -1 -17 5.5t2.5 15.5
t17 17.5t25.5 12.5q13 3 41.5 5t63.5 3q13 30 24.5 55.5t19.5 40.5t20 21.5t22 5.5t15.5 -9.5t-0.5 -23.5z" />
    <glyph glyph-name="colon" unicode=":" horiz-adv-x="262" 
d="M45 75q0 22 15.5 37.5t36.5 15.5q22 0 37.5 -15.5t15.5 -37.5q0 -21 -15.5 -36.5t-37.5 -15.5q-21 0 -36.5 15.5t-15.5 36.5zM155 299q0 22 15.5 37.5t36.5 15.5q22 0 37.5 -15.5t15.5 -37.5q0 -21 -15.5 -36.5t-37.5 -15.5q-21 0 -36.5 15.5t-15.5 36.5z" />
    <glyph glyph-name="semicolon" unicode=";" horiz-adv-x="262" 
d="M155 299q0 22 15.5 37.5t36.5 15.5q22 0 37.5 -15.5t15.5 -37.5q0 -21 -15.5 -36.5t-37.5 -15.5q-21 0 -36.5 15.5t-15.5 36.5zM40 74q13 25 40.5 40.5t51.5 19t35.5 -8t-6.5 -40.5q-31 -48 -56.5 -81.5t-45.5 -55.5q-24 -25 -40 -35t-24 -9.5t-7 9.5t12 23
q24 31 30 49.5t5 32.5t-2.5 26t7.5 30z" />
    <glyph glyph-name="less" unicode="&#x3c;" horiz-adv-x="369" 
d="M56 197q-5 16 -1 36t24 32q10 6 32.5 18.5t51 25.5t58.5 23t54 11q26 1 38.5 -4.5t12.5 -14.5t-11 -20t-31 -20q-12 -6 -31 -18.5t-40 -27.5t-40.5 -29t-32.5 -23q5 -10 17 -24t26.5 -29.5t30 -31t27.5 -28.5t7.5 -23t-18 -12t-34 5.5t-39.5 29.5q-12 13 -28 30t-31 34
t-27 33t-15 27z" />
    <glyph glyph-name="greater" unicode="&#x3e;" horiz-adv-x="369" 
d="M318 183q5 -16 1 -36t-24 -32q-10 -6 -32.5 -18.5t-51 -25.5t-58.5 -23t-54 -11q-26 -2 -38.5 4t-12.5 15t11 20t31 20q12 6 31 18.5t40 27.5t40.5 29t32.5 23q-5 10 -17 24t-26.5 29.5t-30 31t-27.5 28.5t-7.5 23t18 12t33.5 -5.5t40 -29.5q12 -14 28 -30.5t31 -33.5
t27 -33t15 -27z" />
    <glyph glyph-name="guilsinglleft" unicode="&#x2039;" horiz-adv-x="369" 
d="M56 197q-5 16 -1 36t24 32q10 6 32.5 18.5t51 25.5t58.5 23t54 11q26 1 38.5 -4.5t12.5 -14.5t-11 -20t-31 -20q-12 -6 -31 -18.5t-40 -27.5t-40.5 -29t-32.5 -23q5 -10 17 -24t26.5 -29.5t30 -31t27.5 -28.5t7.5 -23t-18 -12t-34 5.5t-39.5 29.5q-12 13 -28 30t-31 34
t-27 33t-15 27z" />
    <glyph glyph-name="guilsinglright" unicode="&#x203a;" horiz-adv-x="369" 
d="M318 183q5 -16 1 -36t-24 -32q-10 -6 -32.5 -18.5t-51 -25.5t-58.5 -23t-54 -11q-26 -2 -38.5 4t-12.5 15t11 20t31 20q12 6 31 18.5t40 27.5t40.5 29t32.5 23q-5 10 -17 24t-26.5 29.5t-30 31t-27.5 28.5t-7.5 23t18 12t33.5 -5.5t40 -29.5q12 -14 28 -30.5t31 -33.5
t27 -33t15 -27z" />
    <glyph glyph-name="guillemotleft" unicode="&#xab;" horiz-adv-x="526" 
d="M206 197q-2 8 -2.5 17t1.5 19l-65 -47q5 -10 17 -24t26.5 -29.5t30 -31t27.5 -28.5t7.5 -23t-18 -12t-34 5.5t-39.5 29.5q-12 13 -28 30t-31 34t-27 33t-15 27q-5 16 -1 36t24 32q10 6 32.5 18.5t51 25.5t58.5 23t54 11q33 2 44 -7t3 -23q26 11 53 19.5t50 10.5
q26 1 38.5 -4.5t12.5 -14.5t-11 -20t-31 -20q-12 -6 -31 -18.5t-40 -27.5t-40.5 -29t-32.5 -23q5 -10 17 -24t26.5 -29.5t30 -31t27.5 -28.5t7.5 -23t-18 -12t-34 5.5t-39.5 29.5q-12 13 -28 30t-31 34t-27 33t-15 27z" />
    <glyph glyph-name="guillemotright" unicode="&#xbb;" horiz-adv-x="535" 
d="M478 183q5 -16 1 -36t-24 -32q-10 -6 -32.5 -18.5t-51 -25.5t-58.5 -23t-54 -11q-38 -2 -47 9.5t5 26.5q-29 -14 -60.5 -24.5t-57.5 -11.5q-26 -2 -38.5 4t-12.5 15t11 20t31 20q12 6 31 18.5t40 27.5t40.5 29t32.5 23q-5 10 -17 24t-26.5 29.5t-30 31t-27.5 28.5
t-7.5 23t18 12t33.5 -5.5t40 -29.5q12 -14 28 -30.5t31 -33.5t27 -33t15 -27q3 -10 2.5 -22.5t-5.5 -23.5q23 16 44 31.5t35 25.5q-5 10 -17 24t-26.5 29.5t-30 31t-27.5 28.5t-7.5 23t18 12t33.5 -5.5t40 -29.5q12 -14 28 -30.5t31 -33.5t27 -33t15 -27z" />
    <glyph glyph-name="quoteleft" unicode="&#x2018;" horiz-adv-x="365" 
d="M284 380q-11 -21 -30.5 -37t-41.5 -25.5t-42.5 -12.5t-34 2.5t-15.5 19.5t13 39q38 61 70 103t58 69q30 31 50 44t30 12t8.5 -12.5t-14.5 -28.5q-30 -39 -37.5 -62.5t-7 -40.5t2.5 -32.5t-9 -37.5z" />
    <glyph glyph-name="quoteright" unicode="&#x2019;" horiz-adv-x="365" 
d="M212 510q11 21 30.5 37t41.5 25.5t42.5 12.5t34 -2.5t15.5 -20t-13 -38.5q-38 -61 -70 -103t-58 -69q-30 -31 -50 -44t-30 -12t-9 12.5t15 28.5q30 39 37.5 62.5t7 40.5t-2.5 32.5t9 37.5z" />
    <glyph glyph-name="Zcaron" unicode="&#x17d;" horiz-adv-x="802" 
d="M450 259q22 25 50.5 56.5t60.5 65t66 67t67 63.5q-51 -5 -103 -2.5t-98 15.5q-23 -44 -64.5 -79.5t-104.5 -57.5q-32 -11 -63.5 -9.5t-58 10t-46 21.5t-27 25.5t-1.5 21.5t31 9q32 1 67 10t69.5 25t66 38.5t57.5 50.5q-12 21 -14.5 44.5t2.5 44t15.5 35.5t24.5 20
q12 4 24.5 1.5t23 -14t17 -31.5t7.5 -50q0 -10 -0.5 -19t-1.5 -18q34 -12 72 -15.5t75.5 -2.5t73 6.5t64.5 11.5q21 21 47 43.5t51.5 38t47.5 18.5t34 -15q14 -21 5.5 -43.5t-33 -43t-63 -38t-84.5 -30.5q-24 -23 -52.5 -57.5t-60.5 -75.5t-67 -87.5t-72 -94.5
q-11 -14 -24.5 -31t-27.5 -34.5t-27 -33.5t-23 -28q118 -26 196 -69q33 -19 52 -45t26 -53.5t4.5 -52t-11 -40t-21 -19t-25.5 12.5q-13 15 -44 37t-73.5 47t-93.5 49.5t-103 44.5q-26 -18 -55.5 -33.5t-58.5 -26.5t-56 -17.5t-47 -6.5q-47 0 -78 14t-46 35.5t-14 46.5t19 47
t53 37.5t88 17.5q38 2 75.5 0.5t73.5 -4.5q34 32 67.5 69.5t68.5 77.5zM725 651q-14 -9 -34.5 -10.5t-37.5 14.5q-8 8 -21.5 21t-27.5 30t-27 37.5t-20 43.5q-8 25 8 46.5t38 33.5t40 9.5t15 -25.5q-8 -51 0.5 -89t32.5 -58q16 12 36 29.5t40 38t38.5 41.5t32.5 41
q16 22 28 14.5t16.5 -29t0 -49.5t-21.5 -47q-12 -14 -31 -28t-39 -26t-38 -22t-28 -16zM143 5q20 2 41 11t44 24q-50 9 -87 5q-24 -3 -35.5 -10.5t-11.5 -14.5t12.5 -12t36.5 -3z" />
    <glyph glyph-name="zcaron" unicode="&#x17e;" horiz-adv-x="417" 
d="M-39 31q8 9 33 34t59 58.5t72.5 71t72.5 71.5q-51 -24 -77 -18t-36 24q-11 -22 -22.5 -44t-24.5 -39t-25 -23t-18.5 -2t-6.5 16t12 30q28 44 47.5 82t27.5 54q5 23 40 29q15 2 28 3t23.5 -2.5t17 -13t8.5 -27.5q2 -19 10 -24.5t21 -1t30.5 18t39.5 33.5q19 19 46.5 25.5
t49.5 4t32 -12t-5 -22.5l-323 -281q43 24 69.5 29t44 1t29.5 -11t27 -7q19 0 40 10t41.5 27t39 39t33.5 47q10 16 21 21.5t17.5 1.5t7.5 -15.5t-8 -28.5q-17 -31 -47.5 -64.5t-64 -61t-67 -45.5t-56.5 -18q-16 0 -30.5 6.5t-29.5 14t-30.5 14t-33.5 6.5t-39.5 -8.5
t-46.5 -30.5q-9 -8 -23 -10t-24.5 2t-13 13t11.5 24zM337 448q-14 -9 -34.5 -10.5t-37.5 14.5q-8 8 -21.5 21t-27.5 30t-27 37.5t-20 43.5q-8 25 8 46.5t38 33.5t40 9.5t15 -25.5q-8 -51 0.5 -89t32.5 -58q16 12 36 29.5t40 38t38.5 41.5t32.5 41q16 22 28 14.5t16.5 -29
t0 -49.5t-21.5 -47q-12 -14 -31 -28t-39 -26t-38 -22t-28 -16z" />
    <glyph glyph-name="equal" unicode="=" horiz-adv-x="348" 
d="M247 185q12 -1 16 -7t1.5 -13.5t-10.5 -13.5t-21 -7q-21 -1 -46 -2t-49 -1.5t-44.5 -1t-32.5 -1.5q-14 -1 -17.5 6.5t1 17t14.5 17t24 7.5h36.5h42.5h44t41 -1zM285 275q12 -1 16 -7t1.5 -13.5t-10.5 -13.5t-21 -7q-21 -1 -46 -2t-49 -1.5t-44.5 -1t-32.5 -1.5
q-14 -1 -17.5 6.5t1 17t14.5 17t24 7.5h36.5h42.5h44t41 -1z" />
    <glyph glyph-name="question" unicode="?" horiz-adv-x="468" 
d="M555 680q-1 16 8 18.5t20.5 -5t22.5 -24t15 -37.5t-2.5 -45t-29.5 -47q7 -33 -3 -69t-36.5 -68.5t-69.5 -60t-100 -44.5q-11 -3 -31.5 -9t-42 -13.5t-40 -14.5t-24.5 -13q-17 -14 -35 -20t-31.5 -4.5t-19.5 9t2 20.5q11 18 30.5 32.5t43.5 27t49 24.5t47 25q32 20 57 44
t39 49q-36 -8 -71 -9t-66 5q-42 8 -66.5 31t-31 51t5 57t41 50t76.5 30t112 -3q67 -13 109 -44q22 30 22 57zM43 75q0 31 22 53t52 22q31 0 53 -22t22 -53q0 -30 -22 -52t-53 -22q-30 0 -52 22t-22 52zM307 517q26 -7 61 1.5t70 26.5q-13 33 -61 45q-41 9 -67.5 2t-36.5 -21
t-2.5 -30t36.5 -24z" />
    <glyph glyph-name="braceleft" unicode="{" horiz-adv-x="456" 
d="M539 546q29 9 46 8t20 -8.5t-10.5 -18.5t-45.5 -22q-50 -17 -88.5 -34.5t-67 -39.5t-47.5 -50.5t-30 -67.5q-4 -15 -9.5 -28t-15.5 -23.5t-26.5 -17t-41.5 -7.5q20 -14 26.5 -26.5t4.5 -24.5t-11 -23t-21 -22q-51 -47 -55 -101t36 -107q14 -18 13.5 -28t-10 -12.5
t-25 2.5t-31.5 18q-18 13 -35 30.5t-29 37.5t-18 42.5t-4 46.5q2 26 13.5 48.5t25 41t27 33t21 24.5t5.5 15t-19 6q-12 0 -16 6.5t-1 14t14 14.5t30 9q23 3 30.5 14t13.5 29.5t16.5 44t40.5 57.5q21 22 51.5 38.5t67.5 30t76.5 25.5t78.5 25z" />
    <glyph glyph-name="braceright" unicode="}" horiz-adv-x="403" 
d="M-127 -96q-29 -9 -46 -8t-20 8.5t10.5 18.5t45.5 22q49 16 88 34t67.5 40t47.5 50.5t30 67.5q4 15 9.5 28t15.5 23.5t26 17t42 7.5q-20 14 -26.5 26.5t-4.5 24.5t11 23t21 22q51 47 55 101t-36 107q-14 18 -13.5 28t10 12.5t25 -2.5t31.5 -18q37 -27 63.5 -67.5
t22.5 -89.5q-3 -26 -14 -48.5t-24.5 -41t-27 -33t-21 -24.5t-5.5 -15.5t19 -5.5q12 0 16 -6.5t1 -14t-14 -14.5t-30 -9q-23 -3 -30.5 -14t-13.5 -29.5t-16.5 -44.5t-40.5 -57q-21 -22 -51.5 -38.5t-67.5 -30t-76.5 -25.5t-78.5 -25z" />
    <glyph glyph-name="backslash" unicode="\" horiz-adv-x="365" 
d="M14 615q-14 32 -10.5 52.5t15.5 26t28 -6.5t27 -45q5 -17 19.5 -54.5t35 -88.5t44.5 -111.5t49 -123t49 -123.5t43.5 -112.5t33 -90t18.5 -56.5q5 -20 3 -32t-8 -14t-15.5 5t-18.5 25q-10 21 -33.5 76t-53.5 127t-64 154t-65 158.5t-57 138.5t-40 95z" />
    <glyph glyph-name="asciicircum" unicode="^" horiz-adv-x="454" 
d="M291 544q14 9 34.5 10.5t37.5 -14.5q8 -8 20.5 -23.5t25.5 -36t25 -44t20 -46.5q8 -25 5.5 -38t-11 -15.5t-22 5t-27.5 24.5q-18 20 -43.5 44.5t-49.5 44.5q-34 -16 -67.5 -40t-63.5 -53q-12 -12 -23.5 -11.5t-17 10t-2 25.5t20.5 35q12 14 31 32.5t39.5 36.5t39 33
t28.5 21z" />
    <glyph glyph-name="tilde" unicode="&#x2dc;" horiz-adv-x="398" 
d="M54 549q51 31 94.5 41t67.5 -13q12 -11 23 -18.5t23 -10t26 2t32 17.5q17 12 31 12.5t19.5 -7t0.5 -20.5t-26 -28q-48 -34 -80.5 -47.5t-56 -14.5t-39.5 8t-29 20q-23 18 -37 21.5t-39 -11.5q-18 -11 -31.5 -10.5t-17 8.5t4.5 21.5t34 28.5z" />
    <glyph glyph-name="asciitilde" unicode="~" horiz-adv-x="419" 
d="M72 219q51 31 94.5 41t67.5 -13q12 -11 23 -18.5t23 -10t26 2t32 17.5q17 12 31 12.5t19.5 -7t0.5 -20.5t-26 -28q-48 -34 -80.5 -47.5t-56 -14.5t-39.5 8t-29 20q-23 18 -37 21.5t-39 -11.5q-18 -11 -31.5 -10.5t-17 8.5t4.5 21.5t34 28.5z" />
    <glyph glyph-name="underscore" unicode="_" horiz-adv-x="348" 
d="M218 -12q16 -1 20.5 -12t0 -24.5t-17 -24.5t-28.5 -12q-14 -1 -40.5 -1.5t-58 -1t-66 -1t-64 -1t-52 -1t-30.5 -0.5q-14 -1 -17 8.5t2.5 22.5t17 24.5t25.5 15.5q10 3 33.5 4.5t53.5 3t63.5 2t64 0.5t55.5 -0.5t38 -1.5z" />
    <glyph glyph-name="Euro" unicode="&#x20ac;" horiz-adv-x="449" 
d="M222 248q10 -1 13 -8t0 -15.5t-11 -15.5t-19 -8l-69 -3q-15 -64 -0.5 -109t55.5 -50q27 -3 47 10t30 33.5t7.5 44t-21.5 41.5q-9 9 -5 14.5t15.5 8t28 0t32 -10t27.5 -20.5t16 -33q4 -26 -5.5 -50.5t-32 -44t-56 -31.5t-76.5 -12q-39 0 -72 16t-56 43.5t-33.5 65.5
t-5.5 83h-17q-9 0 -11 6t1.5 14.5t11 16t16.5 9.5q1 0 9 2q2 6 4.5 12.5t5.5 13.5h-12q-9 0 -11 6t1 14.5t10.5 16t17.5 9.5l18 3q15 24 33.5 47.5t40.5 43.5q-12 21 -11 42t10 39t21.5 31t24.5 18.5t19 0.5t4 -23q-6 -28 4 -55q39 23 83 36t91 12q38 -1 62.5 -14.5t35 -34
t8 -44.5t-19.5 -45t-48 -35.5t-76 -16.5q-36 -1 -72.5 5.5t-68.5 22.5q-11 -11 -21 -26q17 0 29.5 -0.5t20.5 -1.5q11 -1 14 -8t0 -15.5t-11 -15.5t-19 -8l-66 -3l-3 -6q-2 -5 -4 -9l-4 -8q22 0 41 -0.5t29 -0.5zM388 457q-29 -2 -59.5 -17t-59.5 -38q25 -17 55 -25.5
t57 -3.5q32 5 49 19.5t18 29.5t-14 26t-46 9z" />
    <glyph glyph-name="sterling" unicode="&#xa3;" horiz-adv-x="777" 
d="M601 229q12 -1 15 -9t0 -17.5t-12 -18t-21 -9.5l-70 -3q-11 -15 -23 -30.5t-25 -29.5q32 -15 59.5 -30t48.5 -26q37 -21 50 -52.5t10.5 -58t-15 -39.5t-27.5 5q-23 26 -68.5 62.5t-121.5 73.5q-50 -44 -108 -72t-127 -32q-38 -2 -68.5 8t-51 27t-29.5 39.5t-4.5 46
t23.5 46.5t56 41q34 17 70.5 23t74 3.5t75 -11t73.5 -21.5l20 26h-23q-11 0 -13 7t2 16t12 18t19 12q16 4 46 5l37 54h-19q-58 0 -96 8t-61 19.5t-32.5 25t-10.5 24.5t5 17.5t15 4.5q73 -20 136.5 -23.5t116.5 3.5q27 39 53.5 71t53 53t53 27t54.5 -8t28.5 -41t-21 -57
t-63 -58t-98.5 -46l-45 -72q15 -1 27 -1t20 -1zM166 8q44 0 83 20t75 53q-7 2 -13.5 4.5t-13.5 5.5q-52 19 -91 20t-65.5 -8t-39 -25t-9.5 -31.5t21 -27t53 -11.5zM723 462q-14 5 -32 -15t-41 -58q52 20 72 42.5t1 30.5z" />
    <glyph glyph-name="yen" unicode="&#xa5;" horiz-adv-x="497" 
d="M373 135q12 -1 16 -7t1.5 -13.5t-10.5 -13.5t-21 -7q-10 -1 -19.5 -1.5t-20.5 -0.5q-42 -66 -94.5 -91t-99.5 -2q-22 11 -32.5 29t-13.5 36.5t0.5 35t9.5 26t12.5 9t9.5 -16.5q8 -34 35.5 -42t59.5 7l11 6q-9 0 -17 -0.5t-13 -0.5q-14 -1 -17.5 6.5t1 17t14.5 17t24 7.5
q12 -1 26.5 -0.5t31.5 0.5q19 22 33.5 45.5t20.5 40.5h-1q-12 -17 -31.5 -33.5t-41.5 -28t-44 -14.5t-40 6q-18 8 -30 24t-14 41t7 58.5t34 76.5q-16 -9 -41 -14t-44 0q-19 6 -30 20.5t-15.5 31t-3 32.5t6.5 27t12 14t15 -7q19 -25 55.5 -38.5t84.5 -5.5q21 28 43 50
t42.5 35.5t37 17.5t27.5 -3q16 -11 8 -39t-46 -57q-14 -12 -30.5 -23t-33.5 -22q-14 -24 -22.5 -47t-10.5 -42t2 -33t16 -20q14 -7 29 -2.5t30.5 17.5t31 32t29.5 41q17 29 34.5 58t36 54.5t37 46.5t36.5 35q12 9 20.5 9.5t11.5 -4.5t0.5 -13t-12.5 -17q-21 -19 -42 -58.5
t-42 -88.5t-43 -102.5t-46 -100.5q8 0 15 -0.5t14 -0.5z" />
    <glyph glyph-name="OE" unicode="&#x152;" horiz-adv-x="951" 
d="M584 665q44 -2 76.5 -14.5t52.5 -32.5q36 23 78.5 35.5t90.5 11.5q58 -1 95.5 -22.5t54 -52.5t12 -67.5t-30 -68t-72.5 -54t-115 -24.5q-30 -1 -63.5 9t-57.5 33q-10 -28 -13 -57q32 -5 58.5 -15t44 -23.5t25 -30.5t0.5 -36q-6 -17 -22.5 -27.5t-39 -13.5t-47.5 2t-49 17
q-20 10 -34.5 22t-25.5 26q-38 -14 -65 -43.5t-41.5 -65.5t-16.5 -75t9 -72t34.5 -55.5t61.5 -26.5q41 -4 70 16t42 51t7 66.5t-34 63.5q-14 13 -8 22t23.5 12t42.5 -0.5t48.5 -15t42.5 -31.5t25 -50q7 -39 -8 -77t-49.5 -68t-85.5 -48t-116 -18q-41 0 -78.5 9.5t-69.5 26.5
q-35 -17 -72.5 -26.5t-78.5 -9.5q-74 0 -133 37t-91.5 100t-31.5 147t46 178q33 69 85.5 130.5t119.5 108t144 73t160 24.5zM273 -56q25 -4 49.5 -0.5t47.5 12.5q-36 43 -45 103t21 135q15 37 39 65.5t53 49t62.5 33t67.5 18.5q-8 51 14 106t66 99q-24 19 -74 16
q-47 -4 -97.5 -30t-97.5 -66t-87 -91t-65 -104q-31 -66 -41.5 -126t-4 -107t30 -77t61.5 -36zM873 581q-33 -3 -63 -23t-54 -49q7 -31 37.5 -46t69.5 -10q49 6 74 28.5t26.5 46t-21 40.5t-69.5 13z" />
    <glyph glyph-name="oe" unicode="&#x153;" horiz-adv-x="582" 
d="M517 206q-32 -29 -77.5 -48.5t-91.5 -26.5q5 -22 20.5 -33.5t33.5 -14.5q26 -5 58 3.5t64 26t61.5 42.5t51.5 55q12 15 23.5 20t18.5 1t7 -15t-11 -27q-30 -43 -66 -78t-75 -59.5t-80.5 -38t-81.5 -13.5q-46 0 -77.5 17.5t-46.5 49.5q-33 -32 -72 -50t-81 -18
q-37 0 -63 15t-39.5 40.5t-14 60.5t12.5 74t36.5 73.5t54.5 60t66.5 40.5t73.5 15t64.5 -16t39.5 -43q19 19 40.5 33t44.5 22t47.5 8t48.5 -10q27 -12 41 -31t15 -42t-10.5 -47.5t-35.5 -45.5zM149 104q25 0 47.5 12t39.5 32q5 41 28 86q2 5 4.5 9.5t5.5 9.5q0 23 -12 40.5
t-43 17.5q-42 0 -74 -30t-47 -73q-14 -43 -2 -73.5t53 -30.5zM353 190q33 6 68.5 21.5t61.5 50.5q18 24 9.5 38.5t-30 12t-50 -26.5t-51.5 -76z" />
    <glyph glyph-name="quotesinglbase" unicode="&#x201a;" horiz-adv-x="279" 
d="M48 73q11 21 30.5 37t41.5 25.5t42.5 12.5t34 -2.5t15.5 -20t-13 -38.5q-38 -61 -70 -103t-58 -69q-30 -31 -50 -44t-30 -12t-9 12.5t15 28.5q30 39 37.5 62.5t7 40.5t-2.5 32.5t9 37.5z" />
    <glyph glyph-name="quotedblbase" unicode="&#x201e;" horiz-adv-x="499" 
d="M48 73q11 21 30.5 37t41.5 25.5t42.5 12.5t34 -2.5t15.5 -20t-13 -38.5q-38 -61 -70 -103t-58 -69q-30 -31 -50 -44t-30 -12t-9 12.5t15 28.5q30 39 37.5 62.5t7 40.5t-2.5 32.5t9 37.5zM204 73q11 21 30.5 37t41.5 25.5t42.5 12.5t34 -2.5t15.5 -20t-13 -38.5
q-38 -61 -70 -103t-58 -69q-30 -31 -50 -44t-30 -12t-9 12.5t15 28.5q30 39 37.5 62.5t7 40.5t-2.5 32.5t9 37.5z" />
    <glyph glyph-name="endash" unicode="&#x2013;" horiz-adv-x="474" 
d="M414 247q16 -1 20.5 -12t0 -24.5t-17 -24.5t-28.5 -12q-14 -1 -40 -1.5t-57.5 -1t-65.5 -1t-63.5 -1t-51.5 -1t-30 -0.5q-14 -1 -17 8.5t2.5 22.5t17 24.5t25.5 15.5q10 3 33 4.5t53 3t63 2t63.5 0.5t55 -0.5t37.5 -1.5z" />
    <glyph glyph-name="emdash" unicode="&#x2014;" horiz-adv-x="649" 
d="M572 247q16 -1 20.5 -12t0 -24.5t-17 -24.5t-28.5 -12q-14 -1 -52 -1.5t-87 -1t-103 -1t-101 -1t-81 -1t-42 -0.5q-14 -1 -17 8.5t2.5 22.5t17 24.5t25.5 15.5q10 3 45 4.5t82 3t100.5 2t101.5 0.5t84.5 -0.5t49.5 -1.5z" />
    <glyph glyph-name="macron" unicode="&#xaf;" horiz-adv-x="474" 
d="M394 552q16 -1 20.5 -12t0 -24.5t-17 -24.5t-28.5 -12q-14 -1 -38.5 -1.5t-54 -1t-60.5 -1t-58.5 -1t-48 -1t-28.5 -0.5q-14 -1 -17 8.5t2.5 22.5t17 24.5t25.5 15.5q10 3 31.5 4.5t49 3t58 2t59 0.5t51.5 -0.5t36 -1.5z" />
    <glyph glyph-name="florin" unicode="&#x192;" horiz-adv-x="257" 
d="M246 602q26 26 51 35.5t44 5.5t30.5 -19.5t10.5 -38.5q-1 -21 -20 -56t-48 -75t-63.5 -81t-64.5 -75.5t-52 -58t-26 -27.5q19 -28 40 -38.5t41.5 -8t38 15t29.5 29.5q11 16 22.5 20.5t19 1t8 -15t-11.5 -27.5q-23 -32 -54 -59t-61.5 -37t-56.5 3.5t-38 64.5
q-7 -20 -15 -44.5t-19 -50.5q-32 -72 -61 -118t-58 -72.5t-61 -37t-70 -10.5q-13 0 -19 6.5t-5.5 14.5t7 16t20.5 10q19 3 36 20t30 37.5t22.5 40.5t14.5 31q13 28 32 72t43 96.5t53 111t62.5 115.5t70.5 109.5t78 93.5zM157 327q13 15 33 39t41.5 51t42.5 55t37 51.5
t24 40.5t4 22q-8 9 -28.5 -11t-46.5 -58t-54.5 -88.5t-52.5 -101.5z" />
    <glyph glyph-name="ellipsis" unicode="&#x2026;" horiz-adv-x="786" 
d="M23 75q0 31 22 53t52 22q31 0 53 -22t22 -53q0 -30 -22 -52t-53 -22q-30 0 -52 22t-22 52zM285 75q0 31 22 53t52 22q31 0 53 -22t22 -53q0 -30 -22 -52t-53 -22q-30 0 -52 22t-22 52zM547 75q0 31 22 53t52 22q31 0 53 -22t22 -53q0 -30 -22 -52t-53 -22q-30 0 -52 22
t-22 52z" />
    <glyph glyph-name="dagger" unicode="&#x2020;" horiz-adv-x="262" 
d="M296 460q16 -1 20.5 -12t0 -24.5t-17 -24.5t-28.5 -12l-51 -3q-35 -75 -74.5 -161t-76.5 -163.5t-66 -136.5t-43 -81q-12 -18 -21.5 -24t-15.5 -3t-7 14.5t6 30.5q5 15 18 45.5t31.5 72t40.5 91t45.5 102.5t48 107t47.5 105q-17 -1 -31 -1t-23 -1q-14 -1 -17 8.5
t2.5 22.5t17 24.5t25.5 15.5q26 6 61 8q20 45 36 81.5t26 59.5q14 32 32 43.5t30.5 6.5t14.5 -25t-15 -50q-8 -14 -22.5 -44t-33.5 -71q11 0 21 -0.5t19 -0.5z" />
    <glyph glyph-name="daggerdbl" unicode="&#x2021;" horiz-adv-x="262" 
d="M149 124q16 -1 20.5 -12t0 -24.5t-17 -24.5t-28.5 -12q-29 -3 -61 -3q-35 -73 -62 -129t-41 -77q-12 -18 -21.5 -24t-15.5 -3t-7 14.5t6 30.5q8 21 29.5 71t50.5 116q-15 -1 -28 -1.5t-22 -0.5q-14 -1 -17 8.5t2.5 22.5t17 24.5t25.5 15.5q11 3 25.5 4.5t30.5 3.5
l117 259q-17 -1 -31 -1t-23 -1q-14 -1 -17 8.5t2.5 22.5t17 24.5t25.5 15.5q26 6 61 8q20 45 36 81.5t26 59.5q14 32 32 43.5t30.5 6.5t14.5 -25t-15 -50q-8 -14 -22.5 -44t-33.5 -71q11 0 21 -0.5t19 -0.5q16 -1 20.5 -12t0 -24.5t-17 -24.5t-28.5 -12l-51 -3l-120 -259
h25.5t23.5 -1z" />
    <glyph glyph-name="perthousand" unicode="&#x2030;" horiz-adv-x="597" 
d="M228 98q0 20 9 37.5t24 31t35 21t43 7.5q21 0 42 -8q21 8 43 8q23 0 43 -7.5t35 -21t24 -31t9 -37.5t-9 -37.5t-24 -31t-35 -21t-43 -7.5q-11 0 -21.5 2t-20.5 5q-20 -7 -43 -7t-43 7.5t-35 21t-24 31t-9 37.5zM488 478q21 20 42.5 23.5t33.5 -4t11 -23t-25 -33.5
q-16 -12 -56.5 -45.5t-93 -77t-111 -93t-111.5 -93t-94 -76.5t-59 -45q-15 -10 -26.5 -10.5t-16.5 5t-3 15.5t13 22q14 14 50 46t83.5 73.5t102 88.5t105 90.5t92 79.5t63.5 57zM98 409q0 20 9 37.5t24 31t35.5 21t43.5 7.5t43 -7.5t35 -21t24 -31t9 -37.5t-9 -37.5t-24 -31
t-35 -21t-43 -7.5t-43.5 7.5t-35.5 21t-24 31t-9 37.5zM156 409q0 -20 15.5 -33.5t38.5 -13.5q22 0 38 13.5t16 33.5t-16 33.5t-38 13.5q-23 0 -38.5 -13.5t-15.5 -33.5zM313 98q0 26 13 45q-18 -4 -29.5 -16t-11.5 -29t11.5 -29.5t29.5 -16.5q-13 20 -13 46zM450 98
q0 -23 -13 -46q17 4 28.5 16.5t11.5 29.5t-11.5 29t-28.5 16q13 -21 13 -45zM370 98q0 -16 11 -29q11 13 11 29t-11 29q-11 -13 -11 -29z" />
    <glyph glyph-name="periodcentered" unicode="&#xb7;" horiz-adv-x="352" 
d="M105 204q0 31 22 53t52 22q31 0 53 -22t22 -53q0 -30 -22 -52t-53 -22q-30 0 -52 22t-22 52z" />
    <glyph glyph-name="bullet" unicode="&#x2022;" horiz-adv-x="452" 
d="M89 220q0 23 9 43t24 35t35 24t42 9q23 0 43 -9t35 -24t24 -35t9 -43q0 -22 -9 -42t-24 -35t-35 -24t-43 -9q-22 0 -42 9t-35 24t-24 35t-9 42z" />
    <glyph glyph-name="exclamdown" unicode="&#xa1;" horiz-adv-x="392" 
d="M131 -36q-9 -18 -26.5 -31.5t-37.5 -22t-40 -12t-33.5 -1t-17.5 10.5t7 23t29.5 41.5t41.5 60t47.5 70t47 70.5t41.5 63t31 47q17 27 33.5 37.5t28.5 10t17 -10t-1 -21.5q-4 -8 -14.5 -29.5t-25.5 -50.5t-32.5 -63.5l-35 -69t-33.5 -66.5t-27 -56zM425 483q0 -31 -22 -53
t-52 -22q-31 0 -53 22t-22 53q0 30 22 52t53 22q30 0 52 -22t22 -52z" />
    <glyph glyph-name="questiondown" unicode="&#xbf;" horiz-adv-x="540" 
d="M57 -117q1 -16 -8 -18.5t-20.5 5t-22.5 24t-15 37.5t2 44.5t29 46.5q-8 33 2.5 69t37.5 69t70 60.5t100 44.5q11 3 31.5 9t42 13.5t40 14.5t24.5 13q16 14 34 20t31.5 4.5t19.5 -9t-1 -20.5q-11 -18 -30.5 -32.5t-43.5 -27t-49 -24.5t-47 -25q-33 -20 -57.5 -44
t-39.5 -50q36 8 71 9.5t67 -4.5q42 -8 66.5 -31t31 -51t-5 -57t-41 -50.5t-76.5 -30t-112 3.5q-68 13 -110 44q-22 -30 -21 -57zM569 488q0 -31 -22 -53t-52 -22q-31 0 -53 22t-22 53q0 30 22 52t53 22q30 0 52 -22t22 -52zM305 46q-26 7 -61.5 -1.5t-70.5 -27.5
q7 -15 22 -26.5t40 -17.5q40 -9 67 -2t37 21t2 30t-36 24z" />
    <glyph glyph-name="trademark" unicode="&#x2122;" horiz-adv-x="703" 
d="M696 632q26 8 33.5 1t-10.5 -22q-15 -13 -32 -36t-27 -58q-9 -30 -10 -62.5t5 -60.5t18 -48t30 -25q13 -4 7 -12t-22 -11.5t-35.5 2t-33.5 28.5q-16 26 -19 63t4.5 75.5t25.5 74.5t44 60q-29 -16 -56.5 -45t-47.5 -65.5t-30 -77t-3 -79.5q3 -17 -8 -16t-22 15
q-10 12 -18 34.5t-12 50t-3.5 58t6.5 59.5q-14 -35 -26 -73t-25 -68q-22 -50 -56.5 -71t-66.5 -5q-21 10 -27.5 30.5t-5 38t7.5 25t11 -7.5q6 -21 24.5 -24t34.5 8q14 9 26 27t21 35q14 27 29.5 61t32.5 64t36.5 50.5t40.5 19.5q15 0 18 -8.5t-8 -13.5q-10 -4 -20 -23
t-17 -45.5t-9.5 -57.5t3.5 -59q-1 16 14 44t41.5 57.5t62 55t74.5 37.5zM226 426q8 14 16 31t17 34.5t18.5 34t19.5 29.5q-31 1 -58.5 5.5t-45.5 12.5q-19 8 -27 24t-8.5 30.5t5 21.5t14.5 -3q8 -9 27 -16.5t44 -13t54 -8t56 -1.5q17 11 37.5 19t35.5 9t25 -4t12 -13
t-4 -17.5t-23 -18.5q-22 -11 -49 -17t-56 -8q-11 -12 -21 -32t-20.5 -44.5t-21 -51t-20.5 -49.5q-19 -42 -48.5 -59t-57.5 -4q-18 9 -24 26t-4.5 31t7 20t9.5 -6q5 -17 21 -19.5t30 6.5q11 8 21.5 22.5t18.5 28.5z" />
    <glyph glyph-name="cent" unicode="&#xa2;" horiz-adv-x="383" 
d="M238 419q14 32 32 43.5t30.5 6.5t14.5 -25t-15 -50q-4 -7 -9 -15.5t-10 -19.5q46 -25 55.5 -63t-18.5 -86q-16 -28 -36 -40t-36 -12.5t-24.5 7t-1.5 19.5q23 38 30 68.5t2 50.5l-111 -219q2 0 3.5 -0.5t3.5 -0.5q26 -5 58 3.5t64 26t61.5 42.5t51.5 55q12 15 23.5 20
t18.5 1t7 -15t-11 -27q-30 -43 -66 -78t-75 -59.5t-80 -38t-82 -13.5h-11t-10 1l-31 -53q-12 -18 -21.5 -24t-15.5 -3t-7 14.5t6 30.5q4 10 8.5 22t11.5 26q-26 12 -42 34t-21.5 50.5t0.5 63t25 72.5q15 30 37.5 57.5t50.5 48t59.5 31.5t63.5 8zM108 210q-14 -29 -16 -51
t5 -38q24 49 49.5 101.5t48.5 101.5q-19 -11 -41.5 -38.5t-45.5 -75.5z" />
    <glyph glyph-name="currency" unicode="&#xa4;" horiz-adv-x="486" 
d="M112 191q0 45 28 78q-9 17 -16.5 35t-13.5 33q-5 13 4 23t23.5 14.5t29.5 2t23 -14.5l26 -49q5 1 10 1.5t10 0.5q20 0 38 -6t33 -17q20 18 40.5 36t38.5 34q14 12 31 14.5t29 -2t14.5 -14.5t-10.5 -23q-20 -22 -47.5 -48t-53.5 -48q11 -24 11 -50q0 -22 -7.5 -41.5
t-20.5 -36.5q11 -20 19.5 -36.5t14.5 -26.5q6 -11 -2.5 -19t-22.5 -12t-30 -2t-25 11q-8 8 -15.5 18t-14.5 22q-5 -1 -10 -1h-10q-39 0 -68 20q-20 -18 -40 -33.5t-36 -25.5q-14 -9 -31 -11t-29 2t-16 12t8 19q16 13 43.5 37.5t56.5 50.5q-12 24 -12 53zM176 191
q0 -25 17.5 -42.5t42.5 -17.5t42.5 17.5t17.5 42.5t-17.5 42.5t-42.5 17.5t-42.5 -17.5t-17.5 -42.5z" />
    <glyph glyph-name="brokenbar" unicode="&#xa6;" horiz-adv-x="548" 
d="M178 142q14 32 32 43.5t30.5 6.5t14.5 -25t-15 -50q-17 -31 -34 -66t-35 -71t-36.5 -71.5t-38.5 -66.5q-12 -18 -21.5 -24t-15.5 -3t-7 14.5t6 30.5q12 33 24.5 63t27 62t31 70t37.5 87zM391 591q14 32 32 43.5t30.5 6.5t14.5 -25t-15 -50q-17 -31 -34 -66t-35 -71
t-36.5 -71.5t-38.5 -66.5q-12 -18 -21.5 -24t-15.5 -3t-7 14.5t6 30.5q12 33 24.5 63t27 62t31 70t37.5 87z" />
    <glyph glyph-name="mu" unicode="&#xb5;" horiz-adv-x="443" 
d="M192 335q-53 -74 -80 -121t-36 -73.5t-3.5 -36.5t17.5 -10q19 0 34.5 11t29.5 29t27.5 41.5t28.5 48.5q12 26 22 47.5t21 42.5q9 19 16.5 30t16 17t19.5 8.5t27 5.5q16 2 30 3t22 -2.5t9 -13t-9 -27.5q-10 -19 -22.5 -40.5t-24.5 -43t-23.5 -41.5t-20.5 -35
q-9 -16 -17 -31.5t-12.5 -28t-2 -20.5t14.5 -8q19 0 41.5 10t45.5 27t44 39t36 47q10 16 20.5 21.5t17.5 1.5t8 -15.5t-9 -28.5q-17 -31 -49 -64.5t-68.5 -61t-71.5 -45.5t-59 -18q-35 0 -59.5 16.5t-22.5 52.5q-30 -35 -62 -52t-63 -17q-40 0 -57 28q-11 -32 -10.5 -59
t3.5 -49.5t5 -39.5t-5 -28q-12 -18 -34 -23t-42.5 0t-33.5 18t-6 32q4 10 17.5 40.5t32 72t41.5 89t45.5 92.5t43.5 82.5t36 58.5q12 17 21.5 28t19 17.5t21 9.5t28.5 6q16 2 29 2.5t19.5 -3.5t5.5 -13t-13 -26z" />
    <glyph glyph-name="Scaron" unicode="&#x160;" horiz-adv-x="672" 
d="M231 184q-31 -6 -50.5 -28t-26.5 -50t-2 -59t22 -55.5t45.5 -38.5t68.5 -8q44 6 79 31t49 58q10 24 11.5 50.5t-6 53t-24.5 52t-45 46.5q-26 19 -45 43.5t-30 52t-13.5 57t5.5 58.5q-32 24 -53 59q-21 32 -20 65t13.5 61t32.5 49t38 29t29.5 1t6.5 -35q-5 -32 0.5 -60.5
t19.5 -52.5q48 47 113 76t137 27q55 -1 90.5 -22.5t51 -52.5t11 -67.5t-29 -68t-69.5 -54t-110 -24.5q-70 -3 -141 14q11 -15 27 -31t36 -30q42 -33 65.5 -69.5t33 -74.5t5.5 -76t-17 -73q-13 -33 -38 -63.5t-58 -53.5t-73 -37t-82 -15q-71 -2 -130.5 26t-96 72t-45 99
t22.5 107q23 39 51.5 56t56.5 20t52 -5.5t38 -20t14 -23t-20 -15.5zM679 697q-14 -9 -34.5 -10.5t-37.5 14.5q-8 8 -21.5 21t-27.5 30t-27 37.5t-20 43.5q-8 25 8 46.5t38 33.5t40 9.5t15 -25.5q-8 -51 0.5 -89t32.5 -58q16 12 36 29.5t40 38t38.5 41.5t32.5 41
q16 22 28 14.5t16.5 -29t0 -49.5t-21.5 -47q-12 -14 -31 -28t-39 -26t-38 -22t-28 -16zM406 491q37 -23 79.5 -33.5t81.5 -4.5q42 7 63.5 29t23 45.5t-16.5 42t-54 18.5q-21 0 -45 -6t-46.5 -17t-42 -25.5t-32.5 -32.5z" />
    <glyph glyph-name="scaron" unicode="&#x161;" horiz-adv-x="372" 
d="M211 377q23 0 36.5 -1.5t20 -5t8.5 -9t2 -12.5q0 -15 -7 -19t-15 -7t-14 -11t-4 -31q5 -50 0 -95.5t-21 -83.5q21 4 43 14t43 24t39 32t30 38q10 16 20.5 21.5t17.5 1.5t8 -15.5t-9 -28.5q-21 -38 -51 -65.5t-63.5 -47t-67.5 -30.5t-63 -15q-42 -31 -103 -31
q-37 0 -62.5 17.5t-35.5 46.5t-2 67t39 79q33 44 54.5 73.5t36.5 48t26.5 28t24 13.5t28.5 4h41zM286 448q-14 -9 -34.5 -10.5t-37.5 14.5q-8 8 -21.5 21t-27.5 30t-27 37.5t-20 43.5q-8 25 8 46.5t38 33.5t40 9.5t15 -25.5q-8 -51 0.5 -89t32.5 -58q16 12 36 29.5t40 38
t38.5 41.5t32.5 41q16 22 28 14.5t16.5 -29t0 -49.5t-21.5 -47q-12 -14 -31 -28t-39 -26t-38 -22t-28 -16zM96 97q19 19 25.5 47.5t7.5 58.5t0.5 57t5.5 44q-13 -15 -27 -32q-12 -14 -26 -32.5t-27 -35.5q-29 -39 -31 -66t9 -40.5t30 -14t33 13.5z" />
    <glyph glyph-name="Ydieresis" unicode="&#x178;" horiz-adv-x="654" 
d="M722 657q18 14 30.5 14.5t17.5 -6.5t1 -20t-19 -26q-34 -30 -66.5 -92.5t-65.5 -140t-68 -161t-72 -155.5q-32 -62 -71.5 -106.5t-82 -69t-85 -28t-81.5 16.5q-34 17 -50 44t-20.5 55t1 53.5t14.5 39.5t19 13t15 -25q5 -26 19 -42t33.5 -22t43 -3.5t47.5 14.5
q25 12 52 38t51.5 57t43.5 62t27 53h-1q-20 -26 -49.5 -50.5t-62.5 -41.5t-66.5 -22.5t-60.5 8.5q-26 13 -44 37.5t-21.5 62t10 87.5t51.5 115q-12 -6 -28.5 -12t-34 -9t-34.5 -3.5t-31 4.5q-29 10 -45.5 31t-23 46t-4.5 49.5t9 41t18 21t23 -10.5q29 -38 84 -57.5t128 -8.5
q32 42 65.5 75t64 53t56 26.5t41.5 -4.5q24 -17 11.5 -58.5t-69.5 -86.5q-44 -35 -96 -67q-21 -36 -34 -71t-16.5 -64t2.5 -50.5t24 -29.5q22 -11 45.5 -3.5t47.5 27.5t47.5 49.5t45.5 63.5q25 44 51 87t53 81t55 69.5t55 51.5zM628 757q0 28 20 48t48 20t48 -20t20 -48
t-20 -48t-48 -20t-48 20t-20 48zM455 757q0 28 20 48t48 20t48 -20t20 -48t-20 -48t-48 -20t-48 20t-20 48z" />
    <glyph glyph-name="section" unicode="&#xa7;" horiz-adv-x="494" 
d="M375 189q15 -15 21.5 -25.5t4 -20.5t-14.5 -22t-35 -29q-20 -16 -40 -29t-35 -21q4 -44 -14 -83t-64 -68q-18 -12 -43 -14.5t-50.5 3.5t-48 19.5t-37 34.5t-17 48.5t12.5 61.5q11 25 26 37t31 15t30 -1.5t22.5 -11.5t10 -15.5t-7.5 -13.5q-38 -22 -51.5 -44t-11.5 -39.5
t16.5 -28t32 -10t35.5 14t27 45.5q8 26 1.5 55t-20 56t-30.5 49t-30 35q-15 15 -21.5 26t-4 21t14.5 21.5t35 29.5q20 15 39.5 28t35.5 20q-4 45 14 84t64 68q18 12 43 14.5t50.5 -3t48 -19.5t37 -34.5t17 -48.5t-12.5 -62q-11 -25 -26 -37t-31 -15t-30 1.5t-22.5 12
t-10.5 15.5t8 14q38 22 51.5 44t11.5 39.5t-16.5 28t-32 10t-35.5 -14.5t-27 -46q-8 -26 -1.5 -55t20 -56t30.5 -49t30 -35zM194 223q25 -32 43 -65.5t29 -66.5q15 12 21.5 20t6.5 14.5t-5 12.5t-12 15q-25 32 -43.5 65.5t-28.5 66.5q-15 -12 -21.5 -20t-6.5 -14t5 -12.5
t12 -15.5z" />
    <glyph glyph-name="copyright" unicode="&#xa9;" horiz-adv-x="798" 
d="M637 189q-30 -43 -66 -78t-75 -59.5t-80 -38t-82 -13.5q-46 0 -78 18.5t-46.5 50t-11 74.5t27.5 91q17 34 44.5 65t61 52t70.5 27.5t73 -8.5q30 -12 43.5 -33.5t13 -45t-14 -45.5t-38.5 -34q-30 -15 -49.5 -8t-25 24t5.5 39.5t42 38.5q9 14 -2.5 18t-32.5 -6t-47 -36
t-46 -72q-14 -31 -15 -53.5t6.5 -38t20.5 -24t28 -11.5q26 -5 58 3.5t64 26t61.5 42.5t51.5 55q12 15 23.5 20t18.5 1t7 -15t-11 -27zM79 189q0 66 25 124t68.5 101.5t101.5 68.5t123 25q66 0 124 -25t101.5 -68.5t68.5 -101.5t25 -124q0 -65 -25 -123t-68.5 -101.5
t-101.5 -68.5t-124 -25q-65 0 -123 25t-101.5 68.5t-68.5 101.5t-25 123zM128 189q0 -55 21.5 -104t58 -85.5t85.5 -58t104 -21.5q56 0 105.5 21.5t86 58t58 85.5t21.5 104q0 56 -21.5 105.5t-58 86t-86 58t-105.5 21.5q-55 0 -104 -21.5t-85.5 -58t-58 -86t-21.5 -105.5z
" />
    <glyph glyph-name="registered" unicode="&#xae;" horiz-adv-x="798" 
d="M79 189q0 66 25 124t68.5 101.5t101.5 68.5t123 25q66 0 124 -25t101.5 -68.5t68.5 -101.5t25 -124q0 -65 -25 -123t-68.5 -101.5t-101.5 -68.5t-124 -25q-65 0 -123 25t-101.5 68.5t-68.5 101.5t-25 123zM128 189q0 -55 21.5 -104t58 -85.5t85.5 -58t104 -21.5
q56 0 105.5 21.5t86 58t58 85.5t21.5 104q0 56 -21.5 105.5t-58 86t-86 58t-105.5 21.5q-55 0 -104 -21.5t-85.5 -58t-58 -86t-21.5 -105.5zM369 326q21 -6 36.5 -4.5t27.5 8.5t21 17.5t17 22.5q9 12 21.5 10t22 -12.5t13 -26.5t-5.5 -32q-1 -1 -1 -2q-6 -10 -18.5 -33
t-26.5 -48t-26 -48t-17 -33l-16 -32t-12.5 -28.5t-2.5 -20t15 -7.5q19 0 41.5 10t45.5 27t43.5 39t35.5 47q10 16 20.5 21.5t17.5 1.5t8 -15.5t-8 -28.5q-17 -31 -47 -64.5t-65 -61t-71 -45.5t-65 -18q-48 0 -55 42t32 113q17 29 34 55.5t33 49.5q-26 -17 -54.5 -23t-52.5 0
q-14 -27 -32 -48q-14 -16 -26.5 -21.5t-19 -1.5t-5.5 15.5t13 28.5q8 11 15.5 23.5t14.5 25.5q-16 16 -19 38t3.5 45.5t20 45.5t30.5 38t35.5 22.5t34.5 -0.5q12 -5 14 -15t-0.5 -22.5t-8.5 -26.5t-11 -28z" />
    <glyph glyph-name="ordfeminine" unicode="&#xaa;" horiz-adv-x="490" 
d="M556 554q-10 -19 -22.5 -40.5l-25 -43t-24 -41.5t-20.5 -35q-9 -16 -17 -31.5t-12 -28t-2 -20.5t15 -8q18 0 41 10t46 27t43.5 39t35.5 47q10 16 20.5 21.5t17.5 1.5t8 -15.5t-8 -28.5q-17 -31 -49.5 -64.5t-68.5 -61t-71.5 -45.5t-58.5 -18q-33 0 -56 14t-26 44
q-22 -23 -52 -40.5t-68 -17.5q-39 0 -65 21.5t-35 56.5t1 79t43 89q31 42 70 69.5t78 38.5t75 4.5t62 -32.5q8 14 14.5 22.5t14.5 13.5t18.5 7.5t25.5 5.5q16 2 30 3t22 -2.5t9 -13t-9 -27.5zM239 315q42 0 83 44t76 119q-10 14 -25 19q-17 6 -39 2.5t-44.5 -15.5
t-43.5 -31.5t-36 -44.5q-10 -17 -13.5 -34t-0.5 -30t14 -21t29 -8z" />
    <glyph glyph-name="logicalnot" unicode="&#xac;" horiz-adv-x="474" 
d="M414 247q17 -2 20.5 -13.5t-1.5 -25.5q-6 -18 -14.5 -39t-18 -41t-19.5 -38.5t-20 -30.5q-9 -12 -24.5 -18t-29 -6t-21 6t-1.5 19q8 17 21.5 48.5t28.5 63.5q-32 -1 -72 -1.5t-77.5 -1t-66 -1t-38.5 -0.5q-14 -1 -17 8.5t2.5 22.5t17 24.5t25.5 15.5q10 3 33 4.5t53 3
t63 2t63.5 0.5t55 -0.5t37.5 -1.5z" />
    <glyph glyph-name="degree" unicode="&#xb0;" horiz-adv-x="338" 
d="M145 394q0 25 10 48t26.5 39.5t39 26.5t48.5 10q25 0 48 -10t39.5 -26.5t26.5 -39.5t10 -48q0 -26 -10 -48.5t-26.5 -39t-39.5 -26.5t-48 -10q-26 0 -48.5 10t-39 26.5t-26.5 39t-10 48.5zM209 394q0 -25 17.5 -42.5t42.5 -17.5t42.5 17.5t17.5 42.5t-17.5 42.5
t-42.5 17.5t-42.5 -17.5t-17.5 -42.5z" />
    <glyph glyph-name="plusminus" unicode="&#xb1;" horiz-adv-x="439" 
d="M378 237q16 -1 20.5 -9t0 -17.5t-17 -17.5t-28.5 -9q-16 -2 -42.5 -2.5t-57.5 -1.5q-15 -33 -29 -59.5t-22 -37.5q-9 -12 -21.5 -17.5t-22 -5.5t-14 6t1.5 19l42 95q-37 -1 -66.5 -1t-40.5 -1q-14 -1 -17 5.5t2.5 15.5t17 17.5t25.5 12.5q13 3 41.5 5t63.5 3
q13 30 24.5 55.5t19.5 40.5t20 21.5t22 5.5t15.5 -9.5t-0.5 -23.5q-5 -14 -14.5 -37.5t-21.5 -51.5h57.5t41.5 -1zM286 21q16 -1 20.5 -9t0 -17.5t-17 -17.5t-28.5 -9q-14 -1 -37.5 -1.5t-51 -1t-56.5 -1t-54.5 -1t-45 -1t-27.5 -0.5q-14 -1 -17 5.5t2.5 15.5t17 17.5
t25.5 12.5q15 4 52 6t79 3t80.5 0.5t57.5 -1.5z" />
    <glyph glyph-name="multiply" unicode="&#xd7;" horiz-adv-x="439" 
d="M191 318q5 -12 16.5 -34t24.5 -48q32 26 58.5 49t40.5 37q14 13 23 12.5t11.5 -9.5t-2 -23t-17.5 -29t-37 -37t-53 -48q14 -29 23.5 -53.5t10.5 -37.5q0 -14 -6 -27.5t-14 -22t-16 -9t-11 11.5q-3 10 -15 35t-28 55q-32 -28 -58 -50.5t-34 -31.5q-11 -12 -17.5 -11t-8 10
t2 23.5t12.5 28.5q8 12 29.5 33t49.5 46q-12 26 -21.5 48t-13.5 36q-4 15 1.5 28.5t14.5 22t18.5 8.5t15.5 -13z" />
    <glyph glyph-name="twosuperior" unicode="&#xb2;" horiz-adv-x="441" 
d="M288 478q-7 -16 -16 -13.5t-15.5 16.5t-7.5 36.5t8 47t30 47.5t59 39q37 15 71 6t57 -35t31.5 -65t-5.5 -85.5t-55 -96t-117 -95.5q18 -5 39 -1.5t39 12.5t31.5 24t16.5 34q3 18 13.5 15.5t20 -18t13.5 -40.5t-5 -51q-9 -24 -27 -39.5t-41.5 -22.5t-49.5 -5.5t-50 11.5
q-20 8 -33.5 21t-25.5 27q-51 -24 -88 -30.5t-61 -0.5t-36 21.5t-13.5 34t6 37t22.5 31.5q20 17 44 22t48 1.5t45.5 -14.5t38.5 -27q16 11 34 23.5t38 29.5q48 39 66 70t15.5 53t-19.5 33t-39.5 9.5t-45.5 -16.5t-36 -46zM178 299q-26 -3 -35 -10.5t-3 -12t26 -2t54 17.5
q-20 10 -42 7z" />
    <glyph glyph-name="threesuperior" unicode="&#xb3;" horiz-adv-x="395" 
d="M262 536q-13 -9 -20 -3.5t-6 19.5t10 33t27 35t45.5 26.5t65.5 8.5q42 -3 61.5 -25t19.5 -52t-17.5 -63t-49.5 -60q16 -21 17 -50.5t-11 -60t-34.5 -59t-54 -47t-69.5 -23.5t-81 10t-60.5 40t-18 51t11 50t25.5 39t25 16.5t10 -17.5q-2 -29 9.5 -54t31 -40t45.5 -16.5
t53 16.5q21 13 35 29t20 31.5t4.5 29t-12.5 22.5q-13 -5 -26 -8.5t-27 -5.5q-42 -6 -58.5 6t-12 29t29 32t64.5 15q27 0 48 -8q8 9 14 18.5t8 18.5q2 16 -8 26.5t-27.5 13.5t-40.5 -2t-46 -21z" />
    <glyph glyph-name="onesuperior" unicode="&#xb9;" horiz-adv-x="312" 
d="M280 625q21 15 50.5 22.5t54.5 7t37.5 -10.5t-2.5 -29q-10 -13 -26.5 -40t-36.5 -61.5t-41.5 -73t-41.5 -73.5t-37 -64.5t-26 -44.5q-15 -23 -35 -34.5t-36.5 -13.5t-26 3.5t-4.5 16.5q3 7 15 30t28.5 54t35.5 68t37 72t33 64.5t24 47.5q-34 -14 -46.5 -12.5t-10 11.5
t17.5 26.5t37 33.5z" />
    <glyph glyph-name="ordmasculine" unicode="&#xba;" horiz-adv-x="425" 
d="M357 651q37 0 60.5 -17t34 -46.5t8 -69t-17.5 -84.5t-39.5 -86t-55 -71.5t-66.5 -49t-73 -18.5q-32 0 -54.5 18.5t-34 49t-10.5 71.5t16 86t41 84.5t58 69t66.5 46.5t66.5 17zM392 448q9 26 11 51.5t-2.5 45.5t-15.5 32.5t-30 12.5q-21 0 -43 -12.5t-41.5 -32.5
t-35 -45.5t-23.5 -51.5q-17 -52 -2.5 -86.5t51.5 -34.5q46 0 80.5 34.5t50.5 86.5z" />
    <glyph glyph-name="onequarter" unicode="&#xbc;" horiz-adv-x="923" 
d="M571 420q-18 1 -18.5 10t10 20t29 20t40 10.5t42 -8.5t35.5 -38q13 -25 11 -51t-13 -50.5t-30 -48t-40 -44.5q-50 -48 -123 -93l161 32q19 36 39.5 74.5t39 74t34 66t25.5 50.5q9 18 26.5 31.5t37.5 22t40 12t33.5 1t17.5 -11t-7 -22.5q-11 -15 -30.5 -46.5t-43.5 -72.5
t-50 -86t-50.5 -87t-44.5 -76t-31 -52q-17 -27 -39.5 -40t-42 -15.5t-30.5 4t-5 18.5q3 8 16 32t31 58q-28 -6 -59 -12.5t-60.5 -13t-53 -12t-36.5 -9.5q-21 -6 -34 -0.5t-12 20t18 36.5t55 48q25 18 49.5 43t44.5 52.5t34 54.5t18 48.5t-3.5 35.5t-30.5 15zM221 616
q24 18 58.5 27t63 8t43 -12.5t-2.5 -33.5q-11 -14 -30 -45.5t-42.5 -71.5t-48.5 -84.5t-48.5 -85.5t-43 -74.5t-30.5 -51.5q-17 -27 -40 -40t-42.5 -15.5t-30.5 4t-5 18.5q4 8 17.5 34.5t32.5 63t41.5 79t43.5 83t38.5 75t27.5 54.5q-39 -15 -54 -14t-12 13t20.5 30.5
t43.5 38.5zM614 627q24 25 44.5 30t30.5 -4t5.5 -28.5t-31.5 -42.5q-14 -12 -43 -40t-68 -66.5t-85 -84t-94 -93t-94.5 -93.5t-86 -84t-69.5 -66t-45 -39q-17 -12 -28.5 -15t-16 2t-1.5 16.5t16 26.5q15 18 56 61t96 98.5t117 119t120 122t105 106.5t72 74z" />
    <glyph glyph-name="onehalf" unicode="&#xbd;" horiz-adv-x="901" 
d="M571 307q-8 -18 -18.5 -15.5t-17.5 18.5t-8.5 42t8.5 54.5t34.5 55.5t69.5 45q43 17 82.5 7t66.5 -40t36.5 -75.5t-7 -99t-64.5 -111t-136 -111.5q21 -6 45.5 -2.5t45.5 14.5t36.5 28t19.5 40q3 21 15.5 18t23.5 -21t16 -47t-6 -59q-10 -28 -31.5 -46t-48.5 -26t-57 -6.5
t-58 13.5q-23 10 -39.5 25t-30.5 31q-60 -28 -102.5 -35.5t-70 -0.5t-41.5 24.5t-16 39t6.5 43t26.5 36.5q24 20 52 26t55.5 2t53 -17t44.5 -31q19 12 40 27t44 34q55 45 76 81.5t18.5 61.5t-22.5 38.5t-46 11.5t-53 -19.5t-42 -53.5zM221 616q24 18 58.5 27t63 8t43 -12.5
t-2.5 -33.5q-11 -14 -30 -45.5t-42.5 -71.5t-48.5 -84.5t-48.5 -85.5t-43 -74.5t-30.5 -51.5q-17 -27 -40 -40t-42.5 -15.5t-30.5 4t-5 18.5q4 8 17.5 34.5t32.5 63t41.5 79t43.5 83t38.5 75t27.5 54.5q-39 -15 -54 -14t-12 13t20.5 30.5t43.5 38.5zM614 627q24 25 44.5 30
t30.5 -4t5.5 -28.5t-31.5 -42.5q-14 -12 -43 -40t-68 -66.5t-85 -84t-94 -93t-94.5 -93.5t-86 -84t-69.5 -66t-45 -39q-17 -12 -28.5 -15t-16 2t-1.5 16.5t16 26.5q15 18 56 61t96 98.5t117 119t120 122t105 106.5t72 74zM443 99q-30 -4 -41 -12t-4 -13t30.5 -3t63.5 20
q-22 11 -49 8z" />
    <glyph glyph-name="threequarters" unicode="&#xbe;" horiz-adv-x="1114" 
d="M741 420q-18 1 -18.5 10t10 20t29 20t40 10.5t42 -8.5t35.5 -38q13 -25 11 -51t-13 -50.5t-30 -48t-40 -44.5q-50 -48 -123 -93l161 32q19 36 39.5 74.5t39 74t34 66t25.5 50.5q9 18 26.5 31.5t37.5 22t40 12t33.5 1t17.5 -11t-7 -22.5q-11 -15 -30.5 -46.5t-43.5 -72.5
t-50 -86t-50.5 -87t-44.5 -76t-31 -52q-17 -27 -39.5 -40t-42 -15.5t-30.5 4t-5 18.5q3 8 16 32t31 58q-28 -6 -59 -12.5t-60.5 -13t-53 -12t-36.5 -9.5q-21 -6 -34 -0.5t-12 20t18 36.5t55 48q25 18 49.5 43t44.5 52.5t34 54.5t18 48.5t-3.5 35.5t-30.5 15zM254 570
q-16 -11 -24 -4t-6.5 23.5t11.5 38t31.5 40.5t53.5 31.5t76 9.5q49 -3 72.5 -28.5t23.5 -61t-20.5 -74.5t-58.5 -70q19 -25 20 -59.5t-13 -70.5t-41 -69t-63.5 -54.5t-81 -27.5t-94.5 12q-51 18 -71 47t-20.5 59.5t12.5 59t29.5 45.5t29.5 18.5t12 -20.5q-2 -34 11 -63.5
t36 -46.5t53.5 -19t62.5 19q24 15 40 33.5t23.5 37t5.5 34.5t-15 27q-30 -13 -61 -17q-33 -5 -52.5 0t-27 16t-4 24.5t17.5 26t37.5 21t54.5 8.5q17 0 31 -2.5t26 -7.5q10 11 16.5 22t8.5 22q3 18 -9 30.5t-32.5 16t-47 -2.5t-53.5 -24zM784 627q24 25 44.5 30t30.5 -4
t5.5 -28.5t-31.5 -42.5q-14 -12 -43 -40t-68 -66.5t-85 -84t-94 -93t-94.5 -93.5t-86 -84t-69.5 -66t-45 -39q-17 -12 -28.5 -15t-16 2t-1.5 16.5t16 26.5q15 18 56 61t96 98.5t117 119t120 122t105 106.5t72 74z" />
    <glyph glyph-name="paragraph" unicode="&#xb6;" horiz-adv-x="548" 
d="M656 583q19 0 21 -14t-7 -30.5t-26.5 -30t-36.5 -13.5q-24 0 -51 3q-2 -2 -2 -3q-12 -21 -36 -71.5t-55 -116t-65 -138.5t-65.5 -138.5t-57.5 -116.5t-39 -72q-12 -18 -21.5 -24t-15.5 -3t-7 14.5t6 30.5q8 21 28 68t47 107t58 128.5t60.5 133.5t55 120.5t40.5 91.5
l-61 13q-5 -12 -12 -27q-11 -21 -35.5 -71.5t-55.5 -116t-65 -138.5t-65.5 -138.5t-57.5 -116.5t-39 -72q-12 -18 -21.5 -24t-15.5 -3t-7 14.5t6 30.5q8 22 30 72.5t51 115t62 137t63 139.5q-33 5 -49.5 26.5t-17 50.5t13.5 61t41 59t66 44.5t88 17.5h250v0z" />
    <glyph glyph-name="Eth" unicode="&#xd0;" horiz-adv-x="921" 
d="M577 302q16 -1 20.5 -12t0 -24.5t-17 -24.5t-28.5 -12q-15 -2 -40.5 -2.5t-54.5 -0.5q-21 -32 -40 -62t-35 -53.5t-27.5 -39.5t-15.5 -21q-18 -21 -40 -33t-53 -12t-29 22t29 71l69 126q-16 0 -28 -0.5t-17 -0.5q-14 -1 -17 8.5t2.5 22.5t17 24.5t25.5 15.5q16 4 59 6
l20 36q-20 -5 -43 -5t-45 7t-40.5 23t-30.5 43q-18 42 -0.5 92t65 92t123.5 68.5t176 20.5q111 -6 179 -49t96.5 -108.5t20.5 -146.5t-48 -164q-34 -72 -88 -134.5t-124 -108.5t-154.5 -72.5t-179.5 -25.5q-61 0 -113.5 20.5t-90 54t-57.5 76.5t-17 88q4 52 28.5 87t56.5 56
t65.5 29.5t55.5 6t25.5 -14.5t-23.5 -31q-30 -21 -47.5 -51.5t-22 -63t3.5 -64.5t28 -57t52.5 -40t77.5 -14q58 1 113 24.5t104.5 62t90.5 89.5t70 108q40 78 55.5 146t2.5 119t-56.5 82t-121.5 34q-54 3 -94 -10t-65.5 -34.5t-37.5 -48t-11 -51t15 -44.5t40 -27
q20 36 34.5 65t22.5 44q10 21 19 31t18.5 13t20.5 2.5t25 -0.5t31.5 -0.5t29 -9t11 -28t-21.5 -57.5q-15 -27 -40.5 -68.5t-54.5 -88.5h41t30 -1z" />
    <glyph glyph-name="Agrave" unicode="&#xc0;" horiz-adv-x="941" 
d="M709 -89q-32 54 -42.5 124.5t-2.5 148.5q-29 24 -58.5 41.5t-57.5 28.5q-44 -64 -89 -127t-92.5 -116t-97 -91t-101.5 -52q-38 -10 -67 -5t-49.5 19.5t-32 33t-13.5 35t5 26.5t23 6q48 -11 97.5 10.5t100.5 63.5t103.5 100.5t105.5 121.5q-45 3 -83.5 -7.5t-67 -28.5
t-46.5 -41t-22 -45q-5 -22 -16.5 -25t-24.5 7.5t-24.5 31.5t-16.5 46.5t0 53t25 51.5q24 29 61.5 45t82.5 20t96 -3.5t102 -26.5q56 66 112.5 127t113 104t112.5 62.5t112 3.5q25 -8 24.5 -30.5t-34.5 -39.5q-21 -10 -41.5 -31t-38.5 -50.5t-33.5 -65.5t-27.5 -77
q-14 -47 -19.5 -98t-3.5 -100t11.5 -93.5t25.5 -80.5t38.5 -60.5t50.5 -32.5q21 -6 20.5 -17.5t-15.5 -22t-40.5 -16.5t-54.5 -2.5t-58.5 20.5t-51.5 54zM1060 726q14 -5 15 -15.5t-6.5 -20.5t-21 -15t-26.5 2q-9 4 -36.5 10t-59 14t-60 17t-40.5 19q-17 14 -23.5 39
t-4 46.5t12.5 31t26 -7.5q15 -17 47 -36t67 -36t65.5 -30t44.5 -18zM676 257q11 53 30.5 104t46 96.5t59.5 82.5t72 63q-37 -8 -73.5 -33.5t-73 -64t-72.5 -87t-73 -101.5q22 -13 43 -28t41 -32z" />
    <glyph glyph-name="Aacute" unicode="&#xc1;" horiz-adv-x="941" 
d="M709 -89q-32 54 -42.5 124.5t-2.5 148.5q-29 24 -58.5 41.5t-57.5 28.5q-44 -64 -89 -127t-92.5 -116t-97 -91t-101.5 -52q-38 -10 -67 -5t-49.5 19.5t-32 33t-13.5 35t5 26.5t23 6q48 -11 97.5 10.5t100.5 63.5t103.5 100.5t105.5 121.5q-45 3 -83.5 -7.5t-67 -28.5
t-46.5 -41t-22 -45q-5 -22 -16.5 -25t-24.5 7.5t-24.5 31.5t-16.5 46.5t0 53t25 51.5q24 29 61.5 45t82.5 20t96 -3.5t102 -26.5q56 66 112.5 127t113 104t112.5 62.5t112 3.5q25 -8 24.5 -30.5t-34.5 -39.5q-21 -10 -41.5 -31t-38.5 -50.5t-33.5 -65.5t-27.5 -77
q-14 -47 -19.5 -98t-3.5 -100t11.5 -93.5t25.5 -80.5t38.5 -60.5t50.5 -32.5q21 -6 20.5 -17.5t-15.5 -22t-40.5 -16.5t-54.5 -2.5t-58.5 20.5t-51.5 54zM853 738q15 5 50 18t75 30t77.5 36t58.5 36q22 17 29 7.5t2.5 -31t-18.5 -46.5t-35 -39q-15 -10 -46.5 -19t-65 -17
t-63 -14t-40.5 -10q-15 -7 -26.5 -2t-16 15t-0.5 20.5t19 15.5zM676 257q11 53 30.5 104t46 96.5t59.5 82.5t72 63q-37 -8 -73.5 -33.5t-73 -64t-72.5 -87t-73 -101.5q22 -13 43 -28t41 -32z" />
    <glyph glyph-name="Acircumflex" unicode="&#xc2;" horiz-adv-x="941" 
d="M709 -89q-32 54 -42.5 124.5t-2.5 148.5q-29 24 -58.5 41.5t-57.5 28.5q-44 -64 -89 -127t-92.5 -116t-97 -91t-101.5 -52q-38 -10 -67 -5t-49.5 19.5t-32 33t-13.5 35t5 26.5t23 6q48 -11 97.5 10.5t100.5 63.5t103.5 100.5t105.5 121.5q-45 3 -83.5 -7.5t-67 -28.5
t-46.5 -41t-22 -45q-5 -22 -16.5 -25t-24.5 7.5t-24.5 31.5t-16.5 46.5t0 53t25 51.5q24 29 61.5 45t82.5 20t96 -3.5t102 -26.5q56 66 112.5 127t113 104t112.5 62.5t112 3.5q25 -8 24.5 -30.5t-34.5 -39.5q-21 -10 -41.5 -31t-38.5 -50.5t-33.5 -65.5t-27.5 -77
q-14 -47 -19.5 -98t-3.5 -100t11.5 -93.5t25.5 -80.5t38.5 -60.5t50.5 -32.5q21 -6 20.5 -17.5t-15.5 -22t-40.5 -16.5t-54.5 -2.5t-58.5 20.5t-51.5 54zM923 856q14 9 34.5 10.5t37.5 -14.5q8 -8 20.5 -23.5t25.5 -36t25 -44t20 -46.5q8 -25 5.5 -38t-11 -15.5t-22 5
t-27.5 24.5q-18 20 -43.5 44.5t-49.5 44.5q-34 -16 -67.5 -40t-63.5 -53q-12 -12 -23.5 -11.5t-17 10t-2 25.5t20.5 35q12 14 31 32.5t39.5 36.5t39 33t28.5 21zM676 257q11 53 30.5 104t46 96.5t59.5 82.5t72 63q-37 -8 -73.5 -33.5t-73 -64t-72.5 -87t-73 -101.5
q22 -13 43 -28t41 -32z" />
    <glyph glyph-name="Atilde" unicode="&#xc3;" horiz-adv-x="941" 
d="M709 -89q-32 54 -42.5 124.5t-2.5 148.5q-29 24 -58.5 41.5t-57.5 28.5q-44 -64 -89 -127t-92.5 -116t-97 -91t-101.5 -52q-38 -10 -67 -5t-49.5 19.5t-32 33t-13.5 35t5 26.5t23 6q48 -11 97.5 10.5t100.5 63.5t103.5 100.5t105.5 121.5q-45 3 -83.5 -7.5t-67 -28.5
t-46.5 -41t-22 -45q-5 -22 -16.5 -25t-24.5 7.5t-24.5 31.5t-16.5 46.5t0 53t25 51.5q24 29 61.5 45t82.5 20t96 -3.5t102 -26.5q56 66 112.5 127t113 104t112.5 62.5t112 3.5q25 -8 24.5 -30.5t-34.5 -39.5q-21 -10 -41.5 -31t-38.5 -50.5t-33.5 -65.5t-27.5 -77
q-14 -47 -19.5 -98t-3.5 -100t11.5 -93.5t25.5 -80.5t38.5 -60.5t50.5 -32.5q21 -6 20.5 -17.5t-15.5 -22t-40.5 -16.5t-54.5 -2.5t-58.5 20.5t-51.5 54zM837 772q51 31 94.5 41t67.5 -13q12 -11 23 -18.5t23 -10t26 2t32 17.5q17 12 31 12.5t19.5 -7t0.5 -20.5t-26 -28
q-48 -34 -80.5 -47.5t-56 -14.5t-39.5 8t-29 20q-23 18 -37 21.5t-39 -11.5q-18 -11 -31.5 -10.5t-17 8.5t4.5 21.5t34 28.5zM676 257q11 53 30.5 104t46 96.5t59.5 82.5t72 63q-37 -8 -73.5 -33.5t-73 -64t-72.5 -87t-73 -101.5q22 -13 43 -28t41 -32z" />
    <glyph glyph-name="Adieresis" unicode="&#xc4;" horiz-adv-x="941" 
d="M709 -89q-32 54 -42.5 124.5t-2.5 148.5q-29 24 -58.5 41.5t-57.5 28.5q-44 -64 -89 -127t-92.5 -116t-97 -91t-101.5 -52q-38 -10 -67 -5t-49.5 19.5t-32 33t-13.5 35t5 26.5t23 6q48 -11 97.5 10.5t100.5 63.5t103.5 100.5t105.5 121.5q-45 3 -83.5 -7.5t-67 -28.5
t-46.5 -41t-22 -45q-5 -22 -16.5 -25t-24.5 7.5t-24.5 31.5t-16.5 46.5t0 53t25 51.5q24 29 61.5 45t82.5 20t96 -3.5t102 -26.5q56 66 112.5 127t113 104t112.5 62.5t112 3.5q25 -8 24.5 -30.5t-34.5 -39.5q-21 -10 -41.5 -31t-38.5 -50.5t-33.5 -65.5t-27.5 -77
q-14 -47 -19.5 -98t-3.5 -100t11.5 -93.5t25.5 -80.5t38.5 -60.5t50.5 -32.5q21 -6 20.5 -17.5t-15.5 -22t-40.5 -16.5t-54.5 -2.5t-58.5 20.5t-51.5 54zM676 257q11 53 30.5 104t46 96.5t59.5 82.5t72 63q-37 -8 -73.5 -33.5t-73 -64t-72.5 -87t-73 -101.5q22 -13 43 -28
t41 -32zM967 757q0 28 20 48t48 20t48 -20t20 -48t-20 -48t-48 -20t-48 20t-20 48zM794 757q0 28 20 48t48 20t48 -20t20 -48t-20 -48t-48 -20t-48 20t-20 48z" />
    <glyph glyph-name="Aring" unicode="&#xc5;" horiz-adv-x="941" 
d="M709 -89q-32 54 -42.5 124.5t-2.5 148.5q-29 24 -58.5 41.5t-57.5 28.5q-44 -64 -89 -127t-92.5 -116t-97 -91t-101.5 -52q-38 -10 -67 -5t-49.5 19.5t-32 33t-13.5 35t5 26.5t23 6q48 -11 97.5 10.5t100.5 63.5t103.5 100.5t105.5 121.5q-45 3 -83.5 -7.5t-67 -28.5
t-46.5 -41t-22 -45q-5 -22 -16.5 -25t-24.5 7.5t-24.5 31.5t-16.5 46.5t0 53t25 51.5q24 29 61.5 45t82.5 20t96 -3.5t102 -26.5q56 66 112.5 127t113 104t112.5 62.5t112 3.5q25 -8 24.5 -30.5t-34.5 -39.5q-21 -10 -41.5 -31t-38.5 -50.5t-33.5 -65.5t-27.5 -77
q-14 -47 -19.5 -98t-3.5 -100t11.5 -93.5t25.5 -80.5t38.5 -60.5t50.5 -32.5q21 -6 20.5 -17.5t-15.5 -22t-40.5 -16.5t-54.5 -2.5t-58.5 20.5t-51.5 54zM892 798q0 25 10 48t26.5 39.5t39 26.5t48.5 10q25 0 48 -10t39.5 -26.5t26.5 -39.5t10 -48q0 -26 -10 -48.5
t-26.5 -39t-39.5 -26.5t-48 -10q-26 0 -48.5 10t-39 26.5t-26.5 39t-10 48.5zM676 257q11 53 30.5 104t46 96.5t59.5 82.5t72 63q-37 -8 -73.5 -33.5t-73 -64t-72.5 -87t-73 -101.5q22 -13 43 -28t41 -32zM956 798q0 -25 17.5 -42.5t42.5 -17.5t42.5 17.5t17.5 42.5
t-17.5 42.5t-42.5 17.5t-42.5 -17.5t-17.5 -42.5z" />
    <glyph glyph-name="AE" unicode="&#xc6;" horiz-adv-x="1295" 
d="M957 654q49 -12 74 -30q35 20 75 31t84 10q58 -1 95.5 -22.5t54 -52.5t12 -67.5t-30 -68t-72.5 -54t-115 -24.5q-14 0 -31 1t-33.5 4.5t-32 11t-25.5 20.5q-9 -27 -12 -52q32 -5 58.5 -15t44 -23.5t25 -30.5t0.5 -36q-6 -17 -22.5 -27.5t-39 -13.5t-47.5 2t-49 17
q-20 10 -34.5 22t-25.5 26q-39 -14 -65.5 -43.5t-41 -65.5t-16.5 -75t9 -72t34.5 -55.5t61.5 -26.5q41 -4 70 16t42 51t7 66.5t-34 63.5q-14 13 -8 22t23.5 12t42.5 -0.5t48.5 -15t42.5 -31.5t25 -50q7 -39 -8 -77t-49.5 -68t-85.5 -48t-116 -18t-121.5 23t-92.5 65.5
t-45.5 103t20.5 134.5q-28 21 -55 36t-53 26q-45 -64 -90.5 -127.5t-92.5 -116.5t-95.5 -91.5t-98.5 -51.5q-38 -10 -67 -5t-49.5 19.5t-32 33t-13.5 35t5 26.5t23 6q48 -11 98 10.5t101.5 63.5t104.5 100.5t107 121.5q-46 3 -85 -7t-68.5 -28t-47.5 -41.5t-22 -45.5
q-5 -22 -16.5 -25t-24.5 7.5t-24.5 31.5t-16.5 46.5t0 53t25 51.5q24 29 62 45.5t83.5 20.5t97 -4.5t102.5 -27.5q55 65 111 124.5t112 102.5t112 63.5t112 7.5zM946 554q-41 35 -84 28t-87.5 -42.5t-91 -94t-94.5 -126.5q53 -31 96 -70q35 48 86 74.5t105 36.5
q-7 48 12.5 99t57.5 95zM1181 581q-29 -3 -54 -17.5t-47 -37.5q-1 -22 7.5 -37t21.5 -23.5t29.5 -11.5t32.5 -1q49 7 74 29.5t26.5 46t-21 40t-69.5 12.5z" />
    <glyph glyph-name="Ccedilla" unicode="&#xc7;" horiz-adv-x="639" 
d="M297 676q-7 -45 7 -85q59 36 125.5 56t138.5 18q58 -2 95.5 -23t54 -52.5t12 -67.5t-30.5 -68t-73 -54t-115 -24q-56 -2 -113.5 8.5t-107.5 36.5q-28 -31 -50.5 -64t-38.5 -67q-31 -66 -42 -127t-3.5 -109t33 -77.5t68.5 -32.5q41 -3 72 17t46 51t11 66t-32 63
q-14 13 -8 22t23.5 12t42.5 -0.5t48.5 -15t42.5 -31.5t25 -50q7 -39 -8 -77t-49 -68t-85.5 -48t-116.5 -18h-5q-12 -14 -19.5 -25.5t-0.5 -11.5q14 0 27.5 -4.5t24 -12t16.5 -19.5t6 -27q0 -20 -12.5 -40t-35 -35t-54 -22t-68.5 1q-38 8 -52 30.5t-13.5 43t10 31.5t18.5 -3
q12 -19 35.5 -27t47.5 -7t42.5 8.5t19.5 19.5q1 17 -22 28.5t-57 11.5q-17 0 -24 3t-8 7.5t2.5 10t8.5 10.5q8 11 17 21t17 20q-56 18 -96.5 60.5t-59 102t-11.5 133t46 154.5q23 48 55 93t72 84q-20 32 -19 64.5t14 60.5t33 49t37.5 29t29 1t6.5 -34zM558 581
q-44 -4 -91 -25.5t-92 -56.5q38 -28 84.5 -40.5t88.5 -5.5q49 7 74 29.5t26.5 45.5t-21 40t-69.5 13z" />
    <glyph glyph-name="Egrave" unicode="&#xc8;" horiz-adv-x="634" 
d="M299 676q-6 -35 1 -66t24 -57q22 25 49 45.5t58 35.5t65.5 23.5t72.5 7.5q58 -1 95.5 -22.5t54 -52.5t12 -67.5t-30 -68t-72.5 -54t-115 -24.5q-64 -3 -129 11q-2 -7 -3 -13t-2 -13q32 -5 58.5 -15t44 -23.5t25 -30.5t0.5 -36q-6 -17 -22.5 -27.5t-39 -13.5t-47.5 2
t-49 17q-39 21 -62 50q-42 -13 -71.5 -42t-46 -65t-19 -75t9.5 -72.5t39.5 -57t71.5 -28.5q41 -4 70 16t42 51t7 66.5t-34 63.5q-14 13 -8 22t23.5 12t42.5 -0.5t48.5 -15t42.5 -31.5t25 -50q7 -39 -8 -77t-49.5 -68t-85.5 -48t-116 -18t-121.5 23t-92.5 66t-45 103t21 135
q15 37 39 65.5t53 49t62.5 33t67.5 18.5q-5 39 6 80q-18 13 -34 29t-28 36q-21 32 -20 65t13.5 61t32.5 49t38 29.5t29.5 1.5t6.5 -35zM713 723q14 -5 15 -15.5t-6.5 -20.5t-21 -15t-26.5 2q-9 4 -36.5 10t-59 14t-60 17t-40.5 19q-17 14 -23.5 39t-4 46.5t12.5 31t26 -7.5
q15 -17 47 -36t67 -36t65.5 -30t44.5 -18zM560 581q-43 -4 -79.5 -34.5t-61.5 -72.5q32 -15 65.5 -20.5t65.5 -0.5q49 7 74 29.5t26.5 46t-21 40t-69.5 12.5z" />
    <glyph glyph-name="Eacute" unicode="&#xc9;" horiz-adv-x="634" 
d="M299 676q-6 -35 1 -66t24 -57q22 25 49 45.5t58 35.5t65.5 23.5t72.5 7.5q58 -1 95.5 -22.5t54 -52.5t12 -67.5t-30 -68t-72.5 -54t-115 -24.5q-64 -3 -129 11q-2 -7 -3 -13t-2 -13q32 -5 58.5 -15t44 -23.5t25 -30.5t0.5 -36q-6 -17 -22.5 -27.5t-39 -13.5t-47.5 2
t-49 17q-39 21 -62 50q-42 -13 -71.5 -42t-46 -65t-19 -75t9.5 -72.5t39.5 -57t71.5 -28.5q41 -4 70 16t42 51t7 66.5t-34 63.5q-14 13 -8 22t23.5 12t42.5 -0.5t48.5 -15t42.5 -31.5t25 -50q7 -39 -8 -77t-49.5 -68t-85.5 -48t-116 -18t-121.5 23t-92.5 66t-45 103t21 135
q15 37 39 65.5t53 49t62.5 33t67.5 18.5q-5 39 6 80q-18 13 -34 29t-28 36q-21 32 -20 65t13.5 61t32.5 49t38 29.5t29.5 1.5t6.5 -35zM479 736q15 5 50 18t75 30t77.5 36t58.5 36q22 17 29 7.5t2.5 -31t-18.5 -46.5t-35 -39q-15 -10 -46.5 -19t-65 -17t-63 -14t-40.5 -10
q-15 -7 -26.5 -2t-16 15t-0.5 20.5t19 15.5zM560 581q-43 -4 -79.5 -34.5t-61.5 -72.5q32 -15 65.5 -20.5t65.5 -0.5q49 7 74 29.5t26.5 46t-21 40t-69.5 12.5z" />
    <glyph glyph-name="Ecircumflex" unicode="&#xca;" horiz-adv-x="634" 
d="M299 676q-6 -35 1 -66t24 -57q22 25 49 45.5t58 35.5t65.5 23.5t72.5 7.5q58 -1 95.5 -22.5t54 -52.5t12 -67.5t-30 -68t-72.5 -54t-115 -24.5q-64 -3 -129 11q-2 -7 -3 -13t-2 -13q32 -5 58.5 -15t44 -23.5t25 -30.5t0.5 -36q-6 -17 -22.5 -27.5t-39 -13.5t-47.5 2
t-49 17q-39 21 -62 50q-42 -13 -71.5 -42t-46 -65t-19 -75t9.5 -72.5t39.5 -57t71.5 -28.5q41 -4 70 16t42 51t7 66.5t-34 63.5q-14 13 -8 22t23.5 12t42.5 -0.5t48.5 -15t42.5 -31.5t25 -50q7 -39 -8 -77t-49.5 -68t-85.5 -48t-116 -18t-121.5 23t-92.5 66t-45 103t21 135
q15 37 39 65.5t53 49t62.5 33t67.5 18.5q-5 39 6 80q-18 13 -34 29t-28 36q-21 32 -20 65t13.5 61t32.5 49t38 29.5t29.5 1.5t6.5 -35zM595 865q14 9 34.5 10.5t37.5 -14.5q8 -8 20.5 -23.5t25.5 -36t25 -44t20 -46.5q8 -25 5.5 -38t-11 -15.5t-22 5t-27.5 24.5
q-18 20 -43.5 44.5t-49.5 44.5q-34 -16 -67.5 -40t-63.5 -53q-12 -12 -23.5 -11.5t-17 10t-2 25.5t20.5 35q12 14 31 32.5t39.5 36.5t39 33t28.5 21zM560 581q-43 -4 -79.5 -34.5t-61.5 -72.5q32 -15 65.5 -20.5t65.5 -0.5q49 7 74 29.5t26.5 46t-21 40t-69.5 12.5z" />
    <glyph glyph-name="Edieresis" unicode="&#xcb;" horiz-adv-x="634" 
d="M299 676q-6 -35 1 -66t24 -57q22 25 49 45.5t58 35.5t65.5 23.5t72.5 7.5q58 -1 95.5 -22.5t54 -52.5t12 -67.5t-30 -68t-72.5 -54t-115 -24.5q-64 -3 -129 11q-2 -7 -3 -13t-2 -13q32 -5 58.5 -15t44 -23.5t25 -30.5t0.5 -36q-6 -17 -22.5 -27.5t-39 -13.5t-47.5 2
t-49 17q-39 21 -62 50q-42 -13 -71.5 -42t-46 -65t-19 -75t9.5 -72.5t39.5 -57t71.5 -28.5q41 -4 70 16t42 51t7 66.5t-34 63.5q-14 13 -8 22t23.5 12t42.5 -0.5t48.5 -15t42.5 -31.5t25 -50q7 -39 -8 -77t-49.5 -68t-85.5 -48t-116 -18t-121.5 23t-92.5 66t-45 103t21 135
q15 37 39 65.5t53 49t62.5 33t67.5 18.5q-5 39 6 80q-18 13 -34 29t-28 36q-21 32 -20 65t13.5 61t32.5 49t38 29.5t29.5 1.5t6.5 -35zM560 581q-43 -4 -79.5 -34.5t-61.5 -72.5q32 -15 65.5 -20.5t65.5 -0.5q49 7 74 29.5t26.5 46t-21 40t-69.5 12.5zM450 751q0 28 20 48
t48 20t48 -20t20 -48t-20 -48t-48 -20t-48 20t-20 48zM623 751q0 28 20 48t48 20t48 -20t20 -48t-20 -48t-48 -20t-48 20t-20 48z" />
    <glyph glyph-name="Igrave" unicode="&#xcc;" horiz-adv-x="611" 
d="M300 567q18 -21 46 -32.5t63 -15t75 0t82 13.5q102 160 173 118q13 -8 17 -23t-1 -34.5t-20.5 -41.5t-42.5 -44q-15 -12 -30.5 -24t-32.5 -23q-32 -58 -63 -127.5t-61.5 -138.5t-60.5 -130.5t-60 -103.5q-40 -55 -89.5 -82t-97.5 -30t-90.5 14t-67.5 50t-28.5 79
t25.5 100q13 24 29 37t29 15.5t19 -5t-1 -25.5q-10 -22 -6.5 -45.5t17 -42t35 -30t47 -10.5t52.5 17t52 52q19 27 40 66t43.5 83.5t46 92.5t47.5 95q-36 -10 -73 -10.5t-75 10.5q-31 9 -49.5 30t-27 45.5t-8.5 48.5t6 40.5t17 21t24 -10.5zM814 727q14 -5 15 -15.5
t-6.5 -20.5t-21 -15t-26.5 2q-9 4 -36.5 10t-59 14t-60 17t-40.5 19q-17 14 -23.5 39t-4 46.5t12.5 31t26 -7.5q15 -17 47 -36t67 -36t65.5 -30t44.5 -18z" />
    <glyph glyph-name="Iacute" unicode="&#xcd;" horiz-adv-x="611" 
d="M300 567q18 -21 46 -32.5t63 -15t75 0t82 13.5q102 160 173 118q13 -8 17 -23t-1 -34.5t-20.5 -41.5t-42.5 -44q-15 -12 -30.5 -24t-32.5 -23q-32 -58 -63 -127.5t-61.5 -138.5t-60.5 -130.5t-60 -103.5q-40 -55 -89.5 -82t-97.5 -30t-90.5 14t-67.5 50t-28.5 79
t25.5 100q13 24 29 37t29 15.5t19 -5t-1 -25.5q-10 -22 -6.5 -45.5t17 -42t35 -30t47 -10.5t52.5 17t52 52q19 27 40 66t43.5 83.5t46 92.5t47.5 95q-36 -10 -73 -10.5t-75 10.5q-31 9 -49.5 30t-27 45.5t-8.5 48.5t6 40.5t17 21t24 -10.5zM633 732q15 5 50 18t75 30
t77.5 36t58.5 36q22 17 29 7.5t2.5 -31t-18.5 -46.5t-35 -39q-15 -10 -46.5 -19t-65 -17t-63 -14t-40.5 -10q-15 -7 -26.5 -2t-16 15t-0.5 20.5t19 15.5z" />
    <glyph glyph-name="Icircumflex" unicode="&#xce;" horiz-adv-x="611" 
d="M300 567q18 -21 46 -32.5t63 -15t75 0t82 13.5q102 160 173 118q13 -8 17 -23t-1 -34.5t-20.5 -41.5t-42.5 -44q-15 -12 -30.5 -24t-32.5 -23q-32 -58 -63 -127.5t-61.5 -138.5t-60.5 -130.5t-60 -103.5q-40 -55 -89.5 -82t-97.5 -30t-90.5 14t-67.5 50t-28.5 79
t25.5 100q13 24 29 37t29 15.5t19 -5t-1 -25.5q-10 -22 -6.5 -45.5t17 -42t35 -30t47 -10.5t52.5 17t52 52q19 27 40 66t43.5 83.5t46 92.5t47.5 95q-36 -10 -73 -10.5t-75 10.5q-31 9 -49.5 30t-27 45.5t-8.5 48.5t6 40.5t17 21t24 -10.5zM694 862q14 9 34.5 10.5
t37.5 -14.5q8 -8 20.5 -23.5t25.5 -36t25 -44t20 -46.5q8 -25 5.5 -38t-11 -15.5t-22 5t-27.5 24.5q-18 20 -43.5 44.5t-49.5 44.5q-34 -16 -67.5 -40t-63.5 -53q-12 -12 -23.5 -11.5t-17 10t-2 25.5t20.5 35q12 14 31 32.5t39.5 36.5t39 33t28.5 21z" />
    <glyph glyph-name="Idieresis" unicode="&#xcf;" horiz-adv-x="611" 
d="M300 567q18 -21 46 -32.5t63 -15t75 0t82 13.5q102 160 173 118q13 -8 17 -23t-1 -34.5t-20.5 -41.5t-42.5 -44q-15 -12 -30.5 -24t-32.5 -23q-32 -58 -63 -127.5t-61.5 -138.5t-60.5 -130.5t-60 -103.5q-40 -55 -89.5 -82t-97.5 -30t-90.5 14t-67.5 50t-28.5 79
t25.5 100q13 24 29 37t29 15.5t19 -5t-1 -25.5q-10 -22 -6.5 -45.5t17 -42t35 -30t47 -10.5t52.5 17t52 52q19 27 40 66t43.5 83.5t46 92.5t47.5 95q-36 -10 -73 -10.5t-75 10.5q-31 9 -49.5 30t-27 45.5t-8.5 48.5t6 40.5t17 21t24 -10.5zM742 737q0 28 20 48t48 20t48 -20
t20 -48t-20 -48t-48 -20t-48 20t-20 48zM569 737q0 28 20 48t48 20t48 -20t20 -48t-20 -48t-48 -20t-48 20t-20 48z" />
    <glyph glyph-name="Ntilde" unicode="&#xd1;" horiz-adv-x="887" 
d="M1066 678q18 7 28.5 4t14 -10t-1 -16t-16.5 -13q-25 -9 -61.5 -34.5t-77 -63t-81.5 -86t-74 -104.5q-41 -69 -64 -142.5t-26 -137t14.5 -109.5t58.5 -58q19 -5 17 -15t-17 -19.5t-40 -16t-52.5 -5.5t-53.5 11.5t-44 35.5q-24 30 -46.5 86t-37 126t-17.5 146.5t12 146.5
q-17 -41 -32 -85.5t-30 -88t-30 -85t-30 -76.5q-26 -60 -60.5 -102.5t-73.5 -66.5t-79.5 -27.5t-79.5 15.5q-34 17 -51.5 45t-23.5 58.5t-3 59t10.5 45.5t17 18.5t16.5 -21.5q7 -25 23 -39t36 -18.5t42 0.5t41 18q16 10 31 27t29 37t26.5 41.5t23.5 41.5q23 42 46.5 93.5
t49.5 103.5t53.5 101t56.5 86.5t60.5 59.5t65.5 21q18 0 29 -6.5t14.5 -15t-1.5 -17t-18 -14.5q-16 -7 -33 -32.5t-32.5 -65.5t-27.5 -91t-16 -107.5t1 -115.5t23 -115q16 77 58 165t105 170t146 150.5t182 106.5zM718 740q51 31 94.5 41t67.5 -13q12 -11 23 -18.5t23 -10
t26 2t32 17.5q17 12 31 12.5t19.5 -7t0.5 -20.5t-26 -28q-48 -34 -80.5 -47.5t-56 -14.5t-39.5 8t-29 20q-23 18 -37 21.5t-39 -11.5q-18 -11 -31.5 -10.5t-17 8.5t4.5 21.5t34 28.5z" />
    <glyph glyph-name="Ograve" unicode="&#xd2;" horiz-adv-x="789" 
d="M314 676q-8 -47 6 -85q60 36 126 56t138 18q55 -2 92 -21.5t54 -49t15.5 -64t-22.5 -65.5q13 -47 7 -111.5t-30 -133.5t-63.5 -135t-93 -117t-120 -79.5t-142.5 -21.5q-74 7 -131 44.5t-86.5 99t-26.5 143t48 175.5q23 48 55 93t72 84q-20 32 -19 64.5t14 60.5t33 49
t38 29t29 1t7 -34zM527 376q-57 -2 -115 8.5t-108 37.5q-26 -29 -48 -60.5t-37 -64.5q-31 -66 -39.5 -126t0.5 -107.5t34 -79t62 -40.5q48 -11 94 5.5t85.5 51.5t70.5 84t49 101t20.5 103.5t-13.5 92.5q-13 -2 -27 -4t-28 -2zM574 581q-44 -4 -91.5 -25.5t-92.5 -55.5
q38 -29 85 -41.5t89 -5.5q49 7 74 29.5t26.5 45.5t-21 40t-69.5 13zM715 732q14 -5 15 -15.5t-6.5 -20.5t-21 -15t-26.5 2q-9 4 -36.5 10t-59 14t-60 17t-40.5 19q-17 14 -23.5 39t-4 46.5t12.5 31t26 -7.5q15 -17 47 -36t67 -36t65.5 -30t44.5 -18z" />
    <glyph glyph-name="Oacute" unicode="&#xd3;" horiz-adv-x="789" 
d="M314 676q-8 -47 6 -85q60 36 126 56t138 18q55 -2 92 -21.5t54 -49t15.5 -64t-22.5 -65.5q13 -47 7 -111.5t-30 -133.5t-63.5 -135t-93 -117t-120 -79.5t-142.5 -21.5q-74 7 -131 44.5t-86.5 99t-26.5 143t48 175.5q23 48 55 93t72 84q-20 32 -19 64.5t14 60.5t33 49
t38 29t29 1t7 -34zM527 376q-57 -2 -115 8.5t-108 37.5q-26 -29 -48 -60.5t-37 -64.5q-31 -66 -39.5 -126t0.5 -107.5t34 -79t62 -40.5q48 -11 94 5.5t85.5 51.5t70.5 84t49 101t20.5 103.5t-13.5 92.5q-13 -2 -27 -4t-28 -2zM574 581q-44 -4 -91.5 -25.5t-92.5 -55.5
q38 -29 85 -41.5t89 -5.5q49 7 74 29.5t26.5 45.5t-21 40t-69.5 13zM500 744q15 5 50 18t75 30t77.5 36t58.5 36q22 17 29 7.5t2.5 -31t-18.5 -46.5t-35 -39q-15 -10 -46.5 -19t-65 -17t-63 -14t-40.5 -10q-15 -7 -26.5 -2t-16 15t-0.5 20.5t19 15.5z" />
    <glyph glyph-name="Ocircumflex" unicode="&#xd4;" horiz-adv-x="789" 
d="M314 676q-8 -47 6 -85q60 36 126 56t138 18q55 -2 92 -21.5t54 -49t15.5 -64t-22.5 -65.5q13 -47 7 -111.5t-30 -133.5t-63.5 -135t-93 -117t-120 -79.5t-142.5 -21.5q-74 7 -131 44.5t-86.5 99t-26.5 143t48 175.5q23 48 55 93t72 84q-20 32 -19 64.5t14 60.5t33 49
t38 29t29 1t7 -34zM527 376q-57 -2 -115 8.5t-108 37.5q-26 -29 -48 -60.5t-37 -64.5q-31 -66 -39.5 -126t0.5 -107.5t34 -79t62 -40.5q48 -11 94 5.5t85.5 51.5t70.5 84t49 101t20.5 103.5t-13.5 92.5q-13 -2 -27 -4t-28 -2zM612 888q14 9 34.5 10.5t37.5 -14.5
q8 -8 20.5 -23.5t25.5 -36t25 -44t20 -46.5q8 -25 5.5 -38t-11 -15.5t-22 5t-27.5 24.5q-18 20 -43.5 44.5t-49.5 44.5q-34 -16 -67.5 -40t-63.5 -53q-12 -12 -23.5 -11.5t-17 10t-2 25.5t20.5 35q12 14 31 32.5t39.5 36.5t39 33t28.5 21zM574 581q-44 -4 -91.5 -25.5
t-92.5 -55.5q38 -29 85 -41.5t89 -5.5q49 7 74 29.5t26.5 45.5t-21 40t-69.5 13z" />
    <glyph glyph-name="Otilde" unicode="&#xd5;" horiz-adv-x="789" 
d="M314 676q-8 -47 6 -85q60 36 126 56t138 18q55 -2 92 -21.5t54 -49t15.5 -64t-22.5 -65.5q13 -47 7 -111.5t-30 -133.5t-63.5 -135t-93 -117t-120 -79.5t-142.5 -21.5q-74 7 -131 44.5t-86.5 99t-26.5 143t48 175.5q23 48 55 93t72 84q-20 32 -19 64.5t14 60.5t33 49
t38 29t29 1t7 -34zM527 376q-57 -2 -115 8.5t-108 37.5q-26 -29 -48 -60.5t-37 -64.5q-31 -66 -39.5 -126t0.5 -107.5t34 -79t62 -40.5q48 -11 94 5.5t85.5 51.5t70.5 84t49 101t20.5 103.5t-13.5 92.5q-13 -2 -27 -4t-28 -2zM503 778q51 31 94.5 41t67.5 -13
q12 -11 23 -18.5t23 -10t26 2t32 17.5q17 12 31 12.5t19.5 -7t0.5 -20.5t-26 -28q-48 -34 -80.5 -47.5t-56 -14.5t-39.5 8t-29 20q-23 18 -37 21.5t-39 -11.5q-18 -11 -31.5 -10.5t-17 8.5t4.5 21.5t34 28.5zM574 581q-44 -4 -91.5 -25.5t-92.5 -55.5q38 -29 85 -41.5
t89 -5.5q49 7 74 29.5t26.5 45.5t-21 40t-69.5 13z" />
    <glyph glyph-name="Odieresis" unicode="&#xd6;" horiz-adv-x="789" 
d="M314 676q-8 -47 6 -85q60 36 126 56t138 18q55 -2 92 -21.5t54 -49t15.5 -64t-22.5 -65.5q13 -47 7 -111.5t-30 -133.5t-63.5 -135t-93 -117t-120 -79.5t-142.5 -21.5q-74 7 -131 44.5t-86.5 99t-26.5 143t48 175.5q23 48 55 93t72 84q-20 32 -19 64.5t14 60.5t33 49
t38 29t29 1t7 -34zM527 376q-57 -2 -115 8.5t-108 37.5q-26 -29 -48 -60.5t-37 -64.5q-31 -66 -39.5 -126t0.5 -107.5t34 -79t62 -40.5q48 -11 94 5.5t85.5 51.5t70.5 84t49 101t20.5 103.5t-13.5 92.5q-13 -2 -27 -4t-28 -2zM574 581q-44 -4 -91.5 -25.5t-92.5 -55.5
q38 -29 85 -41.5t89 -5.5q49 7 74 29.5t26.5 45.5t-21 40t-69.5 13zM454 768q0 28 20 48t48 20t48 -20t20 -48t-20 -48t-48 -20t-48 20t-20 48zM627 768q0 28 20 48t48 20t48 -20t20 -48t-20 -48t-48 -20t-48 20t-20 48z" />
    <glyph glyph-name="Oslash" unicode="&#xd8;" horiz-adv-x="789" 
d="M733 627q29 30 53.5 36t36.5 -5t6 -34.5t-37 -50.5l-46 -43q-1 -33 -23 -65q13 -47 7 -111.5t-30 -133.5t-63.5 -135t-93 -117t-120 -79.5t-142.5 -21.5q-90 9 -153 61l-32 -27q-20 -15 -33.5 -18t-19 3t-1.5 19.5t19 31.5q5 6 12 14t16 18q-48 63 -53 155.5t49 204.5
q23 48 55 93t72 84q-20 32 -19 64.5t14 60.5t33 49t38 29t29 1t7 -34q-8 -47 6 -85q60 36 126 56t138 18q48 -2 81 -16.5t53 -37.5zM276 -56q47 -11 92.5 5t84.5 49.5t70 81t49.5 99t22.5 102.5t-10 92q-47 -47 -98 -97t-101 -99.5t-96.5 -95t-85.5 -82.5q26 -43 72 -55z
M488 376q-48 2 -95 12.5t-89 33.5q-26 -29 -48 -60.5t-37 -64.5q-31 -66 -40 -126t0 -108q32 33 69.5 71t77 78t81 81.5t81.5 82.5zM574 581q-44 -4 -91.5 -25.5t-92.5 -55.5q38 -29 84.5 -41.5t88.5 -5.5l51.5 51.5t45.5 46.5q-8 15 -29.5 23.5t-56.5 6.5z" />
    <glyph glyph-name="Ugrave" unicode="&#xd9;" horiz-adv-x="802" 
d="M49 568q16 -19 41.5 -30t56.5 -15.5t67 -2.5t74 9q27 36 56 63t55.5 43.5t49.5 21.5t39 -5q26 -17 16.5 -57.5t-63.5 -85.5q-32 -26 -68.5 -51t-77.5 -43q-33 -51 -54 -105q-31 -79 -42 -139.5t-5 -102.5t27 -66t54 -30t70 14.5t73.5 60t71 93t64.5 112.5t53 119.5
t36 114t14.5 95.5t-11.5 64q-11 18 -5 27t21.5 8.5t37.5 -10t42.5 -27.5t36 -45.5t19.5 -62.5q5 -52 -15 -122t-58 -143.5t-91 -144.5t-114 -125.5t-126 -85.5t-128 -25q-56 6 -92.5 45.5t-48 105.5t5.5 154t69 192q-28 -5 -56 -3.5t-57 10.5q-31 9 -49.5 30t-27 45.5
t-8.5 48.5t6 40.5t17 21t24 -10.5zM690 762q14 -5 15 -15.5t-6.5 -20.5t-21 -15t-26.5 2q-9 4 -36.5 10t-59 14t-60 17t-40.5 19q-17 14 -23.5 39t-4 46.5t12.5 31t26 -7.5q15 -17 47 -36t67 -36t65.5 -30t44.5 -18z" />
    <glyph glyph-name="Uacute" unicode="&#xda;" horiz-adv-x="802" 
d="M49 568q16 -19 41.5 -30t56.5 -15.5t67 -2.5t74 9q27 36 56 63t55.5 43.5t49.5 21.5t39 -5q26 -17 16.5 -57.5t-63.5 -85.5q-32 -26 -68.5 -51t-77.5 -43q-33 -51 -54 -105q-31 -79 -42 -139.5t-5 -102.5t27 -66t54 -30t70 14.5t73.5 60t71 93t64.5 112.5t53 119.5
t36 114t14.5 95.5t-11.5 64q-11 18 -5 27t21.5 8.5t37.5 -10t42.5 -27.5t36 -45.5t19.5 -62.5q5 -52 -15 -122t-58 -143.5t-91 -144.5t-114 -125.5t-126 -85.5t-128 -25q-56 6 -92.5 45.5t-48 105.5t5.5 154t69 192q-28 -5 -56 -3.5t-57 10.5q-31 9 -49.5 30t-27 45.5
t-8.5 48.5t6 40.5t17 21t24 -10.5zM507 746q15 5 50 18t75 30t77.5 36t58.5 36q22 17 29 7.5t2.5 -31t-18.5 -46.5t-35 -39q-15 -10 -46.5 -19t-65 -17t-63 -14t-40.5 -10q-15 -7 -26.5 -2t-16 15t-0.5 20.5t19 15.5z" />
    <glyph glyph-name="Ucircumflex" unicode="&#xdb;" horiz-adv-x="802" 
d="M49 568q16 -19 41.5 -30t56.5 -15.5t67 -2.5t74 9q27 36 56 63t55.5 43.5t49.5 21.5t39 -5q26 -17 16.5 -57.5t-63.5 -85.5q-32 -26 -68.5 -51t-77.5 -43q-33 -51 -54 -105q-31 -79 -42 -139.5t-5 -102.5t27 -66t54 -30t70 14.5t73.5 60t71 93t64.5 112.5t53 119.5
t36 114t14.5 95.5t-11.5 64q-11 18 -5 27t21.5 8.5t37.5 -10t42.5 -27.5t36 -45.5t19.5 -62.5q5 -52 -15 -122t-58 -143.5t-91 -144.5t-114 -125.5t-126 -85.5t-128 -25q-56 6 -92.5 45.5t-48 105.5t5.5 154t69 192q-28 -5 -56 -3.5t-57 10.5q-31 9 -49.5 30t-27 45.5
t-8.5 48.5t6 40.5t17 21t24 -10.5zM596 897q14 9 34.5 10.5t37.5 -14.5q8 -8 20.5 -23.5t25.5 -36t25 -44t20 -46.5q8 -25 5.5 -38t-11 -15.5t-22 5t-27.5 24.5q-18 20 -43.5 44.5t-49.5 44.5q-34 -16 -67.5 -40t-63.5 -53q-12 -12 -23.5 -11.5t-17 10t-2 25.5t20.5 35
q12 14 31 32.5t39.5 36.5t39 33t28.5 21z" />
    <glyph glyph-name="Udieresis" unicode="&#xdc;" horiz-adv-x="802" 
d="M49 568q16 -19 41.5 -30t56.5 -15.5t67 -2.5t74 9q27 36 56 63t55.5 43.5t49.5 21.5t39 -5q26 -17 16.5 -57.5t-63.5 -85.5q-32 -26 -68.5 -51t-77.5 -43q-33 -51 -54 -105q-31 -79 -42 -139.5t-5 -102.5t27 -66t54 -30t70 14.5t73.5 60t71 93t64.5 112.5t53 119.5
t36 114t14.5 95.5t-11.5 64q-11 18 -5 27t21.5 8.5t37.5 -10t42.5 -27.5t36 -45.5t19.5 -62.5q5 -52 -15 -122t-58 -143.5t-91 -144.5t-114 -125.5t-126 -85.5t-128 -25q-56 6 -92.5 45.5t-48 105.5t5.5 154t69 192q-28 -5 -56 -3.5t-57 10.5q-31 9 -49.5 30t-27 45.5
t-8.5 48.5t6 40.5t17 21t24 -10.5zM620 774q0 28 20 48t48 20t48 -20t20 -48t-20 -48t-48 -20t-48 20t-20 48zM447 774q0 28 20 48t48 20t48 -20t20 -48t-20 -48t-48 -20t-48 20t-20 48z" />
    <glyph glyph-name="Yacute" unicode="&#xdd;" horiz-adv-x="654" 
d="M722 657q18 14 30.5 14.5t17.5 -6.5t1 -20t-19 -26q-34 -30 -66.5 -92.5t-65.5 -140t-68 -161t-72 -155.5q-32 -62 -71.5 -106.5t-82 -69t-85 -28t-81.5 16.5q-34 17 -50 44t-20.5 55t1 53.5t14.5 39.5t19 13t15 -25q5 -26 19 -42t33.5 -22t43 -3.5t47.5 14.5
q25 12 52 38t51.5 57t43.5 62t27 53h-1q-20 -26 -49.5 -50.5t-62.5 -41.5t-66.5 -22.5t-60.5 8.5q-26 13 -44 37.5t-21.5 62t10 87.5t51.5 115q-12 -6 -28.5 -12t-34 -9t-34.5 -3.5t-31 4.5q-29 10 -45.5 31t-23 46t-4.5 49.5t9 41t18 21t23 -10.5q29 -38 84 -57.5t128 -8.5
q32 42 65.5 75t64 53t56 26.5t41.5 -4.5q24 -17 11.5 -58.5t-69.5 -86.5q-44 -35 -96 -67q-21 -36 -34 -71t-16.5 -64t2.5 -50.5t24 -29.5q22 -11 45.5 -3.5t47.5 27.5t47.5 49.5t45.5 63.5q25 44 51 87t53 81t55 69.5t55 51.5zM540 735q15 5 50 18t75 30t77.5 36t58.5 36
q22 17 29 7.5t2.5 -31t-18.5 -46.5t-35 -39q-15 -10 -46.5 -19t-65 -17t-63 -14t-40.5 -10q-15 -7 -26.5 -2t-16 15t-0.5 20.5t19 15.5z" />
    <glyph glyph-name="ae" unicode="&#xe6;" horiz-adv-x="542" 
d="M477 206q-32 -29 -77.5 -48.5t-91.5 -26.5q5 -22 20.5 -33.5t33.5 -14.5q26 -5 58 3.5t64 26t61.5 42.5t51.5 55q12 15 23.5 20t18.5 1t7 -15t-11 -27q-30 -43 -66 -78t-75 -59.5t-80.5 -38t-81.5 -13.5q-49 0 -81.5 19.5t-46.5 54.5l-6 -16q-22 -23 -52 -40.5t-68 -17.5
q-39 0 -65 21.5t-35 56.5t1 79t43 89q30 41 67.5 68t75.5 38.5t73.5 6.5t61.5 -27q36 32 79 45t88 -5q27 -12 41 -31t15 -42t-10.5 -47.5t-35.5 -45.5zM115 96q38 0 80 42q2 22 8.5 46t20.5 50q5 11 11.5 21.5t14.5 21.5l-1 1q-17 6 -39 2.5t-44.5 -15.5t-43.5 -31.5
t-36 -44.5q-10 -17 -13.5 -34t-0.5 -30t14 -21t29 -8zM313 190q33 6 68.5 21.5t61.5 50.5q18 24 9.5 38.5t-30 12t-50 -26.5t-51.5 -76z" />
    <glyph glyph-name="agrave" unicode="&#xe0;" horiz-adv-x="490" 
d="M432 335q-10 -19 -22.5 -40.5l-25 -43t-24 -41.5t-20.5 -35q-9 -16 -17 -31.5t-12 -28t-2 -20.5t15 -8q18 0 41 10t46 27t43.5 39t35.5 47q10 16 20.5 21.5t17.5 1.5t8 -15.5t-8 -28.5q-17 -31 -49.5 -64.5t-68.5 -61t-71.5 -45.5t-58.5 -18q-33 0 -56 14t-26 44
q-22 -23 -52 -40.5t-68 -17.5q-39 0 -65 21.5t-35 56.5t1 79t43 89q31 42 70 69.5t78 38.5t75 4.5t62 -32.5q8 14 14.5 22.5t14.5 13.5t18.5 7.5t25.5 5.5q16 2 30 3t22 -2.5t9 -13t-9 -27.5zM115 96q42 0 83 44t76 119q-10 14 -25 19q-17 6 -39 2.5t-44.5 -15.5
t-43.5 -31.5t-36 -44.5q-10 -17 -13.5 -34t-0.5 -30t14 -21t29 -8zM455 502q14 -5 15 -15.5t-6.5 -20.5t-21 -15t-26.5 2q-9 4 -36.5 10t-59 14t-60 17t-40.5 19q-17 14 -23.5 39t-4 46.5t12.5 31t26 -7.5q15 -17 47 -36t67 -36t65.5 -30t44.5 -18z" />
    <glyph glyph-name="aacute" unicode="&#xe1;" horiz-adv-x="490" 
d="M432 335q-10 -19 -22.5 -40.5l-25 -43t-24 -41.5t-20.5 -35q-9 -16 -17 -31.5t-12 -28t-2 -20.5t15 -8q18 0 41 10t46 27t43.5 39t35.5 47q10 16 20.5 21.5t17.5 1.5t8 -15.5t-8 -28.5q-17 -31 -49.5 -64.5t-68.5 -61t-71.5 -45.5t-58.5 -18q-33 0 -56 14t-26 44
q-22 -23 -52 -40.5t-68 -17.5q-39 0 -65 21.5t-35 56.5t1 79t43 89q31 42 70 69.5t78 38.5t75 4.5t62 -32.5q8 14 14.5 22.5t14.5 13.5t18.5 7.5t25.5 5.5q16 2 30 3t22 -2.5t9 -13t-9 -27.5zM115 96q42 0 83 44t76 119q-10 14 -25 19q-17 6 -39 2.5t-44.5 -15.5
t-43.5 -31.5t-36 -44.5q-10 -17 -13.5 -34t-0.5 -30t14 -21t29 -8zM241 502q15 5 50 18t75 30t77.5 36t58.5 36q22 17 29 7.5t2.5 -31t-18.5 -46.5t-35 -39q-15 -10 -46.5 -19t-65 -17t-63 -14t-40.5 -10q-15 -7 -26.5 -2t-16 15t-0.5 20.5t19 15.5z" />
    <glyph glyph-name="acircumflex" unicode="&#xe2;" horiz-adv-x="490" 
d="M432 335q-10 -19 -22.5 -40.5l-25 -43t-24 -41.5t-20.5 -35q-9 -16 -17 -31.5t-12 -28t-2 -20.5t15 -8q18 0 41 10t46 27t43.5 39t35.5 47q10 16 20.5 21.5t17.5 1.5t8 -15.5t-8 -28.5q-17 -31 -49.5 -64.5t-68.5 -61t-71.5 -45.5t-58.5 -18q-33 0 -56 14t-26 44
q-22 -23 -52 -40.5t-68 -17.5q-39 0 -65 21.5t-35 56.5t1 79t43 89q31 42 70 69.5t78 38.5t75 4.5t62 -32.5q8 14 14.5 22.5t14.5 13.5t18.5 7.5t25.5 5.5q16 2 30 3t22 -2.5t9 -13t-9 -27.5zM115 96q42 0 83 44t76 119q-10 14 -25 19q-17 6 -39 2.5t-44.5 -15.5
t-43.5 -31.5t-36 -44.5q-10 -17 -13.5 -34t-0.5 -30t14 -21t29 -8zM343 645q14 9 34.5 10.5t37.5 -14.5q8 -8 20.5 -23.5t25.5 -36t25 -44t20 -46.5q8 -25 5.5 -38t-11 -15.5t-22 5t-27.5 24.5q-18 20 -43.5 44.5t-49.5 44.5q-34 -16 -67.5 -40t-63.5 -53
q-12 -12 -23.5 -11.5t-17 10t-2 25.5t20.5 35q12 14 31 32.5t39.5 36.5t39 33t28.5 21z" />
    <glyph glyph-name="atilde" unicode="&#xe3;" horiz-adv-x="490" 
d="M432 335q-10 -19 -22.5 -40.5l-25 -43t-24 -41.5t-20.5 -35q-9 -16 -17 -31.5t-12 -28t-2 -20.5t15 -8q18 0 41 10t46 27t43.5 39t35.5 47q10 16 20.5 21.5t17.5 1.5t8 -15.5t-8 -28.5q-17 -31 -49.5 -64.5t-68.5 -61t-71.5 -45.5t-58.5 -18q-33 0 -56 14t-26 44
q-22 -23 -52 -40.5t-68 -17.5q-39 0 -65 21.5t-35 56.5t1 79t43 89q31 42 70 69.5t78 38.5t75 4.5t62 -32.5q8 14 14.5 22.5t14.5 13.5t18.5 7.5t25.5 5.5q16 2 30 3t22 -2.5t9 -13t-9 -27.5zM115 96q42 0 83 44t76 119q-10 14 -25 19q-17 6 -39 2.5t-44.5 -15.5
t-43.5 -31.5t-36 -44.5q-10 -17 -13.5 -34t-0.5 -30t14 -21t29 -8zM239 549q51 31 94.5 41t67.5 -13q12 -11 23 -18.5t23 -10t26 2t32 17.5q17 12 31 12.5t19.5 -7t0.5 -20.5t-26 -28q-48 -34 -80.5 -47.5t-56 -14.5t-39.5 8t-29 20q-23 18 -37 21.5t-39 -11.5
q-18 -11 -31.5 -10.5t-17 8.5t4.5 21.5t34 28.5z" />
    <glyph glyph-name="adieresis" unicode="&#xe4;" horiz-adv-x="490" 
d="M432 335q-10 -19 -22.5 -40.5l-25 -43t-24 -41.5t-20.5 -35q-9 -16 -17 -31.5t-12 -28t-2 -20.5t15 -8q18 0 41 10t46 27t43.5 39t35.5 47q10 16 20.5 21.5t17.5 1.5t8 -15.5t-8 -28.5q-17 -31 -49.5 -64.5t-68.5 -61t-71.5 -45.5t-58.5 -18q-33 0 -56 14t-26 44
q-22 -23 -52 -40.5t-68 -17.5q-39 0 -65 21.5t-35 56.5t1 79t43 89q31 42 70 69.5t78 38.5t75 4.5t62 -32.5q8 14 14.5 22.5t14.5 13.5t18.5 7.5t25.5 5.5q16 2 30 3t22 -2.5t9 -13t-9 -27.5zM115 96q42 0 83 44t76 119q-10 14 -25 19q-17 6 -39 2.5t-44.5 -15.5
t-43.5 -31.5t-36 -44.5q-10 -17 -13.5 -34t-0.5 -30t14 -21t29 -8zM174 530q0 28 20 48t48 20t48 -20t20 -48t-20 -48t-48 -20t-48 20t-20 48zM347 530q0 28 20 48t48 20t48 -20t20 -48t-20 -48t-48 -20t-48 20t-20 48z" />
    <glyph glyph-name="aring" unicode="&#xe5;" horiz-adv-x="490" 
d="M432 335q-10 -19 -22.5 -40.5l-25 -43t-24 -41.5t-20.5 -35q-9 -16 -17 -31.5t-12 -28t-2 -20.5t15 -8q18 0 41 10t46 27t43.5 39t35.5 47q10 16 20.5 21.5t17.5 1.5t8 -15.5t-8 -28.5q-17 -31 -49.5 -64.5t-68.5 -61t-71.5 -45.5t-58.5 -18q-33 0 -56 14t-26 44
q-22 -23 -52 -40.5t-68 -17.5q-39 0 -65 21.5t-35 56.5t1 79t43 89q31 42 70 69.5t78 38.5t75 4.5t62 -32.5q8 14 14.5 22.5t14.5 13.5t18.5 7.5t25.5 5.5q16 2 30 3t22 -2.5t9 -13t-9 -27.5zM115 96q42 0 83 44t76 119q-10 14 -25 19q-17 6 -39 2.5t-44.5 -15.5
t-43.5 -31.5t-36 -44.5q-10 -17 -13.5 -34t-0.5 -30t14 -21t29 -8zM219 530q0 25 10 48t26.5 39.5t39 26.5t48.5 10q25 0 48 -10t39.5 -26.5t26.5 -39.5t10 -48q0 -26 -10 -48.5t-26.5 -39t-39.5 -26.5t-48 -10q-26 0 -48.5 10t-39 26.5t-26.5 39t-10 48.5zM283 530
q0 -25 17.5 -42.5t42.5 -17.5t42.5 17.5t17.5 42.5t-17.5 42.5t-42.5 17.5t-42.5 -17.5t-17.5 -42.5z" />
    <glyph glyph-name="ccedilla" unicode="&#xe7;" horiz-adv-x="383" 
d="M421 189q-55 -79 -127.5 -129t-147.5 -59q-9 -9 -16.5 -18t-12.5 -16.5t-6.5 -12t2.5 -4.5q14 0 27.5 -4.5t24 -12t16.5 -19.5t6 -27q0 -20 -12.5 -40t-35 -35t-54 -22t-68.5 1q-38 8 -52 30.5t-13.5 43t10 31.5t18.5 -3q12 -19 35.5 -27t47.5 -7t42.5 8.5t19.5 19.5
q1 17 -22 28.5t-57 11.5q-17 0 -24 3t-8 7.5t2.5 10t8.5 10.5l41 49q-31 10 -51.5 31t-28.5 51t-2.5 67t26.5 78q17 34 44.5 65t61 52t70.5 27.5t73 -8.5q30 -12 43.5 -33.5t13 -45t-14 -45.5t-38.5 -34q-30 -15 -49.5 -8t-25 24t5.5 39.5t42 38.5q9 14 -2.5 18t-32.5 -6
t-47 -36t-46 -72q-14 -31 -15 -53.5t6.5 -38t20.5 -24t28 -11.5q26 -5 58 3.5t64 26t61.5 42.5t51.5 55q12 15 23.5 20t18.5 1t7 -15t-11 -27z" />
    <glyph glyph-name="egrave" unicode="&#xe8;" horiz-adv-x="328" 
d="M263 206q-32 -29 -77.5 -48.5t-91.5 -26.5q5 -22 20.5 -33.5t33.5 -14.5q26 -5 58 3.5t64 26t61.5 42.5t51.5 55q12 15 23.5 20t18.5 1t7 -15t-11 -27q-30 -43 -66 -78t-75 -59.5t-80.5 -38t-81.5 -13.5q-46 0 -78 18.5t-47 50t-11.5 74.5t28.5 91q17 34 43.5 65.5
t59 52.5t68.5 28t72 -8q27 -12 41 -31t15 -42t-10.5 -47.5t-35.5 -45.5zM338 502q14 -5 15 -15.5t-6.5 -20.5t-21 -15t-26.5 2q-9 4 -36.5 10t-59 14t-60 17t-40.5 19q-17 14 -23.5 39t-4 46.5t12.5 31t26 -7.5q15 -17 47 -36t67 -36t65.5 -30t44.5 -18zM99 190
q33 6 68.5 21.5t61.5 50.5q18 24 9.5 38.5t-30 12t-50 -26.5t-51.5 -76z" />
    <glyph glyph-name="eacute" unicode="&#xe9;" horiz-adv-x="328" 
d="M263 206q-32 -29 -77.5 -48.5t-91.5 -26.5q5 -22 20.5 -33.5t33.5 -14.5q26 -5 58 3.5t64 26t61.5 42.5t51.5 55q12 15 23.5 20t18.5 1t7 -15t-11 -27q-30 -43 -66 -78t-75 -59.5t-80.5 -38t-81.5 -13.5q-46 0 -78 18.5t-47 50t-11.5 74.5t28.5 91q17 34 43.5 65.5
t59 52.5t68.5 28t72 -8q27 -12 41 -31t15 -42t-10.5 -47.5t-35.5 -45.5zM132 502q15 5 50 18t75 30t77.5 36t58.5 36q22 17 29 7.5t2.5 -31t-18.5 -46.5t-35 -39q-15 -10 -46.5 -19t-65 -17t-63 -14t-40.5 -10q-15 -7 -26.5 -2t-16 15t-0.5 20.5t19 15.5zM99 190
q33 6 68.5 21.5t61.5 50.5q18 24 9.5 38.5t-30 12t-50 -26.5t-51.5 -76z" />
    <glyph glyph-name="ecircumflex" unicode="&#xea;" horiz-adv-x="328" 
d="M263 206q-32 -29 -77.5 -48.5t-91.5 -26.5q5 -22 20.5 -33.5t33.5 -14.5q26 -5 58 3.5t64 26t61.5 42.5t51.5 55q12 15 23.5 20t18.5 1t7 -15t-11 -27q-30 -43 -66 -78t-75 -59.5t-80.5 -38t-81.5 -13.5q-46 0 -78 18.5t-47 50t-11.5 74.5t28.5 91q17 34 43.5 65.5
t59 52.5t68.5 28t72 -8q27 -12 41 -31t15 -42t-10.5 -47.5t-35.5 -45.5zM217 645q14 9 34.5 10.5t37.5 -14.5q8 -8 20.5 -23.5t25.5 -36t25 -44t20 -46.5q8 -25 5.5 -38t-11 -15.5t-22 5t-27.5 24.5q-18 20 -43.5 44.5t-49.5 44.5q-34 -16 -67.5 -40t-63.5 -53
q-12 -12 -23.5 -11.5t-17 10t-2 25.5t20.5 35q12 14 31 32.5t39.5 36.5t39 33t28.5 21zM99 190q33 6 68.5 21.5t61.5 50.5q18 24 9.5 38.5t-30 12t-50 -26.5t-51.5 -76z" />
    <glyph glyph-name="edieresis" unicode="&#xeb;" horiz-adv-x="328" 
d="M263 206q-32 -29 -77.5 -48.5t-91.5 -26.5q5 -22 20.5 -33.5t33.5 -14.5q26 -5 58 3.5t64 26t61.5 42.5t51.5 55q12 15 23.5 20t18.5 1t7 -15t-11 -27q-30 -43 -66 -78t-75 -59.5t-80.5 -38t-81.5 -13.5q-46 0 -78 18.5t-47 50t-11.5 74.5t28.5 91q17 34 43.5 65.5
t59 52.5t68.5 28t72 -8q27 -12 41 -31t15 -42t-10.5 -47.5t-35.5 -45.5zM249 530q0 28 20 48t48 20t48 -20t20 -48t-20 -48t-48 -20t-48 20t-20 48zM76 530q0 28 20 48t48 20t48 -20t20 -48t-20 -48t-48 -20t-48 20t-20 48zM99 190q33 6 68.5 21.5t61.5 50.5q18 24 9.5 38.5
t-30 12t-50 -26.5t-51.5 -76z" />
    <glyph glyph-name="igrave" unicode="&#xec;" horiz-adv-x="238" 
d="M179 335q-10 -19 -22.5 -40.5t-24.5 -43t-23.5 -41.5t-20.5 -35q-9 -16 -17 -31.5t-12.5 -28t-2 -20.5t14.5 -8q19 0 41.5 10t45.5 27t44 39t36 47q10 16 20.5 21.5t17.5 1.5t8 -15.5t-9 -28.5q-17 -31 -49 -64.5t-68.5 -61t-71.5 -45.5t-59 -18q-23 0 -42 7t-29.5 22.5
t-10 39t15.5 56.5t26.5 59.5t22 49t20 42t18.5 38.5t16.5 30t16 17t19.5 8.5t27 5.5q16 2 30 3t22.5 -2.5t9 -13t-9.5 -27.5zM284 502q14 -5 15 -15.5t-6.5 -20.5t-21 -15t-26.5 2q-9 4 -36.5 10t-59 14t-60 17t-40.5 19q-17 14 -23.5 39t-4 46.5t12.5 31t26 -7.5
q15 -17 47 -36t67 -36t65.5 -30t44.5 -18z" />
    <glyph glyph-name="iacute" unicode="&#xed;" horiz-adv-x="238" 
d="M179 335q-10 -19 -22.5 -40.5t-24.5 -43t-23.5 -41.5t-20.5 -35q-9 -16 -17 -31.5t-12.5 -28t-2 -20.5t14.5 -8q19 0 41.5 10t45.5 27t44 39t36 47q10 16 20.5 21.5t17.5 1.5t8 -15.5t-9 -28.5q-17 -31 -49 -64.5t-68.5 -61t-71.5 -45.5t-59 -18q-23 0 -42 7t-29.5 22.5
t-10 39t15.5 56.5t26.5 59.5t22 49t20 42t18.5 38.5t16.5 30t16 17t19.5 8.5t27 5.5q16 2 30 3t22.5 -2.5t9 -13t-9.5 -27.5zM99 502q15 5 50 18t75 30t77.5 36t58.5 36q22 17 29 7.5t2.5 -31t-18.5 -46.5t-35 -39q-15 -10 -46.5 -19t-65 -17t-63 -14t-40.5 -10
q-15 -7 -26.5 -2t-16 15t-0.5 20.5t19 15.5z" />
    <glyph glyph-name="icircumflex" unicode="&#xee;" horiz-adv-x="238" 
d="M179 335q-10 -19 -22.5 -40.5t-24.5 -43t-23.5 -41.5t-20.5 -35q-9 -16 -17 -31.5t-12.5 -28t-2 -20.5t14.5 -8q19 0 41.5 10t45.5 27t44 39t36 47q10 16 20.5 21.5t17.5 1.5t8 -15.5t-9 -28.5q-17 -31 -49 -64.5t-68.5 -61t-71.5 -45.5t-59 -18q-23 0 -42 7t-29.5 22.5
t-10 39t15.5 56.5t26.5 59.5t22 49t20 42t18.5 38.5t16.5 30t16 17t19.5 8.5t27 5.5q16 2 30 3t22.5 -2.5t9 -13t-9.5 -27.5zM179 645q14 9 34.5 10.5t37.5 -14.5q8 -8 20.5 -23.5t25.5 -36t25 -44t20 -46.5q8 -25 5.5 -38t-11 -15.5t-22 5t-27.5 24.5q-18 20 -43.5 44.5
t-49.5 44.5q-34 -16 -67.5 -40t-63.5 -53q-12 -12 -23.5 -11.5t-17 10t-2 25.5t20.5 35q12 14 31 32.5t39.5 36.5t39 33t28.5 21z" />
    <glyph glyph-name="idieresis" unicode="&#xef;" horiz-adv-x="238" 
d="M179 335q-10 -19 -22.5 -40.5t-24.5 -43t-23.5 -41.5t-20.5 -35q-9 -16 -17 -31.5t-12.5 -28t-2 -20.5t14.5 -8q19 0 41.5 10t45.5 27t44 39t36 47q10 16 20.5 21.5t17.5 1.5t8 -15.5t-9 -28.5q-17 -31 -49 -64.5t-68.5 -61t-71.5 -45.5t-59 -18q-23 0 -42 7t-29.5 22.5
t-10 39t15.5 56.5t26.5 59.5t22 49t20 42t18.5 38.5t16.5 30t16 17t19.5 8.5t27 5.5q16 2 30 3t22.5 -2.5t9 -13t-9.5 -27.5zM45 530q0 28 20 48t48 20t48 -20t20 -48t-20 -48t-48 -20t-48 20t-20 48zM218 530q0 28 20 48t48 20t48 -20t20 -48t-20 -48t-48 -20t-48 20
t-20 48z" />
    <glyph glyph-name="ntilde" unicode="&#xf1;" horiz-adv-x="442" 
d="M303 181q-10 -15 -20.5 -31.5t-16 -30.5t-4.5 -23t13 -9q19 0 41.5 10t45.5 27t44 39t36 47q10 16 20.5 21.5t17.5 1.5t8 -15.5t-9 -28.5q-17 -31 -49 -64.5t-68 -61t-71.5 -45.5t-58.5 -18q-24 0 -44 7t-31.5 22.5t-12 39t14.5 56.5q12 25 31 56.5t33 58.5t16.5 45
t-18.5 17q-17 -1 -44 -28t-56.5 -67t-56 -85t-42.5 -82q-10 -22 -16.5 -31t-16.5 -9h-25q-24 0 -33.5 8t-1.5 31t15 43t17 43q14 33 26 59.5t22.5 49t20.5 42t19 38.5t18.5 30t20.5 17.5t23.5 9t29.5 4.5q26 2 27.5 -11t-13.5 -45q29 27 59 44t61 17q38 0 58 -15t23 -41.5
t-10.5 -63t-42.5 -79.5zM158 549q51 31 94.5 41t67.5 -13q12 -11 23 -18.5t23 -10t26 2t32 17.5q17 12 31 12.5t19.5 -7t0.5 -20.5t-26 -28q-48 -34 -80.5 -47.5t-56 -14.5t-39.5 8t-29 20q-23 18 -37 21.5t-39 -11.5q-18 -11 -31.5 -10.5t-17 8.5t4.5 21.5t34 28.5z" />
    <glyph glyph-name="ograve" unicode="&#xf2;" horiz-adv-x="430" 
d="M222 378q36 0 61.5 -14.5t39 -39t15 -58t-10.5 -71.5q10 -6 24 -10t28.5 -3t28 7.5t22.5 20.5q10 16 22 21t19.5 1t8 -15.5t-11.5 -27.5q-18 -25 -39.5 -38.5t-43.5 -18.5t-43 -2.5t-38 11.5q-17 -31 -40 -57t-50 -45t-57.5 -29.5t-61.5 -10.5q-37 0 -63 15t-39.5 40.5
t-14 60.5t12.5 74t36.5 73.5t54.5 60t66.5 40.5t73.5 15zM149 104q35 0 64.5 22.5t46.5 57.5q-14 18 -19.5 35.5t-6.5 33.5t2.5 29.5t7.5 24.5q-5 2 -11.5 3t-13.5 1q-42 0 -74 -30t-47 -73q-14 -43 -2 -73.5t53 -30.5zM369 502q14 -5 15 -15.5t-6.5 -20.5t-21 -15t-26.5 2
q-9 4 -36.5 10t-59 14t-60 17t-40.5 19q-17 14 -23.5 39t-4 46.5t12.5 31t26 -7.5q15 -17 47 -36t67 -36t65.5 -30t44.5 -18z" />
    <glyph glyph-name="oacute" unicode="&#xf3;" horiz-adv-x="430" 
d="M222 378q36 0 61.5 -14.5t39 -39t15 -58t-10.5 -71.5q10 -6 24 -10t28.5 -3t28 7.5t22.5 20.5q10 16 22 21t19.5 1t8 -15.5t-11.5 -27.5q-18 -25 -39.5 -38.5t-43.5 -18.5t-43 -2.5t-38 11.5q-17 -31 -40 -57t-50 -45t-57.5 -29.5t-61.5 -10.5q-37 0 -63 15t-39.5 40.5
t-14 60.5t12.5 74t36.5 73.5t54.5 60t66.5 40.5t73.5 15zM149 104q35 0 64.5 22.5t46.5 57.5q-14 18 -19.5 35.5t-6.5 33.5t2.5 29.5t7.5 24.5q-5 2 -11.5 3t-13.5 1q-42 0 -74 -30t-47 -73q-14 -43 -2 -73.5t53 -30.5zM133 502q15 5 50 18t75 30t77.5 36t58.5 36
q22 17 29 7.5t2.5 -31t-18.5 -46.5t-35 -39q-15 -10 -46.5 -19t-65 -17t-63 -14t-40.5 -10q-15 -7 -26.5 -2t-16 15t-0.5 20.5t19 15.5z" />
    <glyph glyph-name="ocircumflex" unicode="&#xf4;" horiz-adv-x="430" 
d="M222 378q36 0 61.5 -14.5t39 -39t15 -58t-10.5 -71.5q10 -6 24 -10t28.5 -3t28 7.5t22.5 20.5q10 16 22 21t19.5 1t8 -15.5t-11.5 -27.5q-18 -25 -39.5 -38.5t-43.5 -18.5t-43 -2.5t-38 11.5q-17 -31 -40 -57t-50 -45t-57.5 -29.5t-61.5 -10.5q-37 0 -63 15t-39.5 40.5
t-14 60.5t12.5 74t36.5 73.5t54.5 60t66.5 40.5t73.5 15zM149 104q35 0 64.5 22.5t46.5 57.5q-14 18 -19.5 35.5t-6.5 33.5t2.5 29.5t7.5 24.5q-5 2 -11.5 3t-13.5 1q-42 0 -74 -30t-47 -73q-14 -43 -2 -73.5t53 -30.5zM235 645q14 9 34.5 10.5t37.5 -14.5q8 -8 20.5 -23.5
t25.5 -36t25 -44t20 -46.5q8 -25 5.5 -38t-11 -15.5t-22 5t-27.5 24.5q-18 20 -43.5 44.5t-49.5 44.5q-34 -16 -67.5 -40t-63.5 -53q-12 -12 -23.5 -11.5t-17 10t-2 25.5t20.5 35q12 14 31 32.5t39.5 36.5t39 33t28.5 21z" />
    <glyph glyph-name="otilde" unicode="&#xf5;" horiz-adv-x="430" 
d="M222 378q36 0 61.5 -14.5t39 -39t15 -58t-10.5 -71.5q10 -6 24 -10t28.5 -3t28 7.5t22.5 20.5q10 16 22 21t19.5 1t8 -15.5t-11.5 -27.5q-18 -25 -39.5 -38.5t-43.5 -18.5t-43 -2.5t-38 11.5q-17 -31 -40 -57t-50 -45t-57.5 -29.5t-61.5 -10.5q-37 0 -63 15t-39.5 40.5
t-14 60.5t12.5 74t36.5 73.5t54.5 60t66.5 40.5t73.5 15zM149 104q35 0 64.5 22.5t46.5 57.5q-14 18 -19.5 35.5t-6.5 33.5t2.5 29.5t7.5 24.5q-5 2 -11.5 3t-13.5 1q-42 0 -74 -30t-47 -73q-14 -43 -2 -73.5t53 -30.5zM137 549q51 31 94.5 41t67.5 -13q12 -11 23 -18.5
t23 -10t26 2t32 17.5q17 12 31 12.5t19.5 -7t0.5 -20.5t-26 -28q-48 -34 -80.5 -47.5t-56 -14.5t-39.5 8t-29 20q-23 18 -37 21.5t-39 -11.5q-18 -11 -31.5 -10.5t-17 8.5t4.5 21.5t34 28.5z" />
    <glyph glyph-name="odieresis" unicode="&#xf6;" horiz-adv-x="430" 
d="M222 378q36 0 61.5 -14.5t39 -39t15 -58t-10.5 -71.5q10 -6 24 -10t28.5 -3t28 7.5t22.5 20.5q10 16 22 21t19.5 1t8 -15.5t-11.5 -27.5q-18 -25 -39.5 -38.5t-43.5 -18.5t-43 -2.5t-38 11.5q-17 -31 -40 -57t-50 -45t-57.5 -29.5t-61.5 -10.5q-37 0 -63 15t-39.5 40.5
t-14 60.5t12.5 74t36.5 73.5t54.5 60t66.5 40.5t73.5 15zM149 104q35 0 64.5 22.5t46.5 57.5q-14 18 -19.5 35.5t-6.5 33.5t2.5 29.5t7.5 24.5q-5 2 -11.5 3t-13.5 1q-42 0 -74 -30t-47 -73q-14 -43 -2 -73.5t53 -30.5zM102 530q0 28 20 48t48 20t48 -20t20 -48t-20 -48
t-48 -20t-48 20t-20 48zM275 530q0 28 20 48t48 20t48 -20t20 -48t-20 -48t-48 -20t-48 20t-20 48z" />
    <glyph glyph-name="divide" unicode="&#xf7;" horiz-adv-x="366" 
d="M80 75q0 22 15.5 37.5t36.5 15.5q22 0 37.5 -15.5t15.5 -37.5q0 -21 -15.5 -36.5t-37.5 -15.5q-21 0 -36.5 15.5t-15.5 36.5zM190 299q0 22 15.5 37.5t36.5 15.5q22 0 37.5 -15.5t15.5 -37.5q0 -21 -15.5 -36.5t-37.5 -15.5q-21 0 -36.5 15.5t-15.5 36.5zM318 224
q13 -1 16.5 -10.5t0 -20t-13.5 -19.5t-24 -10q-17 -1 -55 -1.5t-78.5 -1t-74.5 -1t-44 -1.5q-12 -1 -14.5 7t2 18.5t14 20t21.5 12.5q8 2 27 3.5t43 2.5t51.5 1.5t52.5 0.5t45 -0.5t31 -0.5z" />
    <glyph glyph-name="oslash" unicode="&#xf8;" horiz-adv-x="430" 
d="M222 378q38 0 66 -17q10 11 18.5 20.5t16.5 17.5q24 25 44.5 30t30.5 -4t5.5 -28.5t-31.5 -42.5q-17 -14 -44 -41q20 -50 -1 -118q10 -6 24 -10t28.5 -3t28 7.5t22.5 20.5q10 16 22 21t19.5 1t8 -15.5t-11.5 -27.5q-18 -25 -39.5 -38.5t-43.5 -18.5t-43 -2.5t-38 11.5
q-17 -31 -40 -57t-50 -45t-57.5 -29.5t-61.5 -10.5q-37 0 -66 16q-21 -20 -38.5 -35t-29.5 -25q-17 -12 -28.5 -15t-16 2t-1.5 16.5t16 26.5q11 12 26.5 29.5t35.5 39.5q-28 53 -2 135q13 39 36.5 73.5t54.5 60t66.5 40.5t73.5 15zM90 156q37 39 74.5 78t72.5 75
q-10 2 -18 2q-42 0 -74 -30t-47 -73q-9 -30 -8 -52zM149 104q35 0 64.5 22.5t46.5 57.5q-15 18 -22 40q-28 -29 -57 -58l-58 -58q9 -4 26 -4z" />
    <glyph glyph-name="ugrave" unicode="&#xf9;" horiz-adv-x="443" 
d="M192 335q-53 -74 -80 -121t-36 -73.5t-3.5 -36.5t17.5 -10q19 0 34.5 11t29.5 29t27.5 41.5t28.5 48.5q12 26 22 47.5t21 42.5q9 19 16.5 30t16 17t19.5 8.5t27 5.5q16 2 30 3t22 -2.5t9 -13t-9 -27.5q-10 -19 -22.5 -40.5t-24.5 -43t-23.5 -41.5t-20.5 -35
q-9 -16 -17 -31.5t-12.5 -28t-2 -20.5t14.5 -8q19 0 41.5 10t45.5 27t44 39t36 47q10 16 20.5 21.5t17.5 1.5t8 -15.5t-9 -28.5q-17 -31 -49 -64.5t-68.5 -61t-71.5 -45.5t-59 -18q-35 0 -59.5 16.5t-22.5 52.5q-30 -35 -62 -52t-63 -17q-47 0 -60.5 34t2.5 91
q16 56 42 104.5t52 84.5q12 17 21.5 28t19 17.5t21 9.5t28.5 6q16 2 29 2.5t19.5 -3.5t5.5 -13t-13 -26zM383 502q14 -5 15 -15.5t-6.5 -20.5t-21 -15t-26.5 2q-9 4 -36.5 10t-59 14t-60 17t-40.5 19q-17 14 -23.5 39t-4 46.5t12.5 31t26 -7.5q15 -17 47 -36t67 -36
t65.5 -30t44.5 -18z" />
    <glyph glyph-name="uacute" unicode="&#xfa;" horiz-adv-x="443" 
d="M192 335q-53 -74 -80 -121t-36 -73.5t-3.5 -36.5t17.5 -10q19 0 34.5 11t29.5 29t27.5 41.5t28.5 48.5q12 26 22 47.5t21 42.5q9 19 16.5 30t16 17t19.5 8.5t27 5.5q16 2 30 3t22 -2.5t9 -13t-9 -27.5q-10 -19 -22.5 -40.5t-24.5 -43t-23.5 -41.5t-20.5 -35
q-9 -16 -17 -31.5t-12.5 -28t-2 -20.5t14.5 -8q19 0 41.5 10t45.5 27t44 39t36 47q10 16 20.5 21.5t17.5 1.5t8 -15.5t-9 -28.5q-17 -31 -49 -64.5t-68.5 -61t-71.5 -45.5t-59 -18q-35 0 -59.5 16.5t-22.5 52.5q-30 -35 -62 -52t-63 -17q-47 0 -60.5 34t2.5 91
q16 56 42 104.5t52 84.5q12 17 21.5 28t19 17.5t21 9.5t28.5 6q16 2 29 2.5t19.5 -3.5t5.5 -13t-13 -26zM166 494q15 5 50 18t75 30t77.5 36t58.5 36q22 17 29 7.5t2.5 -31t-18.5 -46.5t-35 -39q-15 -10 -46.5 -19t-65 -17t-63 -14t-40.5 -10q-15 -7 -26.5 -2t-16 15
t-0.5 20.5t19 15.5z" />
    <glyph glyph-name="ucircumflex" unicode="&#xfb;" horiz-adv-x="443" 
d="M192 335q-53 -74 -80 -121t-36 -73.5t-3.5 -36.5t17.5 -10q19 0 34.5 11t29.5 29t27.5 41.5t28.5 48.5q12 26 22 47.5t21 42.5q9 19 16.5 30t16 17t19.5 8.5t27 5.5q16 2 30 3t22 -2.5t9 -13t-9 -27.5q-10 -19 -22.5 -40.5t-24.5 -43t-23.5 -41.5t-20.5 -35
q-9 -16 -17 -31.5t-12.5 -28t-2 -20.5t14.5 -8q19 0 41.5 10t45.5 27t44 39t36 47q10 16 20.5 21.5t17.5 1.5t8 -15.5t-9 -28.5q-17 -31 -49 -64.5t-68.5 -61t-71.5 -45.5t-59 -18q-35 0 -59.5 16.5t-22.5 52.5q-30 -35 -62 -52t-63 -17q-47 0 -60.5 34t2.5 91
q16 56 42 104.5t52 84.5q12 17 21.5 28t19 17.5t21 9.5t28.5 6q16 2 29 2.5t19.5 -3.5t5.5 -13t-13 -26zM277 633q14 9 34.5 10.5t37.5 -14.5q8 -8 20.5 -23.5t25.5 -36t25 -44t20 -46.5q8 -25 5.5 -38t-11 -15.5t-22 5t-27.5 24.5q-18 20 -43.5 44.5t-49.5 44.5
q-34 -16 -67.5 -40t-63.5 -53q-12 -12 -23.5 -11.5t-17 10t-2 25.5t20.5 35q12 14 31 32.5t39.5 36.5t39 33t28.5 21z" />
    <glyph glyph-name="udieresis" unicode="&#xfc;" horiz-adv-x="443" 
d="M192 335q-53 -74 -80 -121t-36 -73.5t-3.5 -36.5t17.5 -10q19 0 34.5 11t29.5 29t27.5 41.5t28.5 48.5q12 26 22 47.5t21 42.5q9 19 16.5 30t16 17t19.5 8.5t27 5.5q16 2 30 3t22 -2.5t9 -13t-9 -27.5q-10 -19 -22.5 -40.5t-24.5 -43t-23.5 -41.5t-20.5 -35
q-9 -16 -17 -31.5t-12.5 -28t-2 -20.5t14.5 -8q19 0 41.5 10t45.5 27t44 39t36 47q10 16 20.5 21.5t17.5 1.5t8 -15.5t-9 -28.5q-17 -31 -49 -64.5t-68.5 -61t-71.5 -45.5t-59 -18q-35 0 -59.5 16.5t-22.5 52.5q-30 -35 -62 -52t-63 -17q-47 0 -60.5 34t2.5 91
q16 56 42 104.5t52 84.5q12 17 21.5 28t19 17.5t21 9.5t28.5 6q16 2 29 2.5t19.5 -3.5t5.5 -13t-13 -26zM326 521q0 28 20 48t48 20t48 -20t20 -48t-20 -48t-48 -20t-48 20t-20 48zM153 521q0 28 20 48t48 20t48 -20t20 -48t-20 -48t-48 -20t-48 20t-20 48z" />
    <glyph glyph-name="yacute" unicode="&#xfd;" horiz-adv-x="431" 
d="M191 335q-53 -74 -80 -121t-36 -73.5t-3.5 -36.5t17.5 -10q19 0 34.5 11t30 29t28 41.5t27.5 48.5q12 26 22 47.5t21 42.5q9 19 16.5 30t16 17t19 8.5t27.5 5.5q16 2 30 3t22 -2.5t9 -13t-9 -27.5q-10 -19 -22 -40.5l-24 -43t-24 -41.5l-21 -35q-16 -24 -29.5 -51.5
t-27.5 -56.5q54 21 103.5 55t92.5 88q10 13 21.5 18.5t19 2.5t8 -13.5t-11.5 -28.5q-25 -39 -56 -68.5t-65.5 -52t-71.5 -39.5t-74 -29q-29 -51 -65.5 -93.5t-92.5 -62.5q-48 -17 -85.5 -15t-64 16t-40 37.5t-12.5 49.5t17.5 51t50.5 44q24 12 51 21q-6 30 6 77
q17 56 42.5 104.5t51.5 84.5q12 17 21.5 28t19 17.5t21 9.5t28.5 6q16 2 29 2.5t20 -3.5t5.5 -13t-13.5 -26zM-43 -91q28 0 64.5 22t76.5 76q-30 6 -60.5 6t-57.5 -10q-32 -11 -48 -26.5t-18 -30.5t9 -26t34 -11zM162 502q15 5 50 18t75 30t77.5 36t58.5 36q22 17 29 7.5
t2.5 -31t-18.5 -46.5t-35 -39q-15 -10 -46.5 -19t-65 -17t-63 -14t-40.5 -10q-15 -7 -26.5 -2t-16 15t-0.5 20.5t19 15.5z" />
    <glyph glyph-name="ydieresis" unicode="&#xff;" horiz-adv-x="431" 
d="M191 335q-53 -74 -80 -121t-36 -73.5t-3.5 -36.5t17.5 -10q19 0 34.5 11t30 29t28 41.5t27.5 48.5q12 26 22 47.5t21 42.5q9 19 16.5 30t16 17t19 8.5t27.5 5.5q16 2 30 3t22 -2.5t9 -13t-9 -27.5q-10 -19 -22 -40.5l-24 -43t-24 -41.5l-21 -35q-16 -24 -29.5 -51.5
t-27.5 -56.5q54 21 103.5 55t92.5 88q10 13 21.5 18.5t19 2.5t8 -13.5t-11.5 -28.5q-25 -39 -56 -68.5t-65.5 -52t-71.5 -39.5t-74 -29q-29 -51 -65.5 -93.5t-92.5 -62.5q-48 -17 -85.5 -15t-64 16t-40 37.5t-12.5 49.5t17.5 51t50.5 44q24 12 51 21q-6 30 6 77
q17 56 42.5 104.5t51.5 84.5q12 17 21.5 28t19 17.5t21 9.5t28.5 6q16 2 29 2.5t20 -3.5t5.5 -13t-13.5 -26zM-43 -91q28 0 64.5 22t76.5 76q-30 6 -60.5 6t-57.5 -10q-32 -11 -48 -26.5t-18 -30.5t9 -26t34 -11zM132 521q0 28 20 48t48 20t48 -20t20 -48t-20 -48t-48 -20
t-48 20t-20 48zM305 521q0 28 20 48t48 20t48 -20t20 -48t-20 -48t-48 -20t-48 20t-20 48z" />
    <glyph glyph-name="uni00AD" unicode="&#xad;" horiz-adv-x="348" 
d="M278 247q16 -1 20.5 -12t0 -24.5t-17 -24.5t-28.5 -12q-21 -2 -46 -2.5t-49 -1t-44.5 -1t-32.5 -1.5q-14 -1 -17 8.5t2.5 22.5t17 24.5t25.5 15.5q15 4 36.5 6t44.5 3t46 0.5t42 -1.5z" />
    <glyph glyph-name="abreve" unicode="&#x103;" horiz-adv-x="490" 
d="M432 335q-10 -19 -22.5 -40.5l-25 -43t-24 -41.5t-20.5 -35q-9 -16 -17 -31.5t-12 -28t-2 -20.5t15 -8q18 0 41 10t46 27t43.5 39t35.5 47q10 16 20.5 21.5t17.5 1.5t8 -15.5t-8 -28.5q-17 -31 -49.5 -64.5t-68.5 -61t-71.5 -45.5t-58.5 -18q-33 0 -56 14t-26 44
q-22 -23 -52 -40.5t-68 -17.5q-39 0 -65 21.5t-35 56.5t1 79t43 89q31 42 70 69.5t78 38.5t75 4.5t62 -32.5q8 14 14.5 22.5t14.5 13.5t18.5 7.5t25.5 5.5q16 2 30 3t22 -2.5t9 -13t-9 -27.5zM115 96q42 0 83 44t76 119q-10 14 -25 19q-17 6 -39 2.5t-44.5 -15.5
t-43.5 -31.5t-36 -44.5q-10 -17 -13.5 -34t-0.5 -30t14 -21t29 -8zM208 582q1 19 14 29.5t28 12t27 -5.5t11 -22q-1 -37 19 -61t57 -24q12 0 24.5 4t23 11.5t17.5 17t8 20.5q1 15 13 21t26 4.5t25 -11.5t10 -28q-2 -22 -14.5 -41t-33 -32.5t-46.5 -20.5t-54 -5q-30 2 -58 12
t-50 27t-35 40t-12 52z" />
    <glyph glyph-name="Scircumflex" unicode="&#x15c;" horiz-adv-x="672" 
d="M231 184q-31 -6 -50.5 -28t-26.5 -50t-2 -59t22 -55.5t45.5 -38.5t68.5 -8q44 6 79 31t49 58q10 24 11.5 50.5t-6 53t-24.5 52t-45 46.5q-26 19 -45 43.5t-30 52t-13.5 57t5.5 58.5q-32 24 -53 59q-21 32 -20 65t13.5 61t32.5 49t38 29t29.5 1t6.5 -35q-5 -32 0.5 -60.5
t19.5 -52.5q48 47 113 76t137 27q55 -1 90.5 -22.5t51 -52.5t11 -67.5t-29 -68t-69.5 -54t-110 -24.5q-70 -3 -141 14q11 -15 27 -31t36 -30q42 -33 65.5 -69.5t33 -74.5t5.5 -76t-17 -73q-13 -33 -38 -63.5t-58 -53.5t-73 -37t-82 -15q-71 -2 -130.5 26t-96 72t-45 99
t22.5 107q23 39 51.5 56t56.5 20t52 -5.5t38 -20t14 -23t-20 -15.5zM629 893q14 9 34.5 10.5t37.5 -14.5q8 -8 20.5 -23.5t25.5 -36t25 -44t20 -46.5q8 -25 5.5 -38t-11 -15.5t-22 5t-27.5 24.5q-18 20 -43.5 44.5t-49.5 44.5q-34 -16 -67.5 -40t-63.5 -53
q-12 -12 -23.5 -11.5t-17 10t-2 25.5t20.5 35q12 14 31 32.5t39.5 36.5t39 33t28.5 21zM406 491q37 -23 79.5 -33.5t81.5 -4.5q42 7 63.5 29t23 45.5t-16.5 42t-54 18.5q-21 0 -45 -6t-46.5 -17t-42 -25.5t-32.5 -32.5z" />
    <glyph glyph-name="scircumflex" unicode="&#x15d;" horiz-adv-x="372" 
d="M211 377q23 0 36.5 -1.5t20 -5t8.5 -9t2 -12.5q0 -15 -7 -19t-15 -7t-14 -11t-4 -31q5 -50 0 -95.5t-21 -83.5q21 4 43 14t43 24t39 32t30 38q10 16 20.5 21.5t17.5 1.5t8 -15.5t-9 -28.5q-21 -38 -51 -65.5t-63.5 -47t-67.5 -30.5t-63 -15q-42 -31 -103 -31
q-37 0 -62.5 17.5t-35.5 46.5t-2 67t39 79q33 44 54.5 73.5t36.5 48t26.5 28t24 13.5t28.5 4h41zM223 645q14 9 34.5 10.5t37.5 -14.5q8 -8 20.5 -23.5t25.5 -36t25 -44t20 -46.5q8 -25 5.5 -38t-11 -15.5t-22 5t-27.5 24.5q-18 20 -43.5 44.5t-49.5 44.5q-34 -16 -67.5 -40
t-63.5 -53q-12 -12 -23.5 -11.5t-17 10t-2 25.5t20.5 35q12 14 31 32.5t39.5 36.5t39 33t28.5 21zM96 97q19 19 25.5 47.5t7.5 58.5t0.5 57t5.5 44q-13 -15 -27 -32q-12 -14 -26 -32.5t-27 -35.5q-29 -39 -31 -66t9 -40.5t30 -14t33 13.5z" />
    <glyph glyph-name="Iogonek" unicode="&#x12e;" horiz-adv-x="611" 
d="M238 -96q16 11 34 14t29.5 0t13 -11.5t-14.5 -18.5q-11 -6 -20 -11.5t-18 -12.5h-1q-24 -17 -42 -34t-27 -34q-6 -11 -12 -26.5t-4 -30t14.5 -24t42.5 -8.5q19 0 16.5 -13t-20 -26t-46 -20t-60.5 4q-27 9 -35.5 28.5t-3.5 43.5t20.5 50t37.5 49l12.5 12.5t14.5 13.5
q-44 3 -80 22.5t-56.5 52t-22 75.5t25.5 93q13 24 29 37t29 15.5t19 -5t-1 -25.5q-10 -22 -6.5 -45.5t17 -42t35 -30t47 -10.5t52.5 17t52 52q19 27 40 66t43.5 83.5t46 92.5t47.5 95q-36 -10 -73 -10.5t-75 10.5q-31 9 -49.5 30t-27 45.5t-8.5 48.5t6 40.5t17 21t24 -10.5
q18 -21 46 -32.5t63 -15t75 0t82 13.5q102 160 173 118q13 -8 17 -23t-1 -34.5t-20.5 -41.5t-42.5 -44q-15 -12 -30.5 -24t-32.5 -23q-32 -58 -63 -127.5t-61.5 -138.5t-60.5 -130.5t-60 -103.5q-27 -37 -58.5 -60.5t-63.5 -36.5h-1q-47 -18 -92 -15q14 14 31.5 27.5
t37.5 27.5z" />
    <glyph glyph-name="uni1E41" unicode="&#x1e41;" horiz-adv-x="634" 
d="M634 210q10 16 20.5 21.5t17.5 1.5t8 -15.5t-8 -28.5q-17 -31 -49.5 -64.5t-68.5 -61t-71.5 -45.5t-58.5 -18q-24 0 -43.5 7t-31 22.5t-12.5 39t14 56.5q12 25 31 56.5t33 58.5t16.5 45t-18.5 17q-17 -1 -42 -28t-52 -67t-51.5 -85t-40.5 -82q-10 -22 -73 -22
q-15 0 -20.5 8t-3 22t10 34t18.5 43q12 25 31 56.5t33 58.5t16.5 45t-18.5 17q-17 -1 -44 -28t-56.5 -67t-56 -85t-42.5 -82q-9 -22 -15.5 -31t-17.5 -9h-25q-24 0 -33 8t-2 31q8 23 15 43t18 43q14 33 25.5 59.5t22 49t20.5 42t19 38.5t18.5 30t20.5 17.5t23.5 9t29.5 4.5
q26 2 27.5 -11t-13.5 -45q29 27 59 44t61 17q80 0 72 -61q29 27 59 44t61 17q38 0 54.5 -18t16.5 -47.5t-15 -66t-39 -73.5q-10 -15 -18.5 -30.5t-12 -28.5t-1 -21t15.5 -8q19 0 41.5 10t45.5 27t43.5 39t35.5 47zM312 526q0 28 20 48t48 20t48 -20t20 -48t-20 -48t-48 -20
t-48 20t-20 48z" />
    <glyph glyph-name="zero" unicode="0" 
d="M8 441q38 20 74.5 37t78.5 29q3 0 5 11t4.5 24.5t4.5 26t4 17.5q6 9 15.5 16t20.5 12.5t22.5 10t20.5 8.5q48 20 97 34t100 27q51 12 102 21t103 14q18 2 43.5 4.5t51.5 2t49.5 -6.5t38.5 -21q2 -3 -0.5 -16t-3.5 -18l-3 -53q0 -2 2 -2q43 -12 83 -31.5t67 -56.5v-1
q-9 2 -20.5 -2t-22.5 -11t-20.5 -15t-14.5 -14q16 -9 26.5 -26t15 -36.5t4 -39.5t-6.5 -36q-9 23 -27 36t-40.5 19t-46.5 8t-45 3q-24 2 -51 1t-50 7q-9 3 -12.5 14t-4 23.5t1.5 25t3 20.5q-100 -8 -197.5 -30.5t-190.5 -55.5q-4 -1 -4 -3q1 -6 4 -19t5.5 -27t3 -26
t-3.5 -16q-12 -10 -31 -12t-35 -4q-21 -3 -43 -6t-43 -7q-38 -8 -70 -21q-8 -4 -15.5 -7.5t-15.5 -8.5q-4 -4 -9.5 -10.5t-9.5 -8.5q6 18 13.5 36t14.5 35q1 3 7 13.5t12 22t10 21.5t3 12q-14 19 -32 36.5t-42 19.5zM819 508q3 30 3 61t2 60q1 16 2 31.5t3 30.5q1 7 -3.5 12
t-11 8t-14.5 4t-14 2q-65 10 -134 0.5t-133 -22.5q-70 -14 -138.5 -33t-134.5 -48l-25 -12.5t-24 -15.5q-11 -10 -13.5 -27t-4.5 -30q-5 -36 -5 -72v-72q5 0 12.5 3.5t15.5 8t15.5 9.5t12.5 7q20 9 41 16t41 15q84 25 171 45q42 9 84 17t85 12q40 4 84.5 5.5t82.5 -15.5z
M722 577q-5 -5 -8.5 -9t-10.5 -6q-5 -2 -8.5 0t-6.5 5q-3 -2 -7 -4.5t-9 -3.5q-17 -3 -23 11v1q-5 -5 -9.5 -9t-12.5 -6q-7 -4 -14 6q-3 6 -1.5 12t4.5 12t5 12.5t1 12.5q-9 -4 -13.5 -10.5t-6.5 -14t-3 -15.5t-4 -15q-4 -8 -14 -5q-4 1 -4 6q0 2 0.5 4.5t0.5 4.5
q-8 -2 -10.5 -2t-8.5 -6q-5 -6 -13 -10.5t-17 -4.5q-6 1 -9 4.5t-6 8.5q-9 -10 -21.5 -18.5t-26.5 -6.5q-7 1 -14 10q-6 -7 -12.5 -12.5t-14.5 -7.5q-8 -3 -12.5 0t-5.5 11q-2 14 4.5 24t11.5 21q1 2 -1.5 2.5t-3.5 -1.5q-4 -11 -9.5 -24t-14 -24.5t-19.5 -19t-26 -6.5
q-17 1 -19.5 12.5t3.5 25t17 25t23 12.5q7 0 9 -6q6 -6 1 -15q-3 -12 -14.5 -21.5t-23.5 -12.5q1 -6 5.5 -7t9.5 1.5t9.5 6t6.5 5.5q13 11 19.5 25t11.5 28q1 1 -1 5t-4 8.5t-4 9.5t-1 8q2 6 7.5 10t11.5 3q7 0 8 -7q3 -6 2 -12.5t-2 -13.5q11 2 16 0.5t-2 -15.5l-10 -18
t-6 -20q0 -5 4 -5q12 -1 19.5 10t13.5 25.5t12 28t14 18.5q4 1 8 -1q3 -4 1 -7q-2 -7 -5 -11.5t-1 -12.5q3 -7 7 -14t3 -15h1q6 6 10 15l8 18t9.5 16.5t14.5 11.5q20 7 27 -11q5 -8 3 -14t-1 -15q6 1 8 5q8 7 9.5 19t4.5 22q2 3 6 3.5t7 -0.5q5 -1 4 -7v-1q6 6 13 9
q12 6 16 -7q2 -6 0.5 -12t-4.5 -12t-5.5 -12t-1.5 -13q8 6 13 14t9.5 16.5t10 16t13.5 12.5q12 7 28 0q2 4 9.5 4.5t5.5 -7.5q-2 -11 -8 -21.5t-6 -21.5q0 -3 1.5 -3.5t3.5 1.5q11 11 16.5 26t10.5 30.5t13 29t23 22.5q8 4 13 -4q7 -13 2 -26.5t-13 -22.5q-4 -5 -10.5 -11
t-12.5 -13t-10.5 -14t-2.5 -14q1 -9 12 -7q8 3 11.5 10t8.5 14q2 2 7 1q4 0 4 -5l-2 -7q-10 -21 -29 -29q-7 -4 -13 -1.5t-10 9.5q-3 1 -3 6zM965 539q-27 26 -60.5 41.5t-68.5 25.5q-2 -31 -2.5 -61.5t-2.5 -61.5l-1 1v-3q-15 -1 -35 -2t-40 -5t-37.5 -12t-26.5 -21
q-4 -3 2 -4q15 -6 31.5 -8t33.5 -2t34 0.5t32 -0.5q34 -2 63 -10q16 -5 28 -13t26 -15q0 33 -11.5 57.5t-43.5 36.5q18 17 37 32.5t42 23.5zM162 494q-32 -8 -63 -20.5t-61 -28.5q19 -11 33.5 -26t25.5 -33q1 -2 -2 -9t-7.5 -15t-9 -15.5t-5.5 -10.5q-6 -12 -11.5 -25
t-10.5 -26q27 14 56.5 20.5t59 10.5t59 8.5t58.5 13.5q-9 10 -25 14t-34 4.5t-35.5 -1.5t-29.5 -3v71t2 71zM417 185q0 5 -5 12h31q15 -7 27.5 -28t19.5 -36q0 14 1 33t-7 31h41q-7 -6 -6.5 -13.5t0.5 -15.5v-134q0 -8 -0.5 -17t6.5 -15h-113q6 7 7.5 18.5t1 24.5t-2 25
t-1.5 21v94zM360 197q21 0 30 -11t12 -27.5t2 -35t-1 -32.5v-43q0 -26 -14.5 -36.5t-38.5 -9.5q-21 0 -30.5 11t-12.5 27.5t-2 35t1 32.5q0 11 -0.5 21t0.5 21q0 27 14.5 37t39.5 10zM301 612q7 0 11 -1q9 -1 15 -8t7 -17q2 -12 -1.5 -23.5t-10.5 -22t-16.5 -19t-19.5 -14.5
q-10 -7 -15.5 -17.5t-10 -21t-11 -20.5t-18.5 -16q-12 -8 -29 -5q-16 5 -14 21q0 11 8.5 20t19.5 11q3 1 8 -1.5t3 -7.5q-8 -4 -13 -4q-6 -2 -8.5 -9t1.5 -12q2 -3 9 -5q10 -1 17.5 6.5t12 18t7.5 22t5 19.5q-15 -15 -33 -19q-6 -1 -12.5 0t-11.5 6q-9 5 -9 20t7 28
q15 33 47 53q7 4 14 7.5t15 5.5q5 2 11.5 6.5t11.5 5.5q6 0 3 -7zM416 327q-2 8 -5.5 21t-5 26t1 25t11.5 18q6 5 17.5 5.5t15.5 -9.5q3 -9 -1 -11.5t-10 -2t-10 4t1 8.5q-9 -5 -9.5 -16t3.5 -23.5t9.5 -24.5t7.5 -19q7 -20 9.5 -47.5t-11.5 -45.5q-6 -8 -18.5 -10.5
t-27 -2.5t-28.5 1.5t-23 1.5q6 8 8 20t1.5 25.5t-2 27t-1.5 22.5v68q0 8 0.5 16t-6.5 16h41q-7 -7 -6 -17.5t1 -20.5v-76q0 -10 -1 -27.5t5 -25.5q4 -6 10 -6.5t11.5 2.5t9.5 8t5 10q4 14 1.5 29.5t-4.5 29.5zM644 352q-2 -5 -8 -16.5t-11 -24.5t-6.5 -24t5.5 -15q-3 6 3 7
t12 -1.5t7.5 -7.5t-9.5 -10q-14 -5 -19.5 5t-4.5 20q1 9 4 18t4.5 16.5t-2 12t-16.5 3.5v-85q10 0 23.5 -1.5t23.5 5.5q-3 -7 -4.5 -13.5t-3.5 -14.5h-75q6 6 6 13.5v15.5v134v16.5t-6 15.5h69q13 -14 13.5 -32.5t-5.5 -36.5zM547 416q0 -8 4 -16t7 -16.5t2.5 -16.5
t-8.5 -15q-8 -5 -18.5 -4.5t-11.5 11.5q0 6 4 9.5t8.5 3.5t8 -3t2.5 -8q7 1 7 6.5t-4 11.5t-10 11.5t-10 6.5q-8 2 -18 0t-13 -10q-7 -14 -2.5 -23.5t13.5 -17.5t20.5 -15t17.5 -15q8 -11 12 -25.5t2 -28.5t-11 -24t-26 -12q-14 -1 -29 -0.5t-29 0.5q4 2 2.5 10t-4.5 18.5
t-4.5 21t3.5 16.5q3 3 8 5t10 2t9 -2.5t5 -8.5q0 -6 -3.5 -8.5t-8 -2.5t-8 2.5t-3.5 7.5q-7 -2 -7 -8t4 -12t9.5 -10.5t9.5 -5.5q8 -2 19 -1.5t16 5.5q12 12 9.5 22.5t-11 20t-19.5 17t-17 13.5q-10 9 -16 23t-6.5 28t6.5 25.5t24 15.5q14 3 29 2t29 -1zM151 -72l-23 -121
h-23q-4 20 -6.5 40t-5.5 40q-2 -20 -5.5 -40t-7.5 -40h-23l-21 121h25q2 -22 4 -45t6 -45q2 23 5.5 45.5t7.5 44.5h21l13 -90q2 23 4.5 45.5t5.5 44.5h23zM269 -72l-23 -121h-23q-4 20 -6.5 40t-5.5 40q-2 -20 -5.5 -40t-6.5 -40h-24l-21 121h25q2 -22 4 -45t6 -45
q2 23 5.5 45.5t7.5 44.5h21l13 -90q2 23 4.5 45.5t5.5 44.5h23zM387 -72l-22 -121h-24q-4 20 -6.5 40t-5.5 40q-2 -20 -5.5 -40t-6.5 -40h-24l-21 121h25q2 -22 4.5 -45t5.5 -45q2 23 5.5 45.5t7.5 44.5h21l13 -90q2 23 4.5 45.5t6.5 44.5h22zM596 -136q8 -3 11.5 -10
t5.5 -15.5t3 -17t4 -14.5h-28q-3 6 -4.5 14.5t-3.5 16t-6.5 12t-14.5 3.5v-46h-28v120q15 2 34.5 3t33.5 -8q17 -12 13 -31t-20 -27zM820 -193h-28q-11 21 -19.5 42.5t-19.5 41.5q2 -21 2 -42v-42h-26v121h31l37 -82q-2 20 -2 41v41h25v-121zM530 2q6 8 8 20t1.5 25.5
t-2 26.5t-1.5 22v68q0 9 0.5 17t-6.5 16h41q-6 -6 -7.5 -17t-1 -23t2 -24t1.5 -19v-89h56q12 0 30.5 -1.5t29.5 6.5q-2 -5 -4 -16.5t-7 -11.5h-141zM520 -193h-28l-8 28h-28l-6 -28h-29l32 121h35zM931 -189q-22 -8 -42.5 -4.5t-34.5 16t-18 32t8 43.5q7 16 22.5 23.5
t33.5 7.5h5.5t10 -1t9 -2t3.5 -3l-5 -22q-14 7 -26 5t-19.5 -10t-10.5 -20.5t1 -25.5q8 -25 33 -22q6 1 5 11.5t-1 14.5h-15v23h41v-66zM626 100q-7 12 -12 24.5t-10 25.5t-7 26t-13 21h43q-7 -15 0.5 -35.5t14.5 -33.5q7 16 12 34t0 35h44q-12 -7 -14.5 -21.5t-5.5 -25.5
q-4 -11 -13 -26t-9 -26q0 -12 -1.5 -30.5t6.5 -28.5h-41q10 10 8 29.5t-2 31.5zM374 150q0 9 -5 15t-12 8t-13 -1t-8 -12q-1 -8 -0.5 -16t0.5 -15q0 -20 -1 -40.5t1 -40.5q0 -8 5 -14t11.5 -8.5t12.5 0.5t8 13q2 7 1.5 15t-0.5 16v80zM490 19q-2 35 -11 70t-32 62v-125
q0 -8 6.5 -13t14 -6t14.5 1.5t8 10.5zM280 596q-15 -4 -28 -13.5t-24 -20.5q-3 -4 -8.5 -14t-9 -20.5t-2 -19t12.5 -8.5q16 0 26.5 11t16.5 26t9.5 31.5t6.5 27.5zM636 -72h28v-121h-28v121zM277 516q8 2 16 10t13.5 18.5t8 22t-0.5 19.5q-3 12 -17 12q-8 -20 -11.5 -41
t-8.5 -41zM603 398v-39h12.5t12.5 1.5t10.5 5.5t4.5 12q1 9 -3 13t-10.5 5.5t-13.5 1.5h-13zM694 614q-1 5 -2 7.5t-6 0.5q-10 -4 -15 -12t-7 -18q-1 -3 -1 -7.5t1.5 -7.5t4.5 -4t8 3q7 6 11.5 17t5.5 21zM527 574l2 -7q5 -9 13 -4q8 3 12.5 12t2.5 18q-1 6 -5 9.5t-12 -2.5
q-11 -9 -13 -26zM377 -178q0 8 5 12t11.5 4t11.5 -4t5 -12t-5 -12.5t-11.5 -4.5t-11.5 4.5t-5 12.5zM680 -178q0 8 5 12t11.5 4t11.5 -4t5 -12t-5 -12.5t-11.5 -4.5t-11.5 4.5t-5 12.5zM570 -126q10 0 14.5 5.5t3.5 12.5t-6.5 12t-14.5 4q-3 0 -4 -4.5t-1 -10t0.5 -11
t0.5 -8.5h7zM481 -144q-5 24 -11 50l-11 -50h22zM474 576q-3 -5 -7.5 -13t-3.5 -13q2 -7 9 -6t8 8q1 11 -6 24zM345 536q6 -1 15 8.5t10 14.5q2 4 -1 6.5t-7 -0.5q-6 -5 -10 -13t-7 -16zM772 675h-1q-20 -21 -27 -47q9 11 17.5 22t10.5 25zM412 599h2q0 4 1 7t-1 7
q-3 0 -4 -3q-1 -5 2 -11z" />
    <glyph glyph-name="one" unicode="1" 
d="M8 441q38 20 74.5 37t78.5 29q3 0 5 11t4.5 24.5t4.5 26t4 17.5q6 9 15.5 16t20.5 12.5t22.5 10t20.5 8.5q48 20 97 34t100 27q51 12 102 21t103 14q18 2 43.5 4.5t51.5 2t49.5 -6.5t38.5 -21q2 -3 -0.5 -16t-3.5 -18l-3 -53q0 -2 2 -2q43 -12 83 -31.5t67 -56.5v-1
q-9 2 -20.5 -2t-22.5 -11t-20.5 -15t-14.5 -14q16 -9 26.5 -26t15 -36.5t4 -39.5t-6.5 -36q-9 23 -27 36t-40.5 19t-46.5 8t-45 3q-24 2 -51 1t-50 7q-9 3 -12.5 14t-4 23.5t1.5 25t3 20.5q-100 -8 -197.5 -30.5t-190.5 -55.5q-4 -1 -4 -3q1 -6 4 -19t5.5 -27t3 -26
t-3.5 -16q-12 -10 -31 -12t-35 -4q-21 -3 -43 -6t-43 -7q-38 -8 -70 -21q-8 -4 -15.5 -7.5t-15.5 -8.5q-4 -4 -9.5 -10.5t-9.5 -8.5q6 18 13.5 36t14.5 35q1 3 7 13.5t12 22t10 21.5t3 12q-14 19 -32 36.5t-42 19.5zM819 508q3 30 3 61t2 60q1 16 2 31.5t3 30.5q1 7 -3.5 12
t-11 8t-14.5 4t-14 2q-65 10 -134 0.5t-133 -22.5q-70 -14 -138.5 -33t-134.5 -48l-25 -12.5t-24 -15.5q-11 -10 -13.5 -27t-4.5 -30q-5 -36 -5 -72v-72q5 0 12.5 3.5t15.5 8t15.5 9.5t12.5 7q20 9 41 16t41 15q84 25 171 45q42 9 84 17t85 12q40 4 84.5 5.5t82.5 -15.5z
M722 577q-5 -5 -8.5 -9t-10.5 -6q-5 -2 -8.5 0t-6.5 5q-3 -2 -7 -4.5t-9 -3.5q-17 -3 -23 11v1q-5 -5 -9.5 -9t-12.5 -6q-7 -4 -14 6q-3 6 -1.5 12t4.5 12t5 12.5t1 12.5q-9 -4 -13.5 -10.5t-6.5 -14t-3 -15.5t-4 -15q-4 -8 -14 -5q-4 1 -4 6q0 2 0.5 4.5t0.5 4.5
q-8 -2 -10.5 -2t-8.5 -6q-5 -6 -13 -10.5t-17 -4.5q-6 1 -9 4.5t-6 8.5q-9 -10 -21.5 -18.5t-26.5 -6.5q-7 1 -14 10q-6 -7 -12.5 -12.5t-14.5 -7.5q-8 -3 -12.5 0t-5.5 11q-2 14 4.5 24t11.5 21q1 2 -1.5 2.5t-3.5 -1.5q-4 -11 -9.5 -24t-14 -24.5t-19.5 -19t-26 -6.5
q-17 1 -19.5 12.5t3.5 25t17 25t23 12.5q7 0 9 -6q6 -6 1 -15q-3 -12 -14.5 -21.5t-23.5 -12.5q1 -6 5.5 -7t9.5 1.5t9.5 6t6.5 5.5q13 11 19.5 25t11.5 28q1 1 -1 5t-4 8.5t-4 9.5t-1 8q2 6 7.5 10t11.5 3q7 0 8 -7q3 -6 2 -12.5t-2 -13.5q11 2 16 0.5t-2 -15.5l-10 -18
t-6 -20q0 -5 4 -5q12 -1 19.5 10t13.5 25.5t12 28t14 18.5q4 1 8 -1q3 -4 1 -7q-2 -7 -5 -11.5t-1 -12.5q3 -7 7 -14t3 -15h1q6 6 10 15l8 18t9.5 16.5t14.5 11.5q20 7 27 -11q5 -8 3 -14t-1 -15q6 1 8 5q8 7 9.5 19t4.5 22q2 3 6 3.5t7 -0.5q5 -1 4 -7v-1q6 6 13 9
q12 6 16 -7q2 -6 0.5 -12t-4.5 -12t-5.5 -12t-1.5 -13q8 6 13 14t9.5 16.5t10 16t13.5 12.5q12 7 28 0q2 4 9.5 4.5t5.5 -7.5q-2 -11 -8 -21.5t-6 -21.5q0 -3 1.5 -3.5t3.5 1.5q11 11 16.5 26t10.5 30.5t13 29t23 22.5q8 4 13 -4q7 -13 2 -26.5t-13 -22.5q-4 -5 -10.5 -11
t-12.5 -13t-10.5 -14t-2.5 -14q1 -9 12 -7q8 3 11.5 10t8.5 14q2 2 7 1q4 0 4 -5l-2 -7q-10 -21 -29 -29q-7 -4 -13 -1.5t-10 9.5q-3 1 -3 6zM965 539q-27 26 -60.5 41.5t-68.5 25.5q-2 -31 -2.5 -61.5t-2.5 -61.5l-1 1v-3q-15 -1 -35 -2t-40 -5t-37.5 -12t-26.5 -21
q-4 -3 2 -4q15 -6 31.5 -8t33.5 -2t34 0.5t32 -0.5q34 -2 63 -10q16 -5 28 -13t26 -15q0 33 -11.5 57.5t-43.5 36.5q18 17 37 32.5t42 23.5zM162 494q-32 -8 -63 -20.5t-61 -28.5q19 -11 33.5 -26t25.5 -33q1 -2 -2 -9t-7.5 -15t-9 -15.5t-5.5 -10.5q-6 -12 -11.5 -25
t-10.5 -26q27 14 56.5 20.5t59 10.5t59 8.5t58.5 13.5q-9 10 -25 14t-34 4.5t-35.5 -1.5t-29.5 -3v71t2 71zM417 185q0 5 -5 12h31q15 -7 27.5 -28t19.5 -36q0 14 1 33t-7 31h41q-7 -6 -6.5 -13.5t0.5 -15.5v-134q0 -8 -0.5 -17t6.5 -15h-113q6 7 7.5 18.5t1 24.5t-2 25
t-1.5 21v94zM360 197q21 0 30 -11t12 -27.5t2 -35t-1 -32.5v-43q0 -26 -14.5 -36.5t-38.5 -9.5q-21 0 -30.5 11t-12.5 27.5t-2 35t1 32.5q0 11 -0.5 21t0.5 21q0 27 14.5 37t39.5 10zM301 612q7 0 11 -1q9 -1 15 -8t7 -17q2 -12 -1.5 -23.5t-10.5 -22t-16.5 -19t-19.5 -14.5
q-10 -7 -15.5 -17.5t-10 -21t-11 -20.5t-18.5 -16q-12 -8 -29 -5q-16 5 -14 21q0 11 8.5 20t19.5 11q3 1 8 -1.5t3 -7.5q-8 -4 -13 -4q-6 -2 -8.5 -9t1.5 -12q2 -3 9 -5q10 -1 17.5 6.5t12 18t7.5 22t5 19.5q-15 -15 -33 -19q-6 -1 -12.5 0t-11.5 6q-9 5 -9 20t7 28
q15 33 47 53q7 4 14 7.5t15 5.5q5 2 11.5 6.5t11.5 5.5q6 0 3 -7zM416 327q-2 8 -5.5 21t-5 26t1 25t11.5 18q6 5 17.5 5.5t15.5 -9.5q3 -9 -1 -11.5t-10 -2t-10 4t1 8.5q-9 -5 -9.5 -16t3.5 -23.5t9.5 -24.5t7.5 -19q7 -20 9.5 -47.5t-11.5 -45.5q-6 -8 -18.5 -10.5
t-27 -2.5t-28.5 1.5t-23 1.5q6 8 8 20t1.5 25.5t-2 27t-1.5 22.5v68q0 8 0.5 16t-6.5 16h41q-7 -7 -6 -17.5t1 -20.5v-76q0 -10 -1 -27.5t5 -25.5q4 -6 10 -6.5t11.5 2.5t9.5 8t5 10q4 14 1.5 29.5t-4.5 29.5zM644 352q-2 -5 -8 -16.5t-11 -24.5t-6.5 -24t5.5 -15q-3 6 3 7
t12 -1.5t7.5 -7.5t-9.5 -10q-14 -5 -19.5 5t-4.5 20q1 9 4 18t4.5 16.5t-2 12t-16.5 3.5v-85q10 0 23.5 -1.5t23.5 5.5q-3 -7 -4.5 -13.5t-3.5 -14.5h-75q6 6 6 13.5v15.5v134v16.5t-6 15.5h69q13 -14 13.5 -32.5t-5.5 -36.5zM547 416q0 -8 4 -16t7 -16.5t2.5 -16.5
t-8.5 -15q-8 -5 -18.5 -4.5t-11.5 11.5q0 6 4 9.5t8.5 3.5t8 -3t2.5 -8q7 1 7 6.5t-4 11.5t-10 11.5t-10 6.5q-8 2 -18 0t-13 -10q-7 -14 -2.5 -23.5t13.5 -17.5t20.5 -15t17.5 -15q8 -11 12 -25.5t2 -28.5t-11 -24t-26 -12q-14 -1 -29 -0.5t-29 0.5q4 2 2.5 10t-4.5 18.5
t-4.5 21t3.5 16.5q3 3 8 5t10 2t9 -2.5t5 -8.5q0 -6 -3.5 -8.5t-8 -2.5t-8 2.5t-3.5 7.5q-7 -2 -7 -8t4 -12t9.5 -10.5t9.5 -5.5q8 -2 19 -1.5t16 5.5q12 12 9.5 22.5t-11 20t-19.5 17t-17 13.5q-10 9 -16 23t-6.5 28t6.5 25.5t24 15.5q14 3 29 2t29 -1zM151 -72l-23 -121
h-23q-4 20 -6.5 40t-5.5 40q-2 -20 -5.5 -40t-7.5 -40h-23l-21 121h25q2 -22 4 -45t6 -45q2 23 5.5 45.5t7.5 44.5h21l13 -90q2 23 4.5 45.5t5.5 44.5h23zM269 -72l-23 -121h-23q-4 20 -6.5 40t-5.5 40q-2 -20 -5.5 -40t-6.5 -40h-24l-21 121h25q2 -22 4 -45t6 -45
q2 23 5.5 45.5t7.5 44.5h21l13 -90q2 23 4.5 45.5t5.5 44.5h23zM387 -72l-22 -121h-24q-4 20 -6.5 40t-5.5 40q-2 -20 -5.5 -40t-6.5 -40h-24l-21 121h25q2 -22 4.5 -45t5.5 -45q2 23 5.5 45.5t7.5 44.5h21l13 -90q2 23 4.5 45.5t6.5 44.5h22zM596 -136q8 -3 11.5 -10
t5.5 -15.5t3 -17t4 -14.5h-28q-3 6 -4.5 14.5t-3.5 16t-6.5 12t-14.5 3.5v-46h-28v120q15 2 34.5 3t33.5 -8q17 -12 13 -31t-20 -27zM820 -193h-28q-11 21 -19.5 42.5t-19.5 41.5q2 -21 2 -42v-42h-26v121h31l37 -82q-2 20 -2 41v41h25v-121zM530 2q6 8 8 20t1.5 25.5
t-2 26.5t-1.5 22v68q0 9 0.5 17t-6.5 16h41q-6 -6 -7.5 -17t-1 -23t2 -24t1.5 -19v-89h56q12 0 30.5 -1.5t29.5 6.5q-2 -5 -4 -16.5t-7 -11.5h-141zM520 -193h-28l-8 28h-28l-6 -28h-29l32 121h35zM931 -189q-22 -8 -42.5 -4.5t-34.5 16t-18 32t8 43.5q7 16 22.5 23.5
t33.5 7.5h5.5t10 -1t9 -2t3.5 -3l-5 -22q-14 7 -26 5t-19.5 -10t-10.5 -20.5t1 -25.5q8 -25 33 -22q6 1 5 11.5t-1 14.5h-15v23h41v-66zM626 100q-7 12 -12 24.5t-10 25.5t-7 26t-13 21h43q-7 -15 0.5 -35.5t14.5 -33.5q7 16 12 34t0 35h44q-12 -7 -14.5 -21.5t-5.5 -25.5
q-4 -11 -13 -26t-9 -26q0 -12 -1.5 -30.5t6.5 -28.5h-41q10 10 8 29.5t-2 31.5zM374 150q0 9 -5 15t-12 8t-13 -1t-8 -12q-1 -8 -0.5 -16t0.5 -15q0 -20 -1 -40.5t1 -40.5q0 -8 5 -14t11.5 -8.5t12.5 0.5t8 13q2 7 1.5 15t-0.5 16v80zM490 19q-2 35 -11 70t-32 62v-125
q0 -8 6.5 -13t14 -6t14.5 1.5t8 10.5zM280 596q-15 -4 -28 -13.5t-24 -20.5q-3 -4 -8.5 -14t-9 -20.5t-2 -19t12.5 -8.5q16 0 26.5 11t16.5 26t9.5 31.5t6.5 27.5zM636 -72h28v-121h-28v121zM277 516q8 2 16 10t13.5 18.5t8 22t-0.5 19.5q-3 12 -17 12q-8 -20 -11.5 -41
t-8.5 -41zM603 398v-39h12.5t12.5 1.5t10.5 5.5t4.5 12q1 9 -3 13t-10.5 5.5t-13.5 1.5h-13zM694 614q-1 5 -2 7.5t-6 0.5q-10 -4 -15 -12t-7 -18q-1 -3 -1 -7.5t1.5 -7.5t4.5 -4t8 3q7 6 11.5 17t5.5 21zM527 574l2 -7q5 -9 13 -4q8 3 12.5 12t2.5 18q-1 6 -5 9.5t-12 -2.5
q-11 -9 -13 -26zM377 -178q0 8 5 12t11.5 4t11.5 -4t5 -12t-5 -12.5t-11.5 -4.5t-11.5 4.5t-5 12.5zM680 -178q0 8 5 12t11.5 4t11.5 -4t5 -12t-5 -12.5t-11.5 -4.5t-11.5 4.5t-5 12.5zM570 -126q10 0 14.5 5.5t3.5 12.5t-6.5 12t-14.5 4q-3 0 -4 -4.5t-1 -10t0.5 -11
t0.5 -8.5h7zM481 -144q-5 24 -11 50l-11 -50h22zM474 576q-3 -5 -7.5 -13t-3.5 -13q2 -7 9 -6t8 8q1 11 -6 24zM345 536q6 -1 15 8.5t10 14.5q2 4 -1 6.5t-7 -0.5q-6 -5 -10 -13t-7 -16zM772 675h-1q-20 -21 -27 -47q9 11 17.5 22t10.5 25zM412 599h2q0 4 1 7t-1 7
q-3 0 -4 -3q-1 -5 2 -11z" />
    <glyph glyph-name="two" unicode="2" 
d="M8 441q38 20 74.5 37t78.5 29q3 0 5 11t4.5 24.5t4.5 26t4 17.5q6 9 15.5 16t20.5 12.5t22.5 10t20.5 8.5q48 20 97 34t100 27q51 12 102 21t103 14q18 2 43.5 4.5t51.5 2t49.5 -6.5t38.5 -21q2 -3 -0.5 -16t-3.5 -18l-3 -53q0 -2 2 -2q43 -12 83 -31.5t67 -56.5v-1
q-9 2 -20.5 -2t-22.5 -11t-20.5 -15t-14.5 -14q16 -9 26.5 -26t15 -36.5t4 -39.5t-6.5 -36q-9 23 -27 36t-40.5 19t-46.5 8t-45 3q-24 2 -51 1t-50 7q-9 3 -12.5 14t-4 23.5t1.5 25t3 20.5q-100 -8 -197.5 -30.5t-190.5 -55.5q-4 -1 -4 -3q1 -6 4 -19t5.5 -27t3 -26
t-3.5 -16q-12 -10 -31 -12t-35 -4q-21 -3 -43 -6t-43 -7q-38 -8 -70 -21q-8 -4 -15.5 -7.5t-15.5 -8.5q-4 -4 -9.5 -10.5t-9.5 -8.5q6 18 13.5 36t14.5 35q1 3 7 13.5t12 22t10 21.5t3 12q-14 19 -32 36.5t-42 19.5zM819 508q3 30 3 61t2 60q1 16 2 31.5t3 30.5q1 7 -3.5 12
t-11 8t-14.5 4t-14 2q-65 10 -134 0.5t-133 -22.5q-70 -14 -138.5 -33t-134.5 -48l-25 -12.5t-24 -15.5q-11 -10 -13.5 -27t-4.5 -30q-5 -36 -5 -72v-72q5 0 12.5 3.5t15.5 8t15.5 9.5t12.5 7q20 9 41 16t41 15q84 25 171 45q42 9 84 17t85 12q40 4 84.5 5.5t82.5 -15.5z
M722 577q-5 -5 -8.5 -9t-10.5 -6q-5 -2 -8.5 0t-6.5 5q-3 -2 -7 -4.5t-9 -3.5q-17 -3 -23 11v1q-5 -5 -9.5 -9t-12.5 -6q-7 -4 -14 6q-3 6 -1.5 12t4.5 12t5 12.5t1 12.5q-9 -4 -13.5 -10.5t-6.5 -14t-3 -15.5t-4 -15q-4 -8 -14 -5q-4 1 -4 6q0 2 0.5 4.5t0.5 4.5
q-8 -2 -10.5 -2t-8.5 -6q-5 -6 -13 -10.5t-17 -4.5q-6 1 -9 4.5t-6 8.5q-9 -10 -21.5 -18.5t-26.5 -6.5q-7 1 -14 10q-6 -7 -12.5 -12.5t-14.5 -7.5q-8 -3 -12.5 0t-5.5 11q-2 14 4.5 24t11.5 21q1 2 -1.5 2.5t-3.5 -1.5q-4 -11 -9.5 -24t-14 -24.5t-19.5 -19t-26 -6.5
q-17 1 -19.5 12.5t3.5 25t17 25t23 12.5q7 0 9 -6q6 -6 1 -15q-3 -12 -14.5 -21.5t-23.5 -12.5q1 -6 5.5 -7t9.5 1.5t9.5 6t6.5 5.5q13 11 19.5 25t11.5 28q1 1 -1 5t-4 8.5t-4 9.5t-1 8q2 6 7.5 10t11.5 3q7 0 8 -7q3 -6 2 -12.5t-2 -13.5q11 2 16 0.5t-2 -15.5l-10 -18
t-6 -20q0 -5 4 -5q12 -1 19.5 10t13.5 25.5t12 28t14 18.5q4 1 8 -1q3 -4 1 -7q-2 -7 -5 -11.5t-1 -12.5q3 -7 7 -14t3 -15h1q6 6 10 15l8 18t9.5 16.5t14.5 11.5q20 7 27 -11q5 -8 3 -14t-1 -15q6 1 8 5q8 7 9.5 19t4.5 22q2 3 6 3.5t7 -0.5q5 -1 4 -7v-1q6 6 13 9
q12 6 16 -7q2 -6 0.5 -12t-4.5 -12t-5.5 -12t-1.5 -13q8 6 13 14t9.5 16.5t10 16t13.5 12.5q12 7 28 0q2 4 9.5 4.5t5.5 -7.5q-2 -11 -8 -21.5t-6 -21.5q0 -3 1.5 -3.5t3.5 1.5q11 11 16.5 26t10.5 30.5t13 29t23 22.5q8 4 13 -4q7 -13 2 -26.5t-13 -22.5q-4 -5 -10.5 -11
t-12.5 -13t-10.5 -14t-2.5 -14q1 -9 12 -7q8 3 11.5 10t8.5 14q2 2 7 1q4 0 4 -5l-2 -7q-10 -21 -29 -29q-7 -4 -13 -1.5t-10 9.5q-3 1 -3 6zM965 539q-27 26 -60.5 41.5t-68.5 25.5q-2 -31 -2.5 -61.5t-2.5 -61.5l-1 1v-3q-15 -1 -35 -2t-40 -5t-37.5 -12t-26.5 -21
q-4 -3 2 -4q15 -6 31.5 -8t33.5 -2t34 0.5t32 -0.5q34 -2 63 -10q16 -5 28 -13t26 -15q0 33 -11.5 57.5t-43.5 36.5q18 17 37 32.5t42 23.5zM162 494q-32 -8 -63 -20.5t-61 -28.5q19 -11 33.5 -26t25.5 -33q1 -2 -2 -9t-7.5 -15t-9 -15.5t-5.5 -10.5q-6 -12 -11.5 -25
t-10.5 -26q27 14 56.5 20.5t59 10.5t59 8.5t58.5 13.5q-9 10 -25 14t-34 4.5t-35.5 -1.5t-29.5 -3v71t2 71zM417 185q0 5 -5 12h31q15 -7 27.5 -28t19.5 -36q0 14 1 33t-7 31h41q-7 -6 -6.5 -13.5t0.5 -15.5v-134q0 -8 -0.5 -17t6.5 -15h-113q6 7 7.5 18.5t1 24.5t-2 25
t-1.5 21v94zM360 197q21 0 30 -11t12 -27.5t2 -35t-1 -32.5v-43q0 -26 -14.5 -36.5t-38.5 -9.5q-21 0 -30.5 11t-12.5 27.5t-2 35t1 32.5q0 11 -0.5 21t0.5 21q0 27 14.5 37t39.5 10zM301 612q7 0 11 -1q9 -1 15 -8t7 -17q2 -12 -1.5 -23.5t-10.5 -22t-16.5 -19t-19.5 -14.5
q-10 -7 -15.5 -17.5t-10 -21t-11 -20.5t-18.5 -16q-12 -8 -29 -5q-16 5 -14 21q0 11 8.5 20t19.5 11q3 1 8 -1.5t3 -7.5q-8 -4 -13 -4q-6 -2 -8.5 -9t1.5 -12q2 -3 9 -5q10 -1 17.5 6.5t12 18t7.5 22t5 19.5q-15 -15 -33 -19q-6 -1 -12.5 0t-11.5 6q-9 5 -9 20t7 28
q15 33 47 53q7 4 14 7.5t15 5.5q5 2 11.5 6.5t11.5 5.5q6 0 3 -7zM416 327q-2 8 -5.5 21t-5 26t1 25t11.5 18q6 5 17.5 5.5t15.5 -9.5q3 -9 -1 -11.5t-10 -2t-10 4t1 8.5q-9 -5 -9.5 -16t3.5 -23.5t9.5 -24.5t7.5 -19q7 -20 9.5 -47.5t-11.5 -45.5q-6 -8 -18.5 -10.5
t-27 -2.5t-28.5 1.5t-23 1.5q6 8 8 20t1.5 25.5t-2 27t-1.5 22.5v68q0 8 0.5 16t-6.5 16h41q-7 -7 -6 -17.5t1 -20.5v-76q0 -10 -1 -27.5t5 -25.5q4 -6 10 -6.5t11.5 2.5t9.5 8t5 10q4 14 1.5 29.5t-4.5 29.5zM644 352q-2 -5 -8 -16.5t-11 -24.5t-6.5 -24t5.5 -15q-3 6 3 7
t12 -1.5t7.5 -7.5t-9.5 -10q-14 -5 -19.5 5t-4.5 20q1 9 4 18t4.5 16.5t-2 12t-16.5 3.5v-85q10 0 23.5 -1.5t23.5 5.5q-3 -7 -4.5 -13.5t-3.5 -14.5h-75q6 6 6 13.5v15.5v134v16.5t-6 15.5h69q13 -14 13.5 -32.5t-5.5 -36.5zM547 416q0 -8 4 -16t7 -16.5t2.5 -16.5
t-8.5 -15q-8 -5 -18.5 -4.5t-11.5 11.5q0 6 4 9.5t8.5 3.5t8 -3t2.5 -8q7 1 7 6.5t-4 11.5t-10 11.5t-10 6.5q-8 2 -18 0t-13 -10q-7 -14 -2.5 -23.5t13.5 -17.5t20.5 -15t17.5 -15q8 -11 12 -25.5t2 -28.5t-11 -24t-26 -12q-14 -1 -29 -0.5t-29 0.5q4 2 2.5 10t-4.5 18.5
t-4.5 21t3.5 16.5q3 3 8 5t10 2t9 -2.5t5 -8.5q0 -6 -3.5 -8.5t-8 -2.5t-8 2.5t-3.5 7.5q-7 -2 -7 -8t4 -12t9.5 -10.5t9.5 -5.5q8 -2 19 -1.5t16 5.5q12 12 9.5 22.5t-11 20t-19.5 17t-17 13.5q-10 9 -16 23t-6.5 28t6.5 25.5t24 15.5q14 3 29 2t29 -1zM151 -72l-23 -121
h-23q-4 20 -6.5 40t-5.5 40q-2 -20 -5.5 -40t-7.5 -40h-23l-21 121h25q2 -22 4 -45t6 -45q2 23 5.5 45.5t7.5 44.5h21l13 -90q2 23 4.5 45.5t5.5 44.5h23zM269 -72l-23 -121h-23q-4 20 -6.5 40t-5.5 40q-2 -20 -5.5 -40t-6.5 -40h-24l-21 121h25q2 -22 4 -45t6 -45
q2 23 5.5 45.5t7.5 44.5h21l13 -90q2 23 4.5 45.5t5.5 44.5h23zM387 -72l-22 -121h-24q-4 20 -6.5 40t-5.5 40q-2 -20 -5.5 -40t-6.5 -40h-24l-21 121h25q2 -22 4.5 -45t5.5 -45q2 23 5.5 45.5t7.5 44.5h21l13 -90q2 23 4.5 45.5t6.5 44.5h22zM596 -136q8 -3 11.5 -10
t5.5 -15.5t3 -17t4 -14.5h-28q-3 6 -4.5 14.5t-3.5 16t-6.5 12t-14.5 3.5v-46h-28v120q15 2 34.5 3t33.5 -8q17 -12 13 -31t-20 -27zM820 -193h-28q-11 21 -19.5 42.5t-19.5 41.5q2 -21 2 -42v-42h-26v121h31l37 -82q-2 20 -2 41v41h25v-121zM530 2q6 8 8 20t1.5 25.5
t-2 26.5t-1.5 22v68q0 9 0.5 17t-6.5 16h41q-6 -6 -7.5 -17t-1 -23t2 -24t1.5 -19v-89h56q12 0 30.5 -1.5t29.5 6.5q-2 -5 -4 -16.5t-7 -11.5h-141zM520 -193h-28l-8 28h-28l-6 -28h-29l32 121h35zM931 -189q-22 -8 -42.5 -4.5t-34.5 16t-18 32t8 43.5q7 16 22.5 23.5
t33.5 7.5h5.5t10 -1t9 -2t3.5 -3l-5 -22q-14 7 -26 5t-19.5 -10t-10.5 -20.5t1 -25.5q8 -25 33 -22q6 1 5 11.5t-1 14.5h-15v23h41v-66zM626 100q-7 12 -12 24.5t-10 25.5t-7 26t-13 21h43q-7 -15 0.5 -35.5t14.5 -33.5q7 16 12 34t0 35h44q-12 -7 -14.5 -21.5t-5.5 -25.5
q-4 -11 -13 -26t-9 -26q0 -12 -1.5 -30.5t6.5 -28.5h-41q10 10 8 29.5t-2 31.5zM374 150q0 9 -5 15t-12 8t-13 -1t-8 -12q-1 -8 -0.5 -16t0.5 -15q0 -20 -1 -40.5t1 -40.5q0 -8 5 -14t11.5 -8.5t12.5 0.5t8 13q2 7 1.5 15t-0.5 16v80zM490 19q-2 35 -11 70t-32 62v-125
q0 -8 6.5 -13t14 -6t14.5 1.5t8 10.5zM280 596q-15 -4 -28 -13.5t-24 -20.5q-3 -4 -8.5 -14t-9 -20.5t-2 -19t12.5 -8.5q16 0 26.5 11t16.5 26t9.5 31.5t6.5 27.5zM636 -72h28v-121h-28v121zM277 516q8 2 16 10t13.5 18.5t8 22t-0.5 19.5q-3 12 -17 12q-8 -20 -11.5 -41
t-8.5 -41zM603 398v-39h12.5t12.5 1.5t10.5 5.5t4.5 12q1 9 -3 13t-10.5 5.5t-13.5 1.5h-13zM694 614q-1 5 -2 7.5t-6 0.5q-10 -4 -15 -12t-7 -18q-1 -3 -1 -7.5t1.5 -7.5t4.5 -4t8 3q7 6 11.5 17t5.5 21zM527 574l2 -7q5 -9 13 -4q8 3 12.5 12t2.5 18q-1 6 -5 9.5t-12 -2.5
q-11 -9 -13 -26zM377 -178q0 8 5 12t11.5 4t11.5 -4t5 -12t-5 -12.5t-11.5 -4.5t-11.5 4.5t-5 12.5zM680 -178q0 8 5 12t11.5 4t11.5 -4t5 -12t-5 -12.5t-11.5 -4.5t-11.5 4.5t-5 12.5zM570 -126q10 0 14.5 5.5t3.5 12.5t-6.5 12t-14.5 4q-3 0 -4 -4.5t-1 -10t0.5 -11
t0.5 -8.5h7zM481 -144q-5 24 -11 50l-11 -50h22zM474 576q-3 -5 -7.5 -13t-3.5 -13q2 -7 9 -6t8 8q1 11 -6 24zM345 536q6 -1 15 8.5t10 14.5q2 4 -1 6.5t-7 -0.5q-6 -5 -10 -13t-7 -16zM772 675h-1q-20 -21 -27 -47q9 11 17.5 22t10.5 25zM412 599h2q0 4 1 7t-1 7
q-3 0 -4 -3q-1 -5 2 -11z" />
    <glyph glyph-name="three" unicode="3" 
d="M8 441q38 20 74.5 37t78.5 29q3 0 5 11t4.5 24.5t4.5 26t4 17.5q6 9 15.5 16t20.5 12.5t22.5 10t20.5 8.5q48 20 97 34t100 27q51 12 102 21t103 14q18 2 43.5 4.5t51.5 2t49.5 -6.5t38.5 -21q2 -3 -0.5 -16t-3.5 -18l-3 -53q0 -2 2 -2q43 -12 83 -31.5t67 -56.5v-1
q-9 2 -20.5 -2t-22.5 -11t-20.5 -15t-14.5 -14q16 -9 26.5 -26t15 -36.5t4 -39.5t-6.5 -36q-9 23 -27 36t-40.5 19t-46.5 8t-45 3q-24 2 -51 1t-50 7q-9 3 -12.5 14t-4 23.5t1.5 25t3 20.5q-100 -8 -197.5 -30.5t-190.5 -55.5q-4 -1 -4 -3q1 -6 4 -19t5.5 -27t3 -26
t-3.5 -16q-12 -10 -31 -12t-35 -4q-21 -3 -43 -6t-43 -7q-38 -8 -70 -21q-8 -4 -15.5 -7.5t-15.5 -8.5q-4 -4 -9.5 -10.5t-9.5 -8.5q6 18 13.5 36t14.5 35q1 3 7 13.5t12 22t10 21.5t3 12q-14 19 -32 36.5t-42 19.5zM819 508q3 30 3 61t2 60q1 16 2 31.5t3 30.5q1 7 -3.5 12
t-11 8t-14.5 4t-14 2q-65 10 -134 0.5t-133 -22.5q-70 -14 -138.5 -33t-134.5 -48l-25 -12.5t-24 -15.5q-11 -10 -13.5 -27t-4.5 -30q-5 -36 -5 -72v-72q5 0 12.5 3.5t15.5 8t15.5 9.5t12.5 7q20 9 41 16t41 15q84 25 171 45q42 9 84 17t85 12q40 4 84.5 5.5t82.5 -15.5z
M722 577q-5 -5 -8.5 -9t-10.5 -6q-5 -2 -8.5 0t-6.5 5q-3 -2 -7 -4.5t-9 -3.5q-17 -3 -23 11v1q-5 -5 -9.5 -9t-12.5 -6q-7 -4 -14 6q-3 6 -1.5 12t4.5 12t5 12.5t1 12.5q-9 -4 -13.5 -10.5t-6.5 -14t-3 -15.5t-4 -15q-4 -8 -14 -5q-4 1 -4 6q0 2 0.5 4.5t0.5 4.5
q-8 -2 -10.5 -2t-8.5 -6q-5 -6 -13 -10.5t-17 -4.5q-6 1 -9 4.5t-6 8.5q-9 -10 -21.5 -18.5t-26.5 -6.5q-7 1 -14 10q-6 -7 -12.5 -12.5t-14.5 -7.5q-8 -3 -12.5 0t-5.5 11q-2 14 4.5 24t11.5 21q1 2 -1.5 2.5t-3.5 -1.5q-4 -11 -9.5 -24t-14 -24.5t-19.5 -19t-26 -6.5
q-17 1 -19.5 12.5t3.5 25t17 25t23 12.5q7 0 9 -6q6 -6 1 -15q-3 -12 -14.5 -21.5t-23.5 -12.5q1 -6 5.5 -7t9.5 1.5t9.5 6t6.5 5.5q13 11 19.5 25t11.5 28q1 1 -1 5t-4 8.5t-4 9.5t-1 8q2 6 7.5 10t11.5 3q7 0 8 -7q3 -6 2 -12.5t-2 -13.5q11 2 16 0.5t-2 -15.5l-10 -18
t-6 -20q0 -5 4 -5q12 -1 19.5 10t13.5 25.5t12 28t14 18.5q4 1 8 -1q3 -4 1 -7q-2 -7 -5 -11.5t-1 -12.5q3 -7 7 -14t3 -15h1q6 6 10 15l8 18t9.5 16.5t14.5 11.5q20 7 27 -11q5 -8 3 -14t-1 -15q6 1 8 5q8 7 9.5 19t4.5 22q2 3 6 3.5t7 -0.5q5 -1 4 -7v-1q6 6 13 9
q12 6 16 -7q2 -6 0.5 -12t-4.5 -12t-5.5 -12t-1.5 -13q8 6 13 14t9.5 16.5t10 16t13.5 12.5q12 7 28 0q2 4 9.5 4.5t5.5 -7.5q-2 -11 -8 -21.5t-6 -21.5q0 -3 1.5 -3.5t3.5 1.5q11 11 16.5 26t10.5 30.5t13 29t23 22.5q8 4 13 -4q7 -13 2 -26.5t-13 -22.5q-4 -5 -10.5 -11
t-12.5 -13t-10.5 -14t-2.5 -14q1 -9 12 -7q8 3 11.5 10t8.5 14q2 2 7 1q4 0 4 -5l-2 -7q-10 -21 -29 -29q-7 -4 -13 -1.5t-10 9.5q-3 1 -3 6zM965 539q-27 26 -60.5 41.5t-68.5 25.5q-2 -31 -2.5 -61.5t-2.5 -61.5l-1 1v-3q-15 -1 -35 -2t-40 -5t-37.5 -12t-26.5 -21
q-4 -3 2 -4q15 -6 31.5 -8t33.5 -2t34 0.5t32 -0.5q34 -2 63 -10q16 -5 28 -13t26 -15q0 33 -11.5 57.5t-43.5 36.5q18 17 37 32.5t42 23.5zM162 494q-32 -8 -63 -20.5t-61 -28.5q19 -11 33.5 -26t25.5 -33q1 -2 -2 -9t-7.5 -15t-9 -15.5t-5.5 -10.5q-6 -12 -11.5 -25
t-10.5 -26q27 14 56.5 20.5t59 10.5t59 8.5t58.5 13.5q-9 10 -25 14t-34 4.5t-35.5 -1.5t-29.5 -3v71t2 71zM417 185q0 5 -5 12h31q15 -7 27.5 -28t19.5 -36q0 14 1 33t-7 31h41q-7 -6 -6.5 -13.5t0.5 -15.5v-134q0 -8 -0.5 -17t6.5 -15h-113q6 7 7.5 18.5t1 24.5t-2 25
t-1.5 21v94zM360 197q21 0 30 -11t12 -27.5t2 -35t-1 -32.5v-43q0 -26 -14.5 -36.5t-38.5 -9.5q-21 0 -30.5 11t-12.5 27.5t-2 35t1 32.5q0 11 -0.5 21t0.5 21q0 27 14.5 37t39.5 10zM301 612q7 0 11 -1q9 -1 15 -8t7 -17q2 -12 -1.5 -23.5t-10.5 -22t-16.5 -19t-19.5 -14.5
q-10 -7 -15.5 -17.5t-10 -21t-11 -20.5t-18.5 -16q-12 -8 -29 -5q-16 5 -14 21q0 11 8.5 20t19.5 11q3 1 8 -1.5t3 -7.5q-8 -4 -13 -4q-6 -2 -8.5 -9t1.5 -12q2 -3 9 -5q10 -1 17.5 6.5t12 18t7.5 22t5 19.5q-15 -15 -33 -19q-6 -1 -12.5 0t-11.5 6q-9 5 -9 20t7 28
q15 33 47 53q7 4 14 7.5t15 5.5q5 2 11.5 6.5t11.5 5.5q6 0 3 -7zM416 327q-2 8 -5.5 21t-5 26t1 25t11.5 18q6 5 17.5 5.5t15.5 -9.5q3 -9 -1 -11.5t-10 -2t-10 4t1 8.5q-9 -5 -9.5 -16t3.5 -23.5t9.5 -24.5t7.5 -19q7 -20 9.5 -47.5t-11.5 -45.5q-6 -8 -18.5 -10.5
t-27 -2.5t-28.5 1.5t-23 1.5q6 8 8 20t1.5 25.5t-2 27t-1.5 22.5v68q0 8 0.5 16t-6.5 16h41q-7 -7 -6 -17.5t1 -20.5v-76q0 -10 -1 -27.5t5 -25.5q4 -6 10 -6.5t11.5 2.5t9.5 8t5 10q4 14 1.5 29.5t-4.5 29.5zM644 352q-2 -5 -8 -16.5t-11 -24.5t-6.5 -24t5.5 -15q-3 6 3 7
t12 -1.5t7.5 -7.5t-9.5 -10q-14 -5 -19.5 5t-4.5 20q1 9 4 18t4.5 16.5t-2 12t-16.5 3.5v-85q10 0 23.5 -1.5t23.5 5.5q-3 -7 -4.5 -13.5t-3.5 -14.5h-75q6 6 6 13.5v15.5v134v16.5t-6 15.5h69q13 -14 13.5 -32.5t-5.5 -36.5zM547 416q0 -8 4 -16t7 -16.5t2.5 -16.5
t-8.5 -15q-8 -5 -18.5 -4.5t-11.5 11.5q0 6 4 9.5t8.5 3.5t8 -3t2.5 -8q7 1 7 6.5t-4 11.5t-10 11.5t-10 6.5q-8 2 -18 0t-13 -10q-7 -14 -2.5 -23.5t13.5 -17.5t20.5 -15t17.5 -15q8 -11 12 -25.5t2 -28.5t-11 -24t-26 -12q-14 -1 -29 -0.5t-29 0.5q4 2 2.5 10t-4.5 18.5
t-4.5 21t3.5 16.5q3 3 8 5t10 2t9 -2.5t5 -8.5q0 -6 -3.5 -8.5t-8 -2.5t-8 2.5t-3.5 7.5q-7 -2 -7 -8t4 -12t9.5 -10.5t9.5 -5.5q8 -2 19 -1.5t16 5.5q12 12 9.5 22.5t-11 20t-19.5 17t-17 13.5q-10 9 -16 23t-6.5 28t6.5 25.5t24 15.5q14 3 29 2t29 -1zM151 -72l-23 -121
h-23q-4 20 -6.5 40t-5.5 40q-2 -20 -5.5 -40t-7.5 -40h-23l-21 121h25q2 -22 4 -45t6 -45q2 23 5.5 45.5t7.5 44.5h21l13 -90q2 23 4.5 45.5t5.5 44.5h23zM269 -72l-23 -121h-23q-4 20 -6.5 40t-5.5 40q-2 -20 -5.5 -40t-6.5 -40h-24l-21 121h25q2 -22 4 -45t6 -45
q2 23 5.5 45.5t7.5 44.5h21l13 -90q2 23 4.5 45.5t5.5 44.5h23zM387 -72l-22 -121h-24q-4 20 -6.5 40t-5.5 40q-2 -20 -5.5 -40t-6.5 -40h-24l-21 121h25q2 -22 4.5 -45t5.5 -45q2 23 5.5 45.5t7.5 44.5h21l13 -90q2 23 4.5 45.5t6.5 44.5h22zM596 -136q8 -3 11.5 -10
t5.5 -15.5t3 -17t4 -14.5h-28q-3 6 -4.5 14.5t-3.5 16t-6.5 12t-14.5 3.5v-46h-28v120q15 2 34.5 3t33.5 -8q17 -12 13 -31t-20 -27zM820 -193h-28q-11 21 -19.5 42.5t-19.5 41.5q2 -21 2 -42v-42h-26v121h31l37 -82q-2 20 -2 41v41h25v-121zM530 2q6 8 8 20t1.5 25.5
t-2 26.5t-1.5 22v68q0 9 0.5 17t-6.5 16h41q-6 -6 -7.5 -17t-1 -23t2 -24t1.5 -19v-89h56q12 0 30.5 -1.5t29.5 6.5q-2 -5 -4 -16.5t-7 -11.5h-141zM520 -193h-28l-8 28h-28l-6 -28h-29l32 121h35zM931 -189q-22 -8 -42.5 -4.5t-34.5 16t-18 32t8 43.5q7 16 22.5 23.5
t33.5 7.5h5.5t10 -1t9 -2t3.5 -3l-5 -22q-14 7 -26 5t-19.5 -10t-10.5 -20.5t1 -25.5q8 -25 33 -22q6 1 5 11.5t-1 14.5h-15v23h41v-66zM626 100q-7 12 -12 24.5t-10 25.5t-7 26t-13 21h43q-7 -15 0.5 -35.5t14.5 -33.5q7 16 12 34t0 35h44q-12 -7 -14.5 -21.5t-5.5 -25.5
q-4 -11 -13 -26t-9 -26q0 -12 -1.5 -30.5t6.5 -28.5h-41q10 10 8 29.5t-2 31.5zM374 150q0 9 -5 15t-12 8t-13 -1t-8 -12q-1 -8 -0.5 -16t0.5 -15q0 -20 -1 -40.5t1 -40.5q0 -8 5 -14t11.5 -8.5t12.5 0.5t8 13q2 7 1.5 15t-0.5 16v80zM490 19q-2 35 -11 70t-32 62v-125
q0 -8 6.5 -13t14 -6t14.5 1.5t8 10.5zM280 596q-15 -4 -28 -13.5t-24 -20.5q-3 -4 -8.5 -14t-9 -20.5t-2 -19t12.5 -8.5q16 0 26.5 11t16.5 26t9.5 31.5t6.5 27.5zM636 -72h28v-121h-28v121zM277 516q8 2 16 10t13.5 18.5t8 22t-0.5 19.5q-3 12 -17 12q-8 -20 -11.5 -41
t-8.5 -41zM603 398v-39h12.5t12.5 1.5t10.5 5.5t4.5 12q1 9 -3 13t-10.5 5.5t-13.5 1.5h-13zM694 614q-1 5 -2 7.5t-6 0.5q-10 -4 -15 -12t-7 -18q-1 -3 -1 -7.5t1.5 -7.5t4.5 -4t8 3q7 6 11.5 17t5.5 21zM527 574l2 -7q5 -9 13 -4q8 3 12.5 12t2.5 18q-1 6 -5 9.5t-12 -2.5
q-11 -9 -13 -26zM377 -178q0 8 5 12t11.5 4t11.5 -4t5 -12t-5 -12.5t-11.5 -4.5t-11.5 4.5t-5 12.5zM680 -178q0 8 5 12t11.5 4t11.5 -4t5 -12t-5 -12.5t-11.5 -4.5t-11.5 4.5t-5 12.5zM570 -126q10 0 14.5 5.5t3.5 12.5t-6.5 12t-14.5 4q-3 0 -4 -4.5t-1 -10t0.5 -11
t0.5 -8.5h7zM481 -144q-5 24 -11 50l-11 -50h22zM474 576q-3 -5 -7.5 -13t-3.5 -13q2 -7 9 -6t8 8q1 11 -6 24zM345 536q6 -1 15 8.5t10 14.5q2 4 -1 6.5t-7 -0.5q-6 -5 -10 -13t-7 -16zM772 675h-1q-20 -21 -27 -47q9 11 17.5 22t10.5 25zM412 599h2q0 4 1 7t-1 7
q-3 0 -4 -3q-1 -5 2 -11z" />
    <glyph glyph-name="four" unicode="4" 
d="M8 441q38 20 74.5 37t78.5 29q3 0 5 11t4.5 24.5t4.5 26t4 17.5q6 9 15.5 16t20.5 12.5t22.5 10t20.5 8.5q48 20 97 34t100 27q51 12 102 21t103 14q18 2 43.5 4.5t51.5 2t49.5 -6.5t38.5 -21q2 -3 -0.5 -16t-3.5 -18l-3 -53q0 -2 2 -2q43 -12 83 -31.5t67 -56.5v-1
q-9 2 -20.5 -2t-22.5 -11t-20.5 -15t-14.5 -14q16 -9 26.5 -26t15 -36.5t4 -39.5t-6.5 -36q-9 23 -27 36t-40.5 19t-46.5 8t-45 3q-24 2 -51 1t-50 7q-9 3 -12.5 14t-4 23.5t1.5 25t3 20.5q-100 -8 -197.5 -30.5t-190.5 -55.5q-4 -1 -4 -3q1 -6 4 -19t5.5 -27t3 -26
t-3.5 -16q-12 -10 -31 -12t-35 -4q-21 -3 -43 -6t-43 -7q-38 -8 -70 -21q-8 -4 -15.5 -7.5t-15.5 -8.5q-4 -4 -9.5 -10.5t-9.5 -8.5q6 18 13.5 36t14.5 35q1 3 7 13.5t12 22t10 21.5t3 12q-14 19 -32 36.5t-42 19.5zM819 508q3 30 3 61t2 60q1 16 2 31.5t3 30.5q1 7 -3.5 12
t-11 8t-14.5 4t-14 2q-65 10 -134 0.5t-133 -22.5q-70 -14 -138.5 -33t-134.5 -48l-25 -12.5t-24 -15.5q-11 -10 -13.5 -27t-4.5 -30q-5 -36 -5 -72v-72q5 0 12.5 3.5t15.5 8t15.5 9.5t12.5 7q20 9 41 16t41 15q84 25 171 45q42 9 84 17t85 12q40 4 84.5 5.5t82.5 -15.5z
M722 577q-5 -5 -8.5 -9t-10.5 -6q-5 -2 -8.5 0t-6.5 5q-3 -2 -7 -4.5t-9 -3.5q-17 -3 -23 11v1q-5 -5 -9.5 -9t-12.5 -6q-7 -4 -14 6q-3 6 -1.5 12t4.5 12t5 12.5t1 12.5q-9 -4 -13.5 -10.5t-6.5 -14t-3 -15.5t-4 -15q-4 -8 -14 -5q-4 1 -4 6q0 2 0.5 4.5t0.5 4.5
q-8 -2 -10.5 -2t-8.5 -6q-5 -6 -13 -10.5t-17 -4.5q-6 1 -9 4.5t-6 8.5q-9 -10 -21.5 -18.5t-26.5 -6.5q-7 1 -14 10q-6 -7 -12.5 -12.5t-14.5 -7.5q-8 -3 -12.5 0t-5.5 11q-2 14 4.5 24t11.5 21q1 2 -1.5 2.5t-3.5 -1.5q-4 -11 -9.5 -24t-14 -24.5t-19.5 -19t-26 -6.5
q-17 1 -19.5 12.5t3.5 25t17 25t23 12.5q7 0 9 -6q6 -6 1 -15q-3 -12 -14.5 -21.5t-23.5 -12.5q1 -6 5.5 -7t9.5 1.5t9.5 6t6.5 5.5q13 11 19.5 25t11.5 28q1 1 -1 5t-4 8.5t-4 9.5t-1 8q2 6 7.5 10t11.5 3q7 0 8 -7q3 -6 2 -12.5t-2 -13.5q11 2 16 0.5t-2 -15.5l-10 -18
t-6 -20q0 -5 4 -5q12 -1 19.5 10t13.5 25.5t12 28t14 18.5q4 1 8 -1q3 -4 1 -7q-2 -7 -5 -11.5t-1 -12.5q3 -7 7 -14t3 -15h1q6 6 10 15l8 18t9.5 16.5t14.5 11.5q20 7 27 -11q5 -8 3 -14t-1 -15q6 1 8 5q8 7 9.5 19t4.5 22q2 3 6 3.5t7 -0.5q5 -1 4 -7v-1q6 6 13 9
q12 6 16 -7q2 -6 0.5 -12t-4.5 -12t-5.5 -12t-1.5 -13q8 6 13 14t9.5 16.5t10 16t13.5 12.5q12 7 28 0q2 4 9.5 4.5t5.5 -7.5q-2 -11 -8 -21.5t-6 -21.5q0 -3 1.5 -3.5t3.5 1.5q11 11 16.5 26t10.5 30.5t13 29t23 22.5q8 4 13 -4q7 -13 2 -26.5t-13 -22.5q-4 -5 -10.5 -11
t-12.5 -13t-10.5 -14t-2.5 -14q1 -9 12 -7q8 3 11.5 10t8.5 14q2 2 7 1q4 0 4 -5l-2 -7q-10 -21 -29 -29q-7 -4 -13 -1.5t-10 9.5q-3 1 -3 6zM965 539q-27 26 -60.5 41.5t-68.5 25.5q-2 -31 -2.5 -61.5t-2.5 -61.5l-1 1v-3q-15 -1 -35 -2t-40 -5t-37.5 -12t-26.5 -21
q-4 -3 2 -4q15 -6 31.5 -8t33.5 -2t34 0.5t32 -0.5q34 -2 63 -10q16 -5 28 -13t26 -15q0 33 -11.5 57.5t-43.5 36.5q18 17 37 32.5t42 23.5zM162 494q-32 -8 -63 -20.5t-61 -28.5q19 -11 33.5 -26t25.5 -33q1 -2 -2 -9t-7.5 -15t-9 -15.5t-5.5 -10.5q-6 -12 -11.5 -25
t-10.5 -26q27 14 56.5 20.5t59 10.5t59 8.5t58.5 13.5q-9 10 -25 14t-34 4.5t-35.5 -1.5t-29.5 -3v71t2 71zM417 185q0 5 -5 12h31q15 -7 27.5 -28t19.5 -36q0 14 1 33t-7 31h41q-7 -6 -6.5 -13.5t0.5 -15.5v-134q0 -8 -0.5 -17t6.5 -15h-113q6 7 7.5 18.5t1 24.5t-2 25
t-1.5 21v94zM360 197q21 0 30 -11t12 -27.5t2 -35t-1 -32.5v-43q0 -26 -14.5 -36.5t-38.5 -9.5q-21 0 -30.5 11t-12.5 27.5t-2 35t1 32.5q0 11 -0.5 21t0.5 21q0 27 14.5 37t39.5 10zM301 612q7 0 11 -1q9 -1 15 -8t7 -17q2 -12 -1.5 -23.5t-10.5 -22t-16.5 -19t-19.5 -14.5
q-10 -7 -15.5 -17.5t-10 -21t-11 -20.5t-18.5 -16q-12 -8 -29 -5q-16 5 -14 21q0 11 8.5 20t19.5 11q3 1 8 -1.5t3 -7.5q-8 -4 -13 -4q-6 -2 -8.5 -9t1.5 -12q2 -3 9 -5q10 -1 17.5 6.5t12 18t7.5 22t5 19.5q-15 -15 -33 -19q-6 -1 -12.5 0t-11.5 6q-9 5 -9 20t7 28
q15 33 47 53q7 4 14 7.5t15 5.5q5 2 11.5 6.5t11.5 5.5q6 0 3 -7zM416 327q-2 8 -5.5 21t-5 26t1 25t11.5 18q6 5 17.5 5.5t15.5 -9.5q3 -9 -1 -11.5t-10 -2t-10 4t1 8.5q-9 -5 -9.5 -16t3.5 -23.5t9.5 -24.5t7.5 -19q7 -20 9.5 -47.5t-11.5 -45.5q-6 -8 -18.5 -10.5
t-27 -2.5t-28.5 1.5t-23 1.5q6 8 8 20t1.5 25.5t-2 27t-1.5 22.5v68q0 8 0.5 16t-6.5 16h41q-7 -7 -6 -17.5t1 -20.5v-76q0 -10 -1 -27.5t5 -25.5q4 -6 10 -6.5t11.5 2.5t9.5 8t5 10q4 14 1.5 29.5t-4.5 29.5zM644 352q-2 -5 -8 -16.5t-11 -24.5t-6.5 -24t5.5 -15q-3 6 3 7
t12 -1.5t7.5 -7.5t-9.5 -10q-14 -5 -19.5 5t-4.5 20q1 9 4 18t4.5 16.5t-2 12t-16.5 3.5v-85q10 0 23.5 -1.5t23.5 5.5q-3 -7 -4.5 -13.5t-3.5 -14.5h-75q6 6 6 13.5v15.5v134v16.5t-6 15.5h69q13 -14 13.5 -32.5t-5.5 -36.5zM547 416q0 -8 4 -16t7 -16.5t2.5 -16.5
t-8.5 -15q-8 -5 -18.5 -4.5t-11.5 11.5q0 6 4 9.5t8.5 3.5t8 -3t2.5 -8q7 1 7 6.5t-4 11.5t-10 11.5t-10 6.5q-8 2 -18 0t-13 -10q-7 -14 -2.5 -23.5t13.5 -17.5t20.5 -15t17.5 -15q8 -11 12 -25.5t2 -28.5t-11 -24t-26 -12q-14 -1 -29 -0.5t-29 0.5q4 2 2.5 10t-4.5 18.5
t-4.5 21t3.5 16.5q3 3 8 5t10 2t9 -2.5t5 -8.5q0 -6 -3.5 -8.5t-8 -2.5t-8 2.5t-3.5 7.5q-7 -2 -7 -8t4 -12t9.5 -10.5t9.5 -5.5q8 -2 19 -1.5t16 5.5q12 12 9.5 22.5t-11 20t-19.5 17t-17 13.5q-10 9 -16 23t-6.5 28t6.5 25.5t24 15.5q14 3 29 2t29 -1zM151 -72l-23 -121
h-23q-4 20 -6.5 40t-5.5 40q-2 -20 -5.5 -40t-7.5 -40h-23l-21 121h25q2 -22 4 -45t6 -45q2 23 5.5 45.5t7.5 44.5h21l13 -90q2 23 4.5 45.5t5.5 44.5h23zM269 -72l-23 -121h-23q-4 20 -6.5 40t-5.5 40q-2 -20 -5.5 -40t-6.5 -40h-24l-21 121h25q2 -22 4 -45t6 -45
q2 23 5.5 45.5t7.5 44.5h21l13 -90q2 23 4.5 45.5t5.5 44.5h23zM387 -72l-22 -121h-24q-4 20 -6.5 40t-5.5 40q-2 -20 -5.5 -40t-6.5 -40h-24l-21 121h25q2 -22 4.5 -45t5.5 -45q2 23 5.5 45.5t7.5 44.5h21l13 -90q2 23 4.5 45.5t6.5 44.5h22zM596 -136q8 -3 11.5 -10
t5.5 -15.5t3 -17t4 -14.5h-28q-3 6 -4.5 14.5t-3.5 16t-6.5 12t-14.5 3.5v-46h-28v120q15 2 34.5 3t33.5 -8q17 -12 13 -31t-20 -27zM820 -193h-28q-11 21 -19.5 42.5t-19.5 41.5q2 -21 2 -42v-42h-26v121h31l37 -82q-2 20 -2 41v41h25v-121zM530 2q6 8 8 20t1.5 25.5
t-2 26.5t-1.5 22v68q0 9 0.5 17t-6.5 16h41q-6 -6 -7.5 -17t-1 -23t2 -24t1.5 -19v-89h56q12 0 30.5 -1.5t29.5 6.5q-2 -5 -4 -16.5t-7 -11.5h-141zM520 -193h-28l-8 28h-28l-6 -28h-29l32 121h35zM931 -189q-22 -8 -42.5 -4.5t-34.5 16t-18 32t8 43.5q7 16 22.5 23.5
t33.5 7.5h5.5t10 -1t9 -2t3.5 -3l-5 -22q-14 7 -26 5t-19.5 -10t-10.5 -20.5t1 -25.5q8 -25 33 -22q6 1 5 11.5t-1 14.5h-15v23h41v-66zM626 100q-7 12 -12 24.5t-10 25.5t-7 26t-13 21h43q-7 -15 0.5 -35.5t14.5 -33.5q7 16 12 34t0 35h44q-12 -7 -14.5 -21.5t-5.5 -25.5
q-4 -11 -13 -26t-9 -26q0 -12 -1.5 -30.5t6.5 -28.5h-41q10 10 8 29.5t-2 31.5zM374 150q0 9 -5 15t-12 8t-13 -1t-8 -12q-1 -8 -0.5 -16t0.5 -15q0 -20 -1 -40.5t1 -40.5q0 -8 5 -14t11.5 -8.5t12.5 0.5t8 13q2 7 1.5 15t-0.5 16v80zM490 19q-2 35 -11 70t-32 62v-125
q0 -8 6.5 -13t14 -6t14.5 1.5t8 10.5zM280 596q-15 -4 -28 -13.5t-24 -20.5q-3 -4 -8.5 -14t-9 -20.5t-2 -19t12.5 -8.5q16 0 26.5 11t16.5 26t9.5 31.5t6.5 27.5zM636 -72h28v-121h-28v121zM277 516q8 2 16 10t13.5 18.5t8 22t-0.5 19.5q-3 12 -17 12q-8 -20 -11.5 -41
t-8.5 -41zM603 398v-39h12.5t12.5 1.5t10.5 5.5t4.5 12q1 9 -3 13t-10.5 5.5t-13.5 1.5h-13zM694 614q-1 5 -2 7.5t-6 0.5q-10 -4 -15 -12t-7 -18q-1 -3 -1 -7.5t1.5 -7.5t4.5 -4t8 3q7 6 11.5 17t5.5 21zM527 574l2 -7q5 -9 13 -4q8 3 12.5 12t2.5 18q-1 6 -5 9.5t-12 -2.5
q-11 -9 -13 -26zM377 -178q0 8 5 12t11.5 4t11.5 -4t5 -12t-5 -12.5t-11.5 -4.5t-11.5 4.5t-5 12.5zM680 -178q0 8 5 12t11.5 4t11.5 -4t5 -12t-5 -12.5t-11.5 -4.5t-11.5 4.5t-5 12.5zM570 -126q10 0 14.5 5.5t3.5 12.5t-6.5 12t-14.5 4q-3 0 -4 -4.5t-1 -10t0.5 -11
t0.5 -8.5h7zM481 -144q-5 24 -11 50l-11 -50h22zM474 576q-3 -5 -7.5 -13t-3.5 -13q2 -7 9 -6t8 8q1 11 -6 24zM345 536q6 -1 15 8.5t10 14.5q2 4 -1 6.5t-7 -0.5q-6 -5 -10 -13t-7 -16zM772 675h-1q-20 -21 -27 -47q9 11 17.5 22t10.5 25zM412 599h2q0 4 1 7t-1 7
q-3 0 -4 -3q-1 -5 2 -11z" />
    <glyph glyph-name="five" unicode="5" 
d="M8 441q38 20 74.5 37t78.5 29q3 0 5 11t4.5 24.5t4.5 26t4 17.5q6 9 15.5 16t20.5 12.5t22.5 10t20.5 8.5q48 20 97 34t100 27q51 12 102 21t103 14q18 2 43.5 4.5t51.5 2t49.5 -6.5t38.5 -21q2 -3 -0.5 -16t-3.5 -18l-3 -53q0 -2 2 -2q43 -12 83 -31.5t67 -56.5v-1
q-9 2 -20.5 -2t-22.5 -11t-20.5 -15t-14.5 -14q16 -9 26.5 -26t15 -36.5t4 -39.5t-6.5 -36q-9 23 -27 36t-40.5 19t-46.5 8t-45 3q-24 2 -51 1t-50 7q-9 3 -12.5 14t-4 23.5t1.5 25t3 20.5q-100 -8 -197.5 -30.5t-190.5 -55.5q-4 -1 -4 -3q1 -6 4 -19t5.5 -27t3 -26
t-3.5 -16q-12 -10 -31 -12t-35 -4q-21 -3 -43 -6t-43 -7q-38 -8 -70 -21q-8 -4 -15.5 -7.5t-15.5 -8.5q-4 -4 -9.5 -10.5t-9.5 -8.5q6 18 13.5 36t14.5 35q1 3 7 13.5t12 22t10 21.5t3 12q-14 19 -32 36.5t-42 19.5zM819 508q3 30 3 61t2 60q1 16 2 31.5t3 30.5q1 7 -3.5 12
t-11 8t-14.5 4t-14 2q-65 10 -134 0.5t-133 -22.5q-70 -14 -138.5 -33t-134.5 -48l-25 -12.5t-24 -15.5q-11 -10 -13.5 -27t-4.5 -30q-5 -36 -5 -72v-72q5 0 12.5 3.5t15.5 8t15.5 9.5t12.5 7q20 9 41 16t41 15q84 25 171 45q42 9 84 17t85 12q40 4 84.5 5.5t82.5 -15.5z
M722 577q-5 -5 -8.5 -9t-10.5 -6q-5 -2 -8.5 0t-6.5 5q-3 -2 -7 -4.5t-9 -3.5q-17 -3 -23 11v1q-5 -5 -9.5 -9t-12.5 -6q-7 -4 -14 6q-3 6 -1.5 12t4.5 12t5 12.5t1 12.5q-9 -4 -13.5 -10.5t-6.5 -14t-3 -15.5t-4 -15q-4 -8 -14 -5q-4 1 -4 6q0 2 0.5 4.5t0.5 4.5
q-8 -2 -10.5 -2t-8.5 -6q-5 -6 -13 -10.5t-17 -4.5q-6 1 -9 4.5t-6 8.5q-9 -10 -21.5 -18.5t-26.5 -6.5q-7 1 -14 10q-6 -7 -12.5 -12.5t-14.5 -7.5q-8 -3 -12.5 0t-5.5 11q-2 14 4.5 24t11.5 21q1 2 -1.5 2.5t-3.5 -1.5q-4 -11 -9.5 -24t-14 -24.5t-19.5 -19t-26 -6.5
q-17 1 -19.5 12.5t3.5 25t17 25t23 12.5q7 0 9 -6q6 -6 1 -15q-3 -12 -14.5 -21.5t-23.5 -12.5q1 -6 5.5 -7t9.5 1.5t9.5 6t6.5 5.5q13 11 19.5 25t11.5 28q1 1 -1 5t-4 8.5t-4 9.5t-1 8q2 6 7.5 10t11.5 3q7 0 8 -7q3 -6 2 -12.5t-2 -13.5q11 2 16 0.5t-2 -15.5l-10 -18
t-6 -20q0 -5 4 -5q12 -1 19.5 10t13.5 25.5t12 28t14 18.5q4 1 8 -1q3 -4 1 -7q-2 -7 -5 -11.5t-1 -12.5q3 -7 7 -14t3 -15h1q6 6 10 15l8 18t9.5 16.5t14.5 11.5q20 7 27 -11q5 -8 3 -14t-1 -15q6 1 8 5q8 7 9.5 19t4.5 22q2 3 6 3.5t7 -0.5q5 -1 4 -7v-1q6 6 13 9
q12 6 16 -7q2 -6 0.5 -12t-4.5 -12t-5.5 -12t-1.5 -13q8 6 13 14t9.5 16.5t10 16t13.5 12.5q12 7 28 0q2 4 9.5 4.5t5.5 -7.5q-2 -11 -8 -21.5t-6 -21.5q0 -3 1.5 -3.5t3.5 1.5q11 11 16.5 26t10.5 30.5t13 29t23 22.5q8 4 13 -4q7 -13 2 -26.5t-13 -22.5q-4 -5 -10.5 -11
t-12.5 -13t-10.5 -14t-2.5 -14q1 -9 12 -7q8 3 11.5 10t8.5 14q2 2 7 1q4 0 4 -5l-2 -7q-10 -21 -29 -29q-7 -4 -13 -1.5t-10 9.5q-3 1 -3 6zM965 539q-27 26 -60.5 41.5t-68.5 25.5q-2 -31 -2.5 -61.5t-2.5 -61.5l-1 1v-3q-15 -1 -35 -2t-40 -5t-37.5 -12t-26.5 -21
q-4 -3 2 -4q15 -6 31.5 -8t33.5 -2t34 0.5t32 -0.5q34 -2 63 -10q16 -5 28 -13t26 -15q0 33 -11.5 57.5t-43.5 36.5q18 17 37 32.5t42 23.5zM162 494q-32 -8 -63 -20.5t-61 -28.5q19 -11 33.5 -26t25.5 -33q1 -2 -2 -9t-7.5 -15t-9 -15.5t-5.5 -10.5q-6 -12 -11.5 -25
t-10.5 -26q27 14 56.5 20.5t59 10.5t59 8.5t58.5 13.5q-9 10 -25 14t-34 4.5t-35.5 -1.5t-29.5 -3v71t2 71zM417 185q0 5 -5 12h31q15 -7 27.5 -28t19.5 -36q0 14 1 33t-7 31h41q-7 -6 -6.5 -13.5t0.5 -15.5v-134q0 -8 -0.5 -17t6.5 -15h-113q6 7 7.5 18.5t1 24.5t-2 25
t-1.5 21v94zM360 197q21 0 30 -11t12 -27.5t2 -35t-1 -32.5v-43q0 -26 -14.5 -36.5t-38.5 -9.5q-21 0 -30.5 11t-12.5 27.5t-2 35t1 32.5q0 11 -0.5 21t0.5 21q0 27 14.5 37t39.5 10zM301 612q7 0 11 -1q9 -1 15 -8t7 -17q2 -12 -1.5 -23.5t-10.5 -22t-16.5 -19t-19.5 -14.5
q-10 -7 -15.5 -17.5t-10 -21t-11 -20.5t-18.5 -16q-12 -8 -29 -5q-16 5 -14 21q0 11 8.5 20t19.5 11q3 1 8 -1.5t3 -7.5q-8 -4 -13 -4q-6 -2 -8.5 -9t1.5 -12q2 -3 9 -5q10 -1 17.5 6.5t12 18t7.5 22t5 19.5q-15 -15 -33 -19q-6 -1 -12.5 0t-11.5 6q-9 5 -9 20t7 28
q15 33 47 53q7 4 14 7.5t15 5.5q5 2 11.5 6.5t11.5 5.5q6 0 3 -7zM416 327q-2 8 -5.5 21t-5 26t1 25t11.5 18q6 5 17.5 5.5t15.5 -9.5q3 -9 -1 -11.5t-10 -2t-10 4t1 8.5q-9 -5 -9.5 -16t3.5 -23.5t9.5 -24.5t7.5 -19q7 -20 9.5 -47.5t-11.5 -45.5q-6 -8 -18.5 -10.5
t-27 -2.5t-28.5 1.5t-23 1.5q6 8 8 20t1.5 25.5t-2 27t-1.5 22.5v68q0 8 0.5 16t-6.5 16h41q-7 -7 -6 -17.5t1 -20.5v-76q0 -10 -1 -27.5t5 -25.5q4 -6 10 -6.5t11.5 2.5t9.5 8t5 10q4 14 1.5 29.5t-4.5 29.5zM644 352q-2 -5 -8 -16.5t-11 -24.5t-6.5 -24t5.5 -15q-3 6 3 7
t12 -1.5t7.5 -7.5t-9.5 -10q-14 -5 -19.5 5t-4.5 20q1 9 4 18t4.5 16.5t-2 12t-16.5 3.5v-85q10 0 23.5 -1.5t23.5 5.5q-3 -7 -4.5 -13.5t-3.5 -14.5h-75q6 6 6 13.5v15.5v134v16.5t-6 15.5h69q13 -14 13.5 -32.5t-5.5 -36.5zM547 416q0 -8 4 -16t7 -16.5t2.5 -16.5
t-8.5 -15q-8 -5 -18.5 -4.5t-11.5 11.5q0 6 4 9.5t8.5 3.5t8 -3t2.5 -8q7 1 7 6.5t-4 11.5t-10 11.5t-10 6.5q-8 2 -18 0t-13 -10q-7 -14 -2.5 -23.5t13.5 -17.5t20.5 -15t17.5 -15q8 -11 12 -25.5t2 -28.5t-11 -24t-26 -12q-14 -1 -29 -0.5t-29 0.5q4 2 2.5 10t-4.5 18.5
t-4.5 21t3.5 16.5q3 3 8 5t10 2t9 -2.5t5 -8.5q0 -6 -3.5 -8.5t-8 -2.5t-8 2.5t-3.5 7.5q-7 -2 -7 -8t4 -12t9.5 -10.5t9.5 -5.5q8 -2 19 -1.5t16 5.5q12 12 9.5 22.5t-11 20t-19.5 17t-17 13.5q-10 9 -16 23t-6.5 28t6.5 25.5t24 15.5q14 3 29 2t29 -1zM151 -72l-23 -121
h-23q-4 20 -6.5 40t-5.5 40q-2 -20 -5.5 -40t-7.5 -40h-23l-21 121h25q2 -22 4 -45t6 -45q2 23 5.5 45.5t7.5 44.5h21l13 -90q2 23 4.5 45.5t5.5 44.5h23zM269 -72l-23 -121h-23q-4 20 -6.5 40t-5.5 40q-2 -20 -5.5 -40t-6.5 -40h-24l-21 121h25q2 -22 4 -45t6 -45
q2 23 5.5 45.5t7.5 44.5h21l13 -90q2 23 4.5 45.5t5.5 44.5h23zM387 -72l-22 -121h-24q-4 20 -6.5 40t-5.5 40q-2 -20 -5.5 -40t-6.5 -40h-24l-21 121h25q2 -22 4.5 -45t5.5 -45q2 23 5.5 45.5t7.5 44.5h21l13 -90q2 23 4.5 45.5t6.5 44.5h22zM596 -136q8 -3 11.5 -10
t5.5 -15.5t3 -17t4 -14.5h-28q-3 6 -4.5 14.5t-3.5 16t-6.5 12t-14.5 3.5v-46h-28v120q15 2 34.5 3t33.5 -8q17 -12 13 -31t-20 -27zM820 -193h-28q-11 21 -19.5 42.5t-19.5 41.5q2 -21 2 -42v-42h-26v121h31l37 -82q-2 20 -2 41v41h25v-121zM530 2q6 8 8 20t1.5 25.5
t-2 26.5t-1.5 22v68q0 9 0.5 17t-6.5 16h41q-6 -6 -7.5 -17t-1 -23t2 -24t1.5 -19v-89h56q12 0 30.5 -1.5t29.5 6.5q-2 -5 -4 -16.5t-7 -11.5h-141zM520 -193h-28l-8 28h-28l-6 -28h-29l32 121h35zM931 -189q-22 -8 -42.5 -4.5t-34.5 16t-18 32t8 43.5q7 16 22.5 23.5
t33.5 7.5h5.5t10 -1t9 -2t3.5 -3l-5 -22q-14 7 -26 5t-19.5 -10t-10.5 -20.5t1 -25.5q8 -25 33 -22q6 1 5 11.5t-1 14.5h-15v23h41v-66zM626 100q-7 12 -12 24.5t-10 25.5t-7 26t-13 21h43q-7 -15 0.5 -35.5t14.5 -33.5q7 16 12 34t0 35h44q-12 -7 -14.5 -21.5t-5.5 -25.5
q-4 -11 -13 -26t-9 -26q0 -12 -1.5 -30.5t6.5 -28.5h-41q10 10 8 29.5t-2 31.5zM374 150q0 9 -5 15t-12 8t-13 -1t-8 -12q-1 -8 -0.5 -16t0.5 -15q0 -20 -1 -40.5t1 -40.5q0 -8 5 -14t11.5 -8.5t12.5 0.5t8 13q2 7 1.5 15t-0.5 16v80zM490 19q-2 35 -11 70t-32 62v-125
q0 -8 6.5 -13t14 -6t14.5 1.5t8 10.5zM280 596q-15 -4 -28 -13.5t-24 -20.5q-3 -4 -8.5 -14t-9 -20.5t-2 -19t12.5 -8.5q16 0 26.5 11t16.5 26t9.5 31.5t6.5 27.5zM636 -72h28v-121h-28v121zM277 516q8 2 16 10t13.5 18.5t8 22t-0.5 19.5q-3 12 -17 12q-8 -20 -11.5 -41
t-8.5 -41zM603 398v-39h12.5t12.5 1.5t10.5 5.5t4.5 12q1 9 -3 13t-10.5 5.5t-13.5 1.5h-13zM694 614q-1 5 -2 7.5t-6 0.5q-10 -4 -15 -12t-7 -18q-1 -3 -1 -7.5t1.5 -7.5t4.5 -4t8 3q7 6 11.5 17t5.5 21zM527 574l2 -7q5 -9 13 -4q8 3 12.5 12t2.5 18q-1 6 -5 9.5t-12 -2.5
q-11 -9 -13 -26zM377 -178q0 8 5 12t11.5 4t11.5 -4t5 -12t-5 -12.5t-11.5 -4.5t-11.5 4.5t-5 12.5zM680 -178q0 8 5 12t11.5 4t11.5 -4t5 -12t-5 -12.5t-11.5 -4.5t-11.5 4.5t-5 12.5zM570 -126q10 0 14.5 5.5t3.5 12.5t-6.5 12t-14.5 4q-3 0 -4 -4.5t-1 -10t0.5 -11
t0.5 -8.5h7zM481 -144q-5 24 -11 50l-11 -50h22zM474 576q-3 -5 -7.5 -13t-3.5 -13q2 -7 9 -6t8 8q1 11 -6 24zM345 536q6 -1 15 8.5t10 14.5q2 4 -1 6.5t-7 -0.5q-6 -5 -10 -13t-7 -16zM772 675h-1q-20 -21 -27 -47q9 11 17.5 22t10.5 25zM412 599h2q0 4 1 7t-1 7
q-3 0 -4 -3q-1 -5 2 -11z" />
    <glyph glyph-name="six" unicode="6" 
d="M8 441q38 20 74.5 37t78.5 29q3 0 5 11t4.5 24.5t4.5 26t4 17.5q6 9 15.5 16t20.5 12.5t22.5 10t20.5 8.5q48 20 97 34t100 27q51 12 102 21t103 14q18 2 43.5 4.5t51.5 2t49.5 -6.5t38.5 -21q2 -3 -0.5 -16t-3.5 -18l-3 -53q0 -2 2 -2q43 -12 83 -31.5t67 -56.5v-1
q-9 2 -20.5 -2t-22.5 -11t-20.5 -15t-14.5 -14q16 -9 26.5 -26t15 -36.5t4 -39.5t-6.5 -36q-9 23 -27 36t-40.5 19t-46.5 8t-45 3q-24 2 -51 1t-50 7q-9 3 -12.5 14t-4 23.5t1.5 25t3 20.5q-100 -8 -197.5 -30.5t-190.5 -55.5q-4 -1 -4 -3q1 -6 4 -19t5.5 -27t3 -26
t-3.5 -16q-12 -10 -31 -12t-35 -4q-21 -3 -43 -6t-43 -7q-38 -8 -70 -21q-8 -4 -15.5 -7.5t-15.5 -8.5q-4 -4 -9.5 -10.5t-9.5 -8.5q6 18 13.5 36t14.5 35q1 3 7 13.5t12 22t10 21.5t3 12q-14 19 -32 36.5t-42 19.5zM819 508q3 30 3 61t2 60q1 16 2 31.5t3 30.5q1 7 -3.5 12
t-11 8t-14.5 4t-14 2q-65 10 -134 0.5t-133 -22.5q-70 -14 -138.5 -33t-134.5 -48l-25 -12.5t-24 -15.5q-11 -10 -13.5 -27t-4.5 -30q-5 -36 -5 -72v-72q5 0 12.5 3.5t15.5 8t15.5 9.5t12.5 7q20 9 41 16t41 15q84 25 171 45q42 9 84 17t85 12q40 4 84.5 5.5t82.5 -15.5z
M722 577q-5 -5 -8.5 -9t-10.5 -6q-5 -2 -8.5 0t-6.5 5q-3 -2 -7 -4.5t-9 -3.5q-17 -3 -23 11v1q-5 -5 -9.5 -9t-12.5 -6q-7 -4 -14 6q-3 6 -1.5 12t4.5 12t5 12.5t1 12.5q-9 -4 -13.5 -10.5t-6.5 -14t-3 -15.5t-4 -15q-4 -8 -14 -5q-4 1 -4 6q0 2 0.5 4.5t0.5 4.5
q-8 -2 -10.5 -2t-8.5 -6q-5 -6 -13 -10.5t-17 -4.5q-6 1 -9 4.5t-6 8.5q-9 -10 -21.5 -18.5t-26.5 -6.5q-7 1 -14 10q-6 -7 -12.5 -12.5t-14.5 -7.5q-8 -3 -12.5 0t-5.5 11q-2 14 4.5 24t11.5 21q1 2 -1.5 2.5t-3.5 -1.5q-4 -11 -9.5 -24t-14 -24.5t-19.5 -19t-26 -6.5
q-17 1 -19.5 12.5t3.5 25t17 25t23 12.5q7 0 9 -6q6 -6 1 -15q-3 -12 -14.5 -21.5t-23.5 -12.5q1 -6 5.5 -7t9.5 1.5t9.5 6t6.5 5.5q13 11 19.5 25t11.5 28q1 1 -1 5t-4 8.5t-4 9.5t-1 8q2 6 7.5 10t11.5 3q7 0 8 -7q3 -6 2 -12.5t-2 -13.5q11 2 16 0.5t-2 -15.5l-10 -18
t-6 -20q0 -5 4 -5q12 -1 19.5 10t13.5 25.5t12 28t14 18.5q4 1 8 -1q3 -4 1 -7q-2 -7 -5 -11.5t-1 -12.5q3 -7 7 -14t3 -15h1q6 6 10 15l8 18t9.5 16.5t14.5 11.5q20 7 27 -11q5 -8 3 -14t-1 -15q6 1 8 5q8 7 9.5 19t4.5 22q2 3 6 3.5t7 -0.5q5 -1 4 -7v-1q6 6 13 9
q12 6 16 -7q2 -6 0.5 -12t-4.5 -12t-5.5 -12t-1.5 -13q8 6 13 14t9.5 16.5t10 16t13.5 12.5q12 7 28 0q2 4 9.5 4.5t5.5 -7.5q-2 -11 -8 -21.5t-6 -21.5q0 -3 1.5 -3.5t3.5 1.5q11 11 16.5 26t10.5 30.5t13 29t23 22.5q8 4 13 -4q7 -13 2 -26.5t-13 -22.5q-4 -5 -10.5 -11
t-12.5 -13t-10.5 -14t-2.5 -14q1 -9 12 -7q8 3 11.5 10t8.5 14q2 2 7 1q4 0 4 -5l-2 -7q-10 -21 -29 -29q-7 -4 -13 -1.5t-10 9.5q-3 1 -3 6zM965 539q-27 26 -60.5 41.5t-68.5 25.5q-2 -31 -2.5 -61.5t-2.5 -61.5l-1 1v-3q-15 -1 -35 -2t-40 -5t-37.5 -12t-26.5 -21
q-4 -3 2 -4q15 -6 31.5 -8t33.5 -2t34 0.5t32 -0.5q34 -2 63 -10q16 -5 28 -13t26 -15q0 33 -11.5 57.5t-43.5 36.5q18 17 37 32.5t42 23.5zM162 494q-32 -8 -63 -20.5t-61 -28.5q19 -11 33.5 -26t25.5 -33q1 -2 -2 -9t-7.5 -15t-9 -15.5t-5.5 -10.5q-6 -12 -11.5 -25
t-10.5 -26q27 14 56.5 20.5t59 10.5t59 8.5t58.5 13.5q-9 10 -25 14t-34 4.5t-35.5 -1.5t-29.5 -3v71t2 71zM417 185q0 5 -5 12h31q15 -7 27.5 -28t19.5 -36q0 14 1 33t-7 31h41q-7 -6 -6.5 -13.5t0.5 -15.5v-134q0 -8 -0.5 -17t6.5 -15h-113q6 7 7.5 18.5t1 24.5t-2 25
t-1.5 21v94zM360 197q21 0 30 -11t12 -27.5t2 -35t-1 -32.5v-43q0 -26 -14.5 -36.5t-38.5 -9.5q-21 0 -30.5 11t-12.5 27.5t-2 35t1 32.5q0 11 -0.5 21t0.5 21q0 27 14.5 37t39.5 10zM301 612q7 0 11 -1q9 -1 15 -8t7 -17q2 -12 -1.5 -23.5t-10.5 -22t-16.5 -19t-19.5 -14.5
q-10 -7 -15.5 -17.5t-10 -21t-11 -20.5t-18.5 -16q-12 -8 -29 -5q-16 5 -14 21q0 11 8.5 20t19.5 11q3 1 8 -1.5t3 -7.5q-8 -4 -13 -4q-6 -2 -8.5 -9t1.5 -12q2 -3 9 -5q10 -1 17.5 6.5t12 18t7.5 22t5 19.5q-15 -15 -33 -19q-6 -1 -12.5 0t-11.5 6q-9 5 -9 20t7 28
q15 33 47 53q7 4 14 7.5t15 5.5q5 2 11.5 6.5t11.5 5.5q6 0 3 -7zM416 327q-2 8 -5.5 21t-5 26t1 25t11.5 18q6 5 17.5 5.5t15.5 -9.5q3 -9 -1 -11.5t-10 -2t-10 4t1 8.5q-9 -5 -9.5 -16t3.5 -23.5t9.5 -24.5t7.5 -19q7 -20 9.5 -47.5t-11.5 -45.5q-6 -8 -18.5 -10.5
t-27 -2.5t-28.5 1.5t-23 1.5q6 8 8 20t1.5 25.5t-2 27t-1.5 22.5v68q0 8 0.5 16t-6.5 16h41q-7 -7 -6 -17.5t1 -20.5v-76q0 -10 -1 -27.5t5 -25.5q4 -6 10 -6.5t11.5 2.5t9.5 8t5 10q4 14 1.5 29.5t-4.5 29.5zM644 352q-2 -5 -8 -16.5t-11 -24.5t-6.5 -24t5.5 -15q-3 6 3 7
t12 -1.5t7.5 -7.5t-9.5 -10q-14 -5 -19.5 5t-4.5 20q1 9 4 18t4.5 16.5t-2 12t-16.5 3.5v-85q10 0 23.5 -1.5t23.5 5.5q-3 -7 -4.5 -13.5t-3.5 -14.5h-75q6 6 6 13.5v15.5v134v16.5t-6 15.5h69q13 -14 13.5 -32.5t-5.5 -36.5zM547 416q0 -8 4 -16t7 -16.5t2.5 -16.5
t-8.5 -15q-8 -5 -18.5 -4.5t-11.5 11.5q0 6 4 9.5t8.5 3.5t8 -3t2.5 -8q7 1 7 6.5t-4 11.5t-10 11.5t-10 6.5q-8 2 -18 0t-13 -10q-7 -14 -2.5 -23.5t13.5 -17.5t20.5 -15t17.5 -15q8 -11 12 -25.5t2 -28.5t-11 -24t-26 -12q-14 -1 -29 -0.5t-29 0.5q4 2 2.5 10t-4.5 18.5
t-4.5 21t3.5 16.5q3 3 8 5t10 2t9 -2.5t5 -8.5q0 -6 -3.5 -8.5t-8 -2.5t-8 2.5t-3.5 7.5q-7 -2 -7 -8t4 -12t9.5 -10.5t9.5 -5.5q8 -2 19 -1.5t16 5.5q12 12 9.5 22.5t-11 20t-19.5 17t-17 13.5q-10 9 -16 23t-6.5 28t6.5 25.5t24 15.5q14 3 29 2t29 -1zM151 -72l-23 -121
h-23q-4 20 -6.5 40t-5.5 40q-2 -20 -5.5 -40t-7.5 -40h-23l-21 121h25q2 -22 4 -45t6 -45q2 23 5.5 45.5t7.5 44.5h21l13 -90q2 23 4.5 45.5t5.5 44.5h23zM269 -72l-23 -121h-23q-4 20 -6.5 40t-5.5 40q-2 -20 -5.5 -40t-6.5 -40h-24l-21 121h25q2 -22 4 -45t6 -45
q2 23 5.5 45.5t7.5 44.5h21l13 -90q2 23 4.5 45.5t5.5 44.5h23zM387 -72l-22 -121h-24q-4 20 -6.5 40t-5.5 40q-2 -20 -5.5 -40t-6.5 -40h-24l-21 121h25q2 -22 4.5 -45t5.5 -45q2 23 5.5 45.5t7.5 44.5h21l13 -90q2 23 4.5 45.5t6.5 44.5h22zM596 -136q8 -3 11.5 -10
t5.5 -15.5t3 -17t4 -14.5h-28q-3 6 -4.5 14.5t-3.5 16t-6.5 12t-14.5 3.5v-46h-28v120q15 2 34.5 3t33.5 -8q17 -12 13 -31t-20 -27zM820 -193h-28q-11 21 -19.5 42.5t-19.5 41.5q2 -21 2 -42v-42h-26v121h31l37 -82q-2 20 -2 41v41h25v-121zM530 2q6 8 8 20t1.5 25.5
t-2 26.5t-1.5 22v68q0 9 0.5 17t-6.5 16h41q-6 -6 -7.5 -17t-1 -23t2 -24t1.5 -19v-89h56q12 0 30.5 -1.5t29.5 6.5q-2 -5 -4 -16.5t-7 -11.5h-141zM520 -193h-28l-8 28h-28l-6 -28h-29l32 121h35zM931 -189q-22 -8 -42.5 -4.5t-34.5 16t-18 32t8 43.5q7 16 22.5 23.5
t33.5 7.5h5.5t10 -1t9 -2t3.5 -3l-5 -22q-14 7 -26 5t-19.5 -10t-10.5 -20.5t1 -25.5q8 -25 33 -22q6 1 5 11.5t-1 14.5h-15v23h41v-66zM626 100q-7 12 -12 24.5t-10 25.5t-7 26t-13 21h43q-7 -15 0.5 -35.5t14.5 -33.5q7 16 12 34t0 35h44q-12 -7 -14.5 -21.5t-5.5 -25.5
q-4 -11 -13 -26t-9 -26q0 -12 -1.5 -30.5t6.5 -28.5h-41q10 10 8 29.5t-2 31.5zM374 150q0 9 -5 15t-12 8t-13 -1t-8 -12q-1 -8 -0.5 -16t0.5 -15q0 -20 -1 -40.5t1 -40.5q0 -8 5 -14t11.5 -8.5t12.5 0.5t8 13q2 7 1.5 15t-0.5 16v80zM490 19q-2 35 -11 70t-32 62v-125
q0 -8 6.5 -13t14 -6t14.5 1.5t8 10.5zM280 596q-15 -4 -28 -13.5t-24 -20.5q-3 -4 -8.5 -14t-9 -20.5t-2 -19t12.5 -8.5q16 0 26.5 11t16.5 26t9.5 31.5t6.5 27.5zM636 -72h28v-121h-28v121zM277 516q8 2 16 10t13.5 18.5t8 22t-0.5 19.5q-3 12 -17 12q-8 -20 -11.5 -41
t-8.5 -41zM603 398v-39h12.5t12.5 1.5t10.5 5.5t4.5 12q1 9 -3 13t-10.5 5.5t-13.5 1.5h-13zM694 614q-1 5 -2 7.5t-6 0.5q-10 -4 -15 -12t-7 -18q-1 -3 -1 -7.5t1.5 -7.5t4.5 -4t8 3q7 6 11.5 17t5.5 21zM527 574l2 -7q5 -9 13 -4q8 3 12.5 12t2.5 18q-1 6 -5 9.5t-12 -2.5
q-11 -9 -13 -26zM377 -178q0 8 5 12t11.5 4t11.5 -4t5 -12t-5 -12.5t-11.5 -4.5t-11.5 4.5t-5 12.5zM680 -178q0 8 5 12t11.5 4t11.5 -4t5 -12t-5 -12.5t-11.5 -4.5t-11.5 4.5t-5 12.5zM570 -126q10 0 14.5 5.5t3.5 12.5t-6.5 12t-14.5 4q-3 0 -4 -4.5t-1 -10t0.5 -11
t0.5 -8.5h7zM481 -144q-5 24 -11 50l-11 -50h22zM474 576q-3 -5 -7.5 -13t-3.5 -13q2 -7 9 -6t8 8q1 11 -6 24zM345 536q6 -1 15 8.5t10 14.5q2 4 -1 6.5t-7 -0.5q-6 -5 -10 -13t-7 -16zM772 675h-1q-20 -21 -27 -47q9 11 17.5 22t10.5 25zM412 599h2q0 4 1 7t-1 7
q-3 0 -4 -3q-1 -5 2 -11z" />
    <glyph glyph-name="seven" unicode="7" 
d="M8 441q38 20 74.5 37t78.5 29q3 0 5 11t4.5 24.5t4.5 26t4 17.5q6 9 15.5 16t20.5 12.5t22.5 10t20.5 8.5q48 20 97 34t100 27q51 12 102 21t103 14q18 2 43.5 4.5t51.5 2t49.5 -6.5t38.5 -21q2 -3 -0.5 -16t-3.5 -18l-3 -53q0 -2 2 -2q43 -12 83 -31.5t67 -56.5v-1
q-9 2 -20.5 -2t-22.5 -11t-20.5 -15t-14.5 -14q16 -9 26.5 -26t15 -36.5t4 -39.5t-6.5 -36q-9 23 -27 36t-40.5 19t-46.5 8t-45 3q-24 2 -51 1t-50 7q-9 3 -12.5 14t-4 23.5t1.5 25t3 20.5q-100 -8 -197.5 -30.5t-190.5 -55.5q-4 -1 -4 -3q1 -6 4 -19t5.5 -27t3 -26
t-3.5 -16q-12 -10 -31 -12t-35 -4q-21 -3 -43 -6t-43 -7q-38 -8 -70 -21q-8 -4 -15.5 -7.5t-15.5 -8.5q-4 -4 -9.5 -10.5t-9.5 -8.5q6 18 13.5 36t14.5 35q1 3 7 13.5t12 22t10 21.5t3 12q-14 19 -32 36.5t-42 19.5zM819 508q3 30 3 61t2 60q1 16 2 31.5t3 30.5q1 7 -3.5 12
t-11 8t-14.5 4t-14 2q-65 10 -134 0.5t-133 -22.5q-70 -14 -138.5 -33t-134.5 -48l-25 -12.5t-24 -15.5q-11 -10 -13.5 -27t-4.5 -30q-5 -36 -5 -72v-72q5 0 12.5 3.5t15.5 8t15.5 9.5t12.5 7q20 9 41 16t41 15q84 25 171 45q42 9 84 17t85 12q40 4 84.5 5.5t82.5 -15.5z
M722 577q-5 -5 -8.5 -9t-10.5 -6q-5 -2 -8.5 0t-6.5 5q-3 -2 -7 -4.5t-9 -3.5q-17 -3 -23 11v1q-5 -5 -9.5 -9t-12.5 -6q-7 -4 -14 6q-3 6 -1.5 12t4.5 12t5 12.5t1 12.5q-9 -4 -13.5 -10.5t-6.5 -14t-3 -15.5t-4 -15q-4 -8 -14 -5q-4 1 -4 6q0 2 0.5 4.5t0.5 4.5
q-8 -2 -10.5 -2t-8.5 -6q-5 -6 -13 -10.5t-17 -4.5q-6 1 -9 4.5t-6 8.5q-9 -10 -21.5 -18.5t-26.5 -6.5q-7 1 -14 10q-6 -7 -12.5 -12.5t-14.5 -7.5q-8 -3 -12.5 0t-5.5 11q-2 14 4.5 24t11.5 21q1 2 -1.5 2.5t-3.5 -1.5q-4 -11 -9.5 -24t-14 -24.5t-19.5 -19t-26 -6.5
q-17 1 -19.5 12.5t3.5 25t17 25t23 12.5q7 0 9 -6q6 -6 1 -15q-3 -12 -14.5 -21.5t-23.5 -12.5q1 -6 5.5 -7t9.5 1.5t9.5 6t6.5 5.5q13 11 19.5 25t11.5 28q1 1 -1 5t-4 8.5t-4 9.5t-1 8q2 6 7.5 10t11.5 3q7 0 8 -7q3 -6 2 -12.5t-2 -13.5q11 2 16 0.5t-2 -15.5l-10 -18
t-6 -20q0 -5 4 -5q12 -1 19.5 10t13.5 25.5t12 28t14 18.5q4 1 8 -1q3 -4 1 -7q-2 -7 -5 -11.5t-1 -12.5q3 -7 7 -14t3 -15h1q6 6 10 15l8 18t9.5 16.5t14.5 11.5q20 7 27 -11q5 -8 3 -14t-1 -15q6 1 8 5q8 7 9.5 19t4.5 22q2 3 6 3.5t7 -0.5q5 -1 4 -7v-1q6 6 13 9
q12 6 16 -7q2 -6 0.5 -12t-4.5 -12t-5.5 -12t-1.5 -13q8 6 13 14t9.5 16.5t10 16t13.5 12.5q12 7 28 0q2 4 9.5 4.5t5.5 -7.5q-2 -11 -8 -21.5t-6 -21.5q0 -3 1.5 -3.5t3.5 1.5q11 11 16.5 26t10.5 30.5t13 29t23 22.5q8 4 13 -4q7 -13 2 -26.5t-13 -22.5q-4 -5 -10.5 -11
t-12.5 -13t-10.5 -14t-2.5 -14q1 -9 12 -7q8 3 11.5 10t8.5 14q2 2 7 1q4 0 4 -5l-2 -7q-10 -21 -29 -29q-7 -4 -13 -1.5t-10 9.5q-3 1 -3 6zM965 539q-27 26 -60.5 41.5t-68.5 25.5q-2 -31 -2.5 -61.5t-2.5 -61.5l-1 1v-3q-15 -1 -35 -2t-40 -5t-37.5 -12t-26.5 -21
q-4 -3 2 -4q15 -6 31.5 -8t33.5 -2t34 0.5t32 -0.5q34 -2 63 -10q16 -5 28 -13t26 -15q0 33 -11.5 57.5t-43.5 36.5q18 17 37 32.5t42 23.5zM162 494q-32 -8 -63 -20.5t-61 -28.5q19 -11 33.5 -26t25.5 -33q1 -2 -2 -9t-7.5 -15t-9 -15.5t-5.5 -10.5q-6 -12 -11.5 -25
t-10.5 -26q27 14 56.5 20.5t59 10.5t59 8.5t58.5 13.5q-9 10 -25 14t-34 4.5t-35.5 -1.5t-29.5 -3v71t2 71zM417 185q0 5 -5 12h31q15 -7 27.5 -28t19.5 -36q0 14 1 33t-7 31h41q-7 -6 -6.5 -13.5t0.5 -15.5v-134q0 -8 -0.5 -17t6.5 -15h-113q6 7 7.5 18.5t1 24.5t-2 25
t-1.5 21v94zM360 197q21 0 30 -11t12 -27.5t2 -35t-1 -32.5v-43q0 -26 -14.5 -36.5t-38.5 -9.5q-21 0 -30.5 11t-12.5 27.5t-2 35t1 32.5q0 11 -0.5 21t0.5 21q0 27 14.5 37t39.5 10zM301 612q7 0 11 -1q9 -1 15 -8t7 -17q2 -12 -1.5 -23.5t-10.5 -22t-16.5 -19t-19.5 -14.5
q-10 -7 -15.5 -17.5t-10 -21t-11 -20.5t-18.5 -16q-12 -8 -29 -5q-16 5 -14 21q0 11 8.5 20t19.5 11q3 1 8 -1.5t3 -7.5q-8 -4 -13 -4q-6 -2 -8.5 -9t1.5 -12q2 -3 9 -5q10 -1 17.5 6.5t12 18t7.5 22t5 19.5q-15 -15 -33 -19q-6 -1 -12.5 0t-11.5 6q-9 5 -9 20t7 28
q15 33 47 53q7 4 14 7.5t15 5.5q5 2 11.5 6.5t11.5 5.5q6 0 3 -7zM416 327q-2 8 -5.5 21t-5 26t1 25t11.5 18q6 5 17.5 5.5t15.5 -9.5q3 -9 -1 -11.5t-10 -2t-10 4t1 8.5q-9 -5 -9.5 -16t3.5 -23.5t9.5 -24.5t7.5 -19q7 -20 9.5 -47.5t-11.5 -45.5q-6 -8 -18.5 -10.5
t-27 -2.5t-28.5 1.5t-23 1.5q6 8 8 20t1.5 25.5t-2 27t-1.5 22.5v68q0 8 0.5 16t-6.5 16h41q-7 -7 -6 -17.5t1 -20.5v-76q0 -10 -1 -27.5t5 -25.5q4 -6 10 -6.5t11.5 2.5t9.5 8t5 10q4 14 1.5 29.5t-4.5 29.5zM644 352q-2 -5 -8 -16.5t-11 -24.5t-6.5 -24t5.5 -15q-3 6 3 7
t12 -1.5t7.5 -7.5t-9.5 -10q-14 -5 -19.5 5t-4.5 20q1 9 4 18t4.5 16.5t-2 12t-16.5 3.5v-85q10 0 23.5 -1.5t23.5 5.5q-3 -7 -4.5 -13.5t-3.5 -14.5h-75q6 6 6 13.5v15.5v134v16.5t-6 15.5h69q13 -14 13.5 -32.5t-5.5 -36.5zM547 416q0 -8 4 -16t7 -16.5t2.5 -16.5
t-8.5 -15q-8 -5 -18.5 -4.5t-11.5 11.5q0 6 4 9.5t8.5 3.5t8 -3t2.5 -8q7 1 7 6.5t-4 11.5t-10 11.5t-10 6.5q-8 2 -18 0t-13 -10q-7 -14 -2.5 -23.5t13.5 -17.5t20.5 -15t17.5 -15q8 -11 12 -25.5t2 -28.5t-11 -24t-26 -12q-14 -1 -29 -0.5t-29 0.5q4 2 2.5 10t-4.5 18.5
t-4.5 21t3.5 16.5q3 3 8 5t10 2t9 -2.5t5 -8.5q0 -6 -3.5 -8.5t-8 -2.5t-8 2.5t-3.5 7.5q-7 -2 -7 -8t4 -12t9.5 -10.5t9.5 -5.5q8 -2 19 -1.5t16 5.5q12 12 9.5 22.5t-11 20t-19.5 17t-17 13.5q-10 9 -16 23t-6.5 28t6.5 25.5t24 15.5q14 3 29 2t29 -1zM151 -72l-23 -121
h-23q-4 20 -6.5 40t-5.5 40q-2 -20 -5.5 -40t-7.5 -40h-23l-21 121h25q2 -22 4 -45t6 -45q2 23 5.5 45.5t7.5 44.5h21l13 -90q2 23 4.5 45.5t5.5 44.5h23zM269 -72l-23 -121h-23q-4 20 -6.5 40t-5.5 40q-2 -20 -5.5 -40t-6.5 -40h-24l-21 121h25q2 -22 4 -45t6 -45
q2 23 5.5 45.5t7.5 44.5h21l13 -90q2 23 4.5 45.5t5.5 44.5h23zM387 -72l-22 -121h-24q-4 20 -6.5 40t-5.5 40q-2 -20 -5.5 -40t-6.5 -40h-24l-21 121h25q2 -22 4.5 -45t5.5 -45q2 23 5.5 45.5t7.5 44.5h21l13 -90q2 23 4.5 45.5t6.5 44.5h22zM596 -136q8 -3 11.5 -10
t5.5 -15.5t3 -17t4 -14.5h-28q-3 6 -4.5 14.5t-3.5 16t-6.5 12t-14.5 3.5v-46h-28v120q15 2 34.5 3t33.5 -8q17 -12 13 -31t-20 -27zM820 -193h-28q-11 21 -19.5 42.5t-19.5 41.5q2 -21 2 -42v-42h-26v121h31l37 -82q-2 20 -2 41v41h25v-121zM530 2q6 8 8 20t1.5 25.5
t-2 26.5t-1.5 22v68q0 9 0.5 17t-6.5 16h41q-6 -6 -7.5 -17t-1 -23t2 -24t1.5 -19v-89h56q12 0 30.5 -1.5t29.5 6.5q-2 -5 -4 -16.5t-7 -11.5h-141zM520 -193h-28l-8 28h-28l-6 -28h-29l32 121h35zM931 -189q-22 -8 -42.5 -4.5t-34.5 16t-18 32t8 43.5q7 16 22.5 23.5
t33.5 7.5h5.5t10 -1t9 -2t3.5 -3l-5 -22q-14 7 -26 5t-19.5 -10t-10.5 -20.5t1 -25.5q8 -25 33 -22q6 1 5 11.5t-1 14.5h-15v23h41v-66zM626 100q-7 12 -12 24.5t-10 25.5t-7 26t-13 21h43q-7 -15 0.5 -35.5t14.5 -33.5q7 16 12 34t0 35h44q-12 -7 -14.5 -21.5t-5.5 -25.5
q-4 -11 -13 -26t-9 -26q0 -12 -1.5 -30.5t6.5 -28.5h-41q10 10 8 29.5t-2 31.5zM374 150q0 9 -5 15t-12 8t-13 -1t-8 -12q-1 -8 -0.5 -16t0.5 -15q0 -20 -1 -40.5t1 -40.5q0 -8 5 -14t11.5 -8.5t12.5 0.5t8 13q2 7 1.5 15t-0.5 16v80zM490 19q-2 35 -11 70t-32 62v-125
q0 -8 6.5 -13t14 -6t14.5 1.5t8 10.5zM280 596q-15 -4 -28 -13.5t-24 -20.5q-3 -4 -8.5 -14t-9 -20.5t-2 -19t12.5 -8.5q16 0 26.5 11t16.5 26t9.5 31.5t6.5 27.5zM636 -72h28v-121h-28v121zM277 516q8 2 16 10t13.5 18.5t8 22t-0.5 19.5q-3 12 -17 12q-8 -20 -11.5 -41
t-8.5 -41zM603 398v-39h12.5t12.5 1.5t10.5 5.5t4.5 12q1 9 -3 13t-10.5 5.5t-13.5 1.5h-13zM694 614q-1 5 -2 7.5t-6 0.5q-10 -4 -15 -12t-7 -18q-1 -3 -1 -7.5t1.5 -7.5t4.5 -4t8 3q7 6 11.5 17t5.5 21zM527 574l2 -7q5 -9 13 -4q8 3 12.5 12t2.5 18q-1 6 -5 9.5t-12 -2.5
q-11 -9 -13 -26zM377 -178q0 8 5 12t11.5 4t11.5 -4t5 -12t-5 -12.5t-11.5 -4.5t-11.5 4.5t-5 12.5zM680 -178q0 8 5 12t11.5 4t11.5 -4t5 -12t-5 -12.5t-11.5 -4.5t-11.5 4.5t-5 12.5zM570 -126q10 0 14.5 5.5t3.5 12.5t-6.5 12t-14.5 4q-3 0 -4 -4.5t-1 -10t0.5 -11
t0.5 -8.5h7zM481 -144q-5 24 -11 50l-11 -50h22zM474 576q-3 -5 -7.5 -13t-3.5 -13q2 -7 9 -6t8 8q1 11 -6 24zM345 536q6 -1 15 8.5t10 14.5q2 4 -1 6.5t-7 -0.5q-6 -5 -10 -13t-7 -16zM772 675h-1q-20 -21 -27 -47q9 11 17.5 22t10.5 25zM412 599h2q0 4 1 7t-1 7
q-3 0 -4 -3q-1 -5 2 -11z" />
    </font>
</defs>
</svg>
